<svg width="69" height="131" viewBox="0 0 69 131" fill="none" xmlns="http://www.w3.org/2000/svg">
<path d="M48.9084 123.829L48.3544 124.199L48.1698 124.63L48.0466 124.815L47.6773 124.938H47.308L45.8922 124.076L45.5844 124.137L45.8922 123.768L46.754 123.46L47.2464 123.029L48.416 123.46L48.9084 123.829ZM27.5481 94.7645L27.8558 94.9492L28.5945 94.8876L28.3483 95.3802L27.5481 95.9344L26.994 96.427L26.3785 96.8581L26.0707 96.3655H25.7013L25.1473 95.3802L25.0242 93.9639L25.7629 93.5944H26.7478L27.5481 94.7645ZM12.7127 72.4115L13.6977 72.7194H14.4363L15.0518 73.5815L15.4213 74.9362L16.2214 76.291L17.2679 77.4609L17.3295 78.1999L16.9602 78.5693L16.1599 79.062V79.5546L16.6524 79.3083L17.0832 79.1852L18.1297 79.3083L18.4991 79.8009L18.7453 80.5398L18.8685 81.1557L18.8068 81.833L18.4991 81.5867L18.1913 80.9709L17.8835 80.663L17.5142 80.5398L17.6989 81.4019L17.6373 82.5103L17.822 82.6335H18.3145L18.0067 83.8035L17.3295 84.1114L16.5293 84.2346L16.3446 84.6656L16.2214 85.1582L15.7906 85.9588L15.2366 86.3898L14.5595 86.3282L13.8823 85.9588L13.2667 85.8972L12.8359 86.0819L12.5896 86.2666L12.3434 86.2051L11.6046 86.2666H10.9275L10.8045 85.9588L10.9275 85.0351L10.7428 84.7888L10.0657 84.6656L9.81952 84.4193L9.45019 83.8035L9.38857 83.4956L9.32705 83.0646L8.8961 82.5103L8.40372 82.1409H8.09592L7.54192 82.7567L7.04945 83.3725L7.23412 83.6803L7.35716 84.1114L7.11098 84.4193L6.3107 85.0967L6.18765 85.343L6.00299 85.4661L5.63357 85.2814L4.71024 85.343L4.27929 85.2198L3.78692 84.7272L2.5557 84.4193L2.37103 83.6188L2.12484 83.4956L0.770572 82.1409L0.585907 81.7098L0.770572 81.4635L1.26304 81.0325L2.98664 80.3551L3.23283 80.1088L3.29445 79.8625L2.80198 79.5546L2.37103 79.2467L2.24798 79.062V78.8773L2.49417 78.6309H2.98664L3.41749 78.7541L3.7253 78.5693L4.27929 78.3846L4.64872 78.1383L4.95643 77.4609L5.32585 76.8452L5.38738 76.5373L5.69518 75.3673L5.87985 75.0594L6.98784 74.3205L7.23412 74.7515L7.78811 74.8747L8.28058 74.5052L8.83458 73.2736L9.20391 73.2121L9.63485 73.3352L10.4967 73.2121L12.0356 72.6578L12.7127 72.4115ZM21.3923 69.8868H20.5305L20.2227 69.7637L19.8534 69.4558L19.4225 67.7931L19.5456 67.1774L19.7303 66.8695L19.9149 66.6232L20.3458 66.5616L20.7767 66.8695L20.9614 67.1774L21.3307 68.2858L21.3923 69.2711V69.8868ZM14.4363 64.0985L14.6825 65.6379L14.9288 66.6232V66.9311L14.6825 67.3621L13.5745 67.9779H13.2052V67.8547L13.4514 67.239L13.2052 66.5616L13.3282 66.0074L13.2052 65.8842L12.9589 65.9458L12.1587 66.8079L11.9124 66.8695V66.6847L12.0971 66.0074V65.5148L12.2203 65.2069L12.4664 64.9606L12.7127 64.7758H12.8974L13.1436 64.9606L13.8207 64.4064L14.4363 64.0985ZM15.4828 65.5148L15.3596 65.6379L14.9903 65.5763L14.8672 65.3916L14.8057 65.0837V64.5295L14.9903 64.1601L15.8521 63.5443L15.4213 63.3596V63.2364L15.6675 62.7437L16.5908 61.9432L16.8371 61.8201H17.0832L16.5908 63.1748L15.4828 65.5148ZM16.7755 59.0491L14.067 59.7264L13.1436 59.6648L13.0821 59.357L13.2667 59.1106L14.067 58.8643L14.3748 57.2017L13.2052 56.4628L13.1436 56.278L13.2052 55.9085L13.3282 55.7238L14.067 55.3544L14.3748 55.2928L14.621 55.3544L15.1135 55.7854L15.6675 56.7091L16.4061 56.8322L16.8986 57.2017L16.7755 59.0491ZM11.1738 56.0933L10.8045 56.1549V55.9701L11.4816 55.108L11.9124 54.9849L12.0356 55.0465L11.7278 55.5391L11.1738 56.0933ZM5.63357 51.3518L5.01805 51.5365L4.77177 51.4134L4.71024 51.2286L4.83338 50.7976L5.26424 50.6744L5.57204 50.9207L5.63357 51.1055V51.3518ZM13.3899 51.3518L13.2052 51.5365L12.9589 51.475L12.7127 51.2902L12.4049 50.6744L13.1436 50.2434L13.4514 50.4897L13.5745 50.736V51.0439L13.3899 51.3518ZM6.80317 49.5045L6.49537 49.566L6.12604 49.5045L5.87985 49.3197L5.63357 48.5808L5.57204 48.0881L5.69518 47.226V46.1792L6.49537 46.1176L6.68012 46.2408L6.80317 49.3197V49.5045ZM14.3132 44.5782V45.1324L14.19 45.8097L14.3748 46.4871L14.4363 46.9797L14.7441 47.1644L14.9288 47.4108L16.2214 47.6571L17.3911 47.5955L17.6373 47.7802V48.0881L17.4527 48.4576L16.7755 49.1349L15.9753 50.1818L15.729 50.4281H15.4828L15.2981 50.305L15.175 48.4576L14.3132 48.7039H13.636L13.2667 48.4576L13.0205 48.0265L12.4664 46.9181L10.866 46.4871L10.435 45.8713L10.312 45.5019L10.3735 45.3171L10.6813 44.8245L11.1122 45.0092L11.3585 44.8861L11.5431 44.7013V44.5166L11.2969 44.0855V43.9624L12.8974 43.4698L13.0205 42.6693L13.3899 42.6077L13.8207 42.854L14.3748 43.7161L14.3132 44.5782ZM7.04945 42.3614L7.78811 43.1003L7.1725 44.2703H6.24918L4.95643 43.4082V43.2234L5.07957 42.9771L5.26424 42.7924L5.4489 42.7308L5.75671 42.854L6.18765 42.6077L6.55698 42.6693L7.04945 42.3614ZM13.9439 33.6173L13.0821 35.8956L12.7127 35.9572L12.4049 36.5114L11.4816 37.1272H12.2818L12.5281 37.3119V37.743L12.4049 37.9893L11.3585 39.0361L10.6198 39.4056L9.81952 40.4524H9.45019L9.08086 41.1298L8.77305 41.4377H8.58839L8.40372 41.3145L7.91125 40.6372L8.77305 39.9598L8.83458 39.5903L9.45019 39.2208L9.38857 39.0977L8.46525 38.5435L8.09592 38.174L8.15744 37.9893L8.58839 37.5583L8.40372 37.4967L8.28058 37.2503L8.0343 37.1888L7.97278 37.004L7.91125 36.4498L7.97278 35.8956L8.21906 35.6493L8.34211 35.403L8.46525 35.3414L8.8961 35.4646L9.32705 35.8956L9.81952 35.7109L10.435 35.7725V35.6493L10.0042 34.5409L10.0657 34.2946L10.312 34.0483L11.6663 33.2478L13.3282 31.8931L13.7592 31.7083L13.8823 31.8931L14.067 32.5704L13.9439 33.6173ZM34.9965 31.5852L35.058 32.632L34.9965 32.9399L34.8118 33.3093L34.3193 34.0483L32.9651 35.0951L30.5028 37.4967L29.0254 38.6667L28.8407 39.2208L28.7176 40.0214L29.5794 40.2061L29.9488 40.4524L29.7641 40.8835L28.4714 42.2998L28.1021 43.5929L29.087 43.5314L29.8872 43.285L31.5493 42.4845L33.0882 41.8687H33.8269L35.2428 42.3614H35.5505L36.1661 42.115L36.7817 42.0534L40.9675 42.1766L42.1372 41.9303L42.8758 42.2382L43.4914 43.0387L44.1069 44.5166V44.7629L43.7376 45.4403L43.0605 46.3024L42.445 47.4724L42.2603 48.0881L42.1372 48.7655L41.9525 49.3813L40.7829 52.337L39.6748 53.9996L39.1824 55.1696L38.5668 56.0933L37.9512 56.6475L37.3357 57.017L35.4889 57.448L34.9965 57.7559L34.381 58.2486L33.7038 58.4949L34.4425 58.4333L35.1811 58.1254L36.5354 58.0022L38.1359 58.9875L38.0128 59.788L37.3972 60.4038L35.9199 60.5269L34.5656 61.9432L33.95 62.3743L33.3344 62.559L32.5342 62.4974L31.0568 62.128L30.4412 61.7585L30.9953 62.3743L31.6724 62.6822L35.4889 63.4827L35.7351 63.4211L36.9664 62.6206H38.5668L41.6447 64.1601L42.5065 65.3301L43.7992 66.9926L44.4764 67.6084L44.9687 68.1627L45.2765 69.0247L45.8922 71.8573L46.5693 74.6283L47.4311 77.5841L47.8619 78.3846L48.416 78.9388L51.1245 80.2936L51.7401 80.7246L52.7866 82.0178L53.7715 83.3725L54.6948 84.4193L55.6798 85.2814L55.1873 85.7124L54.8795 86.3898L55.1258 87.3135L55.5566 88.1756L56.3569 89.5919L57.0956 91.1313L56.8494 90.885L56.6031 90.7619L56.2338 90.8234L55.8644 90.7619L55.1873 90.2692L54.5102 89.6534L53.2175 89.8998L52.4788 89.7766H51.8632L53.0328 90.1461H54.3255L57.2187 92.7324L58.2036 94.2718L58.7576 96.2423L58.3883 97.166L57.7727 97.7202L57.2187 98.3975L56.6647 99.1365L58.2652 100.245L58.6345 100.183L59.0039 100.06L59.3732 99.6907L59.9272 98.767L60.235 98.4591L61.2199 98.336L62.0818 98.3975L62.882 98.5823L63.6207 98.5207L65.098 98.8902L65.8367 99.2596L67.6834 100.861L68.1144 101.723L68.299 102.831V104.063L67.9912 105.171L67.6219 106.156L67.3756 107.45L67.191 107.942L66.9448 108.312L65.9598 109.358L65.2827 109.79L65.0365 109.605H64.7287L64.6672 109.851L64.9749 110.344V110.96L64.3594 111.391L63.7438 111.575L62.7588 111.329L61.4047 112.191L62.3895 112.622L62.5742 113.115L62.328 113.915L61.7124 114.285L61.0352 114.469L60.2966 114.531L59.681 114.716L59.127 115.085L59.8041 114.901L60.2966 115.085L60.6044 115.763L60.9122 115.947L62.2665 116.255H63.1283L64.7902 116.071H65.5905L65.8983 116.194V116.748L65.7752 118.164L65.529 118.472L63.3129 119.642L62.882 120.443L62.7588 120.935L61.4662 120.874L60.8506 121.366L59.8041 121.736L59.0039 122.105L58.2036 122.598L57.588 122.721L54.818 122.167L53.1559 122.228L50.8783 122.721L50.2627 122.659L49.4009 122.228L48.4776 121.92L47.4311 121.797L46.5077 121.366L47.0618 122.167L45.8305 122.967L45.2765 123.152H44.661L43.4298 123.337L42.3218 123.214L42.5065 123.768L42.8143 124.26L42.568 124.445L42.3218 124.507L40.1673 124.137L39.8596 124.199L39.6133 124.568L38.813 124.384L38.0743 123.829L37.2741 123.46L36.4123 123.275L35.7351 123.337L32.9651 124.26L32.4111 125.184L32.1649 126.477L31.7955 127.586L31.1183 128.448L30.3181 128.571L29.5794 127.955L28.2252 127.278L27.7327 126.847H27.6096L27.4249 127.031L26.8709 127.216H26.3169L25.4551 127.401L23.9777 127.955L23.3621 128.325L22.0695 129.31L21.8232 129.618L21.3307 130.665L20.5921 130.849L19.9149 130.172L19.1763 129.926L18.376 130.172L17.8835 130.541L17.6373 130.233V129.679L18.1913 129.002L19.7303 128.509L21.0845 127.155L21.7617 126.354L22.0079 125.861L22.3157 125.554L22.7465 125.43L22.9928 124.938L24.9011 122.844L25.0857 122.351L25.2089 121.489L25.3935 120.689L26.9325 120.135L27.6711 118.41L27.8558 118.287L30.0103 117.979H31.6108L33.2113 118.349L34.0115 118.41L34.8118 118.287L35.4274 117.795L36.5354 116.071L37.151 115.332L37.8282 114.654L38.5053 113.854L39.5518 112.437L38.813 112.93L37.9512 113.731L37.4588 114.162L35.8583 114.593L35.1811 115.085L33.95 116.132L33.7038 116.194L31.8571 115.947L30.5028 114.593L29.641 114.038L29.2717 113.977L28.9023 114.162L28.1021 114.346H27.3018L27.7327 113.731L28.2867 113.361L26.994 113.115L26.6247 112.93L26.1938 112.499L25.2089 112.437L24.7164 112.561L23.9161 113.176L22.685 113.792L21.1461 112.93L20.8383 112.561V111.822L20.5921 111.206L20.1611 111.021L20.7152 110.282L21.3923 109.79L22.8081 109.297L24.9626 108.065L26.1938 107.573L27.3018 106.711L27.7943 106.156L28.1021 105.417L28.4099 104.494L28.9023 103.755L28.4099 103.57L28.2252 103.016L28.2867 102.462L28.4714 101.969L28.2867 101.353L27.9174 100.676V100.183L27.9789 99.6291H27.1171L26.2553 99.8139L25.4551 100.183L24.7164 100.738L24.0393 100.861V100.43L24.3471 99.8754L25.0857 99.1365L25.886 98.5207L26.1938 98.0281L26.44 97.4739L26.8709 97.0428L27.9174 96.1807L29.9488 95.257L30.2565 95.1955L31.0568 95.3186L31.8571 95.1955L32.5342 94.826L33.2113 94.7645L34.7503 95.7497L34.2578 94.2102L34.9349 93.8408L35.9199 95.1955L36.2892 95.3186L37.0894 95.1339L36.7817 94.8876H36.4123L35.9814 94.7029L35.6121 94.2718L34.9965 92.8555L35.058 91.9934L35.4889 91.1313L35.9814 90.3308L35.5505 90.1461L35.2428 89.8382L35.1811 89.0377L35.3043 88.2987L36.1661 87.6829L36.4123 86.6977L36.5354 85.6509L36.4123 85.1582L35.5505 85.2198L35.1196 85.4045L34.7503 85.7124H34.381L33.3344 84.5424L32.7189 83.6803L31.6108 81.7714L31.4877 80.663L32.3495 78.1999L33.7038 76.5988L35.3043 76.0447L34.9965 75.9215H32.5957L31.7955 76.1063L31.0568 76.722L30.6259 76.9068L30.195 76.9683L29.8257 77.2762L29.4563 77.7073L29.0254 78.0152L28.4099 77.7688L28.0405 77.892L27.7327 77.6457L27.4865 77.2147L27.1787 77.0915L26.8093 77.2147L26.0707 77.7688L25.332 78.0768L24.4702 77.7073L23.3006 77.0299L23.0543 77.2762L22.8081 77.892L22.685 78.8773L21.8847 78.0152L21.2076 76.9068L20.9614 76.1678V75.3673L21.3307 75.0594L21.7617 75.3673L22.3772 73.4584L23.6084 70.9337L24.0393 70.1947L24.3471 69.2095L24.2855 68.5937L24.0393 68.0395L22.8697 66.8079V65.8226L22.9928 64.7142L23.3006 64.0369L23.4237 63.9137H24.9626L24.3471 63.5443L23.1775 62.4974V62.128L23.4237 61.2043L23.3006 61.3275L23.0543 61.7585L22.5619 62.8053L22.2541 63.0516L21.3923 63.298L21.2692 63.7906L21.1461 63.9137L20.7152 63.9753L20.5921 64.4679L20.5305 64.5295L20.4074 64.0369V63.1748L20.5921 62.3743L20.8999 61.7585L22.131 60.3422L21.5154 60.7732L20.1611 62.0664L19.484 62.9285L19.2993 63.2364L19.2378 63.4827V63.7906L19.5456 65.2685L19.484 65.9458L18.3145 70.5026L18.0682 70.9337L17.8835 71.18L17.6989 71.2416L17.1449 71.18L16.8986 70.8105V70.441L17.0217 69.8868L17.5142 67.7316L17.6989 67.1158L18.0067 66.5616L18.6838 65.5763V65.5148L18.2529 65.6995L18.0682 65.6379L17.945 65.4532L18.0067 62.4974L18.376 61.5122L18.4991 60.0959L18.8068 58.8643L19.1763 58.0022L19.484 56.8938L19.9149 56.4012L20.0381 55.6007L20.5305 54.7386L20.8999 53.8765L20.7152 53.938L18.376 56.2165L17.7604 56.6475L16.9602 56.5244L16.3446 56.278L15.8521 55.7238L15.6059 54.677H14.9903L14.4978 54.4923V54.3691L15.175 53.8149L16.2214 53.6302L17.2064 52.7065L16.3446 52.0907L16.4061 51.906L17.2064 51.3518L18.1913 49.566L18.376 47.9034L17.8835 47.1644L17.6989 46.6718L16.7755 46.1176L16.5908 45.3787L16.7139 44.9476L17.0217 44.5782L17.5142 44.2703L18.2529 43.9624L17.5757 43.6545L17.3295 43.285L17.1449 42.7308V42.4229L17.5142 41.0066L17.6989 40.4524L18.0682 39.7135L19.8534 39.7751L20.0381 39.4672H20.2227L21.1461 39.7751L21.0229 39.4672L19.5456 37.6814L19.4225 37.3735L19.8534 36.4498V36.0188L19.7918 35.5878L19.9149 35.2183L20.4074 35.0335H21.8232L22.1925 34.8488L22.0079 34.4178L21.7001 33.802L21.6385 33.3093L21.7001 32.8783V31.9546L21.7617 31.5236L22.131 30.9078L22.4388 30.7231L22.8081 30.5999L23.6084 30.7847L23.9161 31.031L24.2855 31.5852L24.5317 31.5236L25.5167 30.9078L25.8244 30.8462L26.2553 31.5852L27.9174 31.031L30.1335 30.7847L31.4877 30.4152L32.9035 30.292L34.1962 29.861L35.6121 30.0457L35.6736 30.292L35.6121 30.6615L34.9965 31.5852ZM36.2276 28.691L36.1661 28.7526L35.9199 28.5062L35.4889 27.6442L36.1046 27.4594L36.4123 27.5826L36.2892 27.9521L36.2276 28.691ZM34.6271 27.9521L34.2578 28.1368H33.8885L33.2729 27.3978L33.0267 26.8437L33.0882 26.4742L33.3344 26.351L33.8885 26.5357L34.1962 27.1515L34.2578 27.5826L34.3193 27.7673L34.6887 27.9521H34.6271ZM35.3043 24.8732L35.2428 25.181H35.7351L36.4739 25.4273L36.9047 25.4889L37.2741 25.8584L37.0894 26.4742L36.8432 26.6589L36.5969 26.7205L35.6736 26.1047L34.504 26.351L34.2578 26.2894L34.1347 26.1047L34.0731 25.8584V25.4273L34.0115 25.3042L33.5807 25.7352L33.396 25.6737L33.2729 25.4889L33.2113 25.0579L33.2729 24.4421L33.5191 23.58L33.95 23.3952L34.5656 23.5184L35.3043 24.011L35.5505 24.3189V24.5652L35.3043 24.8732ZM38.813 22.2253H38.0743L38.4437 21.4247L38.9361 21.24L39.7979 21.3016L39.6133 21.6711L38.813 22.2253ZM37.5819 22.7795L36.9664 23.0874L36.7201 22.8411L36.6585 21.979L35.9814 21.6095L35.6121 21.3631L35.3658 20.9321L35.4274 20.809L35.8583 20.6242L36.6585 21.4247L36.9664 22.0405L37.5203 22.2253L37.5819 22.3484V22.7795ZM47.2464 4.49072L47.3695 5.476L47.7389 5.22968L48.2929 6.15336H48.5391L48.97 5.78386L48.9084 6.64595L48.416 9.0475L48.2929 9.47859L48.2314 10.2175L48.1698 10.3407L48.0466 11.8185L47.7389 12.3112L47.4926 13.4811L47.3695 13.6043L47.0001 13.1733L47.3695 11.4491L47.5542 10.4022L47.4311 9.84805L47.1848 9.35541H46.5693L46.0768 9.60173L45.9537 9.29382V8.92436L45.8305 8.80123H45.1535L44.9687 8.67804L44.8457 8.30859V8.00068L45.4612 7.75436L46.0153 7.81595L46.8155 7.26177L46.323 5.4144L45.6459 5.22968L45.4612 5.04495L45.5844 4.73704L45.9537 4.55231L46.5077 3.62863L46.8771 3.50549H47.308L47.2464 4.49072ZM49.0316 4.79863L48.8469 4.98336L48.1698 3.56704L48.6622 1.96604L49.2778 2.02758L49.4009 2.45863L49.3394 2.82813L49.0316 2.88967V3.01286L49.1547 3.75181V4.6139L49.0316 4.79863ZM50.8783 0.6729V0.857627L50.509 2.02758V2.45863L49.955 2.39708L49.8934 2.2739L49.7703 1.59654L49.8318 0.857627L49.8934 0.6729L50.078 0.611309L50.2627 0.734445L50.5705 0.36499H50.6936L50.8783 0.6729Z" fill="#FF0000"/>
</svg>
