<svg width="136" height="163" viewBox="0 0 136 163" fill="none" xmlns="http://www.w3.org/2000/svg">
<path d="M51.6774 3.7257L51.5706 3.4596L51.624 3.37977L51.6774 3.35313H51.7574L52.0244 3.64586L52.1311 3.7257L52.318 3.9386L52.7183 3.96524L53.1989 3.75234L53.4124 3.83217L53.5192 3.80557L53.8662 3.59267L54.0797 3.53943L54.2398 3.37977L54.4 3.53943L54.747 3.7257L54.8538 3.9386L54.9872 4.04507L55.0407 4.09831L54.8271 4.31117L54.8004 4.55071L54.5869 4.52407L54.3199 4.89664L53.3056 5.53535L52.398 4.97648L51.9977 4.60391L51.7307 4.09831L51.6774 3.7257ZM71.1097 17.0318L71.1365 17.1915L71.2966 17.3512L71.43 17.2181L71.3767 17.0851L71.35 16.8456L71.1898 16.6327L71.1097 16.819L71.0564 16.8722L71.0029 17.0052L71.1097 17.0318ZM77.7562 20.0657H77.8897L78.1032 19.9858L78.21 19.8261L78.3168 19.8528L78.5571 19.5866L78.7172 19.4535L79.1176 19.4004L78.8506 19.0544L78.7973 19.0277L78.4235 19.1608L77.9431 19.2406L77.7562 19.4269L77.5694 19.7197L77.516 19.9858L77.5427 20.0657H77.7562ZM86.4048 0.319334L86.4848 0.106472L86.3513 0L86.1912 0.212903L86.3247 0.399167L86.4048 0.319334ZM69.962 3.96524L70.3891 3.40636L70.4958 2.87413L70.3623 2.90073L70.3356 3.14027L70.2823 3.29993L70.2288 3.35313L70.1221 3.4596L69.8552 3.88541L69.7484 3.99184L69.7751 4.12491L69.962 3.96524ZM57.8434 3.32653L58.0836 3.77893L58.137 3.7257L58.2438 3.32653L58.137 3.14027V2.82089L58.0836 2.74106L57.9502 2.92736L57.79 2.95396L57.8968 3.19346L57.8434 3.32653ZM69.3213 4.57731L69.5882 4.36441L69.6149 4.23134L69.5349 4.28457L69.001 4.55071L68.734 4.84345L69.2146 4.63055L69.3213 4.57731ZM70.7094 16.7391L70.7627 16.7125L70.8428 16.6061L70.8161 16.3399L70.736 16.473L70.7094 16.7391ZM86.298 1.75642L86.2712 1.83625L86.298 2.02252L86.4581 2.10239L86.6983 1.94268L86.4581 1.59675L86.298 1.75642ZM69.695 16.6061L69.7217 16.7391L69.7751 16.7657H69.962L70.0153 16.4996L69.9352 16.473L69.7484 16.4996L69.695 16.6061ZM70.8161 12.4013L70.5225 12.2948L70.4157 12.1618L70.3891 12.0287L70.5225 11.6562L70.6026 11.5497L70.6826 11.5231L70.8695 11.3102L70.8161 11.1771L70.7627 11.0973L70.6826 11.0707L70.5758 11.3368H70.4424L70.309 11.2038L70.2555 10.9642L70.2823 10.8312L70.1488 10.8046L69.9352 10.9376L69.8018 11.1505L69.4814 11.3634L69.4548 11.8158L69.5081 12.1618L69.4014 12.3215L69.2412 12.4279L69.3213 12.4811L69.6149 12.5077L70.1755 12.6408L70.5225 12.6142L70.9229 12.6674L71.0297 12.5344L71.083 12.3481L71.0297 12.3215L70.8161 12.4013ZM113.204 42.1006L113.284 42.0474L113.391 41.9143L113.338 41.7546L113.204 41.5151L113.231 41.3022L113.151 41.249H113.071L112.964 41.1691L112.697 41.0627L112.617 41.2756L113.071 41.9409L113.204 42.1006ZM118.57 48.5673L118.65 48.4875L118.676 48.2746L118.837 47.7158L119.45 46.2521L119.477 45.986L119.29 45.7731L119.237 45.2142L119.157 45.1876L119.05 45.2142L118.917 45.2941L118.81 45.4537L118.943 45.507L119.103 45.7997L119.05 46.0658L118.943 46.2787L118.49 46.6779L118.543 47.0238L118.516 47.1835L118.356 47.4762L118.303 47.8222L118.383 48.4077L118.57 48.5673ZM119.664 53.6503L119.717 53.5971L119.664 53.2245L119.771 52.6923L119.664 52.6657L119.504 52.7189L119.45 53.0116L119.477 53.331L119.664 53.6503ZM119.611 54.2358L119.584 54.768L119.664 54.9011L119.744 54.9277L120.011 54.0229L119.958 53.9696L119.691 53.9164L119.611 54.2358ZM111.069 37.47L111.176 37.4168L111.096 37.1773L110.989 37.1241V37.3104L110.935 37.4435L111.016 37.4966L111.069 37.47ZM109.334 37.0709V36.9378L109.28 36.6184L109.174 36.6983L109.147 36.9378L109.227 37.1773L109.334 37.0709ZM98.0695 24.9091L98.283 25.122L98.4165 25.3881L98.6033 25.4945L98.6834 25.3881L98.7368 25.2284L98.6033 24.9889L98.55 24.6962L98.4699 24.6696L98.4165 24.7228L98.283 24.776H98.0161L98.0695 24.9091ZM86.7517 0.61207L86.9386 0.425806L86.8318 0.266139L86.5915 0.292736L86.5115 0.452403L86.5649 0.558875L86.7517 0.61207ZM106.398 30.6573L106.451 30.6041L106.478 30.3113L106.371 30.3912L106.291 30.4977L106.238 30.6307L106.318 30.6573H106.398ZM106.558 31.1363H106.665L106.745 31.1097V31.0565L106.638 30.8702L106.558 30.6573L106.424 31.0565L106.558 31.1363ZM78.4235 21.0769L78.2634 21.21L78.2901 21.343L78.3969 21.2898L78.7172 21.2366L78.6905 21.0769L78.5036 20.9172L78.4235 21.0769ZM96.2277 92.2114L96.0408 92.0518L95.6404 92.0784L95.6137 92.1582L95.587 92.3445L95.7472 92.451L96.2277 92.2114ZM104.529 98.3855L104.449 98.3056L104.182 98.1992L103.648 97.5073L103.461 97.3742L103.194 97.7734L102.981 97.9331L103.114 98.0927L103.301 98.0661L103.381 98.3056L103.328 98.4653L103.728 99.0774L103.782 99.2371L103.862 99.3435L103.969 99.4234L104.289 99.3169L104.556 99.0774H104.609L104.636 98.9709L104.422 98.7846L104.529 98.6516V98.3855ZM104.342 100.435L104.289 100.408H104.209L103.995 100.488L104.022 100.568L104.209 100.754L104.342 100.435ZM95.16 92.8767L95.587 92.8501L95.8273 92.9832L95.8006 92.9034L95.6938 92.7171L95.6137 92.6372L95.4002 92.584L95.16 92.8767ZM94.1457 100.381L94.1723 100.115L94.1457 100.089L94.0389 100.222L93.9054 100.275L94.0121 100.674L94.1457 100.381ZM68.6807 11.0175L68.6006 11.0707L68.5739 11.1505V11.257L68.8408 11.3102L68.9209 11.2836L69.0277 11.1771L68.9743 10.911L68.8408 10.778L68.6807 11.0175ZM135.84 161.749L135.653 162.761L135.68 163L135.786 162.787L135.973 162.095L136 161.563L135.84 161.749ZM104.609 99.6097L104.236 99.7959H103.835L103.702 99.8758L103.728 99.9556L103.969 100.142L104.289 100.168L104.609 100.089L104.716 100.328L104.876 100.275L105.09 100.062L104.93 99.8225L104.609 99.6097ZM104.663 106.662L104.636 106.502L104.556 106.369V106.236L104.609 105.943L104.529 105.491L104.556 104.826L104.529 104.48V104.134L104.583 103.681L104.556 103.229L104.502 102.989L104.476 102.75L104.502 102.085L104.262 101.739L103.728 101.446H103.542L103.248 101.818H103.088L102.501 101.712L102.367 101.818L102.127 102.164L101.993 102.297L101.806 102.244L101.62 102.138H101.459L101.299 102.218L100.952 102.271H100.605L100.392 102.377L100.205 102.537L100.152 102.723L100.178 102.963L99.9914 102.75L99.8045 102.617L99.5909 102.776L99.3774 102.883L98.63 102.963L98.0161 102.776L97.162 102.404L97.0285 102.297L96.895 102.164L96.7615 102.085L96.4412 101.952L96.3078 101.792L96.1743 101.739L96.0141 101.765L95.7739 101.632L95.587 101.419L95.4002 101.393L95.2134 101.499L94.8663 101.473L94.199 101.233L93.9054 101.047L93.8787 101.473L93.6918 102.244L93.7453 102.617L93.852 103.043L94.0389 103.628V103.814L94.0656 103.921L94.466 104.799L94.8663 105.518L95.4002 106.289L95.4536 106.635L95.3735 106.981L95.5604 106.955L95.6672 106.768L95.6938 106.955L95.7472 107.088L96.201 107.593L96.2277 107.726L96.0408 108.152L95.934 107.806L95.7472 107.54L95.2401 107.114L95.3468 108.019L95.4269 108.365L96.0676 109.882L96.1476 109.988L96.3078 110.068L96.4412 110.201L96.6548 110.521L97.0018 111.186L97.2153 111.372L97.5089 111.319L97.9627 111.452L98.1229 111.425L98.2297 111.479L98.283 111.638H97.936L97.589 111.718L97.5623 111.851L97.6424 112.011L97.7225 112.437L98.1496 112.304L98.8169 112.33L99.2173 112.277L99.6711 112.65L100.071 112.729L100.178 112.703L100.418 112.25L100.579 111.718L100.659 111.505L100.792 111.319L100.525 111.08V110.973L100.552 110.84L101.059 111.239L101.273 111.08L101.326 110.707V110.494L101.379 110.334L101.513 110.255L101.566 110.068L101.593 109.909L101.459 109.563V109.376L101.78 109.776L101.913 110.334L102.154 110.175L102.18 110.095L102.154 109.696L102.26 109.563L102.607 109.669L102.928 109.882L102.954 109.988L102.928 110.095L102.847 110.175L102.581 110.068L102.474 110.228L102.634 110.627L102.901 111.026L103.061 110.92L103.381 110.867L103.488 110.76L103.408 109.962L103.275 109.376V108.738L103.301 108.392L103.435 108.126L103.542 107.859L103.515 107.487L103.568 107.141L103.702 106.795L103.889 106.529L103.969 106.476L103.915 106.396L103.995 106.156L104.129 105.997L104.209 106.209L104.102 106.289L104.049 106.369L104.262 106.529L104.316 106.662L104.342 106.822L104.316 107.008L104.342 107.141L104.476 107.168L104.502 106.981L104.476 106.768L104.663 106.662ZM120.118 56.6575L119.771 56.0188L119.691 55.5131L119.557 55.0873L118.997 53.8898L118.756 53.1979L118.89 52.506L118.65 50.2705L118.89 49.1528L118.783 49.0198L118.49 48.8601L118.356 48.6738L118.169 48.248L118.142 47.423L117.769 46.9174L117.368 46.6779L117.102 46.2521L116.915 45.9061L116.888 45.7199L116.781 45.4005L116.488 45.1876L116.274 45.0812L115.82 44.7618L115.607 44.4424L115.153 43.511L114.939 43.2715L114.512 43.0054L114.165 42.9788L113.952 42.8989L113.178 42.2869L112.937 42.1538L112.751 41.8611L112.457 41.5683L112.297 41.3555L112.03 41.1159L111.843 40.2111V39.3329L111.79 38.295L111.523 37.7894L111.389 37.6297L111.229 37.6829V38.0023L111.282 38.2152H111.176L110.775 37.9225L110.268 37.6297L110.001 37.2837L109.814 36.9644H109.654L109.547 37.0176L109.441 37.4168L109.627 38.0821L109.547 38.162L109.387 38.0023L109.094 37.6563L108.933 37.7628L108.747 37.816L108.56 37.47L108.426 37.2571L108.213 36.512L108.026 35.687L107.999 35.1016L107.626 34.7822L107.492 34.2234L107.385 34.0637L107.278 33.6645L106.851 33.1589L106.424 32.7863L106.051 32.4403L105.73 31.9613L105.864 31.6154L106.077 31.6952L106.318 31.6686L106.131 31.3226L105.944 31.0831L105.463 30.6307L105.25 30.5243L104.769 30.471L104.236 30.0718L103.915 29.8855L103.702 29.8589L103.435 29.8057L103.248 29.5662L102.928 29.4864L102.474 29.034L102.26 28.5816L102.154 28.4219L101.993 28.2888L101.753 28.3687L101.566 28.3953L101.166 28.342L101.032 28.1558L100.765 27.9163L100.258 27.863L99.8579 27.7034L99.5376 27.5437L99.2173 27.3574L98.9236 27.0381L98.6568 26.6122L98.7101 26.08L98.7635 25.734L98.4432 25.601L97.8826 24.8825L97.8559 24.5897L98.0161 23.9776L98.1762 22.9131L97.9627 22.1414L97.5356 21.1834L97.5623 20.7043H97.3488L97.1085 20.5979L96.7615 20.1189L96.4946 19.7995L96.3078 19.5068L96.1209 19.1342L96.1476 18.8149L96.201 18.602L96.2277 18.0431L95.9875 17.5109L95.9074 16.952L95.6672 16.2601L95.7205 15.8077L95.6672 15.4351L95.587 15.1158L95.6672 14.9029L95.6938 14.6367L95.3735 14.3706L95.0265 14.1843L94.5994 13.8384L93.7986 13.2795L93.6118 12.8537L93.2648 12.4811L92.811 12.6142L92.4907 12.6941L92.1703 12.9868L91.7433 13.1997L91.3429 13.0134L91.1561 12.8537L91.0226 12.2948L90.8357 11.6828L90.6755 11.39L90.5688 11.0175L90.6755 10.1127L90.5154 9.68686L90.462 9.04815L90.3019 8.32965L90.115 7.98367V7.69094L89.7947 7.26513L89.6879 6.9724L89.5011 6.86596L89.2608 6.67966L89.2342 6.44016L89.2608 6.28049L89.3943 5.98776L89.4744 5.61519L89.1541 5.53535L88.9138 5.50875L88.7537 5.40228L88.5669 5.21602L88.5134 4.65714V4.07167L88.4601 3.6991L88.3533 3.433L88.2732 3.14027L88.1131 2.82089L87.6059 2.42172L87.6326 2.26206L87.7394 2.04915L87.5525 1.91609H87.2856L87.1254 2.20882L86.8852 2.44832L86.4314 2.63463L86.3513 3.61927L86.0577 4.68374L85.7908 5.48212L85.8441 5.72162L85.8175 5.96116L85.684 5.85469L85.5506 5.72162L85.3637 6.04099L85.0167 6.83937L84.99 7.26513L85.2035 7.3716L85.337 7.47803L85.4971 7.50467L85.5772 7.6111L85.6306 7.82401L85.7374 8.01027L85.7107 8.19658L85.5772 8.11674H85.3103L85.1768 8.27641L84.8298 8.59574L84.9366 9.55379L84.7765 10.0594L84.6163 10.4586L84.4294 11.2038L84.4562 11.6029L84.6163 11.8691L84.8032 12.2682L84.6964 12.8271L84.5896 13.2263L84.8298 14.3972L84.8832 15.0093L84.7497 15.4351L84.3761 16.6859L84.2159 17.5907L84.2693 18.0963L84.1091 18.5487L83.9223 19.2939L83.7088 19.8528L82.9614 20.9705L82.8012 21.5293L82.561 22.2212L82.0271 22.6204L81.6267 22.8599L80.7458 23.0995H80.2386L79.9718 22.9397L79.8116 22.8067L79.1977 22.5938L78.4503 22.1148L77.8897 21.9551L77.6228 21.4495L77.5961 21.2366L77.4893 20.9705L77.1957 20.6245L76.6352 20.5181L76.0479 20.2519L75.7009 20.2785L74.9268 20.0657L74.4196 19.7463L73.9392 19.3205L73.3252 18.5753L72.7914 18.3624L72.1241 18.0431L71.7503 17.777L71.5101 17.6439L71.2432 17.4576L71.0029 17.5109H70.6026L70.3356 17.3246L70.309 17.1915L70.3356 17.0851L70.3623 16.8722L70.2823 16.8456H70.2022L70.1221 16.8988L70.0153 16.9254L69.6683 16.7657L69.1611 16.4996L69.0544 16.2601L68.8942 15.9939L68.2002 15.5948L67.7999 15.2488L66.9189 14.7698L66.6787 14.5303L66.5986 14.3174L66.5453 14.0247L66.7321 13.7053L66.9189 13.4924L67.5329 12.5876L67.7198 12.4279L67.96 12.1884L68.1735 11.5231L68.2803 11.1505L68.0934 10.5917V9.63362L68.7875 9.26105L68.9743 9.20786L69.1611 9.12802L69.3747 9.23445L69.5081 9.42076L69.6417 9.39412L70.042 8.72881L69.9886 8.46272L69.8285 8.22317L69.8819 8.09015L71.083 6.78613L70.9229 6.4668L70.736 6.38692L70.3891 6.41356L70.0687 6.14742L69.8552 5.61519L69.5615 5.58859L69.0544 6.12082L69.001 6.25389L69.1345 6.33373L69.2412 6.65306L69.0544 7.02563H68.8675L68.5472 6.99903L68.3871 6.73289L68.307 6.30709L68.0934 6.20066L67.8532 6.28049L67.6663 6.44016L67.5329 6.49339L67.4261 6.38692V6.20066L67.7198 5.90792L67.96 5.72162L67.9866 5.64178L67.7999 5.58859L67.8265 5.45552L68.0667 5.21602H67.96L67.6663 5.48212L67.3728 5.64178L66.9724 5.96116L66.3851 6.17406L65.9847 6.44016L65.4241 6.36033L64.917 6.09423L64.8102 5.96116L64.5433 5.74825L63.9827 5.98776L63.6358 5.96116L63.4489 5.88132L63.1019 5.82809L62.8082 5.61519L62.1143 5.29585L61.3669 5.24262L61.0198 5.26921L60.7529 5.10955L60.486 5.00312L59.9788 4.92328L59.7653 4.68374L59.4983 4.17814L59.3115 4.04507L59.0179 3.99184L58.6976 4.23134L58.5107 4.33781L58.137 3.912L57.4697 3.4862L57.2561 3.433L57.1494 3.53943L57.0693 3.7257L56.9359 3.75234L56.8023 3.6725L56.5355 3.40636L56.3753 3.35313L55.9215 3.61927L55.9482 3.6991L56.3219 3.83217L56.6956 4.20474L56.8824 4.28457L57.3095 4.17814L57.8968 4.25798L58.484 4.73698L58.4039 4.97648L58.3506 5.29585L58.3773 5.64178L58.3506 5.88132L58.5908 6.14742L58.484 6.17406L58.2171 6.12082L58.0035 6.20066L57.79 6.33373L57.71 6.67966L57.6032 6.51999L57.2561 6.36033L57.0426 6.49339L56.6956 6.65306L56.3753 6.59983L56.1617 6.51999L55.6813 6.65306H54.8271L54.5335 6.4668L54.4534 6.12082L54.4 6.04099L54.3199 6.20066L54.1865 6.38692L53.6793 6.41356L53.5992 6.49339L53.626 6.65306L53.5992 6.86596L53.4124 6.89256L53.1721 6.9458L53.1989 7.21194L53.2522 7.42484L53.1721 7.53127L52.9052 7.34497L52.7984 7.1321L52.6116 7.07887L52.4515 7.1587L52.4248 7.34497L52.4515 7.82401L52.318 7.87724L51.9709 7.8506L51.8108 7.93044L51.5706 8.51591L51.1168 8.72881L51.0368 9.02155L51.01 9.28769L51.3837 9.76669L51.1969 10.0062L51.01 10.1925L50.8232 10.2723L50.4228 10.3522L50.1291 10.5651L49.9957 10.8046L49.969 11.0175L49.8889 11.2836L49.7555 11.6029L49.7288 11.7892L49.4618 11.9755L48.9814 12.5077L48.7411 13.04L49.0614 13.3327L49.4352 13.5456H49.7021V13.5989L49.4352 13.8118L49.5953 14.0247L49.8623 14.2376L50.0224 14.2642L50.1291 14.344L49.8889 14.3972L49.5152 14.4238L49.4352 14.6633L49.4885 14.9295L49.5419 15.169L49.4885 15.3286L49.3551 15.2222L49.3017 15.0625L48.9814 14.7166L48.7411 14.6101L48.3941 14.5303L48.2874 14.6367L48.314 15.169L48.2607 15.4085L48.1539 15.2754L48.1272 14.8762L47.8069 14.5569L46.5523 14.2376L46.3655 14.2109L46.0718 14.2642L45.885 14.3972L45.8583 14.5303L45.7248 14.6367L45.5113 14.7432L45.3245 14.9029L45.191 15.0359V15.2222L45.3512 15.5682L45.4579 15.6746V15.8343L45.2977 15.6746L45.1643 15.6214L45.0309 15.8875L44.8974 15.9408L44.9241 15.1956L45.0575 14.69L45.1643 14.3972L45.2711 14.1577L45.2177 14.0247L44.3636 13.3327L43.9898 12.7739L43.7229 12.4546L43.2958 12.1618L43.0823 11.9755L42.6018 11.6828L42.0412 11.4699L41.7743 11.2038L41.4807 11.0973L41.107 11.2304L41.0803 11.4965L41.1337 11.736L40.8401 12.1352L40.5198 12.3481L40.2528 12.1086L40.0126 11.9223L39.7724 12.0553L39.6923 12.2682L39.5855 12.3481L39.5054 12.1884L39.3719 11.8424L39.1851 11.7094L38.9983 11.7626L39.0516 12.0287L39.1584 12.1884L39.1317 12.4013L38.9983 12.5077L38.9715 12.7207L38.8915 12.9868V13.3594L38.678 13.4392L38.5178 13.7319L38.411 13.6787L38.3843 13.4924L38.3309 13.3061L38.0907 13.2263L38.0106 13.4126L37.9572 13.4658H37.8771L37.9306 13.3061V13.04L38.0106 12.7473L37.7704 12.6408L37.6903 12.6941V12.9336L37.6369 13.3061L37.4234 13.3594L37.2365 13.519H36.9429L36.7827 13.5989L36.7294 13.7852L36.4624 13.998V14.2376L36.6493 14.4771V14.69L37.0764 14.9029L37.0497 15.1158L36.9963 15.2222L36.8362 15.1956L36.4891 15.0093L36.1421 14.9827L36.0353 14.9029L35.982 14.9561V15.0891L35.8485 15.1956H35.6617L35.4481 15.3553L35.6083 15.5948L35.5816 15.7012L35.6617 15.8077L36.0087 15.8343L36.1421 15.8077L36.1688 16.0206L36.1154 16.2335L35.982 16.3133L35.8485 16.127L35.2078 15.7544L35.0477 15.7278L35.0211 15.8343L35.0477 15.9939L34.9143 16.1803L34.674 16.4198L34.5139 16.3665L34.327 16.4198L34.1935 16.819L34.1402 17.2181L34.3537 17.5109L34.4872 17.8834L34.7808 17.431L34.9143 17.3778V17.5641L34.8075 17.777L34.7274 18.0165L34.7007 18.3092H34.5139L34.3003 18.2826L34.2469 18.3624L34.1669 18.5753L34.2202 18.8681L34.3804 18.9745H34.7274L35.0211 19.0011L35.2879 19.1076L35.3414 19.1874L35.1011 19.1342L34.6206 19.1608L34.3804 19.1342L33.9266 19.1608L33.5796 19.0011L33.4195 18.8415L33.1792 18.7882L32.939 18.8681L32.8055 19.1076L32.6454 19.1608L32.2717 18.5753L32.0314 18.5487L31.9247 18.6818L32.0314 19.0544L31.978 19.2673L31.8446 19.4269H31.6845L31.5777 19.5068L31.6577 19.6664L31.9247 20.0657L32.1382 20.2253L32.3251 20.4648L32.4319 20.6777H32.6721L32.7254 20.8374L32.592 21.0769V21.4495L32.4852 21.4761L32.3518 21.3963L32.0848 21.1567L31.9513 21.1035L31.8712 21.1834L31.8446 21.343L31.898 21.7688L31.7645 22.3809L31.7912 22.5672L31.7645 22.7269L31.6577 22.6204L31.5242 22.3809L31.2306 22.0083L30.8836 21.2366L30.51 20.7043L30.3231 20.2519L30.0294 19.4004H29.8693L29.6558 19.7729L29.4422 20.2519L29.282 20.4914L28.9084 20.731L28.6948 20.9705L28.4279 21.0503L28.1343 21.3164L27.9208 21.5559L27.6271 22.1148L27.5737 22.4607V22.8333L27.7072 23.3655L27.8407 24.1373L28.0542 24.2172L28.2143 24.3502L28.161 24.5897L27.9208 24.7228L27.1734 25.4413L26.6662 25.7074L26.5327 25.8937L26.3459 26.2663L26.0789 26.7453L25.9454 27.0381L25.6519 27.6235L25.198 28.2888L24.7443 28.7678L24.2104 29.167L23.8634 29.3533L22.5555 29.9122L21.8614 30.1251L20.6069 30.2847L20.0731 30.5243L19.4057 30.4444L18.6583 30.3912L17.6173 31.2162L16.7631 31.4291L15.9891 31.5887L15.6688 31.7218L14.9214 32.2008L14.4943 32.4137L13.6668 32.6532L13.3198 32.6266L12.866 32.4137L12.4389 32.4669L11.9584 32.4403L11.5848 32.4669L11.2911 32.6532L9.52936 33.6379L9.18234 33.904L8.80868 34.3032L8.30151 34.6758L7.90114 35.1016L7.02023 35.5274L6.11268 35.8467L5.65895 36.1128L5.33857 36.4854L4.77804 37.4966L4.67125 37.7628L4.45774 38.0289L4.16407 38.1354L3.97729 38.2152L4.03064 37.7095L3.81714 37.2571L3.97729 36.4056L3.92385 36.1394L3.63027 36.2991L3.4434 36.4854L2.96295 37.7362L2.64265 38.6942L2.88287 39.2531L2.96295 39.5724V39.9184L2.88287 40.424V40.7433L2.85615 41.1691L2.24227 42.1804L2.0554 42.6062L1.84181 43.4578L1.81517 43.857L1.84181 44.4424L2.10876 44.9481L2.29563 45.2674L2.58921 46.1723L2.93623 46.7843L3.52347 48.0085L4.16407 48.9932L4.21751 49.3657L4.13744 49.8714L4.16407 50.4036L4.05736 50.5633L3.81714 50.7496L3.52347 50.51L3.36332 50.2971L3.17645 49.552L3.09638 49.4988L2.96295 49.8181L2.82943 49.9512L2.696 49.8447L2.58921 49.7117L2.56257 49.5786L2.61593 49.419L2.66928 48.8601L2.40242 48.5408L2.16211 48.1948L1.89525 48.1149L1.7351 48.2746V48.4875L2.08204 49.0996L2.29563 49.7649L2.64265 50.1641L2.85615 50.2705L3.09638 50.51L3.04302 51.0689L2.88287 51.2818L2.74936 51.3882L2.29563 51.2552L2.18883 50.856L1.84181 50.0843L1.7351 49.7915L1.6283 49.7117L1.60159 49.8714V50.1375L1.54823 50.2439H1.46815L1.33464 50.1109L1.20121 50.031L1.12113 50.0576L1.25457 50.2439L1.54823 50.8294L2.66928 52.2399L3.60355 53.8898L3.81714 54.5285L3.92385 55.9655L4.03064 56.3115L4.59117 57.0301L5.12506 57.855L5.28521 58.2542V58.6002L5.392 58.9461L6.05932 59.851L6.35291 60.8356L6.37963 61.1816L6.29955 61.7936L6.37963 62.8848L6.4597 63.4702L6.69993 64.6412L6.99359 65.4927L7.34053 66.025L7.82106 67.1959L8.54174 68.5531L8.64853 69.2184L8.62181 71.0015L8.56846 71.5869L8.40831 71.6934L8.30151 71.9329L8.46166 73.1038L8.48838 73.7691L8.24816 74.4079L7.98121 74.9667L7.5274 75.3393H6.99359L6.75328 75.1264L6.43298 74.8869L6.37963 75.8981V76.7763L6.48642 77.1223V77.5215L6.83336 77.8142L7.02023 77.7077L7.26045 77.6812L8.11464 78.107L8.59509 78.4529L9.36921 79.4109L10.0365 79.6771L10.9174 80.1029L11.9584 80.2359L12.7859 80.2625L14.0672 80.502L14.3341 80.4222L14.8946 80.3424L15.3217 80.1827L15.6954 80.0762L16.8432 79.198L17.9643 78.2932L18.5248 78.2134H19.0054L19.5926 77.8941L20.1264 76.936L20.3934 76.7231L20.767 76.4836L21.8081 76.3505L22.422 76.457L22.7423 76.2973L23.5698 76.1376L25.3048 75.978L26.2658 76.111L26.9064 76.0844L27.2534 76.1376L27.5203 76.5634L29.3621 76.2175L29.896 76.1909L30.2163 76.2441L30.6434 76.5634L31.0972 76.2707L31.5242 76.2973L31.9513 76.0046L32.592 75.153L32.8856 74.6208L33.366 73.503L33.7131 73.1038L34.0868 72.9175L34.5405 72.8643L35.2346 72.6514L36.7294 71.72L37.3166 71.5071L37.6369 71.3208L38.678 70.6023L39.3186 70.4692L41.2137 70.6555L42.1213 70.6023L42.8153 70.4959L43.883 70.0966L45.0309 69.8039L46.4456 69.1918L47.6201 68.5531L48.3408 68.3935L49.4618 68.287L51.1168 68.1274L53.0387 68.2072L53.5192 68.0741L53.7594 67.9677L54.1064 67.8346L54.5335 67.9145L54.8538 68.0209L55.8147 68.5265L57.2829 69.591L57.6032 69.6442L58.5641 69.4047L58.8844 69.4313L60.219 70.2297L60.7796 70.2563L61.2334 70.2297L61.5804 70.3095L61.9274 70.5225L62.3545 71.0281L63.262 71.5071L63.3154 71.8797L63.262 72.1192H63.0485L62.8883 72.1724L63.1019 72.9708L63.4755 73.6095L64.3832 73.6893L64.7035 73.9288L64.917 74.195L65.0771 74.5941L65.2106 75.2328L65.6644 75.7651L66.0915 76.2175L66.1983 76.4038L66.3851 77.0424L66.4652 77.2288L66.6254 77.8674L66.8656 78.586L66.8121 78.6658L66.6787 78.6392L66.4118 78.4529L66.1983 78.24L66.0915 78.2666L65.958 78.3997L65.9313 78.586L66.1182 78.5327L66.2249 78.5594L66.4918 78.7723L66.7588 79.0384L66.9724 79.198L67.4528 79.8367L67.6397 79.7037L67.8799 79.5706L68.2536 79.9166L68.4137 79.9964L68.4938 79.8633L68.3604 79.2247L68.2269 79.065L68.2002 78.8521L68.3871 78.6924L68.4672 78.5061L68.8942 78.0271L69.8018 76.6167L70.0954 76.457L70.4157 76.1376L70.8428 75.8981L71.2966 75.6054L71.5902 75.4989L71.8839 75.4457L72.2042 75.1796L72.5512 74.4877L72.818 73.6627L73.085 73.2901L73.5121 72.8909L73.8324 72.3587L73.8057 71.9329V71.5071L74.046 71.8531L74.2061 72.199L74.4463 73.3167L74.2327 73.5562L74.0192 73.6893L74.0726 74.0885L74.2061 74.5941L74.2595 75.0199L73.8057 75.4457L73.432 76.0046L72.9783 77.0691L72.9515 77.3884L72.8715 77.8408L72.8981 78.24L72.9783 78.6126L72.8715 79.198L72.6846 79.7303L72.4444 79.7569L72.2842 79.7303L71.9105 79.7835L71.5635 79.7569L71.1898 80.9278L71.43 80.9811L71.6169 80.9278H71.9639L72.3376 80.715L72.8981 80.5553L73.2185 80.6085L73.5921 80.5819L74.126 79.0916L74.2595 78.1336L74.5264 77.7077L74.6065 77.415L74.7399 77.1223L75.0336 77.6013L75.2738 78.0803L75.781 78.8521L75.9411 79.2247L75.9945 80.1561L75.6742 81.2472L75.4873 81.5665L75.2471 81.8327L75.0603 82.2851L75.6742 82.3915H76.0746L76.6885 82.0722L76.822 82.019H77.1423L77.2491 81.8327L77.5427 81.673L77.7562 81.4867L78.0499 81.327L78.3168 81.4335L78.3702 81.5133L78.4235 81.6198L78.3168 81.8327V82.2851L78.13 82.2318L77.9698 81.9657L77.7829 82.0456L77.6495 82.2585L77.3559 82.2052L77.4092 82.3383L77.5694 82.6044L78.1833 83.11L78.8239 83.7753L79.0642 84.0947L79.598 85.0794L79.9718 86.1438L79.9451 86.4632L79.7582 87.022L79.6248 87.6075V87.9002L79.7582 88.2728L80.0251 88.672L81.0128 89.7365L81.5466 90.6679L82.2406 91.1469L83.3617 91.3332L83.949 91.6792L84.5629 92.3977L84.7497 92.451L85.0434 92.4776L85.4438 92.0518L86.031 92.105L86.8051 92.5308L87.2589 92.4243L87.5792 92.4776L88.033 92.7171L88.7003 93.1961L89.421 93.4356L89.8481 93.8082L90.1684 93.8614L90.7556 94.1009L91.1827 93.888L91.5564 93.6219L92.4106 92.7437L93.078 92.3179L93.4249 92.1582L93.7186 92.0784L94.0656 91.8122L93.852 91.626L93.6385 91.6526L93.2648 91.5461L93.4783 91.4131L93.6918 91.3066L94.7329 90.6413L94.9998 90.8276L95.1866 91.0405L95.4002 91.3332L95.2401 91.759L95.1066 91.9453L94.7863 92.2646H94.3859L94.199 92.2381L94.5728 92.584L94.8931 92.8235L95.587 92.3977L95.7472 92.0518L95.8807 91.8388L96.0942 91.7857L96.4146 91.8655L96.548 92.1316L96.6281 92.451L96.3878 92.5308L96.2811 92.7703L96.201 92.9832L96.6014 93.2493L96.8149 93.4356H97.0552L97.3488 93.4888L97.5623 93.888L97.7758 94.367L98.0161 94.234L98.1762 94.1009L98.4432 94.2073L98.7368 94.5799L98.9771 95.0057L99.0038 95.192L99.1906 95.2719L99.3507 95.1388L99.4308 94.9525V94.6331L99.3774 94.1275L99.2706 94.0477L99.0038 94.3404L98.8435 94.1275L98.63 93.9146V93.7017L98.8435 93.5953L99.0304 93.6485H99.2706L100.525 93.4622L102.127 91.8122L102.821 91.2002L103.542 90.7478L104.289 90.455L104.689 90.3486L106.691 90.1889L107.732 90.2421L108.266 90.1357L108.506 89.976L108.933 89.5502L109.227 89.2841L109.601 89.2043L109.681 88.8849V88.539L109.761 88.193L109.654 87.5277L109.681 86.6761L109.761 86.2237L109.974 85.585L110.081 84.9463L110.188 84.0415L110.268 83.5092L110.375 83.0036L110.669 82.4447L110.909 82.0988L111.469 80.7682L111.656 80.6351H111.816L111.896 80.5553L111.923 80.4754L111.87 80.4222L111.79 80.2625L111.843 80.1295L112.03 79.9964L112.083 80.0496L112.163 80.023L112.19 79.9432L112.11 79.5706L112.217 79.065L112.35 78.1868L112.51 77.7876L112.617 77.4682L112.991 76.9893L113.418 76.5102L113.311 76.457L113.124 76.4304L113.258 76.3239L113.364 76.2973L113.498 76.3771L113.605 76.1642L113.631 75.8449L113.738 75.3659L113.658 74.9401L113.845 74.807L114.058 74.7272L114.139 74.3014L114.192 74.1151L114.325 73.9555L114.566 73.6095L114.753 73.2369L115.18 72.545L115.607 72.2522L116.221 72.0394L116.301 71.9063L116.141 71.8265V71.7466H116.381L116.488 71.5071L116.728 71.3208L117.128 70.9216L117.262 70.549L117.342 70.2563L117.395 69.5644L118.062 68.6596L118.516 67.4621L118.623 66.6903L118.73 66.2645L118.81 65.6524L118.73 65.0137L118.756 64.4815L119.21 63.1243L119.317 62.5654L119.45 62.2194L119.664 60.8888V60.1969L120.011 59.3986L120.438 58.7332L120.465 58.1211L120.331 57.6421L120.118 56.6575ZM50.8765 5.29585L51.4371 5.13618L51.9977 5.32245L52.2913 5.26921V5.13618L52.2112 5.02971L52.1045 4.92328L51.8642 4.84345L51.7842 4.57731L51.6506 4.33781L51.624 4.07167L51.5172 3.83217H51.3837L51.2503 3.912L50.9567 4.25798L51.0634 4.44424L51.0901 4.79021L50.93 4.89664L50.7431 4.84345L50.663 5.16278L50.7698 5.26921L50.8765 5.29585ZM0.667321 49.1262V48.8867L0.560608 48.6738L0.213588 47.7158L0.106794 47.7424L0 47.8754L0.16015 48.5673L0.720758 49.5786L0.800834 49.4456L0.69404 49.1794L0.667321 49.1262ZM7.31389 32.8927L7.47404 32.6532L7.50068 32.4403L7.4206 32.2807L7.18038 32.5202L7.04695 32.7331L7.07366 32.8661L7.31389 32.8927ZM34.3003 16.127L34.4071 16.1537L34.5139 16.0738L34.5405 15.9408L34.4338 15.8077L34.3804 15.6746H34.2737L34.2202 15.7544L34.1669 15.8875L34.3003 16.0206V16.127ZM36.3023 13.5723L36.2756 13.4924L36.3023 13.2529L36.1955 13.1997L36.062 13.3061L35.982 13.5989L36.1154 13.7585L36.3023 13.5723ZM101.726 110.521L101.646 110.654L101.62 110.787L101.54 110.84L101.673 110.92L101.7 111.106L101.78 111.133H101.967L101.86 110.627L101.726 110.521ZM101.62 111.319H101.54L101.379 111.532L101.326 111.692L101.273 111.718L101.219 111.825L101.166 111.905L101.006 111.825V111.905L101.139 112.171L101.379 112.091L101.62 112.171L101.753 111.745L101.726 111.532L101.62 111.319ZM104.075 108.658L103.862 108.578L103.702 108.764L103.728 108.844V109.057L103.782 109.084L103.942 109.057V108.951L104.155 108.844L104.075 108.658ZM73.8858 82.5512L73.6189 82.6843L72.9248 82.6044V82.5512L73.0316 82.3117L72.8715 82.1786L72.7113 82.1254L72.1241 82.0722L71.4033 82.3383L70.0687 82.6576L69.8819 82.8705L69.7751 83.1633L69.9085 83.3229L70.3891 83.6689L70.8428 83.7221L71.1898 83.6423L71.5368 83.6955L71.7237 83.4826L72.2308 83.6157L72.4177 83.802L72.8448 83.6157L72.9515 83.2963L73.085 83.1633L73.5654 83.0568L74.0993 83.1899L74.2595 83.1633L74.4196 82.977L74.1794 82.631L73.8858 82.5512ZM92.1971 97.6137L92.117 97.0549L91.85 96.842L91.6899 96.8686L91.6632 97.1613L91.4764 97.321L91.4229 97.454V97.7734L91.3429 98.0661L91.4764 98.3589L91.4497 98.6782L91.5297 98.8911L91.6098 98.8645L91.9301 98.7314L92.1703 98.5185L92.2504 98.2524L92.1437 97.9597L92.1971 97.6137ZM31.5509 7.10546V7.07887H31.4976V7.10546H31.5509Z" fill="#EF0000"/>
</svg>
