<svg width="53" height="28" viewBox="0 0 53 28" fill="none" xmlns="http://www.w3.org/2000/svg">
<path d="M50.6538 4.75121V4.87435L50.5923 5.24385L50.3461 5.73644L50.0383 6.35226V6.90644L50.7769 8.81535L51.4541 9.98535L51.5772 10.4164L52.0081 10.7859L51.6387 11.2169L51.5772 11.8327L51.3309 12.1406L51.2694 12.5101L51.3925 12.8179V13.249L51.5156 13.8032L50.9001 13.9264H50.1613L49.9151 13.9879L49.6689 14.1727L49.4227 14.1111L48.7455 13.5569L48.3762 13.4337L48.13 13.4953L47.9453 13.7416L47.5759 14.0495L47.2682 14.2343L47.3297 14.419L48.7455 14.9116L48.9918 15.6505L48.7455 16.2664L48.684 16.5742L48.3762 16.8205L47.9453 17.0053L47.4529 17.0669L47.3913 17.3747L47.5759 18.2984L47.3913 18.4831L47.2066 18.791L47.3297 19.5915L47.6375 19.6531L47.6991 19.8379L47.6375 20.1458L47.5759 20.4536L47.4529 20.8231L47.3913 21.0079L47.2066 21.131L46.5911 21.0695L46.037 21.3773L44.929 22.4857L44.5597 22.6705L44.1287 23.1015V24.0252L44.0672 24.0868L43.9441 24.2715L42.6514 23.9636H42.5898L41.728 24.0868L41.1125 24.5178L40.3737 24.7641L38.8348 24.641L37.3575 24.8257L36.9881 24.9489L36.6187 25.0105L36.2494 25.2568L36.0647 25.6262L35.6954 26.0573L35.2029 26.4267L34.6489 26.673L34.5258 26.9194L34.3411 27.0426L34.0333 26.8578H33.7871L33.4793 26.7346L32.4329 26.6115L31.2633 26.4267L30.7093 26.242L30.0937 26.0573L29.4165 25.9341H28.801L28.4932 25.8725L27.0773 25.5031H26.154L24.9229 25.3799L22.4605 24.8257L21.7219 24.641L21.0447 24.5794L20.2444 24.3947L19.6289 24.0868L19.2596 23.5325L18.8287 22.7936L18.0285 21.8084L17.8437 21.3158L18.09 20.8847L18.3362 20.5768V20.4536L18.1515 20.3921L16.7973 20.8231L15.5046 21.3773H15.0121L14.5197 21.2542H13.8425L13.2269 21.3773L11.9343 21.4389L11.1956 21.8084L10.7031 22.5473L10.4569 23.1631L10.2107 23.3478L9.77972 23.4094L9.10258 23.3478L8.61011 23.1631L8.11774 22.6089L7.37898 22.5473H6.70185L6.51719 22.4242V22.0547L6.271 21.4389L5.84005 21.2542L4.67045 22.4857L4.36273 22.6089L3.43932 22.301L2.63914 21.8084L2.57752 21.4389L2.45438 21.131L1.77724 20.8231L0.915444 20.6384H0.669256L0.792397 20.4536L0.915444 20.1458L0.85392 19.8995L0.669256 19.6531L0.546115 19.4068L0.484591 19.1605L0.423068 18.9142L0.36145 18.7295L0.299927 18.5447L0.85392 17.3132L0.977061 16.5742L0.484591 16.1432L0.299927 16.02L0.484591 15.8969L1.16173 15.9584L1.59258 15.7121L1.83886 15.4658L2.45438 15.7121L3.37779 16.2048L3.80865 16.5126L3.99331 16.7589L4.11645 16.9437L4.05493 17.3132L4.23959 17.4363L4.67045 17.4979L4.97825 17.621L4.85511 18.1137V18.4831L5.22453 18.4216L5.717 18.1137L6.08633 17.5595L6.33252 17.0669L6.51719 15.8353L6.5788 15.7121L6.88651 15.8353L8.05612 15.7737L8.61011 16.02L9.53353 16.0816V16.2664L9.71819 16.5742L10.0875 17.0053L10.2722 17.3132L10.7031 17.3747L11.3187 17.19L11.688 17.0053L11.8111 17.1284L12.4267 17.0053L12.9192 16.6358L13.0422 16.3895L13.5963 16.2048L14.335 15.7737L15.3199 15.4658L18.5208 15.0964L18.644 14.85L18.5825 14.2343L18.644 14.1727L19.0749 14.3574L19.6905 14.4806L20.1829 14.7269L20.4907 15.0348H20.7985L21.2294 14.85L21.845 14.7269L22.399 15.0348L22.5837 15.3427L22.4605 15.5274V15.7737L22.6453 16.02L23.1377 16.3895L23.7533 16.6974H24.0611L24.1842 16.3895L24.3073 15.6505L24.3689 14.9116L24.2457 14.4806L23.9379 14.3574L23.5686 14.2958L23.3839 14.2343L23.4455 13.9879L23.7533 13.3722V12.5101L23.0761 11.5248L22.4605 10.6011V10.2933L22.8299 9.73903L23.3839 9.30799L24.6151 8.56908L24.9844 8.4459L25.4769 8.32276L26.2155 8.01485L26.5849 7.70694L26.8311 7.39908L27.2005 5.67489L27.2621 5.6133L27.3851 5.49017L28.6779 6.10594L28.801 5.98276L29.0472 5.85962L29.4781 5.36698L29.5397 4.99753V4.32016L29.6012 3.70439L29.6628 3.51962L29.8475 3.58121L30.4015 3.88912L30.8323 4.25857L31.2633 5.18226L32.2482 5.42857H33.4793L33.9102 4.99753L34.2796 4.87435L34.7105 4.99753L35.6338 5.12066L35.7569 4.38176L36.3109 3.58121L36.5572 3.33489H37.2343L37.419 2.78071L37.6037 1.17966L37.7268 0.994934L38.2193 1.05653L38.7117 1.36439L38.8348 1.61071H39.0811L39.4504 1.42598L39.8197 1.30284L40.4353 1.48757L41.7895 2.22648L42.4667 2.4728L42.8976 2.41125H43.3285L44.929 3.51962L46.037 3.70439H47.0219L47.3297 3.33489L47.7606 3.02703L48.1915 3.08857L48.5609 3.21175L49.2995 3.70439L49.6689 3.82753L50.1613 3.88912L50.5307 4.01225L50.8385 4.87435L50.6538 4.75121Z" fill="#434343"/>
</svg>
