<svg width="47" height="28" viewBox="0 0 47 28" fill="none" xmlns="http://www.w3.org/2000/svg">
<path d="M19.0648 2.98199H19.6804L20.2959 2.73567L20.3575 2.30463L20.2959 1.50413L20.3575 1.38094L21.2808 1.62726L22.2042 1.99672L22.3273 2.79726L22.5736 3.22831L22.8813 3.59776L23.1276 3.78249H23.6201L24.8512 4.27513L25.4667 4.39831L26.0823 4.70617L26.5748 5.07563L26.9441 5.13722L27.1288 5.50667L27.3751 5.75299L27.8059 5.56826L29.2833 5.32194L29.8373 5.69145L30.2066 6.0609L30.2683 6.18404L30.0835 6.55354L30.022 6.79985L29.8988 6.98458L29.4064 7.16931L29.0987 7.47722L28.914 7.78508L29.037 8.09299L29.468 8.33931L29.7758 8.40085L29.8988 8.64717L30.8223 9.69399L31.5609 11.0487L31.8687 11.2334L32.1149 11.295L32.4227 11.1103L32.792 10.6793L33.223 10.3714L33.5923 10.1866L34.2079 9.81717V9.57086L33.6538 8.64717L33.3461 7.90826L33.4077 7.78508L34.0848 7.90826L35.2544 8.33931L37.0395 9.63245H37.3473L37.9629 9.50926L38.64 9.32454L38.9478 9.07822L39.0709 9.13981L39.1941 9.87877L39.0094 10.2482L38.2091 10.6177L38.2707 10.8024L38.4553 11.0487L38.8247 11.2334L39.2556 11.7261L39.5634 12.2803L39.8096 12.5266L40.1174 12.6498L40.8561 12.3419L41.0408 12.0956L41.1639 11.9108L41.287 11.9724L41.5332 12.2187L41.5948 12.3419L42.3335 12.6498L42.7644 13.0192L43.0106 13.2039L43.3184 13.0192L44.488 13.3271L44.7957 13.5734L44.9189 14.0045L44.8573 14.2508L45.042 14.8666L46.5194 16.406L46.6425 17.2065V17.5144H46.4578L46.0885 17.6992L45.596 17.7608L45.042 17.6992L44.6111 18.0071L44.2417 18.4381L43.8109 18.746L43.5646 19.0539L43.4416 19.3618L42.0257 20.1623L41.841 20.5318L41.7179 21.0244L41.6563 21.6402L41.5332 22.1944L41.287 22.5023L40.5483 22.7486L40.3637 22.8718L40.2405 23.1796L39.8096 23.6107L39.3171 24.0417L38.3938 24.5344L37.4089 24.6575L36.1162 24.4728L35.3775 24.288L35.0081 24.4728L34.5157 25.0885L33.9617 26.1354L33.7155 26.9359L33.5308 26.6896L33.223 25.8275L32.8537 25.7044L32.3612 25.6428L31.9919 25.5196L31.2531 25.027L30.8838 24.9038L30.4529 24.8423L30.022 25.1501L29.7142 25.5196H28.7293L27.6212 25.3349L26.0208 24.2265H25.5898L25.159 24.288L24.4819 24.0417L23.1276 23.3028L22.512 23.118L22.1426 23.2412L21.7733 23.426H21.527L21.404 23.1796L20.9115 22.8718L20.419 22.8102L20.2959 22.9949L20.1112 24.596L19.9266 25.1501H19.2494L19.0032 25.3965L18.4492 26.197L18.3261 26.9359L17.4027 26.8128L16.9718 26.6896L16.6025 26.8128L16.1716 27.2438H14.9404L13.9555 26.9975L13.5246 26.0738L13.0937 25.7044L12.5397 25.3965L12.355 25.3349L12.0472 24.8423L11.4932 24.2265L10.5698 23.3644L9.83115 23.426L9.58496 23.1796L9.46182 22.8718L9.15401 22.3175L8.78469 21.9481L8.35374 21.8249L7.73822 21.3323L6.93794 20.2855L6.19928 19.5465H5.52215L5.0912 19.177L4.66035 18.6845L4.35254 18.1918L3.67541 16.6524L3.30608 15.975L2.99827 15.5439L2.69046 15.1745L2.56742 14.8666L2.99827 14.2508L3.12141 13.9429L3.30608 13.6966L3.42922 13.4503V13.2655L3.05979 12.6498L2.56742 12.2187L1.82866 11.7877L1.33619 11.1719L1.15153 10.6177L1.09001 10.3098L0.782199 9.94031L0.536011 9.32454V8.95508L0.597534 8.8319H0.843723L1.09001 9.07822L1.45933 9.50926L1.76714 10.1866L1.95181 9.94031L2.32114 9.2014L2.93675 8.40085L3.61388 7.90826L4.2294 7.84667L4.72187 7.72349L5.15282 7.47722L5.82995 7.60035L6.32233 7.78508L6.50709 7.66195L6.69175 7.2309L6.8148 6.8614L7.92288 6.67667L8.29221 5.93776H8.5384L8.78469 5.81458L9.03087 5.56826L9.27716 5.44513L9.46182 5.56826L9.70801 5.62985L9.95429 5.44513L10.3236 4.64458L10.5083 4.52144L11.4932 4.39831L12.8475 3.90567L13.5246 3.47463L14.2018 3.22831L14.9404 2.79726L16.0484 2.36622L16.11 2.18149L15.5559 1.75044L15.3713 1.50413L15.2482 1.25781L15.4329 0.949897L15.6791 0.888306L15.9869 1.01149L16.9102 1.19622L17.1565 1.38094L17.2796 1.81199L17.5258 2.18149L17.7105 2.24303L17.649 2.85885L17.9568 3.10512L18.3876 3.2899L18.6954 3.22831L18.8801 2.98199H19.0648Z" fill="#434343"/>
</svg>
