<svg width="74" height="168" viewBox="0 0 74 168" fill="none" xmlns="http://www.w3.org/2000/svg">
<path d="M56.4637 20.7253L56.0328 20.9716L54.617 21.8953L53.7552 22.5111L52.7087 22.9421L52.9549 23.5579L54.6785 23.6811L54.9248 23.8658L55.1095 24.1737L55.171 24.6663L54.9863 25.4668L53.1396 29.8389L53.078 30.7625L53.6937 33.2873L54.5555 36.243L57.1409 37.5362L59.0491 38.583L60.2803 40.9845L62.3117 44.125L63.3581 45.295L63.4197 45.6645L63.1119 47.8197L61.8192 49.975L60.5881 51.7607L59.3569 53.916L58.372 55.7633L57.3255 57.9802L57.2024 58.7191V59.3964L57.387 60.1354L58.7413 62.7833L59.2953 64.138L59.9109 65.6158L60.4649 67.2169L60.7727 68.6332L61.3267 69.9879L61.6961 70.6653L62.2501 71.6505L62.9273 73.0668L63.1735 74.2368L64.2199 78.1778L64.3431 79.163L64.2815 79.902L63.8506 80.0867L62.8657 80.2099L61.6345 80.641L61.573 80.8257L62.2501 81.7494L61.6345 83.2888L61.573 85.5056L60.8959 86.6756L60.8343 86.9219V87.1682L60.9574 87.353L62.1885 87.6609L62.3117 87.9687V88.6461L62.1885 89.2619L61.573 89.6929L60.8959 90.3703L60.7727 90.9861V91.5403L61.0189 92.464L61.4499 93.5108L62.0039 94.1882L63.9737 94.8039L64.2199 95.2966L64.3431 96.0355L64.2815 96.7129L63.3581 98.0676V98.6218L63.7275 99.9149L64.1584 101.146L66.0667 102.44L66.7438 103.179L66.9285 103.733L67.0516 104.656V105.642L66.9285 106.504L66.3129 107.612L64.8971 109.829L63.4813 110.691L63.4197 110.876L63.8506 111.615L66.3129 114.447L67.9134 115.741L70.0679 117.526L71.4838 118.943L71.9146 119.928L72.5302 121.036L73.2074 121.96L73.6998 122.76L73.8845 123.253V123.807L73.2074 125.408L72.838 126.64L72.1609 128.487L71.4838 129.78L69.7602 132.12L67.2363 135.015L66.6207 135.877L65.4511 137.355L63.4197 140.372L62.9273 141.049L61.2652 143.389L60.5265 144.128L59.9109 144.805L58.2488 147.022L56.4637 148.685L54.7401 150.224L54.2476 151.025L53.632 151.641L52.8319 152.195L52.524 152.503L50.8004 154.596L48.3997 157.491L48.1534 157.552L47.5379 158.045L46.553 158.168L46.122 158.537L44.6447 157.491L44.3984 157.429L43.5366 157.675L42.6748 158.414L41.1359 158.661L40.3356 158.907L39.8432 159.276L39.7201 158.476L39.9047 157.429L40.2741 156.752L40.3356 156.321L40.0894 156.382L39.5969 157.367L39.3508 158.537L38.7967 159.153L37.6272 159.4L36.4575 158.476H35.9035L36.2729 159.153L36.5191 159.892V160.323L35.9035 160.262L35.2264 160.693L34.6108 161.308H34.303L33.8721 160.385L33.1334 160.816L32.5179 161.37L31.2251 161.555L30.4865 162.294L29.1322 162.786H28.3935L26.7315 163.402L26.1775 164.326L25.685 164.695L25.0078 164.387L22.8533 164.818L20.7604 165.434L19.8986 165.373L19.0368 165.126L18.1133 165.927L17.1285 167.035L16.0204 167.405L15.6511 167.282L15.9589 166.727L16.6976 166.112L17.19 165.311L17.2515 164.634L16.8822 164.387L16.3897 164.326L15.7742 163.648L15.2202 162.109L14.9124 162.047L14.7893 162.478L14.6046 163.648L14.42 163.956L14.1122 164.203L13.7428 164.449L13.3735 164.572H12.1424L11.9576 163.956V163.648L12.2039 162.848L12.0192 162.725L12.2039 162.109L12.5117 162.171L12.881 162.109L13.0657 161.801V161.432L12.5732 161.308V161.062L13.0042 160.015L13.0657 159.707L12.881 159.646L12.6347 159.769L10.8496 159.461L8.63354 158.106L8.07954 158.045L7.77174 156.813L7.15613 156.875L6.35594 157.614L5.80185 157.06L5.18634 156.69L5.00167 156.136V155.335L4.94005 154.35L4.75539 153.18L4.63234 151.518L4.75539 150.224L5.24786 149.239L5.43252 148.623L5.67881 147.084L5.74033 145.237L5.61719 144.621L5.67881 144.19H6.04814L5.98661 143.82L5.80185 143.635L5.61719 143.204L5.80185 142.958H6.29432L6.35594 142.835L6.41747 142.65L6.04814 141.542L5.98661 141.049L5.49414 139.51L4.87853 138.032L4.01673 136.923L4.32453 135.138L4.69386 133.537L4.63234 132.736L4.5092 131.812L3.46273 130.766L3.27807 129.288L3.03179 127.687L3.15493 126.701L3.33959 125.963L3.70892 125.224L5.49414 122.822L5.61719 121.59L6.84841 121.529L6.29432 120.421L6.17128 119.805V119.066L7.89488 118.573L8.57202 119.004L10.111 118.512L11.4652 117.526V116.972L11.2806 116.48L10.9728 115.556L11.1574 115.31L11.6499 115.494L11.4036 115.063L11.4652 114.571L12.0192 114.755L12.881 113.401L12.9425 112.354L14.4815 111.8L16.2667 109.644L17.0669 108.967L17.8672 108.474L19.5292 106.319L20.2679 106.196L20.6372 104.718L22.0531 102.748L22.484 102.501L23.1611 100.715L24.8847 98.6834L25.9928 96.0971L26.6083 95.1734L26.793 94.1882L27.4701 94.1266L28.0857 93.3877L29.44 92.895L30.7326 93.0182L31.2867 93.3877L31.7791 93.2645L31.7176 92.3408L31.3483 91.7866L31.6561 91.2324L32.3332 90.8013L32.2716 89.8777L32.1485 89.3235L31.5945 88.5846L31.9023 86.9835L31.9638 85.1977L32.2101 83.1041L31.4714 81.9956L28.7012 80.0867L28.2089 80.1483L27.5933 79.902L26.9776 78.4857L27.2854 77.2541L27.347 76.8231H27.1008L26.6699 77.4389L25.808 78.1162L24.7 77.562L24.146 77.6852L23.4073 74.6063L23.038 73.4363L22.4224 71.9584L21.376 71.2194L21.1912 70.7884L21.0682 70.1726L21.0066 69.3105L20.8835 68.0174L20.945 66.9706L21.0682 66.3548L21.499 65.9238L22.1762 64.6922L22.2993 63.8301L22.3608 62.4753L22.6686 61.3054L22.9764 60.6896L22.9149 60.197L22.6686 59.5196L22.1762 58.5343L21.4375 57.3643L20.8835 56.1944L20.6372 55.1476L20.5142 54.1623V53.3002L20.6988 52.6844L21.4375 51.9455L21.5606 51.6376L21.2528 49.975L20.7604 49.6671L19.8986 49.4823H19.4061L19.3446 49.2976V48.9897L19.4676 48.3124L19.7139 47.5118L19.9601 47.0192V46.5881L19.6523 45.1103L19.5908 43.3245L19.7139 41.9082L20.6372 40.8614L20.6988 40.4919L19.5908 39.322L18.7905 38.0288L18.5443 37.2899L17.621 37.1667L17.0669 34.9499L16.2051 33.8414L15.4049 32.9178L14.9124 32.4868L12.0192 31.132L10.9111 30.8857L9.55686 30.0852L8.57202 29.0999L7.71021 28.4842L6.97146 27.6836L5.925 26.9447L5.61719 26.3289L4.5092 25.1589L4.01673 24.3584L2.2316 22.8805L2.16999 22.3263V21.7721L2.10846 21.5258L0.261719 20.4174L0.631049 19.8016L2.10846 19.7401L3.33959 20.2942L3.58587 20.0479L3.77054 19.5553L3.27807 17.5232L3.33959 16.969L3.89359 16.3532L4.75539 15.8606L6.04814 15.799L6.97146 15.8606L7.15613 15.9222L8.5104 18.139L9.68 20.2942L10.2956 21.2179L11.7729 23.8042L12.327 25.2821L12.5117 26.3289H13.1272L15.2202 26.8215L17.0054 27.191L17.4978 27.8068L18.729 27.6836L19.6523 27.1294L21.3144 26.4521L21.7453 25.59L22.2993 24.6663L23.2842 24.7895L24.3307 25.4668L25.5618 26.3905L26.6699 26.8215L28.1472 27.4989L28.8244 28.361L29.7478 28.6073L30.7326 27.7452L31.3483 25.4053L31.8407 24.3584L32.5794 23.5579L33.4412 23.1884L34.0568 23.0652L34.5493 22.4495L35.2264 21.0947L35.3495 19.4322L35.2264 16.4764L35.3495 15.4911L35.9035 13.8901L36.6422 9.57964L37.0115 8.34805L37.4425 7.60914L37.9965 7.17809L39.0429 5.88496L40.5204 3.23709L40.9512 2.99077L41.9977 2.86759L43.2904 2.99077L44.46 3.48336L44.5831 3.42182L45.1372 3.1755L46.122 2.375L47.7841 0.712357L48.8306 0.281311L49.8155 0.342902L50.862 2.12868L52.4009 4.09918L53.3858 5.08441L56.0328 6.87018L58.372 8.04018L59.6646 11.9196L59.0491 13.4591L58.7413 14.0133L57.6333 15.5527L56.4021 17.708L56.3406 18.8164L56.7715 19.9248L56.4637 20.7253ZM28.3935 91.1092L27.347 91.6635L26.5468 91.3556V90.3087L27.0393 89.8161L27.9626 89.6314L29.1937 90.124L29.3784 90.3703L28.6397 90.5551L28.3935 91.1092ZM3.70892 118.388L3.77054 118.696L4.13987 118.635L4.69386 118.142L5.06319 118.388L5.00167 119.127H4.75539L4.69386 119.004L4.38606 119.435L4.32453 119.682L3.9552 119.866L3.21645 119.127L2.7856 117.957H3.83206L3.70892 118.265V118.388ZM5.24786 157.614L5.12481 158.23L4.63234 158.168L4.13987 158.291L3.77054 157.675L3.58587 156.567L3.6474 156.321L3.9552 156.074L4.20139 156.69L5.24786 157.614ZM9.00287 160.262L8.5104 160.323L7.83326 159.646L7.77174 159.4L8.01793 159.215L7.83326 158.661L7.89488 158.414L8.44887 158.845L8.75668 159.338L8.44887 159.461L8.94135 159.954L9.00287 160.262ZM10.234 159.769L11.0958 160.077L11.4652 159.954L11.8961 160.693L11.2189 161.124L11.1574 161.678L11.4036 162.047L11.5267 162.54H10.8496L10.5418 162.109L10.4187 161.555L10.111 161.185L9.68 160.877L9.86467 160.508L9.98781 159.954L10.234 159.769ZM7.89488 162.971L7.21774 163.464L6.97146 163.341L7.03308 162.54L7.46393 162.171L8.14107 162.109L7.89488 162.971ZM6.47899 163.402L5.86347 163.525L5.49414 163.156L5.61719 162.848L6.04814 162.54L6.47899 162.602L6.60213 162.971L6.47899 163.402Z" fill="#FF0000"/>
</svg>
