<svg width="99" height="98" viewBox="0 0 99 98" fill="none" xmlns="http://www.w3.org/2000/svg">
<path d="M52.6244 5.52144L53.0552 5.3983L53.7324 4.96721L54.2864 4.84407L54.5942 5.15199L54.7788 5.33671L55.1482 6.07562L55.2713 6.81458L55.456 7.43035L55.7638 7.67667L56.8719 7.73826L57.672 7.98458L57.8567 8.16931L58.103 9.58558L58.226 9.77036L58.4108 9.58558L58.5955 9.33931L58.8416 9.27772L59.3341 9.33931H59.9497L60.5652 9.52404L61.427 10.3245L61.3655 10.5709L61.1809 11.0019L61.1192 11.3714L61.2424 11.4945L61.4887 11.864L61.427 12.295L61.1809 12.603L61.1192 12.8493V13.034L61.1809 13.1571L61.3655 13.2803L62.6582 13.465L63.8894 13.2803L64.628 12.8493L64.7512 12.3566L64.9359 11.8024L65.3667 11.3714L65.6745 11.2482L65.9823 11.4329L65.4898 13.2803L65.8592 13.7729L65.9207 14.5119L66.0438 15.1276H66.4748L66.9673 15.2508L67.3366 15.4971L67.7674 15.8666L68.3831 16.236L68.8139 16.3592L68.9986 16.6671L69.368 16.975L69.922 17.6524L70.4145 18.0834H70.6606L71.0916 17.8987L71.7687 17.7755H72.3227L72.5689 18.145L73.123 18.3297L73.3077 18.4529L73.4923 18.6992L73.8617 18.8223L74.2925 18.6992L74.6003 18.3913L75.0313 18.2681L75.4621 18.3297L75.7084 18.5145L76.1392 18.7608L76.3855 18.6992L76.878 18.8839L77.3704 19.3766L77.6167 19.8692L77.6782 20.1155L77.9245 20.4234L78.7863 21.7781L79.0324 21.8397L79.3403 21.655L79.5249 21.3471L79.8327 21.2855L80.2636 21.4086L80.5714 21.5318L80.6945 22.1476L80.8177 22.2707L81.0023 22.1476H81.3717L81.9256 22.2707L82.7259 22.086L83.3414 21.8397H83.6492L84.1417 22.5171L84.6957 22.7634L85.9885 22.9481L87.3427 23.256L87.8967 23.5023L88.2661 23.6255L88.3277 24.5491L88.2045 24.6723L86.8503 26.4581L86.2963 27.0738L85.9885 27.9975L85.8038 29.4138L85.3728 30.7685L84.7573 32.0001L84.511 32.9238L84.6957 33.5396L84.5727 34.5248L84.2032 35.8795L84.1417 36.8648L84.3879 37.5421L84.7573 37.6653L83.9571 38.0964L83.7724 38.5274L83.4646 39.0816L82.9106 39.3279L82.3566 39.3895L81.9256 39.3279L81.6795 39.1432V38.9584L81.4332 38.7737H80.8792L80.3252 39.1432L79.8327 39.7589L79.9559 40.0669L80.3867 40.1284L80.5099 40.2516V40.4363L80.3867 40.621L80.2021 40.9905L79.2787 42.0374L78.3553 43.0842L78.2322 43.3921L77.9245 43.6384L76.7549 44.1926L76.6317 44.4389L76.5702 45.3626L76.447 46.1015L75.5852 46.8405L74.7235 47.5794L74.5388 48.0105L74.4156 48.5031L74.1695 49.0573L74.1078 49.3652L74.5388 49.8578L74.4773 50.2888L74.3541 50.8431L73.9232 51.2741L73.4923 51.5204V52.1362L73.7385 52.1978L74.2925 52.1362L75.0313 51.7051L75.5237 51.1509L75.2159 50.5967L75.1543 50.4736L75.2159 50.3504L75.8314 49.7346L76.5702 49.3652L77.6167 49.3036L78.8478 49.4883L78.9709 49.5499L78.9093 49.9194L79.0324 50.4736L79.2787 50.8431L78.9709 51.9515L79.2171 52.2593L79.5864 52.6904L79.8327 53.0599L80.2021 53.3677L80.5714 53.922L80.6945 54.2298L80.1405 54.7841L79.2171 55.3382L79.0941 55.6462V56.0156L79.2171 56.3235L79.7096 56.693L80.2636 57.5551L80.633 58.3556L81.3717 59.0945L81.5563 59.3408L81.4948 59.5256L81.31 59.8335L81.0639 60.8803L80.756 61.065L80.3867 61.1266L79.4634 61.8656L79.0324 61.7424H78.4169L77.986 61.9887L78.0475 62.4813L78.4169 62.9124L78.6631 63.405L78.7246 63.8977L79.1556 64.2671L79.7711 64.5134H80.1405L80.3867 64.6366L80.5099 64.8213L80.756 65.8682L80.5714 66.1144L80.2636 66.2376L80.0789 66.6687L79.7096 67.2844L79.4634 67.7771L79.7096 68.2081L79.8327 68.516L79.7096 68.8855L79.8942 69.4397L80.3252 69.9939L81.5563 70.7329L82.7259 71.3486L83.0953 71.4718L84.6342 71.1023L84.8804 71.1639L85.065 71.5949L85.1267 71.9029L84.942 72.3954L84.511 73.0728L84.0802 73.5654L83.8339 73.9965L83.8955 74.366V74.9201L83.5261 75.1049V74.9818L83.4031 74.9201L83.2799 74.9818L83.1568 75.1049V75.2896L82.3566 75.5975L81.8025 75.967L79.6481 78.0607L78.6631 78.6764L78.4785 79.0459L78.2938 79.7232L77.6782 80.2775L77.1857 80.5238L75.8931 80.8317L74.6003 81.4474L74.0463 81.2011H72.5689L71.6456 80.4622L69.8605 79.9696L69.2448 78.8611L68.4446 78.7996L67.8906 78.8611L67.5828 78.6764L67.5213 78.307V77.9375L66.9673 78.1222H66.5363L66.2901 78.2454L66.1055 78.4301L65.8592 78.307L65.736 78.3685V78.5532L65.182 78.6149L64.628 78.4917L63.1506 77.9375L62.9044 77.8759L61.858 77.6296L61.427 77.3833L61.0577 76.829L60.8115 76.6443L60.6884 76.5212L59.7034 76.829L59.3956 77.2601L58.9032 77.7528L55.3329 80.2775L54.6558 81.3243L53.917 82.8638L53.8555 83.6027L54.1633 85.8811L54.902 87.0511L54.9635 87.2974H54.5326L53.8555 87.1742L53.3015 86.9895L52.7474 87.1126L52.2551 87.359L51.8241 87.4822L51.5163 87.5437L51.2701 87.6669L51.147 87.9748V88.1595L50.593 88.0979L49.3002 87.6669L48.1306 87.359L47.4535 87.6669L47.0226 87.9748L46.7148 87.9132L46.4686 87.6052L46.284 87.2974L45.7915 86.9895L44.745 86.5584L44.8066 86.3737L44.9912 86.0658V85.8811L44.8066 85.6348L43.8216 85.3269L43.3908 85.2653L43.083 85.4501L42.8983 85.6963L42.3443 84.8342L41.9749 84.6495H41.4209L40.7438 84.4032L40.0666 84.0337L38.4046 83.4795L37.9737 83.418L37.789 83.4795L37.6659 83.7874L37.6044 84.7111L37.5428 84.8342L36.7426 84.8959L35.7576 84.7727L35.3268 84.8342H34.9574L34.588 84.588L32.926 84.8959L32.6798 84.7727L32.3104 84.3416L31.8795 84.0337L31.5102 83.849L31.2024 83.6642L30.9562 83.6027L30.5252 83.7874L29.9712 83.849H29.4788H29.2326L28.1861 82.8021L28.063 82.4942L27.5705 82.4327H26.955L25.2929 81.7553L24.5542 81.3859L24.4311 81.2011V81.0164L24.308 81.078L24.0618 81.3859L23.9386 81.6321L23.754 81.6938L23.5077 81.6321L23.2615 81.5091L23.1384 81.3243L23.2615 81.0164L23.5077 80.5853L23.6308 80.1543V79.7232L23.2 79.477L22.5844 79.3538L22.1535 79.2922L21.5994 79.0459L21.3532 78.8611L21.107 78.4301V78.1222L22.215 77.8143L23.2 76.6443L24.1233 72.3339L24.8004 67.2228L25.2929 66.2376L25.9084 65.9913L25.416 65.2523L25.1082 65.6218L24.9851 65.9913L24.8004 66.176L25.1698 61.4345L25.416 59.7103L25.9084 57.863L26.8318 58.6019L27.6321 59.3408L28.063 59.9566L28.5554 62.1119L28.9248 62.5429L29.4788 62.974L29.2326 62.4813L28.8016 62.1119L28.1861 59.2793L27.8168 58.4787L27.2012 57.8014L25.2314 56.3851L25.0466 56.0772L24.9236 55.523H25.6007L26.1547 55.7693L26.0932 55.4614L25.9084 55.1535L25.6622 53.9836L25.416 51.2741V50.7815L25.2929 50.2273L24.6773 50.1041H24.1848L23.6308 49.8578L20.9223 48.2568L19.999 46.5941L19.0756 45.3626L18.8294 44.8084V44.2542L19.3218 43.0842L18.8909 42.3453L18.46 42.2221L18.0907 41.8526L18.3985 41.2369L18.6447 40.8674L19.1987 40.7442L19.9374 40.8674L20.6146 41.2369L21.1686 41.36L19.568 40.4363L16.9826 40.7442L16.4286 40.621L15.9362 40.4363L15.7515 39.7589L16.1208 39.4511L16.4286 38.8969L16.0593 38.4658L15.5668 38.2811H14.8282L14.0894 38.4042L13.9048 38.1579L14.3357 37.4806L13.9664 37.2343L13.4739 37.3574L12.7351 37.4806L12.058 37.2958L11.4425 36.5569H11.0116L10.7038 36.6185L10.2729 36.3106L9.84204 36.249L9.53423 36.3722L9.10329 35.9411L6.39475 35.079L5.22524 34.9558L4.17868 35.3253L3.56316 35.2022L3.13222 34.648L2.76289 33.7243L1.03929 32.9853L1.34709 32.4927L2.14737 32.3696L3.07069 32.0617L3.3785 31.6306L2.63975 31.138L2.08575 31.0148L1.83957 30.8301L1.59328 30.3991L1.90109 30.2143L2.14737 30.3375L2.76289 30.3991L3.87097 30.2759L3.44002 29.8448L3.00917 29.7217L2.82441 29.5985L1.90109 29.537L1.47024 29.6601L0.546819 29.5985L0.362155 29.1059L0.239014 28.6749L0.546819 27.7512L1.83957 26.9507L5.04048 26.027L6.39475 26.1502L7.37969 25.9654L8.54929 25.4112L9.04176 24.9186L10.7038 24.6107L12.2428 25.1033L13.6586 27.0738L14.3357 27.7512L15.9978 26.5812L18.5216 26.6428L19.014 27.2586L19.1987 26.7044L19.6296 26.0886L19.999 26.3965L20.1836 26.7659L22.8306 26.6428L23.2615 26.5196L22.5228 26.027L21.9688 24.9186L21.8457 20.7929L21.107 19.6229L20.2452 17.7755L19.8758 16.6671L19.8143 16.2976L19.9374 15.7434H20.9839L21.7841 15.8666L23.323 15.4355L24.0618 15.7434L24.0002 16.6055L24.2464 17.714L24.4926 18.2681L24.862 18.8839L26.0932 18.8223L27.3858 19.1918L29.0479 19.2534L31.5102 19.8692L32.5566 19.4997L33.5416 18.7608L35.4498 18.2681L35.573 18.0218L34.465 18.145L33.48 17.6524L33.3569 17.1597L33.48 16.7287L33.9109 15.6819L36.8657 14.0192L38.9586 13.5266L41.1747 12.603L42.2827 11.6793L43.0215 10.4477L43.2676 10.2014L43.5754 9.95508L43.2676 9.52404L43.4523 4.78248L43.637 3.92039L44.0679 3.24303L44.745 2.68884L45.7299 2.07307L49.3619 1.27252L49.9158 0.964661L49.9774 1.45725L50.2236 2.13462L50.4083 2.50412L50.2852 2.99671L50.4083 3.36621L50.9008 4.04357L51.5163 4.72094L52.0703 5.15199L52.6244 5.52144ZM25.1082 54.7225L24.862 55.5846L24.4311 54.7841L23.8155 54.1067L23.6924 53.4909V53.3062L24.3695 53.7988L25.1082 54.7225ZM97.7459 84.1569L97.5613 85.5116L97.6843 85.8811L97.9306 86.1274L98.0536 86.4353L98.2383 90.0068L98.1768 90.3147L97.315 91.731L97.1303 92.1621L97.0688 93.9478L96.9457 94.4404L96.6379 94.9331L96.0839 96.4725L95.6529 97.1499L94.4218 96.3493L93.6831 95.9799L93.3138 95.6104L93.0675 95.3642L93.1907 94.9947L93.4985 94.6252L93.56 94.3173L92.7597 94.0094L92.3904 93.7631V93.3936L92.6367 92.7779L92.5135 92.2853H92.0826L91.7132 92.2236L91.6517 91.9773L91.8979 91.6694L92.2057 91.2384V90.7458L91.7749 90.5611L91.4055 90.1915L91.2824 89.6373L91.5902 89.2679L92.0211 89.0216L91.6517 88.4673H91.4055L91.2208 88.3442L91.3439 88.0979L91.7132 87.7284L92.2057 86.6201L92.8829 86.0658L94.114 85.6963L94.4218 85.5731L94.7296 85.1421L95.0374 84.8959L95.4682 84.9574L95.8376 85.0806L96.0839 85.2653L96.2685 85.0806L96.4532 84.588L96.33 84.1569L96.3917 82.9253L96.6379 82.248L97.0072 82.1864L97.315 82.5559V82.8638L97.4381 83.6642L97.7459 84.1569Z" fill="#FF0000"/>
</svg>
