<svg width="60" height="61" viewBox="0 0 60 61" fill="none" xmlns="http://www.w3.org/2000/svg">
<path d="M46.4271 1.19438L47.0427 1.37911L47.4121 1.68702L47.6583 1.93329L47.9661 2.17966L48.2123 2.2412L48.397 3.04175L48.5201 4.02693L48.397 4.45803L47.9661 4.58121L46.5503 5.50485L46.4887 6.36694V6.79803V7.10585L46.6118 7.35222V7.72167L46.4271 8.09113L45.8116 8.70695L45.3807 9.19959L44.8882 9.87695L44.642 9.9385L44.4573 10.0617L44.2727 9.69223L43.2262 9.01486L40.7639 8.64531L39.5943 8.15277L39.1018 8.21431L38.1169 7.66013L37.4398 7.9064L36.0239 8.89168L35.2237 8.76849L34.3619 8.15277L33.8078 8.02958L33.1923 8.33749L32.1459 9.44586L31.0994 10L30.176 9.75377H28.9449L28.8217 10.3696L29.068 10.8006L29.7451 11.5395L29.4373 12.0938L29.6835 12.648L30.1145 12.7711L30.7916 12.7095L32.0227 13.4485L32.5767 14.1874L32.946 15.0495L32.2074 14.4337L31.7149 13.8795L31.0378 13.6948L30.0529 13.2021L29.4373 13.1406L28.7602 13.5101L28.6987 13.8795L29.3758 14.6184L29.9913 15.0495L30.3606 15.419L30.6069 16.2195L30.4838 16.4658L30.2376 16.7122L29.4988 16.2195L28.3292 14.4337L26.7288 14.0642L26.4826 14.4337L26.7903 15.3574L27.0366 15.7269L28.4524 16.7737L28.3292 17.02L28.1446 17.0816L26.5441 16.5274L26.1132 15.6652L25.9901 14.5569L24.5127 13.7563L23.1584 12.8942L22.8506 12.0938L23.1584 11.7859L23.3431 11.17L22.6044 11.2932L22.112 11.6627L21.3733 12.0321L21.3117 12.648L21.4348 13.2021L21.1887 14.0027L20.9424 15.419L21.127 16.1579L22.7891 18.2516L23.3431 19.7911L23.7741 20.3453L24.6359 20.961L25.4977 22.131L25.867 22.7468L26.1132 23.7321L25.3745 24.3478H24.9437L24.6974 24.1015L25.0052 23.4242L24.9437 22.9931L23.7741 22.3774L23.2816 22.6236L22.7276 23.0547L23.0353 23.8552L23.4047 24.3478L23.5894 25.0252L24.2665 24.9636L23.3431 25.7642L22.4813 26.1952H21.6195L21.0655 26.2567L20.8808 26.4415L21.3117 26.5646H21.6811L22.2966 26.9957L23.9587 27.4884L24.759 28.1041L25.5592 28.1657L26.3595 29.3356L27.7137 29.6436L28.514 30.8136L29.5605 31.0598L30.4838 31.4909L30.73 31.922L30.8531 32.6609L30.9147 34.2619L31.0994 35.4319V35.8014L31.0378 36.3556L30.7916 36.6019H30.4838L29.8682 35.7398L28.8833 34.8161L27.8369 33.7078L27.5291 33.523H27.2828L26.7288 33.8925L25.1898 34.2004L24.4512 34.5698L24.2049 34.6314L24.1434 34.8161L24.5127 35.0625L24.9437 35.5551V36.2325L25.313 37.0329L25.7438 37.2177H26.2979L26.6056 37.3409L26.6673 37.6488L26.9751 38.0182L27.2213 38.3261V38.5109L25.6208 39.065L25.313 39.3114L25.0052 39.4345L24.5742 39.1882V38.5109L24.0202 38.1414L23.5278 37.8335L22.9123 37.7103L22.4198 37.2793L22.112 37.6488L22.3583 38.942L22.9738 39.804L23.9587 42.144L24.3896 43.4987L24.4512 44.1761L24.2049 45.2845L24.6974 46.085L25.0052 46.9471L24.6359 46.8855L24.328 46.5776L23.7741 46.2082L22.7276 44.8534L22.3583 43.9913L21.9273 43.9298L21.1887 44.0529L20.3884 45.8387V46.8855L19.9574 46.6392L19.5881 46.3313L19.6497 45.2229L19.5881 44.7302L18.6033 43.1908L18.1723 43.0061L17.9876 42.5134L17.6183 41.9592L17.1258 42.0824L16.7565 42.3287L16.6334 43.1908L16.5718 43.9298L16.264 44.484L15.2176 43.4371L14.1711 41.5898V40.6045L14.9713 39.6809L14.9098 39.0035L14.1711 37.7103L13.1247 36.8482L12.509 36.6019L12.2012 35.6782L11.6472 35.1857L11.2163 34.9393L11.1548 34.6314L11.2779 34.3851L12.3859 33.4615L13.063 31.9836L13.3708 31.922L14.048 32.2915L14.7866 32.2298L15.4022 31.3677L15.8947 30.8751L16.7565 30.9367L18.7263 32.1067L20.8808 32.7841L21.9273 33.3383L22.5429 33.8925L22.8506 34.0157L23.3431 34.0772V33.6462L23.1584 33.2767L23.5894 33.0919H24.6974L24.882 32.9072L25.0667 32.5993L24.8205 32.2298L24.4512 32.0451L24.0202 31.9836L23.7741 31.8604L23.3431 31.9836L22.666 31.6757L22.2966 31.4294L22.112 31.183L20.9424 30.6904L19.8344 29.8899L19.5881 30.3209L19.1572 30.5673L18.5416 30.6288L16.7565 30.1362L15.6484 30.5056L15.0329 30.6288H14.602L14.048 30.8136L13.3708 30.9367L12.8168 30.1977L12.5706 29.6436L12.3859 29.5204V30.0746L12.2012 30.5056L11.401 30.752L10.9086 30.3826L10.5392 29.3356L10.1083 28.0426L9.30803 26.9957L8.63089 26.7494L8.56937 26.1952L8.63089 25.7025L9.43117 25.5794L10.6623 26.072L10.9086 25.9489L11.1548 25.7025L11.0932 25.2099L10.9086 24.7789H10.5392L10.293 24.8405L9.55431 24.7789L8.56937 25.0252L8.13842 24.7789L8.01537 24.471L7.2151 23.7936L6.53796 22.87L5.36836 22.2542L4.6297 20.3453L4.01409 19.4832L3.33695 18.8673H3.46009L3.70628 18.9905L4.19875 19.2984L4.69122 19.36L4.99903 19.1137L5.18369 18.929L5.30683 18.6211L5.36836 18.2516L5.42998 18.1284L5.7993 18.19L5.92235 18.0669V17.6973L5.67616 17.2663L5.42998 16.7122V16.4658L5.61464 16.3426L5.92235 16.0963L6.10702 15.7884L6.41482 15.6652H6.90729L7.46129 15.5422L7.83071 15.2342L7.89223 14.9263L8.13842 14.0642L8.26156 13.6332L8.50785 13.2637L8.63089 12.7711L8.87717 12.2785L9.36965 12.0938L9.86202 11.8474L10.2314 11.2317L10.4161 10.6774V10.3696L10.1083 9.81531L9.86202 9.32268L9.92364 8.64531L10.847 8.58377L11.1548 8.52222L12.3859 8.46058L12.9399 8.09113L13.3093 8.15277L14.1095 8.46058L14.4788 8.21431L15.5254 7.72167L16.5718 6.3054L17.0027 6.12067L17.9876 6.05903L18.2954 5.8743L18.6648 5.93594L19.7728 6.24376L20.3884 6.3054L21.127 6.12067L21.9273 5.75121L22.112 4.51957L22.2966 4.33484L22.7891 4.2733H23.1584L23.8972 4.39648L24.759 4.45803L25.313 3.90384L26.2363 3.84221L26.6673 3.78066L27.3444 3.90384H28.0215L28.8833 3.65748L29.6835 3.28802L30.2991 3.34957L30.5453 3.28802L30.6685 3.22648L30.8531 2.6723L32.0227 2.61066L32.4537 2.6723H33.1308L33.8078 2.36438H33.9926L34.3619 3.16484L34.5466 3.41121L34.9159 3.59593L35.7777 4.15012L35.9009 4.02693L36.2702 3.84221L37.2551 4.08857L38.1785 4.51957L38.9787 5.19694L39.8405 5.01221L40.8255 4.7043L41.441 4.64275L42.1181 4.58121L42.5491 4.45803L43.4724 4.64275L44.4573 4.2733L44.9498 3.96539L45.0729 3.53439L45.0113 2.73384L44.7651 1.93329L44.5189 1.62538L44.4573 1.31756L44.5804 1.00965L44.7035 0.824925L45.3191 0.640198L46.4271 1.19438ZM35.9009 11.1085L35.0391 11.4164L34.1773 10.8006V10.4311L34.6697 9.69223L34.9159 9.44586L35.5931 9.5074L35.9624 10L36.0239 10.2464L35.9009 10.6774V11.1085ZM42.1181 12.7711L41.3179 13.0174L40.4561 12.2785L41.2563 11.9706L41.6257 12.1553L41.8719 12.4016L42.1181 12.7711ZM40.4561 16.7122L40.2099 17.02L40.0252 17.5126L39.9021 18.2516H39.5327L39.2865 18.1284L39.2249 17.8205V17.4511H39.0403L38.9171 17.8205L38.7941 18.0052L38.3631 18.0669L37.9323 17.8205V17.3279L37.8707 16.7122L37.9323 16.5274L39.1634 16.4658L39.5327 16.8969L39.9636 16.6505L40.1483 16.4042L40.6407 16.2195L40.4561 16.7122ZM3.89104 21.5768L4.01409 22.0694L3.15229 21.7615L2.53677 21.3305L2.0443 20.2221L0.936218 18.9905V18.6211L1.36717 18.3747L2.29049 18.19L2.65982 18.3747L2.9061 18.5594L2.96762 18.8058L2.47515 19.2984L2.35211 19.5447L2.72144 19.9758V20.1605L2.9061 20.961L3.09076 21.2689L3.58324 21.5153L3.89104 21.5768ZM47.0427 22.5004L46.9196 22.9931L47.843 23.8552L48.1507 24.4095L48.2739 24.9636L48.2123 25.0868L47.843 24.7789L47.5352 24.7173L47.6583 25.0868L47.9661 25.3946L47.4121 25.5794H46.8581L45.3191 25.1484L44.9498 24.6557L45.8731 23.9168L46.0578 23.6089H45.3807L44.7035 24.471L43.5955 24.1015L43.2262 23.7321L43.1646 23.5474L43.5955 22.8084H44.3957L44.8267 22.6236L45.3191 22.3774V22.0079L46.5503 21.9463L47.0427 22.5004ZM29.8682 23.9784L29.5605 24.1015L29.8682 23.4242L30.4223 23.0547L30.2376 23.6704L29.8682 23.9784ZM29.1295 24.3478L28.8217 24.6557L28.3292 24.5325L27.8369 23.5474L29.1295 24.3478ZM26.6673 25.7642L27.0366 26.6878L27.4059 26.9957L28.1446 27.3652L28.514 27.4267L29.8067 28.1041L31.2841 28.2273L31.4687 28.412L31.6534 28.9046L31.9612 29.3356L32.0227 29.6436L31.8381 30.013L32.0842 31.1215L32.4537 32.1683L33.0077 32.6609L33.7463 32.7841H34.4235L34.6081 32.9688L34.5466 33.8925L34.2388 34.2619L33.9926 34.3236L33.8078 34.2619L33.6232 34.0772L33.4385 33.954H33.0692L32.7614 33.5846L32.0842 33.0304L31.9612 32.7225V32.2915L31.6534 31.9836L31.3456 31.3677L31.0994 31.183L30.9763 30.8751V30.752L29.9298 30.6288H29.068L28.3292 30.2594L28.0831 29.3356L27.6521 29.0894L27.3444 28.8431L27.0981 28.4736L26.421 27.7962L25.6823 27.242L24.9437 26.8725L24.1434 26.6263L23.5278 26.9341L23.1584 26.8725L23.0969 26.6878L23.8972 26.3184L25.0052 25.5794L25.7438 25.3331L26.1132 25.2715L26.6673 25.7642ZM35.2237 27.0573L34.485 27.242L34.3003 27.1805L34.485 26.9341V26.811L33.7463 26.3184L33.8078 25.7025L33.8695 25.5178L34.4235 25.8257L34.5466 26.3799L35.2237 27.0573ZM8.0769 28.7815L7.83071 28.8431L7.58443 28.7815L7.39976 28.8431L7.2151 29.0278V28.3505L7.46129 27.4884L7.76909 26.9957L8.20004 26.7494L8.3847 27.1188L8.32309 28.5352L8.0769 28.7815ZM44.8882 32.1683L44.2111 32.6609L43.4724 31.9836L43.3493 31.7372L43.9033 31.4294L44.1495 30.9983L43.9649 30.4441L43.2262 29.6436L43.1646 29.0894L44.2727 28.8431L44.9498 29.3356L45.3191 29.3973L45.196 29.8899L45.2575 30.013L45.3191 31.4294L45.0113 31.6141L44.9498 31.9836L44.8882 32.1683ZM8.56937 31.183L8.26156 31.3062L7.83071 30.5056L7.64595 29.9515L7.83071 29.8899L8.01537 29.9515L8.20004 30.1977V30.4441L8.26156 30.6904L8.44623 30.9983L8.56937 31.183ZM7.58443 30.752L7.64595 31.7372L8.13842 31.922L8.75403 32.8457L8.69251 33.2767L8.56937 33.4615L7.5229 33.0304L7.27662 33.2151L6.96891 33.1536L6.78415 32.6609V32.4762L6.59949 32.1683L6.47644 32.0451L6.04549 32.4146L5.7993 32.4762V32.1067L6.16863 31.1215L6.3533 30.9367L6.6611 31.2447L6.90729 31.1215L7.09196 30.5673V30.013L7.15357 29.8283L7.58443 30.752ZM27.5906 34.693L27.3444 34.8778H27.0366L26.7903 34.8161L26.6673 34.6314L26.7903 34.5698L26.9751 34.2004L27.0981 34.1388L27.3444 34.2004L27.4674 34.3236L27.5906 34.693ZM37.3782 36.1093L37.1935 36.6635L36.6395 35.9861L36.0855 35.5551L35.8392 35.124L35.4699 34.8778L35.3468 34.3236L35.7777 34.0772H35.9624L36.3933 34.7546L37.0705 34.8161L37.0089 35.2472L37.2551 35.7398L37.3782 36.1093ZM9.43117 35.7398L10.1698 36.6019L9.61583 36.4172L9.00022 36.9714L8.20004 36.294L7.70757 35.6167L7.58443 35.3704L8.0769 34.7546L8.50785 35.4319L9.06184 35.5551L9.43117 35.7398ZM49.8743 35.6782L50.7361 35.9861L50.9824 35.9246L51.3517 36.0478L51.4749 36.5404L50.9209 36.6019L49.9975 37.0946L49.6281 36.9714L49.1972 36.5404L48.4585 36.4788L48.2123 36.3556L48.5817 35.863L49.3203 35.6167L49.8743 35.6782ZM33.0692 37.7103L32.6383 38.1414L32.5767 37.5256L32.8845 36.8482L33.3155 36.7867L33.4385 37.0946L33.0692 37.7103ZM39.1634 37.464L38.9171 38.0182L38.4863 37.9567L37.7476 37.3409L37.5013 37.0946L37.3782 36.8482L37.686 36.7867L38.0553 37.0946L38.9787 37.2177L39.1634 37.464ZM44.4573 38.0799L44.1495 38.1414L44.2727 37.7719L44.8882 37.1561H45.75L46.5503 36.8482H46.7349L46.3656 37.3409L45.75 37.7719L44.4573 38.0799ZM40.2099 39.0035L39.5327 39.065L39.5943 38.3877L39.8405 38.2029L40.6407 38.5109L40.5792 38.6956L40.2099 39.0035ZM37.0705 38.3877L37.0089 39.2498H36.8242L36.701 39.1267V38.7571L36.7627 38.2029L37.0705 38.3877ZM33.6232 39.6809L33.2538 39.9271L33.377 39.3114L33.1923 39.0035L33.377 38.7571L33.6232 38.5724L33.7463 38.8188L33.9926 39.1882L33.6232 39.6809ZM34.1773 41.5282L33.931 41.6513L33.5001 41.4666L33.6232 40.974L33.931 40.7892L34.2388 40.9124L34.3003 41.0971L34.1773 41.5282ZM41.1948 42.883L40.5792 43.1908L40.1483 42.6982L39.9021 41.9592L41.0101 40.9124L41.2563 41.0356L41.441 41.2819V42.2671L41.1948 42.883ZM39.3481 42.0209L38.7941 42.6982L38.3631 42.6366L38.1785 42.3287L38.4863 41.713L39.1018 41.3435L39.3481 41.405V41.836V42.0209ZM51.2286 42.9445L50.5515 43.0677L50.6746 42.3903L50.3668 41.836L50.9209 42.144L51.2286 42.5134L51.4133 42.5751L51.3517 42.8213L51.2286 42.9445ZM35.5315 43.2524L35.4084 43.314L35.2237 42.9445L35.1621 42.6366L35.2237 42.4519H35.4699L35.7777 43.0677L35.5315 43.2524ZM43.2877 44.3608L42.6721 44.4224L42.4875 44.3608L42.8568 44.2377L43.1031 44.0529L43.2262 43.8681L43.8417 43.5603L44.2727 43.1292L44.7035 43.4371L44.1495 43.6219L43.2877 44.3608ZM50.7361 44.915H50.5515L50.7977 44.484L51.5364 43.9298L52.5829 43.4371L52.9522 43.3755L53.5678 43.6834L52.4598 44.1761L52.152 44.4224L51.3517 44.484L50.7361 44.915ZM40.0252 45.3461L39.9021 45.4692L39.4096 44.915L39.2249 44.6072L39.4712 44.3608L40.2099 44.9766L40.0252 45.3461ZM34.3003 44.6072V45.0998L34.2388 45.2845L32.823 45.5308L32.946 44.9766L33.0077 44.7919L33.4385 45.0382L33.6232 44.915L33.6848 44.7302L34.3003 44.6072ZM56.9535 46.3929L56.8303 46.5161L56.461 46.1466V45.9619L56.8303 45.7155L57.015 45.654L57.0766 45.8387V46.1466L56.9535 46.3929ZM47.4121 46.085L46.8581 46.2697L46.4887 46.7008L46.0578 46.3929V45.9619L46.4887 46.085L46.7965 45.8387L46.6734 45.5923L47.0427 45.7155L47.4121 46.085ZM40.7639 47.7476L40.4561 48.1787L40.0252 47.9939L40.2099 47.8092L40.333 47.5629V47.255L40.2099 47.0702L40.2714 47.0087L40.6407 47.3166L40.7639 47.7476ZM56.8303 51.6271L56.3379 51.8118H56.1532L55.9685 51.4424L56.2763 50.5186L56.0301 49.9029V49.6565L56.3995 49.2871L56.6457 48.7329L57.3228 48.1787L59.0464 47.5013L59.4774 47.4397V47.9939L58.8617 49.3486L58.3693 50.026L58.4924 50.5803L57.6306 50.7033L56.8303 51.6271ZM24.2049 49.4718L24.1434 49.8413L23.4662 49.595L23.2816 49.2255L23.2201 48.3634L23.4047 47.9323L23.5278 47.8092L23.8356 48.3018L24.5127 48.9792L24.2049 49.4718ZM52.2751 55.5065L52.0289 55.9991L51.7827 55.6296L51.9057 55.1986L51.598 54.4596L52.152 53.4128V52.9202L52.5829 52.6739L52.4598 53.536L52.0904 54.2749L52.4598 54.8907L52.6445 55.5681L52.2751 55.5065ZM29.622 54.9523L30.1145 55.0139H30.73L30.8531 54.9523L31.2841 54.4596H31.7765L32.0227 54.9523L31.5303 55.1986L31.4071 55.3217L31.5303 55.4449L31.8996 55.6296L32.4537 55.5681V55.9375L32.5767 56.2455L32.823 56.4302L33.1308 56.4917L33.7463 56.4302L34.3619 56.307L34.9774 56.0607L35.5931 55.9375L37.5013 56.0607L38.1785 56.6149L39.4712 56.6765L40.7023 56.9228L41.3179 56.7381L42.4259 56.5534L42.6106 56.7381L42.4875 57.908L42.5491 58.2776L42.8568 58.4623L43.1646 58.4006L43.5339 58.0312L44.4573 57.7233H45.3807L46.1809 56.9228L46.4271 56.8612L46.3041 57.2306L46.1809 58.1544L45.9963 58.7086L45.9347 59.1396L45.3807 59.3859L44.5804 59.4475L43.1031 59.3859L41.6257 59.5091L38.8556 59.8786L36.0855 60.0633L35.7162 59.9401V59.3859L35.6546 59.0165L35.4699 58.7701L34.6081 58.5238L33.8078 58.1544L30.6069 57.6617L29.8682 57.477L28.637 57.6002H28.2062L27.8984 57.4155L27.7137 57.1076L27.5906 56.1223L27.7137 55.137L27.9599 54.8907L28.0831 55.1986L28.3909 55.3217L28.6987 55.0139V54.5828L28.8217 54.1517L29.068 54.3365L29.191 55.0139L29.622 54.9523Z" fill="#FF0000"/>
</svg>
