<svg width="31" height="46" viewBox="0 0 31 46" fill="none" xmlns="http://www.w3.org/2000/svg">
<path d="M21.9877 4.19724L20.8797 4.9362L20.6951 5.24406L20.3873 6.41406L20.3258 6.72197L19.9563 7.33775L19.6486 8.01511L19.2792 8.26143L18.7252 8.44616L18.4174 8.63089L17.9865 8.50775H17.4941L17.2479 8.75407V8.9388L17.3709 9.12352L17.8019 9.43139L18.2943 9.7393L18.2327 9.98562L17.9865 10.2319L16.2629 10.9093L15.7705 11.3403L15.5858 11.5867L15.7705 12.0177L17.1247 13.3724L17.3709 13.4956L17.5556 14.2961L18.7868 14.604L19.2792 15.0966L19.7101 15.2198L20.6335 15.1582L21.0029 15.343L21.1876 15.2198L21.3106 14.9734L22.1109 14.2961L22.3571 13.9882L22.234 13.5572L22.0494 13.2493L22.5418 12.6335L23.0958 12.0177H23.4036L23.896 12.3872L24.3269 12.9414L24.3885 13.3724L24.4501 13.6803L24.8194 14.2961L25.0656 14.5424L25.7427 14.6656L25.9274 14.9119L25.8044 15.8355L25.9274 16.1435H26.6045L27.3433 16.0819L27.5895 16.1435L27.8358 15.9587L28.2666 15.774L28.8822 15.8355L29.1899 16.2666L29.3131 16.6976L28.8206 16.8824L28.2666 16.8208L28.0204 17.0671V17.6213L28.2051 18.2987L28.5744 18.7913L28.8822 19.8997L29.1284 21.1313L29.4977 21.8702L29.5594 22.7939L29.4977 23.225L29.5594 24.0255L29.4362 24.3334L29.5594 25.0723L29.9902 26.6118L30.1749 27.4738L30.298 29.3212L29.9902 29.9986L29.5594 30.6759L29.3131 31.4764L29.1284 32.3385L29.0053 33.6933L28.1435 35.2943L27.7741 35.6638L27.3433 35.9101L28.2666 37.0185L27.528 37.5111L26.6662 37.6343L25.7427 37.388L25.1887 37.4496L24.6348 37.819L24.4501 38.0038L24.2654 37.8806L23.896 36.9569L23.6498 37.8806L23.0958 38.1885L22.1724 38.1269L20.6335 38.3732L20.0179 38.6196L19.7717 39.0506L19.587 39.5432L19.3408 39.8511L19.0945 39.9743L17.925 40.3437L17.6787 40.4669L17.1247 41.2058L16.3861 41.6369L15.7705 41.76L15.2165 41.329L14.9702 41.0827L14.724 40.9595H13.9237L14.17 41.0827L14.3547 41.3906L14.4162 42.0063L14.3547 42.6222L13.9237 42.93L13.4313 42.9916L12.6926 43.6074L11.7077 43.7921L11.1537 44.3463L7.89114 45.27H7.70647L7.27553 45.0237L6.78306 44.9005L6.29068 44.9621L4.93641 45.5163L4.25928 45.3932L5.12108 44.1L6.29068 43.4227L6.41373 43.2379L6.0444 43.1763L3.88985 43.6074L3.15119 43.9768L2.41254 44.1L2.78186 43.4843L3.76681 42.6837L4.25928 42.3143L4.56699 42.1295L4.93641 41.6369L5.98287 41.0827L2.65872 42.1911L1.79692 42.0679L1.61226 41.76L0.935125 41.8832L0.688937 41.1442L1.67388 39.9743L2.28939 39.4817L2.96653 39.2353L3.64366 38.8659L3.88985 38.3732L3.58214 38.2501L1.61226 38.3732L0.627319 38.2501L0.688937 37.8806L0.873601 37.4496L1.85854 36.7106L2.41254 36.5875L2.90501 36.6491L3.39748 36.8338L3.76681 37.0801L4.87479 36.9569L4.38232 36.5259L4.3208 35.6022L3.95147 35.2943L4.38232 34.8633L4.93641 34.617L5.79821 33.6933L6.10592 33.5701L7.82961 33.3238L9.67626 32.8312L11.523 32.1538L10.5997 31.7844L10.1687 31.2917L9.43007 32.277L8.87608 32.6465L7.39867 32.8312L6.9062 32.708L6.22906 32.4001L6.0444 32.5233L5.85973 32.7696L4.87479 33.2622L3.82833 33.3854L5.05946 32.5233L6.59839 31.0454L6.96772 30.5528L7.46019 29.7523L7.33714 29.3828L7.02934 29.1981L8.13733 27.4738L8.50666 27.166L9.24541 27.1044L9.73788 26.8581H9.98407L10.1687 26.7349L10.5997 26.2423L9.92254 25.9344L9.18379 25.7497L6.9062 25.9344L6.59839 25.8728L6.29068 25.6881L6.10592 25.4418L5.98287 24.8876L5.79821 24.7644H5.30574L4.81327 24.9492H4.44394L4.07461 24.7028L4.6286 24.0871L3.95147 23.9639L3.21281 24.0871L2.5972 23.9023V23.5328L2.84339 23.1634L2.47406 22.7939L2.41254 22.3629L2.78186 22.1166L3.21281 22.1781L4.07461 21.8702L5.12108 21.6855L4.19766 21.3776L3.82833 21.0697V20.6386L3.88985 20.2692L4.93641 19.6534L6.0444 19.4071L5.98287 18.9761L6.0444 18.545L4.87479 18.4219L3.76681 18.7297L3.88985 17.8676L4.13613 17.0671L4.19766 16.5745L4.13613 16.0203L3.58214 16.2666L3.52052 15.5277L3.27434 14.9734L2.47406 15.343V14.6656L2.72034 14.1729L3.15119 13.9882L3.58214 14.0498H4.3208L5.05946 13.6803L6.10592 13.5572L7.768 13.6803L8.9376 14.7271L9.24541 14.5424L9.67626 13.865L9.92254 13.8035L11.6461 14.1114L12.7541 14.4808L13.0619 14.3577L12.8773 13.6187L12.5079 13.1261L13.0004 12.4488L13.5544 12.0177L13.9237 11.7714L14.7855 11.4635L15.1549 11.2172L15.4011 10.3551L15.832 9.61616L13.6159 9.98562L11.523 9.12352L11.8308 8.50775L12.2617 8.13825L13.0004 7.89193L13.0619 7.58407L13.4313 7.33775L14.0469 6.66038L13.8006 5.7367L13.9237 5.05933L14.3547 4.62829L14.4777 4.01251L14.6624 3.58146L15.5858 3.39674L16.5091 2.96569L16.8169 3.02728L17.8634 2.9041L18.2327 3.08883L18.1712 2.34992L18.8483 2.22673L19.0945 2.34992L19.2177 2.9041L19.5255 3.21201L19.587 3.82778L19.4023 4.25883L19.0945 4.62829L19.4023 4.99779L18.9099 5.61356L19.4023 5.36724L20.1411 4.75147L20.0795 4.25883L19.9563 3.58146L19.7717 2.96569L19.8333 2.34992L20.2641 1.91887L21.3106 1.7341L20.8797 0.995185L21.2491 0.933594L21.68 1.05678L22.2955 1.61096L22.9727 2.04201L23.6498 2.41146L23.0342 3.15042L22.234 3.64306L21.9877 4.19724ZM3.39748 17.9908V18.2987L2.90501 17.8676L2.65872 17.4366L1.30445 17.2519L1.85854 16.8208L2.16625 16.944H3.15119L3.39748 17.1287V17.9908Z" fill="#FF0000"/>
</svg>
