<svg width="82" height="96" viewBox="0 0 82 96" fill="none" xmlns="http://www.w3.org/2000/svg">
<path d="M48.4932 5.6878L48.37 6.24198L48.0622 6.36517L47.5697 6.67303L47.0158 7.10408L46.4618 7.59672L46.3386 8.1509L46.4618 8.5204L46.5849 8.64354L46.7696 8.5204L47.0773 8.58199L47.4467 8.76672L48.0622 8.95145V9.13617L47.9391 9.38249L47.4467 9.81354L47.0158 10.3062L46.9542 10.614L47.0158 10.8604L47.1389 10.9835L47.7544 10.9219L47.816 11.1067L47.5082 12.3382L47.6314 12.523L48.1854 12.7077L48.5547 13.0156L49.2933 13.8161L49.6011 14.4319L49.4165 14.6166L48.924 14.7398L48.5547 14.6782L48.9856 14.3087L47.9391 12.8925H47.4467L46.8311 13.5082L45.046 12.8925L44.7382 13.1388L44.4919 13.6314L43.8764 14.2472L43.0146 14.4935L42.0296 15.1093L40.9832 15.5403L40.1829 15.9098L39.752 15.8482L40.4907 15.1093H40.1829L39.2596 15.6635L38.7055 16.0945L38.5208 16.8335L38.3361 18.065L38.7671 18.3729L39.5057 19.974L40.3675 20.6513L40.1829 21.3287L39.9367 21.8213L39.3826 22.2523L38.9518 21.9445H38.7055L38.5208 22.9913L38.8902 25.7623L39.5057 27.7328L40.1214 28.5949L41.5372 29.888L43.0146 30.5654L45.6615 32.7822L47.1389 33.4596L47.5082 33.829L48.37 35.5532L49.1087 37.5238L49.909 40.6027L50.4629 42.0806L51.6326 43.7432L54.0948 46.1447L56.3109 47.9305L58.4039 49.0389L60.0044 49.2236L63.8209 48.9773L64.498 49.1005L65.1751 49.4083L65.3598 50.1474L65.1136 50.64L64.3133 51.1942L63.5132 51.9331L63.4515 52.9184L64.1903 53.5957L67.8837 55.4431L71.6387 56.9825L72.8083 57.783L74.1626 59.0146L77.4251 60.6772L77.9791 61.4777L79.949 63.2019L80.8723 64.5567L81.057 65.6035L80.6261 66.6503L80.4414 67.3893L80.1336 68.1282L79.2718 67.8818L78.2869 67.1429L76.8095 64.1256L74.1626 63.8177L73.6086 63.5714L72.6852 63.0172L72.6236 62.6477L72.3773 62.2166L72.1312 62.0936L71.1462 61.9704L70.4691 62.463L69.6689 63.633L68.7455 65.2956L67.8222 67.7588L67.7605 68.7439L68.253 69.7292L69.7919 70.2834L70.9616 71.1456L71.7618 72.0077L71.8234 74.1629L72.1927 75.3944L71.7002 76.0718L70.7154 75.887L69.3611 76.3181L68.4377 77.1186L68.0683 77.8576L68.1915 79.7665L68.0068 80.5054L66.2216 81.8601L65.2983 83.2764L65.0521 83.8307L64.6827 84.5081H62.4051L61.8511 83.7075V82.476L62.2204 81.737L63.0822 81.3675L63.6362 79.828L63.4515 78.7197L63.7594 78.227L64.0672 77.8576L64.6827 77.6729L65.6061 77.4881L65.6676 75.887L64.9905 75.1481L64.7443 74.1629L64.4365 72.3155L63.2669 69.9139L62.6514 67.7588L62.1589 66.7119L61.4201 66.1577H60.1275L59.4504 65.9729L57.1112 64.4951L56.9265 64.2487V63.8177L57.2958 63.2019L57.0496 62.4014L56.8033 61.6009L56.3725 60.9236L55.88 60.5541L54.8336 60.7388L54.4642 60.9236L53.7871 60.8619L53.2946 61.1698H52.9868L53.7871 59.9998L53.5408 59.7536L52.7406 59.2609L51.6326 59.1994L51.3247 59.1377L51.1401 59.4456L50.9554 59.2609V58.7683L49.6628 56.4283L48.801 55.5046L48.37 55.3199L47.5697 55.5046L46.2771 55.0736L45.4768 55.012L45.046 55.1352L44.4304 55.4431L44.1226 55.2584L43.9994 54.9505L42.8299 53.9652L41.3525 53.411L38.4593 50.2704L37.5975 49.1005L35.7507 47.8073L34.5811 45.8984L33.6578 45.2211L32.3036 44.6669L31.9957 44.7284L31.5649 44.9132H31.2571L31.0108 44.6669L31.2571 44.4205L31.5649 44.2974L31.4418 43.5584L29.9028 41.6495L28.9795 41.0337L28.7332 40.6642L28.5486 40.1716L28.3639 39.8638L27.9329 39.6791L27.5636 39.7406L27.0711 39.6174V38.6938L27.1943 38.0164L27.1328 37.4006L26.6403 35.8611L25.7785 34.5064L25.286 31.3044L24.9167 30.3807L23.9318 29.7033L21.7772 28.9644L18.761 26.8707L18.1453 26.8092L16.3602 26.0086L15.2521 25.8855L13.7748 26.6244L11.9896 28.5949L10.5738 30.627L10.0814 30.9965L8.23461 31.6739L6.57263 31.9818V31.4275L6.51101 31.058L6.7573 30.627L7.18815 30.1344L7.61909 29.5186L7.80376 29.0259L7.74214 28.718L7.55748 28.287L7.31129 28.2255L5.77236 28.5949L5.40303 28.4718L4.23342 27.8559L3.00229 27.117L2.57135 26.5628L2.38668 26.0086L2.50982 25.6392L2.38668 25.3313L2.1405 24.9002L2.38668 24.4076L2.75601 23.7918L2.94068 23.3607L3.24848 23.2376L3.43315 22.9913L3.18696 21.9445L3.06382 21.7597L2.81763 21.6366H2.44821L1.83269 21.3902L1.40174 21.0208L1.34022 20.5282L1.09403 20.0355L0.724609 19.6045L0.663086 19.1119L1.09403 18.8656H1.70955L2.1405 18.9887L3.06382 18.2498L3.43315 18.1882L3.74095 18.0035L3.98714 16.9566L4.1719 16.6487L4.23342 16.464L4.04876 16.2177L3.31001 15.4787L2.94068 14.6782L2.38668 13.8161L1.89421 13.4466L1.77107 13.1388V12.7693L1.89421 12.4614L2.81763 11.9072L3.37162 11.353L3.61781 11.5377L4.11028 11.784L5.46455 11.4761L6.32635 11.1683L6.94196 10.8604L7.31129 10.9219L8.66556 11.4146L9.09641 11.1683L10.0814 10.4909L10.2045 10.1214L10.9431 9.07458V8.82826L10.6353 8.1509L10.7585 8.02776L11.6818 7.3504L12.1128 6.73462L12.6052 6.30358H12.9746L13.0977 6.42671L13.1592 6.73462L13.0977 7.90463L13.2207 8.27408L13.9595 9.13617L14.452 9.62881L15.6831 9.93667L15.7446 10.1214L15.4368 10.7372L16.1756 11.4761L16.2986 12.0304L16.6064 12.3382L17.0989 12.2151L17.2835 11.9072L17.0989 11.4146L16.9757 10.8604V10.5525L17.0989 10.183L17.4067 9.69036L18.33 8.5204L18.6378 7.84303L18.6993 6.79621V5.99567L19.0071 5.81094L19.6843 5.93412H19.8689L19.9306 6.42671L20.1768 7.22726L20.4846 7.65831L20.8539 7.78144H21.2848L22.2697 7.2888L22.9468 7.10408L23.3161 7.16567L23.5624 7.47358L24.0549 8.33567L24.3011 8.45881L24.6089 8.33567L24.732 8.21249L24.6089 7.84303L24.4857 7.10408L24.3011 6.5499L24.0549 6.30358L23.9933 5.93412L24.178 5.3183L24.3627 4.76412L24.732 4.64094L25.1014 4.57939L25.5938 5.13357L26.2093 5.3183H26.6403L26.7018 5.01044V4.64094L26.4556 4.20989L26.5171 3.53252L26.825 2.23939L27.0096 2.36257H27.6868L28.4254 2.42416L28.9179 2.97834L29.4104 3.16307L30.0875 3.22466L30.5184 3.16307L30.7646 2.97834L31.0108 2.36257L31.5033 1.62361L32.242 1.25416L33.5347 1.19256L34.1503 1.06943H34.8274L35.3199 1.19256H35.8124L37.105 0.638383L38.4593 0.207336L38.644 0.268881V0.392064L38.3978 0.699927L38.1515 1.13097L38.3361 1.62361L39.1364 2.60889L39.5674 3.3478L39.9367 3.90203L40.5522 4.20989L41.3525 4.39466L42.0296 4.45621L42.7683 4.64094L45.2306 5.19516L46.4618 5.3183H47.3851L48.4932 5.6878ZM40.1829 30.9349L40.3675 30.4423L40.306 30.0728L39.8751 30.1344L39.5674 30.5654L39.752 30.9349H40.1829ZM39.8751 49.5315V49.47H39.8136V49.5315H39.8751ZM25.9632 40.7259L26.2093 41.0953V41.2801L26.0863 41.5263L26.1478 42.0806L25.5938 41.6495L24.732 41.8959L24.178 41.8342L24.0549 41.4648L24.178 41.2185L24.9782 41.1569L25.2245 41.0337L25.717 41.0953L25.9632 40.7259ZM20.7924 58.7067L21.1617 59.2609L21.9003 61.6009L21.962 62.0936L21.8388 62.5861L21.6542 62.9557L20.9154 64.1256L21.0385 65.1108L21.3464 65.7267L21.4079 66.404L21.2848 67.2045L20.7924 72.2539L20.5461 73.116L20.423 73.8549L19.9306 74.1013L19.2534 73.8549L18.3916 73.4239H18.0223L17.6529 73.5471L17.3452 73.4239L17.0374 73.1776L16.7911 74.9018L16.4217 75.5791L15.8678 76.0102H15.3138L14.7597 75.887H14.2673L13.8979 75.5791L13.5902 75.0249L13.1592 74.3476L12.6667 73.4855L12.6052 72.7466L12.5436 71.0839L12.6667 70.7145L12.8514 70.345L12.9746 69.6061L12.913 68.9288L13.0361 68.6824L13.2824 68.9288L13.467 68.8671V68.5592L13.5285 67.9435L13.1592 67.4508L12.5436 67.2661L12.4821 66.7119L12.5436 66.1577L12.8514 65.7882L12.9746 65.2956V63.8793L12.5436 63.3251L12.3589 62.5246L12.1128 62.0319L11.7434 61.5393L11.3125 61.1083L11.0663 60.6772L11.0047 59.6304L11.1894 58.7067L11.3125 58.3373L11.4356 58.3988L11.8666 58.8299L12.2359 58.953L12.9746 59.0762L13.6517 58.953L14.5135 58.522L15.3753 58.0294L16.6064 56.6131L17.3452 56.3052L17.7145 55.9357L17.8375 55.4431L18.1453 55.3199L18.5147 55.8125L18.9456 55.8741L19.6843 56.3052L19.9921 56.6746L20.2383 57.1673L20.4846 57.352L20.7307 57.4752L20.7924 57.5983L20.6077 57.7215L20.3614 58.2756L20.4846 58.4604L20.7924 58.7067ZM11.6203 57.2905L11.3741 57.7215H11.0663L11.1894 57.4135L11.4971 56.7978L11.8666 56.6131L12.0512 56.7978L11.8666 57.1673L11.6203 57.2905ZM50.0936 60.3077L49.7858 60.3694L49.6011 60.2462L49.478 60.123L49.6011 59.8151L50.2168 59.9998V60.1846L50.0936 60.3077ZM12.913 74.7787L12.5436 75.6408L12.1128 75.0249V74.4708L12.1743 74.3476L12.6667 74.5939L12.913 74.7787ZM61.2355 82.1681L60.8046 83.1533L60.5583 83.5228L58.8964 85.9243L58.7116 86.4785L58.5886 87.0943L58.4039 87.6485L58.1576 88.1412L57.9114 88.7569L57.973 89.4959L58.0346 89.8653L58.2192 90.1116L58.5269 90.2963L58.7732 90.6043L58.4039 90.9122L58.8347 91.528L59.2041 91.8974L59.2657 92.2669V92.6363L58.5269 93.3137L58.2192 93.6832L58.0346 94.1143L57.973 94.5453L58.0346 94.9764V95.4074L57.2958 95.3458L56.5572 95.0995L55.7569 95.2226L54.6489 94.73L54.2179 94.6684L53.8486 94.4837L52.9253 93.0058L52.1865 92.3901L51.3864 91.8974H50.5861L49.7858 91.959L49.0472 91.6511L47.5697 90.6659L46.0308 89.8653L45.3537 89.3112L45.046 88.9417L44.6765 88.6953L43.8147 88.4491L43.0146 87.8948L42.6452 87.8332L41.845 87.8948L41.4756 87.8332L41.0447 87.6485L40.2444 87.0327L39.752 86.1091L39.6289 85.7396L39.9982 84.6928L40.4292 83.7075L40.7985 83.4612L41.2293 83.2764L41.4756 82.9686L41.7218 82.5991L42.5221 83.646L42.8914 83.8922L43.2608 83.8307L43.8764 83.4612L43.9379 83.0301L44.615 82.5375H45.5383L45.9693 82.6607L46.2155 83.1533L46.5849 83.2764L46.9542 83.3381L48.2469 84.2002L48.6162 84.3233H48.9856L49.9705 83.9538L50.7708 83.8307L52.3712 84.0154L53.233 83.7691H53.8486L54.7104 83.3996L55.3876 82.8454L55.7569 82.7222L56.1262 82.6607L57.0496 82.7222L57.973 82.8454L58.3423 82.7222L58.6501 82.3528L59.0194 82.1681L59.4504 82.2912L60.4968 81.6754L60.9893 81.6139L61.4201 81.8601L61.2355 82.1681ZM37.2282 94.6684L36.9204 94.7916L36.4895 94.4837V94.0526L36.551 93.9295L37.0435 94.1143L37.2282 94.4837V94.6684Z" fill="#FF0000"/>
</svg>
