<svg width="63" height="90" viewBox="0 0 63 90" fill="none" xmlns="http://www.w3.org/2000/svg">
<path d="M43.6072 0.800958L43.6337 0.961141L43.6602 1.04123L43.7927 1.4951L44.0046 2.16256L44.1371 2.77661L44.3225 3.60425V4.08484L44.3755 4.27171L44.5345 4.4853L44.7464 4.8858L44.8259 5.09939L44.9054 5.25957L45.1173 5.57994L45.3028 6.06049L45.4617 6.70126L45.5942 6.99495L45.6472 7.15513L45.7002 7.42213V7.98277V8.65023V9.39778V10.0119L45.6737 10.3322L45.7002 11.2133L45.5147 11.6672L45.5412 12.0409L45.5942 12.2812L45.5147 12.3079L45.3558 12.3613L44.667 11.9875L44.0046 11.5871H43.8986L43.7662 11.6405L43.3953 11.9341L43.0509 12.388L42.8919 12.7618L42.627 13.1622L42.2031 13.803L42.1501 13.9365V14.4438L42.1766 14.951L42.2031 15.0311L42.415 15.0578L42.574 15.4583L42.9449 16.0991L43.5543 16.5263L44.1371 16.7131L44.9319 16.7665L45.5677 16.7398L45.5412 16.3127L45.5942 15.6185L45.6737 15.1379L45.7531 15.1113L45.9121 15.1646L45.9916 15.218L46.2565 15.1913L46.7069 15.2714H47.0778H47.3957L47.952 15.2447H48.27L48.164 16.019L47.7401 17.2204L47.6077 17.7811L47.2368 19.7567L46.7599 20.7446L46.495 21.1451L45.7267 21.8659L45.5147 22.0261L45.3293 22.1329L44.9849 22.213L43.6867 23.7081L43.2098 24.4289L42.7859 25.4702L42.362 26.0575L41.7262 27.2857L41.1699 28.2468L40.64 29.1279L39.7128 30.3293L39.2889 30.6763L38.9975 30.8366L38.2557 31.5307L37.2225 32.6787L36.4277 33.6933L35.2355 34.8413L34.5467 35.3485L33.5134 36.3364L33.222 36.4966L32.0563 37.431L31.2086 37.9917L29.8574 38.6591L29.3276 38.8461L28.0294 38.6858L27.4996 38.7659L27.0492 39.1664L26.9962 39.7271L26.8108 39.8072L26.5193 39.7805L25.6186 39.5402L25.1417 39.5936L24.8503 39.8873L24.6118 40.2877L23.923 40.3144L22.7044 39.914L21.2738 39.6737L20.9558 39.647L20.267 39.9407L20.0286 39.9941L19.0218 39.9407L18.4655 39.7538H17.9356L17.5383 39.914L17.0349 39.9674L15.6838 41.0353H14.9949L14.3856 41.1688H14.0942L13.5378 41.0086H13.3259L13.008 41.0887L12.6901 41.2756L11.9747 41.3557L11.6833 41.5159L10.4647 42.5037L10.1997 42.477L9.98778 42.4236H9.35197L8.63666 41.8897L8.37171 41.9163L8.45123 41.7562L8.47771 41.4892L8.31875 41.3023L8.21276 41.2222L7.92134 41.2489L7.76239 41.0086L7.33849 40.9819L7.17954 41.0353H6.96759L6.94111 40.795L6.96759 40.6348V40.3945L6.91464 40.1008L6.75569 40.0207L6.62321 39.9941L6.33179 40.0207L6.11984 40.0475L6.01385 40.1276L5.9079 40.3412V40.9819L5.74894 40.795L5.58999 40.4212L5.537 40.0207L5.58999 39.5402L5.9079 39.3533L5.88142 39.0329L5.80194 38.7659L5.43104 38.0451L5.29857 37.7247L4.98063 37.5111L4.7422 36.9771L4.50378 36.7903L4.39778 36.4165L4.15936 36.1228L4.07988 35.6422L4.21235 35.3753L4.4243 35.2151L4.63625 35.4554L4.90115 35.3753L5.27205 35.0282L5.484 34.5209L5.51052 33.6933L5.45752 33.186L5.1661 31.8778L5.03363 31.5841L4.3713 30.6497L3.60303 29.3948L2.62277 27.4191L2.17239 26.2444L1.48359 23.895L0.874269 22.5601L0.105954 21.3319L0 21.2518L0.105954 21.0917L0.503371 20.798L0.6888 20.7179L0.794794 20.7446L0.900747 20.6645L1.0067 20.4776L1.03322 20.2907L1.08618 20.0237L1.16569 19.8636L1.27165 19.5699L1.4306 19.383L1.80149 19.2495L2.06644 19.4096L2.17239 19.5699L2.22539 19.7835L2.35786 19.8902H2.54329L2.67576 20.0237L2.75524 20.2907L2.72876 20.5043L2.62277 20.6378L2.64929 20.798L2.78176 21.0116L2.83471 21.1985L2.94071 21.4654L3.44408 21.6256L3.6825 21.7057L4.1064 21.7324L4.50378 21.8392L4.87468 22.0528L5.484 22.1062L6.33179 21.9994L7.02059 22.0528L7.57696 22.2397L7.97433 22.2664L8.21276 22.1329L8.31875 21.946L8.29224 21.7057L8.42471 21.5455L8.68965 21.4922L8.9016 21.3052L9.06055 21.0116L9.45793 20.7713L10.0673 20.5844H10.3587V20.1038V18.6087V17.1403V15.6719V14.2035V12.7351V11.2934V9.85168V8.49004L10.4911 8.59686L11.4184 9.31769L11.6568 9.69146L11.7893 9.93178L12.1867 10.8128L12.4781 11.6137L12.7166 12.2011L12.7431 12.4681L12.7695 12.7351L12.7961 12.8686L12.7695 13.0021L12.6106 13.3224L12.4252 13.5627L12.2132 13.9098L12.1867 14.3637L12.2397 14.8977L12.3722 15.1646L12.5311 15.2447L12.9285 15.1113L13.167 15.1646L13.5113 15.2714L14.6505 15.218L14.783 15.2447L15.2069 15.2714L15.3393 15.218L15.4718 15.1113L15.6308 14.7908L15.7632 14.6841L16.0017 14.6307L16.2931 14.5506L16.5315 14.3637L16.9024 13.7229L17.6442 13.1622L17.8827 13.0288L18.0151 12.8686L18.1476 12.655L18.4125 11.9608L18.598 11.3735L18.6775 11.1065L18.8629 10.6526L19.0748 10.3589L19.2868 10.1987L19.3927 10.1721L19.6577 10.092L20.0021 10.0119L20.373 10.092L20.7704 10.2521L21.2208 10.5458L21.6711 10.8929L21.8831 11.0798L22.095 11.1599L22.4924 11.1866H22.7574L23.1547 11.5337L23.3667 11.5604L23.817 11.6672L24.3734 11.774H24.7178L25.0887 11.5871H25.3536L25.6981 11.6137L26.0954 11.5604L26.3869 11.4803L26.5988 11.3201L26.7843 11.1332L26.9962 10.5725L27.1287 10.1454L27.3141 9.63809L27.5526 8.94391L27.632 8.46336L27.7115 8.32986L28.0559 8.19636L28.3473 8.08959L29.1156 7.90268L29.2746 7.7959L29.4336 7.58231L29.7779 7.20854L30.2018 6.88817L30.4138 6.70126L30.8112 5.17948L30.8642 4.99257L31.1556 4.59211L31.341 4.43193H31.447L31.606 4.32511L31.8179 4.11152L32.0828 3.97802L32.3743 3.92466L32.5597 3.79116L32.6392 3.55088L32.7981 3.44406H33.0101L33.1425 3.36397L33.169 3.20379L33.3015 3.07029L33.5399 2.96351L33.6459 2.83001V2.66983L33.9109 2.29606L34.4407 1.73537L34.9441 1.41501L35.4209 1.3616L35.8713 1.25482L36.2952 1.06792L36.6131 0.800958L36.7986 0.427183L37.143 0.213591L37.8318 0.160183H37.8583L38.7061 0L39.3949 0.106775L40.2426 0.453866L41.0374 0.560642L41.7792 0.453866L42.3886 0.427183L42.8389 0.48055L43.2098 0.587366L43.6072 0.800958ZM36.1362 26.0575L36.6131 25.844L36.8251 25.7104L36.984 25.6037L37.1959 25.4435L37.2754 25.043L37.3284 24.6959L37.4874 24.5358L37.6463 24.4289L37.7788 24.2421L37.9377 23.8149L38.0437 23.4144V23.2542L37.9907 23.094L37.8848 22.9072L37.7788 22.6668L37.6463 22.6402L37.4079 22.5067L37.0635 22.2397L36.7456 21.9994L36.4542 21.6523L36.3482 21.5989L36.0833 21.3587L35.9773 21.2252L35.8978 21.065L35.8183 21.0116L35.6859 21.065L35.3679 21.1451L34.6791 21.4387L34.2552 21.7057L33.8843 22.0261L33.5134 22.1329L33.2485 22.2397L33.0366 22.5868L32.8246 22.9338L32.6392 23.2275L32.5332 23.361L32.4272 23.4411L32.3213 23.628L32.1093 23.9484L31.9239 24.162L31.659 24.2688L31.341 24.4289L31.2351 24.509L31.2086 24.6425L31.3145 24.9362L31.4205 25.2299L31.606 25.577L31.7384 25.8173L31.9504 26.1376L32.0828 26.3245L32.0563 26.6182L32.1093 26.725L32.1888 26.8585L32.2418 26.8852L32.3213 26.9386L32.5067 27.0187L32.5597 27.0721L32.6922 27.1789L32.7981 27.3658L33.0366 27.6327L33.3015 27.8196L33.7254 27.8997L34.0698 27.9531L34.1758 27.9264L34.2818 27.7662L34.3877 27.5526L34.4142 27.2857L34.5202 27.1522L34.9176 26.5114L35.1295 26.2711L35.262 26.2444L35.4474 26.191L35.6859 26.1644L35.8448 26.191H35.8713L36.1362 26.0575ZM62.8675 89.9199L62.7351 90L62.1522 89.9199L62.0993 89.7597L62.2847 89.4927L62.3907 89.3859L62.7086 89.4394L62.947 89.6529L63 89.733L62.8675 89.9199Z" fill="#EF0000"/>
</svg>
