<svg width="64" height="85" viewBox="0 0 64 85" fill="none" xmlns="http://www.w3.org/2000/svg">
<path d="M17.7434 3.76876L17.5587 4.01508L17.6203 2.35244L18.3589 0.566711L18.6667 0.628256L18.3589 1.12089L18.2359 1.4288L18.1127 2.10617L18.1743 2.47562L19.8979 2.59876L19.7132 2.90667L17.9896 3.0914L17.7434 3.76876ZM27.531 3.33772L27.5925 3.58404L28.5775 3.8919L29.0084 4.38454L29.5009 5.12349L29.5624 6.23191L28.9468 7.03241L28.4543 7.52504L30.3011 7.34032L30.4857 7.77136L30.7935 8.264L31.7785 7.8945L34.3024 9.31082L35.8413 8.63346L36.2106 8.57187L36.58 9.74187L36.2106 10.9119L34.8564 12.1434L35.1642 12.8824L35.595 13.0671L36.8878 12.8824L38.9192 13.6213L39.35 13.375L40.9506 11.6508L41.6276 11.2813L43.7822 11.035L44.1515 10.3576L45.0133 9.68028L45.5674 8.94132L46.9216 7.52504L48.3374 7.77136L49.1376 8.01768L49.9994 8.14082L50.7997 9.61869L52.8311 11.2813L54.7394 11.1581L55.4165 12.6976L55.7243 14.6066L56.2783 15.2223L56.7708 15.5918L58.3097 16.0228H58.3712L58.4329 16.2692L58.5559 17.1928L58.679 17.9933L59.4793 21.1338V21.8728V22.0575L59.1715 23.1044L58.679 23.9664L58.0019 24.4591L57.6326 25.0133L57.5711 25.6291L58.4329 26.6759L60.218 28.2154L60.9567 29.5085L60.6489 30.6169L60.5258 31.4174L60.6489 31.9101L60.9567 32.3411L61.3876 32.649L61.5722 33.1416L61.5107 33.7574L61.5722 34.1885L61.8801 34.4963L61.8185 34.6195L61.6338 35.0506L61.3876 35.8511L61.2644 36.4668L60.772 37.2674L60.8951 37.9448L61.2644 38.7453L61.5722 39.1763L61.6954 39.5458L61.5107 40.4694L61.6338 40.7158L62.865 41.3931L63.0497 41.701L63.1727 42.3168L63.6037 43.6715L63.2343 45.3957L62.9265 46.3194L62.2494 47.7973L62.1879 47.9204L62.1262 48.1051L61.9416 48.3515L61.6338 48.413L61.2029 48.2283L60.8951 47.982L60.9567 47.3662L60.772 47.3046L60.5258 46.9352L60.4026 46.5041L60.1565 46.3194L59.233 46.1346L58.9253 46.0115L58.679 46.0731L58.4944 46.381L58.6175 46.6273L58.8022 46.8736L59.3562 47.3046L59.2947 47.4894L58.125 47.9204L57.3864 48.3515L56.7093 48.5978L56.0321 49.0288L54.6778 49.5215L53.6929 49.6446L53.5082 49.7678L53.1389 50.5683L52.8926 50.753L52.6464 50.6915L52.4618 50.5683L52.2155 50.6915L51.9693 50.9378L51.7231 51.0609H51.4768L51.1075 51.7999L49.9994 51.9846L49.8764 52.3541L49.6917 52.7851L49.507 52.9083L49.0146 52.7235L48.3374 52.6004L47.9065 52.8467L47.414 52.9698L46.7985 53.0314L46.1214 53.5241L45.5058 54.3246L45.1364 55.0635L44.9518 55.3098L44.644 54.6325L44.2746 54.2014L44.0284 53.9551H43.7822L43.7206 54.0782V54.4477L43.9668 55.0635L44.2746 55.4946L44.3362 55.8024L44.5208 56.3567L45.0133 56.9724L45.752 57.4035L46.2444 57.8345L46.6138 58.4503V58.6351L46.4907 58.8813L46.306 59.1277L46.1829 59.4356L45.752 60.0513L45.8751 60.3593L46.1829 60.7287L46.4907 61.1598L46.86 61.8371L47.3525 63.0071L47.6603 63.4997L48.0912 63.9924L48.5221 64.3618H49.1992L49.9379 65.1008L50.7382 66.1476L51.3537 66.6402L51.7846 66.7634L52.154 67.1329L52.4618 67.687L52.5849 67.995L52.8311 68.2413L53.5698 68.1797L54.4932 69.0418L55.0472 69.6575L55.355 70.1502L55.2934 70.3349L55.2318 70.9507V71.6281L55.1703 71.9976L54.7394 72.4902L54.4932 72.6133L54.37 72.7365L53.0773 72.1207L52.9542 72.2439L52.8311 72.1207L52.4618 73.8449L52.2155 74.1528L51.8462 74.4607L51.1075 74.7686L50.615 74.8917L50.2457 75.0149L49.0146 75.7538L48.4605 76.1849L48.0912 76.7391V77.047L48.7068 77.9707L49.3839 78.9559V79.818L49.0761 80.4338L49.0146 80.6801L49.1992 80.7417L49.5686 80.8033L49.8764 80.9264L49.9994 81.3574L49.9379 82.0964L49.8148 82.8353L49.6917 83.1432H49.3839L48.7683 82.8353L48.2758 82.4659L48.0912 82.2195V81.9732L48.2143 81.7885L48.0296 81.4806L47.4756 81.1727L46.86 81.2958L46.4292 81.4806H46.1214L45.8136 81.1727L45.3211 80.9264L44.7055 80.8033L44.2746 80.6185L44.2131 80.6801L44.2746 81.2958L44.1515 81.5422L40.9506 81.9117L39.9656 82.2811L39.2269 82.7122L38.6729 82.8969L38.5497 83.1432L38.0574 83.5127L37.4418 83.6359L37.3186 83.5127L36.9493 83.6974L36.3338 83.8822L35.9028 83.8206L35.7182 83.5127L35.3488 83.0816L35.1642 82.7738V82.589L34.2407 82.5274L33.6868 82.2811L32.5171 82.3427L32.2093 82.2195L32.1478 82.3427L31.9632 83.5743L31.717 84.0669L31.3475 84.6211L30.8551 84.929L30.4857 84.9906V84.6211L30.6089 84.1285L30.3011 84.0053L29.8702 83.9437L29.6856 83.8206L29.7471 83.4511L29.6239 83.2664L29.4393 83.0201L29.0084 82.7122L28.085 82.2195L27.4695 81.9732L27.2232 82.2195L26.7924 82.4659L26.1152 82.4043L25.9306 82.5274L24.7609 81.7885L23.6529 81.0496H23.2835L21.6215 81.1727L21.5599 81.1111L21.2521 80.6801L21.0059 80.5569L20.8213 80.6185L20.6981 80.7417H20.5135L19.7748 80.0643L19.467 79.9412L19.0361 80.0027L18.5436 80.3722L18.2974 80.8033L18.3589 81.0496L18.6052 81.1727L19.2823 81.1111L19.4055 81.1727V81.2958L19.3439 81.419L18.7899 81.5422L18.6052 81.7269L18.4205 81.7885H18.2974L17.6818 81.6038H16.82L16.0813 81.9117L14.9733 82.0348L13.4344 81.9732L12.8803 81.7269L12.511 81.6038L12.2648 80.9264L12.3263 79.9412L12.6957 78.5864L12.8188 77.6012L12.6341 76.9854L12.8803 76.0617L13.4959 74.8302L13.9268 73.4754L14.1115 72.0591L14.4193 71.1355L14.9733 70.5196L16.3276 68.7339L16.4507 68.6107L16.3891 67.687L16.0198 67.5639L15.4657 67.3176L14.1115 67.0097L12.8188 66.825L12.2648 66.5786L11.7723 65.9013H11.4645L10.8489 66.1476L10.0487 66.3324L9.49474 66.2092H9.12532L8.94065 66.3324L8.81761 66.2092L8.69446 65.5934L8.38666 65.4702L7.95581 65.3471L7.648 65.4087L7.46333 65.7165L7.15553 65.9013L6.90925 65.8397L6.04745 64.485L5.80126 64.1771L5.73974 63.9308L5.49345 63.4382L5.00098 62.9455L4.50851 62.7608L4.26232 62.8224V62.2066L4.44699 61.2829L4.63165 60.7903L4.87794 60.4208L5.12412 60.1745L5.18565 59.6819L5.12412 59.1893L4.81632 59.1277L4.01614 58.7582L3.52367 58.3888L3.15424 57.9577L2.72339 57.3419L2.53872 56.7261V56.1103L2.60025 55.8024L2.66187 55.6177L3.03119 54.6325L4.32385 53.7704L4.2008 52.8467V52.2925L3.89299 51.923L3.27738 51.7999L3.09272 51.5536L3.03119 51.3072L3.46205 50.753L2.90805 50.322L2.66187 49.8909L1.86159 49.3367L1.80007 49.152L2.16939 47.4894L1.86159 46.9967L1.49226 46.7505L1.06131 46.6273L0.876648 46.381L0.815125 46.1346L0.876648 45.9499L1.36912 46.0115L1.49226 45.8268L2.66187 44.8415L2.72339 44.6568L2.53872 44.5336L2.35406 44.472L2.29244 44.2873V44.041L2.90805 42.6247L3.09272 42.0089L3.15424 41.5778L3.09272 41.1468L2.72339 40.4694L2.35406 39.9153V39.4842L2.10778 39.2379L1.36912 38.0679V37.6368L1.80007 37.2674L2.35406 37.0211L2.53872 36.8363L2.84653 36.7132L3.70833 37.0211L4.07766 37.3289L4.2008 37.2674L4.57013 36.9595L5.18565 37.0211L6.72458 36.4053L6.97086 36.0974L7.15553 35.7895V35.6663L6.53992 35.0506V34.8042L6.60153 34.5579L6.7862 34.3732L7.15553 34.25L7.52486 34.0037L8.38666 33.2032L8.69446 32.5258L8.75599 31.7869V31.2327L8.5098 30.8016L8.26352 30.4937L7.95581 30.5553H7.34019L6.7862 30.309L6.47839 29.9396L6.41687 29.5701L6.53992 29.3238L6.60153 29.0775L6.53992 28.8311L6.60153 28.5848L6.84772 28.4001H8.63294L8.75599 28.2154L8.87913 27.1685L9.30998 25.5675L9.74093 24.6438L9.80245 24.2744V22.1191L9.86407 21.0107L9.55626 20.5181L8.87913 19.9638L9.00227 18.7939L9.24846 17.8702L9.92559 16.7618L10.4796 16.4539L12.8188 16.2692L15.4042 16.3307L16.4507 17.9933L16.0813 18.8554L16.6969 19.2865L17.0047 19.1633L17.2509 18.4244L17.3741 17.5623L17.6203 17.316L18.4205 17.9318L18.7283 18.3628V19.7175L19.0361 17.8702L18.7899 16.5771L18.913 15.2839L19.2207 14.6066L19.5285 14.1755L21.4368 14.6066L23.5298 14.3602L24.33 14.8529L26.1152 17.316L26.7307 17.747L27.4695 17.8702L26.423 17.3776L24.2685 14.4218L23.5913 14.0523L22.6064 13.9292L21.9909 13.6213L21.6215 13.1902L21.4984 12.7592V9.74187L21.1291 9.31082L20.6366 9.12609L20.3288 9.31082H19.7132L19.5901 8.63346L19.7132 8.14082L20.9444 7.77136L21.7446 7.27873L21.8062 6.47822L21.3137 5.80086L20.6981 4.63086L19.9595 3.52244L19.8979 2.22931H21.1906L21.4984 2.2909L23.4067 2.90667L23.8991 3.33772H24.5147L25.5612 2.90667L26.3614 2.72194L26.6692 2.96826L27.1002 3.0914L27.531 3.33772ZM19.6517 4.63086L19.4055 4.93877L18.7283 4.87718L18.3589 4.63086L18.4821 4.32295L18.8514 4.07667L19.1592 4.01508L19.5901 4.13822L19.6517 4.63086ZM54.5547 8.51027L54.7394 9.31082L54.5547 9.74187L53.816 9.0645H53.0158L52.5849 10.1113L52.2155 10.1729L51.046 9.24923L50.8612 8.81818L50.7997 8.44873L50.9844 7.15559L50.9228 6.72454L51.2922 6.2935L51.3537 5.61613L52.0308 4.93877H52.6464L52.8311 5.55454L53.1389 5.98559L54.1239 6.41663L54.2469 6.60136L54.3085 6.90927L53.8776 7.46345L53.6929 7.77136L53.816 8.20241L54.5547 8.51027ZM37.9958 8.14082H36.9493L36.5184 7.64818L36.0875 7.52504L36.3338 6.97082L36.6415 6.78609L37.6264 7.15559L37.9342 7.8945L37.9958 8.14082ZM57.9404 13.5597L57.8789 13.9292L58.0019 14.4834L57.6941 14.4218L56.8323 14.545L55.9705 14.3602L55.7858 13.6829L55.909 13.0055L55.6012 12.5745L55.2934 12.3281L55.2318 11.9587L55.2934 11.5276L56.7093 12.5745L57.9404 13.5597Z" fill="#434343"/>
</svg>
