<svg width="27" height="33" viewBox="0 0 27 33" fill="none" xmlns="http://www.w3.org/2000/svg">
<path d="M12.8139 3.08705L12.5062 2.90233L14.0452 2.47128L15.03 2.3481L15.2147 2.40969L13.4911 3.02546L12.8139 3.08705ZM16.1996 2.3481L17.5539 2.16337V2.10178L17.1845 1.97864H16.0149L15.6456 2.04023L15.7071 2.16337L16.1996 2.3481ZM20.3239 1.60919L20.0162 1.54759L19.1543 1.79391L19.0928 1.91705L19.3391 1.97864L20.3239 1.60919ZM11.9521 3.88755H11.3982L10.5979 4.62651L10.721 4.74965L11.9521 3.88755ZM23.4634 0.254456H23.1556L22.54 0.500774L22.3553 0.808638L22.9709 0.747046L23.4634 0.254456ZM4.50378 25.1936L3.64198 25.6247L2.53391 25.44L1.67211 25.1321L0.564124 25.1936L0.0716553 25.3784L0.256319 26.3021L0.440983 26.61L0.625647 26.7947L0.871929 26.8563L1.17964 26.61L1.61059 26.3636L2.28772 26.4868L2.78019 26.7331L2.96485 26.9794L3.27266 27.2257L3.76503 27.2873L4.68845 26.8563L5.61177 26.1789L5.85805 25.7479L5.98109 25.3168L5.18091 25.6247L4.50378 25.1936ZM26.1719 4.19546L25.2485 4.01074L24.633 3.70283L24.2636 3.14864L23.5865 2.40969L21.8629 2.47128L20.4471 2.71755L18.4773 2.77914L17.1845 3.14864L14.8453 4.38019L14.2298 4.99597L13.6142 6.3507L11.5828 7.89015L10.4132 8.50593L10.1055 8.25961L9.61304 8.13647L9.24371 8.93697L8.99743 9.61434L8.19716 13.7401L7.64316 15.218L6.90451 16.4495L5.73491 17.989L5.18091 18.4816L4.87311 18.6664L4.44216 19.4053L4.13445 20.2674L3.88817 20.6985L5.18091 22.2379L5.36558 22.669L5.55024 22.9153L4.31912 23.1L4.81159 23.5926L5.48872 23.9621L5.91957 24.1468L6.16585 24.5163L5.67338 24.7011H5.24244L3.51884 23.4079L2.53391 23.1616L1.17964 23.2231L0.871929 23.3463L0.502507 23.7158L0.994976 24.3316L1.42592 24.7011L2.16458 24.7626L3.02637 25.1936L4.2575 24.8242L5.18091 25.2552L5.79643 25.44L6.35052 25.6863L6.84289 25.7479L7.02765 25.6247L6.90451 24.9473L7.27384 24.5779L7.70478 24.3931L7.88945 24.7011L8.25877 25.0089H8.56658L9.36676 24.27L9.55142 24.3931L9.73609 24.6395L9.7977 24.8858L9.85923 25.1321L10.0439 25.2552L10.721 25.1936L11.0288 24.7626L11.275 24.5163L11.4597 24.7011L11.5828 25.1936L11.7675 25.871L12.5678 26.61L13.2449 26.7947L14.0452 26.6716L14.3529 26.5484L14.5992 26.6716L14.8453 27.041L15.3378 27.4721L16.3228 27.78L16.6306 27.9647L16.8152 28.2726L16.7536 28.7036L16.2612 29.7505L16.1996 30.0583L16.2612 30.1815L16.1996 30.3662L15.5841 31.0436L15.5225 31.2899L15.7071 31.721L15.8918 32.0288L16.2612 32.2136L16.6306 32.2752H17.3077H17.9848L18.3542 30.6126L18.0463 30.1199L17.677 29.8736L17.2461 29.7505L17.0614 29.5042L16.9999 29.2578L17.0614 29.0731L17.5539 29.1347L17.677 28.9499L18.8466 27.9647L18.9081 27.78L18.7235 27.6568L18.5388 27.5952L18.4773 27.4105V27.1642L19.0928 25.7479L19.2775 25.1321L19.3391 24.7011L19.2775 24.27L18.9081 23.5926L18.5388 23.0384V22.6074L18.2925 22.361L17.5539 21.191V20.76L17.9848 20.3905L18.5388 20.1442L18.7235 19.9595L19.0313 19.8364L19.8931 20.1442L20.2624 20.4521L20.3855 20.3905L20.7549 20.0827L21.3704 20.1442L22.9093 19.5285L23.1556 19.2205L23.3403 18.9127V18.7895L22.7247 18.1737V17.9274L22.7863 17.6811L22.9709 17.4964L23.3403 17.3732L23.7096 17.1269L24.5714 16.3264L24.8792 15.649L24.9407 14.9101V14.3559L24.6945 13.9248L24.4483 13.6169L24.1405 13.6785H23.5249L22.9709 13.4322L22.6631 13.0627L22.6016 12.6933L22.7247 12.4469L22.7863 12.2006L22.7247 11.9543L22.7863 11.708L23.0325 11.5233H24.8177L24.9407 11.3385L25.0639 10.2917L25.4948 8.69065L25.9257 7.76702L25.9872 7.39752V5.24228L26.1719 4.19546ZM2.59552 22.1147L3.21104 21.93L4.13445 22.669L4.99625 22.4226L4.93463 22.2379L4.81159 22.0532L4.13445 21.4374L3.02637 21.3758L2.41086 21.5605V21.8069L2.59552 22.1147ZM9.73609 7.39752L10.4132 6.59701V5.30388L9.42838 6.3507L9.24371 6.96647L9.36676 7.1512L9.73609 7.39752Z" fill="#FF0000"/>
</svg>
