<svg width="180" height="214" viewBox="0 0 180 214" fill="none" xmlns="http://www.w3.org/2000/svg">
<path d="M142.441 0.297852L144.288 1.09835H144.904L145.827 2.57626L146.319 2.45308L146.258 3.37677L145.335 3.80781L143.919 4.05413L143.734 4.23886L142.503 4.11572L141.826 2.88413L140.718 2.57626V2.20676L141.456 1.28313L142.441 0.297852ZM178.452 27.9465L178.822 30.5328V31.4564L178.637 32.3185L178.391 32.7496L177.898 32.9344L176.729 32.8728L175.128 31.8259L174.082 30.8407L173.774 30.7791L173.651 30.9023L173.897 31.8875L173.836 32.6264L173.651 33.4269L173.405 34.1659L173.097 34.7817L172.481 35.5822L171.373 36.198L168.357 37.4295L168.111 37.9838L167.126 41.309L166.88 41.8016L166.51 42.2326L165.464 42.7869L164.971 42.0479L164.54 40.9395L164.602 39.8311L165.833 37.6759L166.941 36.1364L167.249 35.5822L167.865 34.0428L166.572 30.1633L164.233 28.9933L161.586 27.2076L160.601 26.2223L159.062 24.2518L158.015 22.466L157.03 22.4044L155.984 22.8355L154.322 24.4981L153.337 25.2986L152.783 25.5449L152.66 25.6065L151.49 25.1139L150.197 24.9908L149.151 25.1139L148.72 25.3602L147.243 28.0081L146.196 29.3012L145.642 29.7323L145.211 30.4712L144.842 31.7028L144.103 36.0133L143.549 37.6143L143.426 38.5995L143.549 41.5553L143.426 43.2179L142.749 44.5726L142.257 45.1884L141.641 45.3116L140.779 45.6811L140.041 46.4816L139.548 47.5284L138.933 49.8684L137.948 50.7305L137.024 50.4842L136.347 49.6221L134.87 48.9447L133.762 48.5137L132.531 47.59L131.484 46.9126L130.499 46.7895L129.945 47.7131L129.514 48.5752L127.852 49.2526L126.929 49.8068L125.698 49.9299L125.205 49.3142L123.42 48.9447L121.327 48.4521H120.712L120.527 47.4052L119.973 45.9274L118.495 43.3411L117.88 42.4174L116.71 40.2621L115.356 38.0453L115.233 37.9222L114.31 37.8606L113.017 37.9222L112.155 38.4148L111.601 39.0306L111.539 39.5848L112.032 41.6169L111.847 42.1095L111.601 42.3558L110.37 41.8016L108.893 41.8632L108.523 42.479L107.661 42.5406L105.076 42.7869L106.184 44.4495L106.553 45.1268L106.615 46.1121L106.43 47.8979L105.876 49.4373L105.261 50.6689L104.029 51.9004L105.876 53.0704L104.645 54.6715L104.029 55.2873L103.352 55.1641L102.121 54.6099L99.1665 53.2552L97.7507 52.7625L96.5195 52.5778H95.8424L93.1954 51.4078L92.7029 51.531L91.718 52.0236L91.5949 53.132L91.6564 55.903L91.7796 58.0583L91.4102 59.2898L91.0409 60.1519L89.9944 62.3688L87.5936 60.8293L85.9316 59.844L84.8852 61.1988L82.2382 63.6619L80.8839 68.465L80.8224 68.6497L80.0221 69.8813L78.9756 70.4355L78.1753 70.6818L77.7445 72.0981L78.791 74.1302L79.345 75.1771L79.8374 76.9012L79.7759 78.0097L79.6528 78.687L78.5447 80.0417L76.1439 83.6133L73.9279 87.3079L73.0045 88.3548L73.4355 91.4953L72.6967 92.4189L71.1578 93.4658L70.3576 93.8353L69.5574 94.0816L67.0335 94.5126L67.4644 97.8378L67.6491 99.3157V100.178L67.4028 101.04L67.095 102.641L66.6026 108.306L66.2332 108.922L65.7408 110.461L64.1403 114.095L62.8476 116.496L61.0009 119.944L62.5398 120.991L63.9556 121.792L64.2634 123.023L64.4481 124.994L64.3865 126.349L63.8325 127.58L63.4016 128.442L63.0938 128.873L61.124 128.442L58.6001 127.888H57.923L56.4456 128.257L55.0913 129.058L54.4142 129.735L54.2295 129.982L53.3677 131.46L51.7673 134.107L50.9055 135.277L51.1516 136.878L49.7359 139.896L50.6592 142.975L50.7208 143.098L51.2133 144.329L50.6592 145.13L50.413 145.561L50.4745 146.977L50.5977 148.517L50.4745 149.44L50.413 150.426L51.7056 154.921V155.968L51.6441 156.645L51.2748 159.416L50.7208 163.111L51.6441 164.096L52.9984 165.266L53.737 165.697L54.8451 167.052L55.7069 168.407L55.5838 169.269L55.3376 170.254L54.9683 170.931L54.6605 171.855L54.5373 172.532L54.3527 172.717L52.8752 172.779L52.3213 172.717L51.8904 173.025L52.0134 174.564L52.8752 177.397L53.614 179.367L53.8602 180.661L53.6755 182.015L53.4293 182.693V183.616L53.2446 185.402L52.6906 186.326L51.9519 187.311L51.0901 188.05L50.413 188.235L49.859 188.296L49.4897 188.666L49.1202 189.774L48.8125 190.944L47.766 192.361V192.853L48.1354 194.516L48.5047 196.425L48.1969 198.21L47.9507 200.058L47.4583 201.289L46.7811 201.72L46.2887 201.474L45.7347 199.811V199.442L45.6115 198.949L44.011 198.457H43.7033L43.0876 198.149L42.7183 198.087L41.9797 197.903L41.364 196.425L40.6869 195.193L40.5638 194.7V192.361L40.3791 191.314L40.3176 190.144L39.8866 191.067L40.1329 192.545L39.6404 193.161L38.9633 193.469L39.0248 194.331L39.2711 194.516L39.3326 195.378L39.148 196.671L37.8552 199.565L37.609 199.873L37.4244 200.243L36.7472 199.996L35.8854 200.797L35.0852 200.92L34.7774 199.996L33.6694 198.765L33.1154 198.826L33.6078 199.442L34.1003 200.181L33.854 200.674L33.6078 200.981L33.1769 201.166L31.5148 202.151L32.1304 202.829L31.638 203.568L31.084 203.691L30.7762 204.06L30.653 204.553L28.9294 205.908L26.1594 209.418L24.7436 210.403L23.7586 211.45H22.8968L21.7888 212.312L19.0187 213.051L17.172 212.681L15.8793 212.989L15.2021 212.373L15.1406 211.942L15.2021 211.696L15.3253 211.388L15.079 211.265L14.5865 211.203L14.3403 211.511V212.189L14.0942 212.373L13.1092 212.004L12.8629 211.696L13.2323 211.019L13.8479 210.403L13.7247 210.28L13.6017 209.91L13.2939 209.849L12.4321 209.91L11.7549 209.787L9.47735 208.371L8.92326 207.632L7.07652 206.462L6.27634 205.169L5.78386 203.752L5.84539 202.459L6.09167 200.427L6.461 199.935L8.12308 200.612L9.78506 201.782L10.0313 201.72L10.5853 200.797L11.5703 200.058L11.2625 199.873L9.72354 200.735L9.16954 200.243L8.30774 199.257V198.765L8.73859 198.272L8.86174 197.595L8.67707 196.979L8.80021 196.117L9.47735 195.193L10.4622 194.269L11.2009 193.346L11.9396 192.792L11.8781 192.607L11.0163 192.976L10.216 193.592L9.23106 194.577L8.06146 195.378L7.19966 195.686L6.76881 195.932L6.15319 196.178L5.47606 197.348L4.7374 197.841L3.44465 197.903L3.13685 197.04L3.50627 194.023L3.8756 192.545L4.30645 191.498L4.98359 191.314L5.47606 190.513H5.84539L6.21472 190.883L7.50746 191.252L8.1846 190.267L9.0464 190.144L10.5853 189.158L10.5238 188.974L9.47735 189.22L8.86174 189.282L7.93841 189.528L7.44594 189.343L7.19966 188.604L7.56899 187.927L9.0464 186.326L9.53887 185.587L9.84668 184.91L9.78506 184.478L10.0313 183.555L11.4471 181.892L12.6167 181.153L12.9861 181.769L12.6783 183.801V184.602L13.6017 181.646L14.0325 180.968L14.4635 180.476L15.5715 180.168L15.8793 179.675L14.5865 179.799L11.4471 180.907L10.1544 181.892L9.78506 182.631L8.86174 183.801L8.43079 184.54L8.24612 185.648L7.75365 186.264L7.07652 186.511L6.09167 187.927L5.66072 189.035L4.67578 189.897L4.06026 190.575L3.8756 190.821L3.56779 191.498L3.32161 191.56L3.07532 191.191L3.0138 190.328L3.13685 188.974L3.62932 187.988L3.8756 187.003L3.56779 186.079L3.75246 185.525H4.18341L4.92206 185.772L5.72234 185.71L7.01499 184.971L6.83033 184.54L6.27634 184.478L5.22987 184.54L4.30645 183.863L3.62932 182.446L3.32161 180.537L3.50627 179.983L6.09167 178.074L6.76881 177.212L6.33786 177.151L5.35292 178.197L3.99865 178.875L3.13685 177.951L2.70599 176.966L2.45971 174.872L2.58285 173.764L2.45971 172.348L3.07532 171.855L3.75246 172.101L4.42959 172.163L5.90701 172.04L9.16954 171.178L11.2625 171.67L12.1243 171.609L13.417 170.87L14.5865 170.808L15.4483 171.362L15.9408 172.04L16.0024 172.902L16.3717 173.456L16.6179 173.271L16.4333 172.594L16.3717 171.547L19.8189 170.315L20.2499 169.823L18.8956 169.638L18.5262 168.53L19.265 166.867L19.2033 166.621L18.4647 167.483L18.0953 168.714L18.2185 169.7L18.0953 170.131L17.4182 170.315L15.8178 170.377L14.8328 169.946L13.9094 169.7L13.6017 169.392L13.7247 168.653L13.5401 168.53L13.1707 169.145L12.8014 170.439L12.0627 170.747L10.0313 170.254L7.07652 170.5L5.72234 171.116L4.42959 171.485L2.95218 170.377L2.39819 169.515L2.152 167.729L2.21352 166.929L3.38313 166.621H3.99865L4.55274 166.19L4.06026 165.882L3.38313 165.328L2.89066 164.219L2.21352 163.85L1.72105 162.926L1.59791 161.51L1.72105 160.525L2.09038 160.217L3.0138 160.463L5.41454 160.278L7.63061 161.263L9.16954 161.818L12.2474 161.51L14.0325 160.586L13.6632 160.401L11.6933 160.894H9.9082L6.70719 159.847L5.41454 159.539L3.99865 159.662L3.25999 159.355L2.82914 158.369L3.13685 156.46L3.81398 156.029L4.18341 156.522L4.61426 156.583L5.04521 155.783L5.47606 155.29L5.78386 154.244L7.01499 153.258L7.56899 153.197L8.30774 152.766L8.80021 152.889L9.10792 153.32L9.47735 153.689L10.3391 153.628L12.8629 152.827L13.1092 152.581L13.6017 151.904L12.0011 152.211L10.6469 152.704L9.78506 152.827L9.66201 152.211L9.96972 151.719L10.4622 151.165L10.7085 150.241L11.2625 149.81H11.8781L13.1092 149.625L13.971 149.379L15.4483 149.564L17.6644 149.933L19.0803 150.795L19.6343 150.734L20.1883 150.487L20.4346 150.179L19.3265 149.81L19.265 149.317L19.388 148.948L21.1732 148.209L23.143 148.024L22.7737 147.408L18.4647 148.27L17.3567 147.655H16.4333L15.8178 148.024L14.1557 148.455L13.8479 148.147L14.1557 147.1L15.1406 145.438L15.2021 145.007L15.6946 144.576L18.28 143.59L19.5111 142.421L20.0651 142.297L20.6192 142.359L21.481 142.236L23.143 142.544L23.8818 143.96L24.5589 144.391L26.7133 146.177L26.5903 145.684L24.7436 143.283L24.0664 142.667L23.5124 141.497L23.6971 140.388L24.3126 139.649L26.4056 139.218L26.775 138.787L26.8365 138.048L26.5287 137.556H25.7285L25.1129 137.248L24.9282 136.447L25.1744 135.893L26.4056 134.908L27.0827 134.6L28.2523 134.231L30.2222 135.031L30.3453 135.462L29.7912 136.447L29.8528 137.002L30.3453 137.063L31.5148 135.339L32.8691 135.093L33.4232 134.723L34.0387 134.477L34.9621 136.016L35.393 136.509L35.7008 136.694L36.0086 137.987L36.3163 138.048L36.7472 137.433L37.4859 137.125L38.5324 136.878L40.2561 137.186L41.0562 136.94L41.4256 137.002L41.0562 135.832L40.81 135.524L41.1794 134.477L41.5487 134.046L42.7183 133.307L43.8263 132.999L44.5651 132.322L45.5499 131.706L45.3652 131.213L45.119 130.598L44.5034 130.536L44.2572 130.228L45.0575 129.612L46.1655 128.75L45.9808 128.442L45.119 128.073L44.5034 128.381L43.5801 129.058L42.472 130.105L42.8415 130.413L43.3954 131.275L42.6568 132.445L38.594 135.524L36.6857 136.386L35.7623 136.263L35.5776 135.401L35.1468 134.785L34.7158 133.492L33.9772 133.553L33.5462 133.861L33.3616 133.43L33.6694 132.075L34.285 130.967L35.3314 130.166L35.8239 129.181L36.3163 127.58L37.8552 126.102L40.0713 122.346L41.918 121.114L42.5952 119.821L43.7033 119.267L44.6266 118.22L45.3652 118.097L46.658 117.173L47.3966 116.065L46.9042 116.003L45.7347 116.742L45.0575 117.05L45.119 115.88L45.4269 114.649L46.3502 113.54L50.9055 110.277L51.3363 110.831L51.8904 111.816L53.2446 111.57L54.7835 109.722L56.0147 107.69L55.3376 108.06L54.5988 108.922L53.1831 110.092L52.5675 110.277L52.1981 110.153L52.0134 109.415L51.521 109.168L51.0901 109.353L50.6592 108.799L50.5977 107.444L51.1516 105.412L51.5826 104.057L52.0751 103.01L53.9833 100.116L54.4142 98.5152L55.276 97.6531L56.3841 97.8378L56.7534 97.5915L56.3841 96.5447L55.1529 95.6826L55.0913 95.1284L59.2157 93.7121L61.1855 93.7737L61.7395 93.0963L62.786 92.6653L63.5863 91.8032L63.1553 91.4337L61.1855 92.2342L59.9544 92.6037H59.4003L58.9695 92.85L57.4921 92.6653L57.1227 89.2784L57.369 87.4311L57.9845 87.4927L58.1077 85.7069L58.7848 84.6601L59.7081 84.4138L60.2006 83.9827L60.8777 83.0591L61.9858 83.2438L63.1553 83.0591L62.8476 82.628L61.3702 82.0738L61.0009 81.0886L61.4933 80.5343L62.0473 80.1649L62.5398 80.1033L63.5247 78.1944L64.1403 77.3938L64.8174 77.517L65.7408 76.6549L66.6641 76.9628L67.5259 76.4086L68.6955 76.0391L73.0661 75.916L73.1892 75.1155L72.2659 74.9307L69.0034 74.746H67.3413L66.6641 74.9307L66.418 74.6844L66.4795 74.1918L67.095 73.4528L67.4028 72.6523L68.6339 70.6202L70.0498 69.2655L71.1578 69.635L72.3274 70.9281L73.1277 71.1129L73.497 71.5439L74.1126 73.3297L74.4203 73.3913L74.2973 71.7286L75.0975 70.3739L74.9128 70.0045L73.7432 70.4971L72.8199 70.0045L72.0812 68.9576L71.8966 68.034L72.3274 67.1103L72.7584 66.6176L72.4506 66.0634L70.6653 67.5413L69.3727 67.9108L68.8802 67.726L69.1264 66.3714L69.0034 65.3245L70.727 62.6766L71.3425 62.3688L72.2659 62.5535L73.1277 63.2924L73.8663 63.1693L74.6666 62.7382L74.482 61.8761L72.7584 61.5682L72.3274 60.9524L72.5121 60.3367L73.6817 59.7209L74.8513 58.6125L76.2056 58.3046L77.252 57.4425L77.4367 57.6272L77.6214 57.9351L77.9907 61.0756L78.9141 63.6003L79.2834 63.6619L78.9141 61.5067L79.2834 60.8909L79.7143 60.3983L79.8374 59.844L79.345 59.6593L78.9141 58.8588L78.36 56.3341L78.5447 55.6567L79.7759 54.302L81.3764 53.9941L83.0384 54.9178H83.654L84.6389 54.6715L86.301 53.8709L87.2859 53.5631H87.7783L87.9014 53.1936L87.409 52.9473L87.2859 52.701L86.9165 52.5778L85.3776 53.0088L81.1917 52.8857L80.7607 52.4547L80.6992 51.6541L81.1302 50.5457L81.6226 49.9299L83.2231 48.8215L84.8852 48.6984L86.6703 46.7279L87.3474 45.25L87.7168 42.91L88.8248 41.0011L91.5333 39.9543L91.6564 39.4616L91.3486 38.4764V36.6906L92.0874 34.5969L92.5799 33.858L92.826 33.7964L93.38 34.4738L94.1188 35.9517L95.2268 36.7522L96.7042 36.8754L97.0735 36.4443L95.9654 35.6438L95.1036 34.5354L95.0421 33.4269L95.473 32.8728L96.0886 32.9344L96.8889 32.8112L97.6275 32.0723L97.7507 31.5796L97.8122 30.9023L97.9968 30.1633L99.1049 28.4391L102.429 27.3307L102.675 27.7618L102.491 31.087L102.121 33.2422V34.7817L102.798 33.2422L103.66 28.9933L104.337 26.9613L105.076 25.7913L105.63 25.5449L106.122 24.9292L106.8 24.5597L106.984 25.0523L107.23 26.0992L106.861 29.8554L106.923 31.0254L106.492 32.6264L104.891 36.1364L104.953 36.5675L105.322 36.3827L105.938 35.8285L107.908 32.5033L109.631 32.9344V32.688L109.077 31.7028L108.4 30.7791L108.215 29.6091L108.277 26.4686L108.769 25.2371L110.247 25.3602L111.109 25.1755L111.539 25.7297L112.401 25.6681L113.017 23.3897L114.248 23.205L115.294 24.6828L116.587 25.6681L117.634 27.0844L117.941 26.7149L117.387 23.3281L116.772 22.0966L115.418 21.4808L114.002 19.9413L113.632 19.264L113.694 18.7713L114.925 18.2787L116.587 18.8329L118.065 17.5398L118.495 17.9092L119.604 17.2319L120.281 18.1556L120.712 17.9092L120.958 16.6777L122.743 15.9387L123.851 16.6161L124.467 17.355L124.774 18.7097L125.205 21.4192L126.067 22.8971L126.621 23.636L127.298 23.8208L127.606 23.0818L126.99 22.2197L126.806 21.4192L127.113 19.3871L127.483 18.5866L129.391 15.5077L130.992 13.9066L131.977 13.7835L133.639 10.1504L134.131 9.473L134.562 9.34986L134.439 8.42618L133.515 7.872L133.454 6.76359L134.685 5.40886L136.162 3.13045L136.901 3.00731L137.332 3.62308L138.748 4.6699L139.61 5.83991L140.225 6.45568L140.656 6.33254L141.026 5.4704L141.456 5.03936L142.38 5.28568L142.934 5.83991L143.365 5.9015L143.734 6.27095L143.796 7.00986L142.995 7.81041L141.641 9.96564L140.287 12.4288L139.856 13.7835L139.425 17.1703L138.378 19.3255L138.317 20.8034L138.748 21.4808L139.917 20.9266L141.333 18.9561L141.703 16.8624L145.211 11.074L146.873 7.81041L148.782 5.10095L149.828 4.54677L150.321 6.33254L149.951 8.6725L149.151 10.1504L149.767 10.8277L149.644 12.5519L149.459 13.5372L149.336 14.5224V15.3845L149.89 15.1382L152.106 13.2909L152.66 11.3204L153.152 9.8425L153.399 8.54932L154.26 7.31777H155.861L155.922 6.82513L153.953 5.16254L153.706 4.36204L154.383 3.31517L156.169 1.34467L157.092 1.59099L157.646 2.02204L159.862 2.39149L161.586 3.80781L161.524 6.02463L161.155 6.94832L160.785 7.5025L158.569 9.16514L158.2 9.96564L158.877 10.2735L160.355 9.473L160.724 10.212L160.231 12.0593L160.17 14.8303L159.985 16.4314V17.9092L160.17 18.7097L160.785 15.5693L160.97 14.7687L161.832 13.5988L162.14 11.1972L163.001 8.30305L163.986 6.57881L164.54 6.08622L166.387 6.14777L167.187 6.76359L167.865 8.17986L168.357 8.73409L170.019 9.34986L170.635 10.1504L170.758 10.5814L171.189 10.643L172.297 9.59618L173.035 9.41146L174.205 11.074L173.959 12.3056L174.02 12.6751L175.436 12.6135L176.606 13.1061L178.883 15.6308L179.13 16.8008L179.006 18.2172L175.744 19.7566L174.328 21.2345L172.05 21.7887L164.233 20.8034L164.417 21.8502L169.834 24.1287L170.142 24.806L169.957 26.1607V27.2691L170.081 28.0081L170.511 28.6854L171.189 28.9933L172.543 28.8086L173.22 29.1781L173.651 28.6238L173.836 26.7765L174.205 26.3455L174.944 26.8997L175.251 28.9318L175.436 29.1165L175.805 27.7002L176.544 27.8233L177.344 27.7002L178.452 27.9465ZM127.852 7.13304L127.729 7.81041L127.483 8.42618L126.929 9.10355L125.328 11.7514L124.405 12.1825L124.097 12.6135L123.728 12.8598L122.558 12.4904L122.189 13.0446L121.881 13.414L121.019 13.5372L120.527 13.414L119.234 12.4288L118.434 11.382L118.003 10.4583H119.173L119.604 10.212L120.404 10.3967L120.896 9.473L121.943 9.59618L123.913 8.98041L124.651 9.34986L126.313 7.19463L126.806 7.25618L127.606 6.64041L127.852 7.13304ZM131.73 12.2441L130.438 13.0446L129.699 12.3672L129.391 11.6282L129.33 10.0272L129.514 9.04195L130.13 8.54932L130.499 8.91882L130.622 9.22668L131.361 9.53459L132.223 10.5199L131.73 12.2441ZM129.022 12.6135L129.145 13.5988L129.206 14.3993L128.591 15.5077L127.113 16.9856L127.175 17.355L126.683 17.7245L125.944 18.0324L125.513 17.7861L125.575 16.4929L125.451 16.1235L124.897 16.6161L124.282 15.9387V15.2614L124.467 14.7071L125.021 13.8451L125.944 13.2293L126.559 13.4756L128.591 11.1972L128.837 11.6898L129.022 12.6135ZM102.798 19.3255L103.168 19.5718L103.537 19.4487L103.845 19.6334L104.399 20.6802L105.014 21.1113V21.6655L104.46 22.1582L103.722 22.3429L102.921 22.1582L102.675 21.4808L102.429 20.3724L101.752 19.264L101.629 18.3403L102.183 18.2172L102.798 19.3255ZM99.2896 22.3429L99.9051 23.4513L100.459 23.3281L100.644 22.8971L101.013 22.7123L101.752 23.2666L101.629 24.2518L100.582 25.4833L99.8436 27.2076L98.9203 27.6386L98.4893 27.4539L97.6275 28.4391L96.9504 29.4859L96.2732 30.7791L96.2117 31.4564L96.0886 31.9491L93.5647 32.4417L92.6414 32.7496L91.6564 32.3185L91.164 31.4564L91.2871 30.9639L92.272 30.7791L92.3336 29.9786L92.5799 29.4859L92.8876 29.2396L93.1339 28.1928L93.5032 27.9465L94.2418 28.1928L94.7343 27.4539L94.9806 27.3307L95.2883 27.9465L95.473 27.0844L95.2883 26.2839L95.3499 25.7297L96.2732 24.375L96.7042 23.3897L97.2582 22.7123L97.8122 22.8355L97.9968 21.8502L97.8122 20.865L97.8737 20.2492L98.3662 18.7097L98.9203 18.6482L99.1665 20.0645L99.2896 22.3429ZM109.693 21.9118L109.323 22.4044L108.769 22.5892L108.462 22.2813L108.031 22.0966L107.538 22.1582L107.107 21.2961L107.169 20.5571L107.723 19.5718L108.831 19.0177L109.754 19.264L110.001 19.5718L109.693 21.9118ZM172.235 27.7002L170.942 28.2544L170.819 27.7618L171.127 27.0228L171.496 25.4833L172.05 25.5449L172.604 26.0992L173.035 26.7765L172.235 27.7002ZM87.409 31.6412L88.2092 32.7496L88.5786 32.3801L89.3172 32.257L89.8713 32.6264L90.3022 33.3038L90.7946 33.3654L91.1024 34.289L91.2871 35.459L90.9178 36.3211L90.3638 36.7522L90.2406 37.799L90.4253 39.2769L89.1942 39.7695L87.7783 40.0158L87.2243 39.3385L86.1163 40.6316L85.0082 42.6021L84.4542 42.8485L84.3927 42.2326L83.5924 41.8016H82.546L82.6075 41.309L82.7922 41.0011L83.654 40.5085L83.8386 39.5232L83.654 37.7375L83.8386 36.8754L83.9002 36.2595L84.4542 35.5206L86.3625 35.8285L86.6088 35.1512L86.4856 34.7201L85.5007 33.9812L85.6238 33.4885L86.301 33.0575L86.9781 32.9959L87.1628 32.257L87.2243 31.9491L87.409 31.6412ZM75.5284 51.4078L75.59 51.531L76.5134 49.7452L77.5598 49.191L77.6214 48.5752L77.9907 47.9594L77.9292 46.9742L78.1138 46.1736L78.6678 45.9274L78.9756 45.6811L79.345 45.5579L80.0221 46.2352L80.3914 46.9742L80.8224 48.5752L80.6377 50.1147L79.4065 51.3462L78.4216 51.9004L77.4367 53.3167L76.9442 54.4252L76.5134 54.6715L76.2671 54.6099L76.0209 54.3636H75.5284L74.9744 55.3488L73.3124 56.1493L72.6352 55.903V54.9178L72.2659 54.9793L71.6503 56.1493L71.0348 56.5188L70.6038 56.642L69.8652 56.2109L67.8337 58.1814L65.9255 58.5509L65.3099 58.3046V57.073L66.541 55.5336L67.5259 54.4252L70.9731 53.6862L73.1277 50.4226L73.6202 46.851L74.1126 45.5579L73.8663 44.819L73.3124 44.6958L73.2507 43.5874L73.5585 42.3558L74.6666 40.6316L75.2821 39.8927L76.3286 37.8606L76.8211 37.368H77.3752L77.9292 37.9222L77.806 39.0306L76.9442 41.0011L75.7131 42.6637L75.8362 43.8953L76.3286 44.8805L76.4517 46.5431L76.5134 48.1441L75.59 50.2994L75.5284 51.4078ZM71.7734 44.2031L72.6352 46.1121L73.0661 47.2205L72.7584 49.3142L71.8966 50.361L70.5423 50.5457L69.6189 50.4842L69.0034 49.9915L68.9417 49.4373L68.5724 49.2526L67.6491 49.9915L67.0335 50.1147L66.2332 49.5605L66.0485 48.6368L66.9103 47.5284L67.2798 46.6663L68.2031 46.7279L68.4493 46.9742L69.0034 47.1589L69.3111 46.1121L69.2495 45.3731L69.4958 44.8805L70.6038 45.25V43.2179L71.0348 43.0947L71.2194 43.1563L71.5271 43.5874L71.7734 44.2031ZM62.6629 56.8267L63.0938 57.1346L64.1403 57.073L64.3249 57.1962L64.2019 57.6888L63.7709 58.243L62.786 58.6125L62.3551 59.4746L62.0473 59.7825H61.1855L60.6931 59.9672L60.0775 60.7061L59.5851 60.1519L59.4619 60.583L59.4003 61.3219L59.1541 61.5067L58.2923 61.753L58.1077 60.0904L58.477 59.4746L58.7848 58.7356L59.2157 58.6125L59.6466 58.6741L60.3853 57.073L61.4317 56.642L62.1089 56.5804L62.6629 56.8267ZM56.5072 63.9698L55.5223 64.8934L55.8916 63.1693L56.4456 61.3835L57.1843 60.3367L57.5537 60.7061L57.369 61.5682V62.4303L57.1843 62.7998L56.5072 63.9698ZM52.7522 95.8673L52.1366 95.9905L52.2597 95.2515L52.7522 94.5742L52.9369 94.0816L53.0599 93.5274L53.4909 93.0963L54.1065 93.6505V94.5742L53.7987 95.4363L52.7522 95.8673ZM53.3677 98.2073L52.8137 98.2689V97.5915L53.1215 96.9757L53.614 96.5447L54.2295 96.4215L54.9683 96.3599L55.2145 96.6679L54.7835 97.1605L53.3677 98.2073ZM49.6743 102.764L49.2434 103.257L48.3816 103.134L48.3201 102.703L48.5662 101.84L49.0587 101.471L49.7359 101.533L49.9205 101.902L49.6743 102.764ZM44.6881 115.141L44.3188 115.572L43.5186 115.203L41.9797 115.449L41.364 115.018L41.8565 114.156L43.2723 113.232L44.011 113.294L44.8112 114.402L44.6881 115.141ZM25.8515 133.923L25.0514 133.984L24.5589 133.615L25.6669 132.937L27.4521 132.26L27.6368 131.829L27.8214 131.767L28.1292 132.26L28.1908 132.937L28.0061 133.307L25.8515 133.923ZM23.3278 138.972H22.6506L21.8504 138.726L21.3579 138.233L21.2964 137.802L22.2197 137.248L23.143 136.94L23.574 137.556L23.6355 138.541L23.3278 138.972ZM1.90572 171.855L1.2902 172.04L0.797729 171.917L0.982394 170.562L1.22858 170.315L1.59791 170.254L1.96734 170.993L1.90572 171.855ZM2.82914 182.631V184.232L2.21352 184.109L1.90572 183.493L1.84419 183.062L1.90572 182.138L1.78267 181.153L1.96734 180.661L2.21352 180.599L2.64447 181.461L2.82914 182.631Z" fill="#FF0000"/>
</svg>
