<svg width="54" height="75" viewBox="0 0 54 75" fill="none" xmlns="http://www.w3.org/2000/svg">
<path d="M53.3885 35.2734L53.2823 35.3797H53.0964L52.7776 35.8049L52.8041 35.486L52.6979 35.3531L52.4323 35.3797L52.3792 35.4594L52.5651 35.5392L52.6183 35.5923L52.4323 35.7783L52.6183 36.1503L52.7776 36.1238L52.937 36.4161V36.5223L52.5917 36.6286L52.4057 36.7881H52.2463L52.1666 36.7615L52.087 36.4692V36.3363L52.2994 36.1238L52.4057 35.9112L52.326 35.7251L52.087 35.5923L51.5822 35.6454L51.476 35.5923L51.7416 35.3266L52.0073 35.3531L52.2994 35.1671L53.3885 35.2734ZM53.3885 37.6384L53.2558 37.665L53.2823 37.4258L53.2292 37.2664L53.4417 37.2132L53.5479 37.3992L53.3885 37.6384ZM22.3623 1.84505L22.4154 2.00448L22.5749 1.89821L22.7076 1.71218L22.8936 1.52619L22.867 1.81849L22.9733 1.87165L23.6108 2.08424L23.7436 2.27022L23.8764 2.32338L23.9561 2.21707L24.0358 2.16395L24.2749 2.27022L24.8062 2.58908L24.8593 2.6954L24.8327 2.85483L24.8593 3.01425L24.939 3.14713L25.1249 3.17368L25.364 2.9877L25.4703 2.9611L25.6296 3.2534L25.6827 3.41287H25.6562L25.7624 3.5723L25.8953 3.73173L26.1344 4.18346L26.1078 4.34289L26.0281 4.47576L26.2406 4.90093L26.1078 4.92749L25.6827 4.84777L25.7093 4.92749L25.9484 5.24634L26.1609 5.69807L26.3202 5.96382L26.9046 6.78756L26.825 7.07986L26.8515 7.26589L26.7719 7.42532L26.9578 7.87705L26.825 8.00992L26.7453 8.46165L26.6656 8.54136V8.70079L26.9046 8.75395L27.0375 8.83366L27.1703 8.96654L27.25 8.80711L27.3563 8.75395L27.6484 8.96654L28.2328 9.17912L28.3922 9.25884L28.472 9.44482L28.5251 9.87L28.6313 10.056L28.8438 10.0826L29.0829 10.0294L29.1626 9.87L29.1095 9.44482L28.9235 8.78051V8.56792L28.9501 8.35534L28.9235 8.14279L28.8438 7.93021L28.7375 7.77078L28.6313 7.6379L28.6844 7.42532L28.8704 7.3456L28.9766 7.50503L29.0563 7.71762L29.5079 8.32878L29.7736 8.27562L29.8001 8.54136L29.986 8.80711L30.0923 9.09941L30.2251 10.0029L30.4376 10.8532L30.8095 11.2252L30.8627 11.4112L30.6501 11.3315L30.5704 11.3847L30.597 11.4644L30.8095 11.6238L31.0486 11.7035H31.208L31.3408 11.7567L32.2971 12.3147L32.7487 12.5273L33.8909 12.8727L34.2096 12.8993H34.3956L34.7409 12.7664L35.0597 12.5538L35.3253 12.2084L35.5644 11.8364L35.8035 11.6504L36.0957 11.5175L36.2285 11.3847L36.3879 11.2783L37.1582 11.3315L37.4239 11.5175L37.7692 11.6769L37.9551 11.7832L37.902 12.0224L37.6895 12.3678L37.5301 12.7664L37.3973 13.6699L37.291 14.5734L37.1582 14.9719L36.8926 15.2908L36.6004 15.53L36.2816 15.6362L36.1488 16.1677L36.0957 16.7789L36.1222 16.9383L36.2285 17.0712L36.2816 17.2572L36.1222 17.6292L36.016 17.576L35.8832 17.2572L35.7504 17.1243L35.3784 17.018L34.98 16.9649L34.6347 16.9914L34.3159 17.1243L33.8112 17.3901L33.6518 17.5229L33.519 17.6824L33.28 18.0544L33.2268 18.5327V18.7718L33.3065 18.9578L33.7315 19.2236L33.3065 20.127L32.9346 21.0836L32.7221 21.3494L32.483 21.5885L32.244 22.1465L31.8455 22.6514L31.5799 23.0234L31.3674 23.422L31.1814 23.8472L30.783 24.4318L30.597 24.8304L30.358 25.1493L29.9329 25.5744L29.4813 25.9198L28.7641 26.4247L28.5782 26.5842L28.3657 26.717L28.1 26.5842L28.0469 26.4247L27.9938 26.0793L27.9407 25.9464L27.6219 25.8401L27.1969 25.9996L27.1172 25.973L27.0906 25.8933V25.415L27.1703 25.2821L27.064 25.2024L26.9578 25.229L26.9312 25.3618L26.9843 25.4681L26.7453 25.601H26.4797L26.3999 25.5478L26.3734 25.4681L26.4265 25.3087L26.5062 25.1758L26.9843 24.5646L27.489 23.7409L27.9141 22.864L28.0204 22.4123L28.1797 21.5885L28.0469 21.2431L27.8876 20.9242L27.4625 20.313L26.8781 19.9676L26.5062 19.9144L26.1609 19.7816L25.8421 19.4893L25.55 19.1439L24.939 18.8516L24.3015 18.639L23.9295 18.3201L23.8498 18.1341L23.7968 17.9215V17.7089L23.8498 17.4963L23.9295 17.3369L24.0358 17.2306L24.6999 16.832L25.4171 16.5929H25.55L25.6827 16.5663L25.8687 16.4334L26.1875 16.1146L26.2671 15.902L26.3202 15.2377L26.4265 14.5734L26.6125 13.8027L26.8781 13.3244L26.9578 13.0321L26.8515 12.5538L26.9578 12.3678L27.0906 12.2615L27.2235 12.2084L26.9843 11.7567L26.6922 11.0924L26.6391 10.8798L26.6922 10.6672L26.7719 10.4546L26.5859 10.4014L26.4797 10.2155L26.214 9.57769L26.2937 9.47142L26.4531 9.55114L26.6656 10.0029L26.6922 9.76372L26.8515 9.60425L27.0375 9.52454L27.2235 9.49798L26.7985 8.99309L26.6656 9.01965L26.4797 9.09941L26.2937 9.15252L26.1078 9.09941L25.9218 8.99309L25.8421 8.78051L25.7358 8.35534L25.6562 8.19591L25.0983 7.3456L25.2577 7.31901L25.7093 7.74418L25.789 7.61131L25.8421 7.42532L25.8156 7.21273L25.7093 7.0533L25.55 6.94699V6.761L25.6827 6.57498V6.44214L25.4171 6.1764L25.3109 6.14984L25.2577 6.25612L25.3374 6.44214L25.2577 6.4687L24.6202 6.01697L24.4343 5.64496L24.2749 5.24634L24.2483 5.40581L24.2749 5.64496L24.5405 6.09669L24.939 6.62813L25.0187 6.761L24.9656 6.94699L24.8327 7.00015L24.6999 6.89387L24.5139 6.44214L24.3812 6.22956L22.7873 4.02403L22.9998 3.73173L23.3186 3.46598L23.3983 3.35971L23.4514 3.22684L23.3186 3.20028L23.2123 3.2534L23.0795 3.35971L22.9467 3.49258L22.7873 3.78488L22.7076 3.8646L22.5217 3.65201L22.442 3.51914V3.35971L22.3889 3.2534L22.256 3.22684L22.0435 2.93454L21.9108 2.77511L22.1232 2.48281V2.1108L21.9108 1.71218L21.6451 1.34017L21.1404 0.755606L20.6888 0.117849L21.1935 0.0381342L21.6982 0.0115356L21.4591 0.383551L21.5654 0.596137L21.7248 0.782164L22.0701 1.34017L22.0966 1.49964L22.2826 1.65907L22.3623 1.84505ZM29.0563 6.70785L29.0829 6.89387L28.8704 6.81416L28.7907 6.65469L28.5251 6.49526L28.4985 6.44214L28.472 6.14984L28.6048 6.01697L28.6313 5.96382L28.6844 5.93726L28.7907 6.09669L29.0032 6.30927L29.0563 6.70785ZM21.9108 25.4947L22.256 25.5213L22.5749 25.229L22.8936 24.9898L23.2389 24.8038L23.7436 24.3521L23.8764 24.2989L24.2218 24.2192L24.3546 24.1129L24.5139 24.0864L24.3546 24.3521L24.1686 24.4318L24.1421 24.5381L24.2483 24.6975L24.0889 24.9101V25.1758L23.903 25.4947L24.1952 25.3618L24.3015 25.1493L24.2483 25.043L24.3812 24.8038L24.5671 24.6975L24.4874 24.5381V24.4052L24.7265 24.4584H24.8327L24.939 24.4052L25.1249 24.3787L25.1515 24.5381L25.3906 24.5115L25.3109 24.6975L25.1249 24.9101L25.0718 25.043L24.7796 25.2555L24.5936 25.3618L24.8859 25.3884L25.3109 25.0961L25.5765 24.8304V25.1493L25.364 25.4416L25.178 25.6275L24.9921 25.6807L24.8062 25.8401L24.6999 26.0793V26.2387L24.753 26.3716L24.9656 26.5842L24.7265 27.0093L24.9921 26.9562L25.1249 27.0359L25.3109 27.2751L25.2046 27.5674L25.1249 27.7002L24.6202 28.3114L24.4077 28.6303L24.1421 28.8163V29.1351L24.0092 29.3743L23.2654 30.1715L23.1327 30.3575L22.5483 31.633L22.1763 32.1644L21.9639 32.3504L21.7513 32.5099L21.2201 32.7756L20.981 33.0679L20.7154 33.3071L20.4497 33.3602V33.4665L20.6357 33.5196L20.7685 33.6791L20.6623 33.8651L20.4763 33.9714L20.2638 33.9979L20.1576 34.1042L20.6357 34.0245L20.7685 34.1308L20.7951 34.3434L20.8482 34.5294L20.9544 34.7685L21.3795 34.928L21.7513 35.0077L21.8311 35.114L21.8842 35.486L21.8045 35.672L21.7248 35.8049L21.5919 35.858L21.2998 35.8846L21.0075 35.8049L20.7951 35.5657L20.2107 35.6454L20.0513 35.6986L19.9716 35.6454L20.2903 35.4063L20.131 35.2734L19.9982 35.2203L19.8388 35.3L19.7325 35.4328L19.7059 35.6454L19.5997 35.7783L19.4403 35.8049L19.2278 35.6189L19.0153 35.3797L18.6965 35.1405L18.7497 35.3L18.9887 35.672L19.1215 35.9377L18.8294 36.1503L18.5371 36.3097L18.2715 36.3895L18.0324 36.5223L17.7403 36.7349L17.5809 36.8146H17.1559L16.9433 36.8943L16.8636 37.1866L16.7042 37.3727L16.3324 37.3992L16.4652 37.4524L16.5449 37.5587L16.3058 38.4621L16.2527 38.8341L16.1995 39.4719L16.0401 40.0565H15.6151L15.6948 40.1628L16.0136 40.3222L15.9605 40.5879L15.5886 41.0663L15.4292 41.332L15.2699 41.9963L15.0573 42.6075L14.712 43.2984V43.4312L14.8182 43.6172L14.951 43.7766V43.9892L14.8979 44.0955L14.7386 44.1221L14.6058 44.2018L13.862 44.3878L13.6229 44.6004L13.4104 44.9724L13.1713 45.2913L12.3744 46.0353L11.9228 46.6465L11.8165 46.8325L11.6838 46.9654L10.6743 47.2577L9.95715 47.3108L9.55863 47.2311L9.18678 47.0717L8.97423 47.0185L8.57579 47.0982L8.38982 47.2045L8.07107 47.0982L7.83201 47.1779L7.75232 47.0982L7.67264 46.9122L7.72573 46.6731L7.64605 46.4871L7.48667 46.3542L7.38047 46.2213L7.24761 46.115L6.92886 46.0885L6.39755 46.1416H6.23818L5.89292 45.557L5.78664 45.4242L5.36162 45.2381L5.22883 45.2647L5.01628 45.5836L4.88349 45.6368L4.08653 45.6633L3.28966 45.557L2.99742 45.4507L2.94432 45.185L3.55531 44.441L3.36935 44.5473L2.99742 44.8396L2.75836 44.7864L2.99742 44.4676L3.02401 44.3081L2.97091 44.1487L2.65216 44.4144L2.30682 44.441L2.25364 44.1753L2.28023 43.883L2.35992 43.8032L3.31625 43.6438L3.66151 43.5375L3.82088 43.3781L3.26307 43.3249L3.23656 43.1123L3.31625 42.9263L3.79437 42.634L3.44903 42.7138L3.0506 42.6872L3.07711 42.3683L3.18338 42.1292H3.60841L3.47562 41.9697L3.44903 41.7306L3.55531 41.704L3.98034 42.0229L4.2725 42.1292L4.13971 41.89L4.16622 41.7306L4.24591 41.6509L4.48497 41.5977L4.40528 41.5446L4.16622 41.4914L3.90065 41.3054L3.87406 41.1194V40.9068L4.16622 40.6145L4.35219 40.8005L4.56474 40.7474L4.40528 40.6145L4.29909 40.4019L4.35219 40.2691L4.98969 39.711L5.14906 40.2425L5.17565 40.0565V39.8971L5.09596 39.7376V39.5782L5.17565 39.4453L5.4413 39.3125L5.78664 38.9138L6.0523 38.7279L6.26477 38.8607L6.39755 39.0202L6.37105 38.8607L6.26477 38.7279L6.23818 38.3558L6.71638 37.7712L7.24761 37.2132L7.75232 36.6286L8.01797 36.4161L8.57579 36.1769L8.94772 36.2832L9.05391 36.2566L9.58522 35.8315L9.79769 35.7251L10.0102 35.8846L10.143 35.9377L10.0102 35.5657L10.1165 35.3797L10.5681 35.0608L11.1259 34.742L11.5509 34.6091L11.8697 34.3965H12.0556L12.0291 34.2371L12.0556 34.0777H12.215L12.2682 34.0245L12.1353 33.9448L12.6135 33.6259L12.8791 33.2805L13.0119 33.2008L13.1447 33.0945L13.3041 32.8553L13.4901 32.7756L13.6494 32.8022L13.7557 32.9085L13.7025 32.7225L13.4901 32.6161L13.7025 32.4567L13.9417 32.3504L14.1807 32.4302L14.3932 32.563L14.1807 32.3504L14.1542 32.2176L14.4198 32.0581L14.5792 32.005L14.7917 32.2707L14.7651 32.0581L14.8182 31.8721L15.1104 31.5533L15.4823 31.0218L15.6151 31.2078L15.6417 31.4204L15.6151 31.6861L15.6948 31.6064L15.7214 31.3672L15.6683 30.9421L16.1464 30.1715L16.2527 30.0918L16.3589 30.0386L16.5184 30.012L16.4652 29.9057L16.3324 29.7995L16.4652 29.4009L16.5449 28.9491L16.6511 28.524L16.8371 28.0988L17.023 27.4079L17.1824 27.2485L17.5809 27.1954L17.7668 27.089L18.059 26.8233L18.4043 26.3716L18.5903 25.9996L18.8294 25.043L18.9622 24.0598L19.3606 23.3423L19.945 22.8108L20.4497 22.4123L20.6623 22.3326L21.0075 22.306L21.3529 22.4123L20.742 22.5185L20.6888 22.7577L20.6623 22.9969L20.742 23.2095L20.8482 23.3954L21.1404 23.5815L21.4857 23.6877L21.6451 24.0864L21.6716 24.5646L21.7248 24.9898L21.9108 25.4947ZM24.2749 23.8738L23.8764 24.0864L23.903 23.9269L23.9827 23.5815L24.1686 23.422H24.2483L24.4343 23.2892L24.4077 23.5815L24.2749 23.8738ZM3.87406 41.1991L4.00685 41.704L3.7412 41.5977L3.635 41.4383L3.84747 41.1991H3.87406ZM3.18338 43.1655L3.15679 43.3781L3.13028 43.4843H3.02401L2.86463 43.4578L2.70526 43.3515L2.59898 43.3781L2.51929 43.3515L2.62557 43.1123L2.97091 42.9795L3.10369 43.0858L3.18338 43.1655ZM7.30079 48.294V48.4534L6.98196 48.4003V48.5863L7.2211 48.6926L7.30079 48.8255L7.53985 48.7989L7.59295 49.0115L7.53985 49.1975L7.38047 49.3303L6.87576 49.4101L6.55701 49.6758L6.29136 49.6227L6.21167 49.6492L5.89292 49.9415L5.54758 50.0212L5.4413 49.9947L5.4944 49.7289L5.76005 49.4898V49.2506L5.83974 49.0646L6.10539 48.9317V48.6926L6.26477 48.48L6.15849 48.0017L6.21167 47.5765L6.71638 47.5499L7.30079 48.294ZM1.64273 65.6725L1.69583 66.0711H1.53645L1.19111 65.9648L1.08484 65.8054L1.00515 65.7522L0.872363 65.9382H0.686399L0.633301 65.8851L0.712988 65.6725L1.16452 65.2739L1.24429 64.7956V64.6362L1.61614 64.6096L1.69583 64.6627L1.72242 64.7424L1.69583 64.8222L1.53645 64.9816V65.1676L1.56304 65.3536L1.43018 65.4599L1.48336 65.6193L1.64273 65.6725ZM10.329 73.8569L10.4884 74.096L10.1696 74.2023L10.0102 74.1226L9.90397 74.0163L9.85087 73.8569L10.0102 73.8834L10.143 73.8303L10.329 73.8569Z" fill="#FF0000"/>
</svg>
