<svg width="171" height="82" viewBox="0 0 171 82" fill="none" xmlns="http://www.w3.org/2000/svg">
<path d="M96.0285 79.8126L96.9518 80.2436L97.8136 80.0589L98.8601 80.6131L99.4142 80.7362L98.9217 81.1058L98.4293 81.5983L97.1981 81.4752L96.1517 80.9826L95.7822 80.6131L95.6592 80.3052L96.0285 79.8126ZM42.6583 45.9445V46.1293L42.2889 46.0677L41.7965 46.1293L41.5502 45.6983L41.7965 45.5135L42.3505 45.4519L42.5966 45.6366L42.6583 45.9445ZM38.4723 38.432L38.9033 38.4935L41.0577 38.3704L41.6118 38.432L41.5502 39.0478L41.1193 39.2941L39.8266 39.4788L37.7952 39.0478L37.118 38.4935L36.995 38.1241V37.9394L37.4258 37.8162L38.4723 38.432ZM21.421 33.1362L21.975 33.5057L21.1132 33.5673L20.8054 33.7521L20.1282 33.5057L19.2664 33.5673L18.774 33.0747L18.6508 32.5821L18.8971 32.2742H19.6358L21.421 33.1362ZM18.0353 32.5204H17.3582L16.681 31.8432L17.666 31.4736L17.9737 31.6583L18.1583 31.9047L18.2815 32.2126L18.0353 32.5204ZM23.9448 32.2742L23.637 32.3973L21.8518 31.72L21.1747 31.4121L20.3129 30.6732L22.7136 31.5968L23.9448 32.2742ZM28.7462 31.4736L28.6232 31.5352L27.2073 31.2889L26.7764 30.981L26.5918 30.3652L26.838 30.1805L27.4536 30.0573L28.3769 30.1805L28.9309 30.6115V31.1658L28.7462 31.4736ZM1.04539 24.8231L0.737682 25.2542L0.245212 25.1311L0.0605469 24.9463L0.183594 24.0227L0.614541 23.838L1.04539 24.2074V24.8231ZM157.463 3.2092L157.586 3.27075H157.955L158.632 2.90129L159.125 2.59348L159.31 2.71657L160.725 2.53184L161.033 2.65502L161.279 2.7782L161.956 2.96293H162.695L163.619 2.65502L164.049 2.34711L164.111 2.0392V1.79293L164.234 1.66975L164.419 1.6082L164.727 1.73129L165.219 1.85447L166.327 1.91611L166.573 1.73129L166.943 1.79293L167.435 2.0392L167.989 1.97766L168.297 2.22393L168.42 2.59348L168.482 3.33239L168.42 4.13293L168.543 4.44075L168.912 4.50239H169.528L170.082 4.68712L170.513 5.05657L170.636 5.42602L170.698 5.67239L170.451 5.79548L170.144 6.34966L169.343 7.08866L168.235 7.76603L167.374 8.56648L166.82 9.55176L166.081 9.98285L165.835 10.2291L165.773 10.4755L166.266 11.6454L166.389 12.5691L166.512 13.6775L166.45 13.9854L166.389 15.2169L166.266 15.5864V15.8943L166.45 16.2022L166.512 16.5101L166.204 16.8796L165.588 17.3107L165.157 17.6801L165.034 18.0496L165.096 18.2959L165.835 19.0349L165.958 19.3427L165.835 20.0817L165.404 21.3132L164.973 22.0521L164.911 22.1138L164.419 22.2985H162.141L161.587 22.4832L161.649 22.6064L162.203 23.5916L162.757 24.0842L162.941 24.2074L163.126 25.3158L164.049 27.1016L164.911 27.3479L165.219 27.779L165.157 28.3947L164.911 29.0721L164.357 29.7494L163.742 30.2421L163.311 30.7347L163.249 31.2889L163.126 32.0279L162.941 32.5821L162.88 32.9515L164.48 35.3531L165.404 35.2299L165.527 35.2915L165.342 35.8457L165.034 36.5231L164.665 36.6463L163.926 36.831L163.188 37.6931L162.572 38.7399L162.141 39.2325L161.71 40.4641L161.772 41.0183L161.956 41.8188L162.387 43.9124L161.772 44.0356L159.433 45.3904H158.694L157.34 44.7745L155.001 44.5898L154.2 44.4051L153.215 44.7745H152.477L151.861 45.2672L151.43 45.144L151.923 44.0356L152.661 41.7572L152.6 40.4025L152.784 39.1709L152.6 38.001L152.23 37.262L152.723 35.2915L152.661 34.3063L152.169 33.0131L153.646 33.1978L153.215 32.7052L152.784 32.3973L152.354 32.4589H151.984L150.753 32.9515L150.137 33.0747L149.953 33.0131L150.014 32.2126L149.707 31.1658L150.199 30.9194L150.753 30.8579L151.246 30.4268L151.553 29.9342L151.369 29.0721L151.799 28.2716L152.784 27.5942L152.292 27.7173L151.676 28.1484L150.753 29.7494L150.445 30.55L149.645 30.7962L148.906 30.9194L148.537 30.8579L148.106 30.6732L148.044 30.0573L148.106 29.5647L148.414 28.6411L148.537 27.2863L148.968 26.1163L148.906 25.8084L148.783 25.3158L149.153 24.8231L149.645 24.5153L150.322 23.4685L151.307 21.0053L152.415 18.419L152.354 18.1111L152.107 17.8649L152.23 17.1259L152.908 14.0469L153.154 13.6159L153.462 12.6923L153.523 11.2144L153.646 10.2291V9.73649L153.523 9.12076L153.092 7.95076L152.661 5.48757L152.6 4.62548L152.969 4.19448L152.354 4.13293L152.046 3.57866L152.107 2.96293L152.784 1.97766L153.4 1.36184L154.016 0.930837L154.385 0.807654L155.862 0.376655L156.232 0.191833L156.601 0.253472L156.663 0.438199L156.847 0.807654L157.093 1.05402L157.155 1.23875L156.601 2.10084L156.539 2.40866L156.847 2.96293L157.463 3.2092Z" fill="#434343"/>
</svg>
