<svg width="225" height="368" viewBox="0 0 225 368" fill="none" xmlns="http://www.w3.org/2000/svg">
<path fill-rule="evenodd" clip-rule="evenodd" d="M169 62.3552L168.236 64.486L167.559 65.7791L166.759 68.9196L167.067 70.9518L167.005 71.7523L166.821 72.6759L166.205 71.9986L165.712 71.1981L165.035 70.4591L164.297 70.2128L163.496 70.3975L162.942 70.767L163.004 69.9049L163.681 68.6118L163.312 67.9344L162.942 67.4418L160.788 65.8407L159.249 65.7791L157.895 65.9639L156.479 65.7791L155.432 64.7323L154.509 64.1782L153.832 64.1165L152.97 65.0403L150.877 68.5502L148.907 70.767L146.199 72.4912L144.167 73.0454L143.613 73.4764L142.382 75.4469L141.09 76.9864L137.581 79.5111L137.335 80.558L137.088 81.9743L137.396 83.5753L138.073 85.1147L139.735 88.1936L140.659 89.2405L141.274 90.9031L141.767 92.812L141.52 93.1815L140.105 92.6889L139.12 92.8736L137.704 94.1667L137.581 94.721L137.088 95.9525L135.796 96.0757L132.287 93.7973L129.271 92.6273L128.778 92.5657L128.101 92.0115L127.916 91.5189L126.685 91.6421L125.946 91.5805L125.208 91.211L121.945 87.5163L119.298 86.1H118.683L117.513 86.4695L116.836 89.4868L115.913 90.2873L115.112 90.2257L115.051 91.7036L115.42 92.6273L115.728 93.2431L116.713 94.2899L118.56 97.4304L119.544 98.7235L120.283 99.2162L121.207 99.2777L123.299 98.9083L123.977 99.4009L124.715 100.14L124.9 101.926L125.454 103.711L125.516 104.697L125.023 105.867L122.745 106.729L121.453 107.96L120.96 107.899L118.252 106.482L116.467 105.928L114.066 105.005L113.635 104.512L112.589 102.11L110.249 99.8319L109.203 99.1546L107.725 99.6472L106.74 99.4009L105.017 98.1693L103.909 96.2604L103.847 93.9204L104.155 93.4278L104.463 93.1815L103.663 92.5042L103.601 90.7184L103.416 89.5484L102.493 86.5927L101.57 84.8069L100.708 82.8979L101.631 81.9127L102.124 81.0506L102.801 78.5258L102.924 77.6638L103.232 76.8017L103.355 76.0012V75.0775L102.739 73.5996L100.769 70.6438L98.7996 69.0428L95.1062 67.4418L94.0597 67.5033L93.6904 67.257L94.4906 66.9492L95.2908 66.3334L95.7218 65.3481L94.7984 64.8555L94.0597 64.6092L92.767 63.8087L92.5208 63.0697L92.8286 62.5771L92.5208 61.284L90.7972 60.8529L90.3663 60.545L90.3047 60.114L89.1351 58.6976L87.5961 57.2198L87.8424 55.6803L86.7343 54.5719L85.811 53.7714L84.3336 53.4635L83.7181 52.9093L87.1653 53.0324L90.7972 54.2025L90.4893 54.6335L90.2432 55.3109L91.2896 57.2814L92.2746 58.3898L94.5522 59.7445H94.86L95.3524 59.375L96.4604 59.9292L97.3838 60.6682L99.1074 60.7297L101.2 61.6534L101.077 62.0229L100.831 62.3308L101.447 63.3776L102.308 63.1929L103.786 62.3308L107.479 65.4713L108.526 66.0255L114.374 67.6265L117.082 67.7497L118.56 68.1191L120.653 68.9196L122.93 70.5207L124.777 71.0749L128.163 71.5675L129.886 71.5059L134.195 70.4591L139.735 67.6265L142.567 65.1634L147.122 58.6361L147.738 57.0966L148.292 53.4635L148.353 51.924L147.676 51.7393L146.814 50.8772V48.7836L146.322 47.7367L145.706 42.9336L144.352 42.3794L143.613 41.8252L142.752 41.5173L141.767 40.7784L140.597 38.8079L139.428 37.4532L138.443 35.6674L137.827 34.99L137.396 34.8053L137.704 35.729L137.95 36.7142L136.227 36.4679L131.179 31.8495L130.317 31.48L130.009 31.9111L128.47 31.2953L127.978 30.1869L123.73 25.0143L116.159 19.1644L110.988 15.5928L107.11 13.9918L106.74 14.1766L106.371 14.8539L105.263 15.0387L104.278 14.9155L100.769 13.4992L99.9076 13.3145L96.2142 13.3761L95.8449 13.8071L94.5522 16.8244L93.875 17.4402L92.5824 17.9944L92.9517 17.0707L93.875 16.3934L94.429 14.1766L94.4906 13.2529L94.7984 12.0213L94.7368 11.036L94.2444 10.7282L93.3826 11.036L91.4743 12.2061L91.2281 11.8981L91.7821 10.6666L91.659 10.174L90.8588 10.3587L89.1967 9.8045L87.4115 9.98923L87.1038 8.51138L85.9342 7.71082L85.4417 7.03345L85.9957 6.23294L89.9354 7.58768L91.0434 7.64926L91.5974 7.15665L91.7206 6.29456L91.659 5.30927L91.2281 4.69351L88.6427 3.64667L87.4731 2.41507L84.703 0.752502L84.5799 1.55298L85.0107 3.09244L84.7646 3.58508L83.9643 3.15405L83.3488 3.46194L82.487 5.30927L81.6867 5.80191L81.0711 5.92505L78.301 4.38559L77.0699 4.07773L77.4392 6.664V7.58768L77.2545 8.44977L77.0084 8.88083L76.5159 9.06555L75.3463 9.00397L73.7457 7.95715L72.6993 6.97192L72.3916 6.91031L72.2684 7.03345L72.5146 8.01874L72.4531 8.75769L72.2684 9.5582L72.0221 10.2971L71.7144 10.9129L71.0988 11.7134L69.9907 12.3292L66.9745 13.5608L66.7282 14.115L65.7433 17.4402L65.4971 17.9328L65.1277 18.3639L64.0813 18.9181L63.6503 19.1644L62.2345 20.0881L61.3727 20.7039L60.3263 21.1349L60.5725 21.7507L62.2961 21.8738L62.5423 22.0586L62.727 22.3665L62.7885 22.8591L62.6039 23.6596L60.7571 28.0317L60.6956 28.9554L61.3112 31.48L62.173 34.4358L64.7584 35.729L66.6667 36.7758L67.8978 39.1773L69.9292 42.3178L70.9757 43.4878L71.0373 43.8573L70.7295 46.0125L69.4367 48.1678L68.2056 49.9535L66.9745 52.1088L65.9895 53.9561L64.9431 56.1729L64.8199 56.9119V57.5893L65.0046 58.3282L66.3589 60.976L66.9129 62.3308L67.5285 63.8087L68.0825 65.4097L68.3903 66.826L68.9443 68.1807L68.8827 68.9196L69.4367 69.9049L70.1139 71.3212L70.3601 72.4912L71.4066 76.4322L71.5297 77.4174L71.4681 78.1564L71.0373 78.3411L70.0523 78.4643L68.8827 78.8954L68.8212 79.0801L69.4984 80.0038L68.8827 81.5432L68.8212 83.76L68.1441 84.93L68.0825 85.1763V85.4226L68.2056 85.6074L69.4367 85.9153L69.5599 86.2231V86.9005L69.4367 87.5163L68.8212 87.9473L68.1441 88.6247L68.0209 89.2405V89.7947L68.2671 90.7184L68.6981 91.7652L69.2521 92.4426L71.2219 93.0583L71.4681 93.551L71.5913 94.2899L71.5297 94.9673L70.6063 96.322V96.8762L70.9757 98.1693L71.4066 99.4009L73.3149 100.694L73.992 101.433L74.1767 101.987L74.2998 102.911V103.896L74.1767 104.758L73.5611 105.867L72.1453 108.083L70.7295 108.946L70.6679 109.13L71.0988 109.869L73.5611 112.702L75.1616 113.995L77.3161 115.781L78.732 117.197L79.1628 118.182L79.7784 119.291L80.4556 120.214L80.948 121.015L81.1327 121.507V122.062L80.4556 123.663L80.0862 124.894L79.4091 126.742L78.732 128.035L77.0084 130.375L74.4845 133.269L73.8689 134.131L72.6993 135.609L70.6679 138.626L70.1755 139.304L68.5134 141.644L67.7747 142.383L67.1591 143.06L65.4971 145.277L63.7119 146.939L61.9883 148.479L61.4959 149.279L60.8803 149.895L60.0801 150.449L59.7723 150.757L58.0487 152.851L55.6479 155.745L58.2333 155.252L60.5109 153.775L60.9419 154.144L61.4343 154.698L61.3727 155.622L61.2496 156.361L60.3878 155.683L60.5725 156.484L61.3727 157.962L62.5423 158.578L64.2659 160.487L66.2973 160.671L67.6516 160.302L68.6981 160.363L69.7445 161.41L70.4832 162.703L71.0373 163.011L71.7759 163.627L71.6528 164.366L71.4066 164.797L68.3287 163.689L64.7584 163.073L64.2659 163.627L63.835 164.428L63.5888 165.043L63.3426 165.413L62.7885 165.659L61.9883 165.721L61.0034 165.598L60.3878 165.166L59.9569 165.659L59.7723 166.768L59.1567 167.322L58.2949 166.891L57.7409 166.029L57.2484 166.09L56.9406 166.829L57.1869 167.876L57.3099 169.108L56.9406 170.031L57.3099 170.462L57.7409 171.14L57.864 171.509L57.6792 171.755L57.2484 171.94L57.1253 172.125L56.9406 172.494L56.3866 172.556L56.1403 172.802L55.8326 173.911L55.217 175.758L54.2937 177.174L53.5549 177.975L53.2472 178.591L53.0624 179.33L53.0009 180.069L53.7396 183.948V184.625L53.5549 185.364L53.4319 186.103L53.5549 186.719L54.0474 187.766L54.5399 189.367L54.7245 190.414L55.0323 190.783L55.3401 191.029L55.4017 191.214V191.399L55.217 191.584L53.8012 192.138L53.6165 192.569L53.4319 193.062L52.8163 193.8L52.6316 194.478L52.5084 195.278V195.586L53.3087 195.648L53.6165 195.833L53.8012 196.818L54.7245 197.618L55.5863 198.234L55.8326 198.542L55.8941 199.096L55.8326 199.774L55.7095 200.143L55.3401 200.512L55.0323 201.498L54.9708 202.483L54.4783 204.146L54.6014 204.207L55.6479 203.899L55.9556 204.084L56.2019 204.453L56.2635 205.5L56.5713 205.993L56.9406 206.732L57.0637 207.286L57.7409 207.963L57.8024 208.395L58.1717 209.934L58.2949 210.796L58.3564 211.473L58.1717 212.335L57.9871 212.89L58.9105 213.937L59.1567 213.998L59.6491 213.567H59.7723L60.8187 213.506L61.3112 213.875L61.6805 214.614L62.0499 215.168L62.4192 215.353L63.4657 214.614L64.0197 214.368H64.3891L65.7433 215.045L66.3589 215.414L66.482 215.722V216.092L66.2973 216.646L66.1742 217.262L66.6051 218.001L67.0976 218.493L68.0825 217.693L68.4518 217.447H68.8827L69.4367 217.139L69.8061 216.708L70.1755 216.523L70.9141 216.646L72.2068 216.523L73.7457 217.262L73.8689 217.508L74.6075 218.309L74.8538 218.74L75.1 218.863L75.5309 219.294L76.0849 219.54L76.4543 219.479L76.6389 219.602L76.8236 219.91V220.464L76.7621 222.003L76.5159 222.434L76.2081 222.804L76.2696 222.865V223.173L76.7006 223.851L77.2545 224.898L77.3777 225.513V225.944L76.6389 227.237L76.3927 227.545L76.2081 228.161L76.1465 228.838L76.2081 229.085L77.5007 230.132L78.4242 230.686L78.6088 230.932V231.117L78.1163 232.225L78.0548 232.533L78.7935 232.964L79.2243 233.703L79.5938 234.873L80.3324 235.982L81.8714 236.967L82.9793 237.583L83.2256 237.89L83.2871 238.26L83.2256 238.999L82.9178 239.923L82.7332 240.415L83.1641 240.6L84.3336 240.538L85.7495 240.723L87.4731 241.708V242.139L87.2884 242.57L87.4115 243.001L87.5961 243.371L89.0736 244.479L89.1967 244.787V245.341L89.1351 245.773L88.7042 245.834L88.2733 246.019L87.5346 246.511L87.2268 247.189L86.0572 248.112L85.3186 248.544H84.703L83.2871 248.359L82.7947 247.928L82.61 247.497L82.056 247.312H81.3174L80.3324 247.374L80.1478 247.497L79.9631 247.989L79.5321 248.851L79.2243 249.344L79.4706 249.652L79.8399 250.268L80.4556 251.068L81.0711 251.807L81.2557 252.238V252.546L80.948 252.916L81.0096 253.655L81.6252 254.64L81.4404 254.763L81.3789 255.933V257.226L81.5635 257.534L81.8714 257.78L82.1175 258.211L82.61 259.258L82.6716 259.504H82.7947L83.4103 259.812L84.0874 260.059H84.5183L85.0724 259.997L85.6879 259.628L86.1188 259.258L86.6728 257.534L86.8575 257.288L87.1653 257.164H87.6578L88.5811 257.472L89.6892 257.78L90.3047 257.719L92.0283 256.795L92.9517 256.672L94.0597 256.918H95.1678L95.968 256.795L96.522 257.103L97.1992 257.842L97.8147 258.889L98.4918 260.859L100.462 263.076L100.523 263.507L100.339 263.753L99.4152 264L98.615 264.123L98.5534 264.492L98.7381 264.923L99.1074 265.539L99.169 266.278V266.956L99.3536 267.571L99.6614 267.818L99.723 268.125L99.3536 268.495L99.2305 268.741L99.3536 268.864L101.077 268.926L101.939 269.295L102.616 269.603L102.924 269.665L103.663 269.48L104.463 269.357H104.955L105.14 269.603L105.325 270.281L105.633 270.958L105.879 271.143L106.371 271.081L106.679 271.143L106.864 271.389L106.679 271.759L106.74 272.19L106.925 272.682L107.171 273.791L107.418 274.099L107.602 274.53V275.022L107.418 275.453L107.295 275.761L107.418 276.5L107.972 277.362L108.341 277.547L108.649 278.286L109.203 278.532L110.065 277.916L110.68 277.609L111.48 277.793L112.219 277.916L112.712 278.347L113.081 278.963L113.512 279.271L113.943 279.086L114.805 279.271L115.235 279.764L115.666 280.01L116.22 279.641L116.651 279.148L118.19 278.655L119.175 278.532L119.421 278.409L119.975 278.04L120.591 277.793L121.145 277.855L121.699 278.594L122.253 279.086L122.438 279.887L123.115 280.995L124.777 282.535L125.454 283.027L125.885 282.966L126.131 282.843L126.254 282.658L126.377 281.919L126.562 281.673H126.931L128.224 282.596L128.901 282.719H129.578L130.44 283.458L131.425 284.074L132.164 284.136L132.779 283.89L133.21 283.766L133.456 284.013L133.703 284.567L134.072 284.998L134.503 285.121H135.118L136.227 285.922L137.273 286.722L137.95 286.784L138.504 286.537L138.997 286.476L139.366 286.661L139.489 287.03L139.243 287.523V288.2L139.735 288.877V289.493L139.612 290.047L139.366 290.602L138.75 291.34L138.135 292.018L137.273 292.326L136.781 292.634L136.904 293.126L137.211 293.619L137.95 293.988L138.812 294.235L138.935 294.543L138.812 294.666L138.258 294.789L137.519 294.666L137.273 294.912L136.904 295.343L136.657 296.144L136.473 296.883L137.273 297.067L137.765 297.375L137.889 297.991L138.073 298.668L138.135 299.284L137.889 299.592V299.9L138.012 300.023L138.381 300.085L138.627 300.208V300.516L138.135 301.255L137.642 302.609L137.396 303.348V304.149L137.088 304.58H136.534L134.688 304.641L133.087 304.58L132.41 304.457L131.363 304.395L130.809 304.58L130.132 305.811L129.578 306.304L128.717 306.735L127.732 306.858L127.178 307.351L126.993 308.151V308.89L126.931 309.26L126.747 309.568L126.685 309.814L126.747 310.06L126.993 310.122L127.239 310.245V310.43L127.116 310.676L126.808 310.922L126.685 311.292L126.747 311.661L126.808 312.092L128.655 311.23L129.271 310.614L130.502 310.368L130.317 310.614L129.701 310.861L129.086 311.477L129.886 311.538L131.671 311.23L132.348 310.245L133.518 310.307L133.826 310.984L134.134 311.908V312.277L134.01 312.523L133.026 312.708L130.809 313.878L129.64 314.186L128.347 314.802L128.655 315.602L128.717 316.28L127.67 316.156L126.87 315.91L126.377 316.033L125.085 316.772L124.408 316.588H123.73L124.038 317.634L124.777 318.866L125.208 319.112L125.885 318.989L127.485 320.467L128.717 321.945L128.101 322.068L127.485 321.945H126.624L126.254 322.869L125.885 323.546L125.823 323.176V322.745L125.392 322.438L124.838 322.869L124.223 324.839L123.053 326.255L122.684 327.117V327.733L122.869 327.856H123.115V328.411L122.93 328.903L120.345 329.519L119.975 329.888L119.237 329.581L118.375 328.78L117.636 328.349L117.144 328.534L116.651 328.903L116.959 329.15L117.267 329.211L118.129 329.704L117.636 330.073L115.913 330.689L115.974 330.997L116.159 331.243L118.129 331.797L119.914 332.721L120.468 333.337L120.96 334.445L121.391 334.938L121.945 335.307L122.499 335.554L123.423 335.615L124.408 335.246L126.685 337.894L127.547 338.325L129.763 338.879L130.317 339.187L134.503 342.882L135.796 344.483L138.258 346.884L138.997 347.377L139.304 346.761L139.735 346.145L140.166 345.96L141.459 346.207L142.69 346.515L143.552 346.33L144.598 346.823L145.583 347.377L146.568 347.808L148.415 348.177L149.092 348.731L149.892 349.286L153.093 349.532L153.339 349.47L153.586 349.409L154.632 349.224L155.556 349.286L156.54 349.901L157.156 349.84L157.833 349.717L158.695 350.086L159.372 350.456L159.434 350.825L160.049 351.379L161.834 352.241L163.25 352.734L163.681 353.103L164.789 353.658L164.912 353.842V354.089L164.605 354.52L164.543 354.889L164.666 355.074L165.097 355.259L166.02 355.32L166.328 355.074L167.005 354.889L167.682 354.52L168.544 354.089L169.775 353.658H170.268L170.699 353.781L171.006 354.027L171.56 354.889L172.115 353.658L172.238 353.596L172.73 353.842L173.592 354.15L174.207 354.335L174.515 354.581L175.439 355.69L176.916 355.628L177.531 355.813L177.901 355.998L178.024 356.182L177.778 357.291L177.408 358.399V358.646L178.024 359.077L178.824 359.508L179.255 359.877L179.563 360.185L180.179 360.431L180.917 360.554H181.286L181.656 360.801L182.641 361.293L182.764 361.417L183.503 361.601L183.626 362.155L183.749 362.279L184.057 362.217L184.549 361.971L184.98 362.155L185.472 362.771L186.211 363.449L186.58 363.88L186.704 364.188L187.073 364.495L187.627 364.865L188.058 365.419L188.427 366.712L188.797 367.02L190.151 367.513L190.643 367.636L191.998 367.821L192.49 367.698L193.167 366.589L193.783 365.481L194.398 365.234L195.445 364.68L196.06 364.188L196.307 363.633L196.922 362.587L197.291 361.971L196.614 361.417L196.245 361.232L195.937 360.985L195.383 359.816L194.891 358.892L193.906 357.291L192.121 354.889L191.751 354.581L191.444 354.273L191.32 353.042L190.828 352.18L190.089 351.564L189.843 351.256L189.658 350.948L190.028 349.224V348.731L189.905 347.685L190.028 346.515L190.459 344.852L190.89 343.744L191.013 343.005L190.459 343.497L189.781 346.145L189.535 344.051L189.104 342.019L188.735 340.973L188.181 340.11L187.442 339.433L186.765 338.633L186.026 338.202L184.918 337.894L184.672 337.586L184.549 337.093L184.611 336.539L184.857 335.615L185.472 334.999L186.273 334.384L186.457 333.953L186.58 333.46L186.827 333.829L187.135 334.014L187.319 333.152L187.627 332.536L188.058 331.982L188.55 330.751L188.92 330.073L189.166 329.334L189.289 328.103L189.597 327.98L189.843 327.795L190.028 327.425L190.151 327.056L190.089 326.378L189.658 325.64L189.781 325.578L189.966 325.701L190.397 326.071L190.828 326.563L190.951 325.886L191.32 325.578L191.751 325.763H192.182L193.721 325.209L194.46 325.024L195.137 324.654L196.676 323.115L197.045 323.053L197.415 323.115L197.722 323.423L198.092 323.607L198.338 323.546L198.461 323.3L198.153 322.745L198.03 322.253V321.699L198.461 321.575H198.892L200.739 320.713L200.923 320.344L201.046 319.79L201.847 319.667L201.785 319.235L201.477 319.112L199.938 318.189L198.707 317.511L197.599 316.957L197.415 316.834L197.107 316.526L196.861 316.095L196.799 315.602L196.922 315.233L197.168 314.987L197.476 314.925L197.784 314.987L198.092 315.233L198.646 315.479L199.384 315.541L199.815 315.356L199.877 314.863L199.015 313.078L198.215 311.6L197.415 309.999L197.107 309.383L196.183 308.028L195.26 306.673L194.521 305.503L194.152 305.134L192.982 305.011L190.705 304.703L189.905 304.58L189.289 304.949L188.612 305.257L187.996 304.765L187.504 303.902L187.258 303.164L187.381 302.425L187.442 301.316L187.073 300.269L186.642 299.715L185.596 299.284L184.303 298.36L183.934 296.698L184.549 294.296L185.596 292.572L186.334 291.833L186.704 291.217L186.827 290.663L186.765 290.17L186.334 289.616L185.657 289.062L185.288 288.385L185.411 286.968L185.842 284.936L186.519 283.274L187.442 282.35L188.243 281.673L188.55 281.057V280.195V279.394L188.797 278.779L189.166 278.286L189.535 277.855L190.028 277.362L190.705 277.239L191.444 277.609L192.428 278.655L193.844 280.687L194.644 281.981L194.952 282.412L195.691 283.212L196.368 283.52L197.476 283.027L198.584 282.473L198.954 282.104L199.2 281.549L199.015 280.626L198.769 280.01L198.523 279.271L198.215 277.916L197.969 275.823L197.661 275.145L197.845 275.084L198.399 275.207L198.892 275.269L199.631 274.776L200.616 273.914L202.401 272.559L202.77 271.635L203.078 270.65L203.57 270.034L204.74 269.85L205.786 269.542L206.525 268.803L207.695 268.187L208.68 267.818L209.11 267.448L209.418 266.894L210.526 265.416L211.388 264.492L212.127 263.569L212.373 262.953L212.989 263.076L213.912 263.507L214.897 263.877L215.636 264.431L215.462 262H220.351C223.405 245.129 225 227.751 225 210C225 145.907 204.208 86.6694 169 38.6659V45.269L166.328 43.7342L165.097 47.8599L164.666 49.8304L164.605 51.1235L165.097 52.2935L166.574 52.663L168.052 53.833L168.79 55.4956L168.975 56.6656L169 57.6641V62.3552ZM21.9144 228.469L21.1142 230.871L20.9911 231.609L20.9296 232.41L21.2373 233.457L21.5451 234.011L21.2989 234.073L17.4823 233.95L13.8504 233.765L10.4647 233.58L7.2022 233.395L4.06281 233.211L2.15455 233.087L0.246282 232.964L0 232.841L1.04646 231.856L1.7236 230.809L2.27759 229.454L2.33921 228.531L2.46235 227.484L3.38568 227.053L5.35546 227.114L6.21736 226.622L7.32535 225.329L8.43333 223.789L8.80276 223.112L9.17209 223.173L8.49495 224.282L6.70973 226.683L7.26382 226.991L7.94096 227.114L8.74114 227.545L9.47989 227.607L10.7725 227.237L11.0188 225.205L11.0803 223.358H11.5112L12.1268 223.235L12.4961 223.727L13.2349 224.22L14.0967 224.651L15.3893 225.39L16.7436 225.821L17.1746 225.883L18.5904 225.821L20.0678 225.883L20.4986 226.93L21.2373 227.422L21.8529 228.1L21.9144 228.469Z" fill="#D41313"/>
</svg>
