<svg width="40" height="20" viewBox="0 0 40 20" fill="none" xmlns="http://www.w3.org/2000/svg">
<path d="M39.6963 5.8865L39.5732 6.31755L39.2654 6.81019L38.8961 7.30283L38.5883 7.9186L38.2189 9.21175L37.9727 9.82752L36.9263 11.0591L36.8647 12.7217L36.7416 12.8449L34.4024 13.3991L34.0946 13.3375L33.7868 13.0296L33.6021 12.7833L33.479 12.5985L33.2943 12.1059L33.0481 11.798L32.6788 11.5517L32.3095 11.2439H31.817L30.5243 11.6749L29.6625 11.7364L29.047 11.6133L28.2467 11.367L26.7077 11.3054L25.6613 11.5517L25.5381 11.8596L24.5532 13.8917L23.1374 14.6306L21.9063 15.3696L21.5369 15.5543L20.9213 15.308L20.2442 14.877L19.6902 14.6306L19.2593 14.7538L18.8284 15.2464L18.6437 15.7391L17.2895 16.1086L14.8887 16.3548L14.0269 16.8475L13.7191 17.4633V17.9559L13.9038 18.3869L13.6576 18.8796L13.5345 19.0643L11.8724 19.1875L9.5948 19.3106L8.24053 19.249L6.94779 19.1875L6.08599 18.7564L5.03953 17.9559L3.93154 16.9091H3.8084L3.62373 16.7859L2.9466 16.7243L2.76193 16.7859L2.33099 16.4164L2.20794 15.9854L1.53081 14.8154L0.792053 12.9065V12.3523L1.09986 11.7364L1.34614 11.2439L1.40766 10.8743V10.7512L1.65385 9.95071L2.20794 8.90384L2.70032 8.28806L3.06974 8.10333L3.8084 8.28806L5.10105 8.47279L6.08599 8.34965L7.00941 7.85701L7.50188 7.42596L7.93273 6.99491L8.05587 6.687L8.24053 6.56387L8.97919 6.31755L9.22547 6.00963L9.34852 5.45545L9.41014 4.83967L9.53319 4.34703L9.71785 3.97758L11.1337 3.17702L11.2568 2.86916L11.5031 2.56125L11.9339 2.25338L12.3033 1.82229L12.7342 1.51442L13.2882 1.57601L13.7807 1.51442L14.15 1.32969H14.3347L15.0734 1.45283L15.1965 2.00706L15.2581 2.56125L16.4892 2.49966L17.1663 1.32969L17.5357 1.20651L18.0897 0.775462L18.4591 0.406006L18.7053 0.652326L19.0746 1.39124L19.4439 2.00706L19.6902 2.25338V2.43811L19.9364 2.56125L20.3673 2.62284L20.6751 2.80757L20.7367 3.36175V3.85439L20.6135 4.2239L20.552 4.53176L20.8598 4.65494L21.2907 4.53176L21.5985 4.34703L22.5834 4.77808L22.9527 3.85439L23.3221 3.36175L23.8145 3.11548L24.2454 2.80757L24.6763 2.62284H24.9841L25.1072 2.56125H25.4766L25.9075 2.62284L26.4615 2.49966L27.2002 2.74598L27.6927 3.17702L28.1851 3.30021H28.7391L29.1085 3.05389L29.6625 2.25338H30.0318L30.6474 2.1302H31.5092L33.479 2.31493L33.9715 2.62284L35.2027 3.05389L35.7567 3.54653L36.0029 4.10071L36.126 4.47017L37.3571 5.08599L39.2039 5.82491L39.6963 5.8865Z" fill="#FF0000"/>
</svg>
