<svg width="22" height="15" viewBox="0 0 22 15" fill="none" xmlns="http://www.w3.org/2000/svg">
<path d="M21.6377 3.87258L21.0221 3.62626L20.2835 3.50312L20.1603 3.62626L19.8525 3.74939L19.7295 3.99571L19.8525 4.9194L19.6679 5.10413L18.8676 5.04258L18.6214 5.16572L18.1905 5.84308L17.7596 6.0894L17.2056 6.27413L16.7747 6.52045L16.2207 6.70518L15.7282 6.82831L15.5435 7.13622L15.4204 7.44414V7.752L15.9129 8.36777L15.9745 8.98359L15.9129 9.7841L15.7897 10.2151L15.6051 10.4615L14.4356 10.8309L13.2043 11.4467V11.5699L13.7584 12.1241V12.2472L13.3275 12.5551L13.2659 12.863L13.3275 13.2325L13.5738 13.602L13.6353 13.9714L12.9581 14.2177L12.0348 14.1562L10.9883 13.6635L10.6189 13.7251L10.2496 13.9714L9.88028 13.8482L9.44934 13.5404L8.89535 12.9246L8.58754 12.5551L8.46449 12.1857L8.27983 12.1241L8.03355 12.2472L7.84888 12.7399L7.29489 13.602L6.92556 13.8482L6.30995 13.7867H5.50968L5.01721 13.8482L4.40169 13.5404L4.27855 13.602V13.7867L4.03237 14.0946L3.66304 14.2793L1.87783 13.7867L1.63164 13.4172L2.06249 13.2325L2.61648 12.7399L2.9859 12.8014L3.47828 12.6783L3.66304 12.4936L3.35523 11.8777L2.61648 11.0772L2.24715 10.7693L1.69316 10.5846L1.63164 10.3999L1.93935 9.16832L1.87783 8.98359L1.26231 9.04514L1.13917 8.922L1.07755 8.67568L1.13917 8.36777L1.57002 7.87518L2.06249 7.44414L2.18563 7.19782V7.01309L1.57002 6.82831L1.20069 6.64359L0.892888 6.58204L0.708224 6.70518L0.585177 6.58204L0.462036 6.21254L0.585177 5.65836L1.13917 5.16572L1.69316 4.73467L2.18563 4.42676L2.49344 4.30362L2.61648 3.74939L2.92429 3.81099H3.5399L4.21703 3.93417L4.83255 4.1189L5.38663 4.30362L6.55614 4.48835L7.6027 4.61149L7.91041 4.73467H8.15669L8.46449 4.9194L8.64916 4.79626L8.7722 4.54994L9.32629 4.30362L9.81876 3.93417L10.1881 3.50312L10.3728 3.13362L10.7421 2.8873L11.1114 2.82576L11.4807 2.70257L12.9581 2.51784L14.4971 2.64098L15.2357 2.39471L15.8513 1.96366L16.7131 1.84048H16.7747L18.0674 2.14839L18.1905 1.96366L18.2521 1.90207V0.978384L18.6829 0.547338L19.0523 0.36261L20.345 0.424201L20.5297 0.732065L20.5913 1.16311L20.7143 1.77889L20.9606 1.96366L21.0836 2.20993V2.64098L21.3299 2.94889L21.9454 3.81099L21.6377 3.87258Z" fill="#434343"/>
</svg>
