<svg width="154" height="136" viewBox="0 0 154 136" fill="none" xmlns="http://www.w3.org/2000/svg">
<path d="M111.922 3.61502V3.92293L112.168 4.35393L112.415 4.53866L112.969 4.78503L113.399 4.84657L114.015 4.96975L114.446 5.21602V5.64712L114.323 6.07812L114.077 6.50921L113.953 6.81712L114.077 7.00185L114.323 7.12494L114.569 7.18658L114.754 7.12494L114.877 6.87866L115.123 6.57075L115.246 6.50921V6.69394L115.369 6.87866L116.108 7.24812L117.77 7.92548H118.386L118.878 7.98703L119.001 8.29494L120.048 9.34176H120.294H120.786L121.34 9.28022L121.771 9.09549L122.017 9.15703L122.325 9.34176L122.695 9.52649L123.126 9.8344L123.495 10.2655L123.741 10.3886L125.403 10.0808L125.773 10.327H126.142L126.573 10.2655L127.558 10.3886L128.358 10.327L128.42 10.2039L128.481 9.28022L128.604 8.9723L128.789 8.91076L129.22 8.9723L130.882 9.52649L131.559 9.89604L132.236 10.1423H132.79L133.159 10.327L133.713 11.1891L133.652 11.6202L133.713 11.8049L133.775 12.1128V12.4207L133.898 12.667H134.144L134.452 12.6054L134.821 12.4823L135.437 12.1128L135.622 12.0512L136.668 12.4823L137.161 12.7901L137.345 13.098L137.592 13.406L137.899 13.4675L138.33 13.1597L139.007 12.8518L140.177 13.1597L141.47 13.5907L142.024 13.6522V13.4675L142.147 13.1597L142.393 13.0365L142.701 12.975L143.132 12.8518L143.624 12.6054L144.178 12.4823L144.732 12.667L145.409 12.7901H145.84L146.025 13.3444L146.333 13.5907L146.456 14.0833L145.84 14.3296L145.471 14.3912L145.348 15.2533L145.532 15.4996L145.84 15.746L145.902 15.9922L145.963 17.2854L145.286 18.0243L144.301 18.8864L139.561 21.5959L138.453 22.889L138.022 23.1969L134.514 23.9974L132.051 24.8595L130.882 25.1674L129.404 26.7069L128.727 27.3226L129.281 27.5073L129.958 28.2463L129.712 28.5543L128.789 29.0468L128.358 29.17L128.112 29.1084L127.927 29.17L126.327 31.8179L124.911 33.7268L124.111 34.5274L123.31 35.7589L121.587 38.8994V39.823L122.448 42.9019L122.941 43.7025L123.618 44.3798L124.911 44.934L125.219 45.4883L124.788 46.0425L123.495 47.0277L121.279 48.3208L120.356 49.3677L120.171 50.3529L119.494 50.784L119.247 52.1387L118.878 53.0624L118.817 53.3703L118.386 54.0477L118.324 54.5403L119.001 55.2176L118.632 55.5255L118.262 55.6487L117.462 55.7102L114.815 55.7719L112.661 57.2497L111.614 58.5429L110.629 61.006L109.46 62.4223L108.967 62.6686L108.167 62.0528L107.182 61.9297L106.197 62.1144L105.705 62.6071L104.905 62.9149L104.104 62.6686L102.442 62.5454H101.704L100.534 62.9765L99.5491 62.7301L97.8255 62.6071L94.132 62.9149L93.6395 63.0381L93.2087 63.6539L92.0391 64.7007L90.2539 64.7622L88.6534 65.4396L88.2225 65.8707L87.5454 67.0407L87.3607 67.9028H87.2376L87.0529 67.7181L86.8066 67.7796L86.6836 68.3954L86.068 68.7032L85.5755 68.8264L84.3444 68.3338L83.2979 67.5332L82.7439 67.4717L81.8821 66.2402L81.5127 65.4396L81.2665 64.5775L81.328 64.2696L81.2665 64.0233L80.4662 63.6539L80.2816 62.8533L80.8357 61.868L81.328 61.437L81.6358 61.3139L80.8972 61.3754L80.4047 62.0528L79.7276 61.006L77.0807 58.9739L77.2653 58.4813V58.235L76.8344 58.7891L76.5266 58.9123L75.1723 58.8508L73.5718 59.097L73.141 57.0034L72.9562 56.2029L72.8947 55.6487L73.3256 54.4171L73.7565 53.9245L74.3721 52.8777L75.1108 52.0156L75.8494 51.8308L76.2189 51.7077L76.5266 51.0303L76.7112 50.4761L76.5882 50.4145L75.6648 50.5377L74.0643 48.1361L74.1258 47.7667L74.3105 47.2125L74.4336 46.4735L74.4952 45.9193L74.9261 45.4267L75.5417 44.934L76.0957 44.2566L76.3419 43.5793L76.4035 42.9636L76.0957 42.5325L75.2339 42.2862L74.3105 40.5004L74.1258 39.392L73.9412 39.2688L73.3872 38.7762L72.8332 37.791L72.7716 37.6678L73.3256 37.4831H75.6032L76.0957 37.2984L76.1572 37.2367L76.5882 36.4978L77.019 35.2663L77.1422 34.5274L77.019 34.2194L76.2804 33.4804L76.2189 33.2342L76.3419 32.8647L76.7729 32.4953L77.3884 32.0642L77.6962 31.6947L77.6347 31.3868L77.45 31.0789V30.7711L77.573 30.4015L77.6347 29.17L77.6962 28.8621L77.573 27.7537L77.45 26.8301L76.9575 25.6601L77.019 25.4137L77.2653 25.1674L78.004 24.7363L78.558 23.7512L79.4198 22.9506L80.5279 22.2732L81.328 21.5343L81.6358 20.9801L81.8821 20.857L81.8205 20.6106L81.6358 20.2411L81.205 19.8717L80.6509 19.687H80.0354L79.6661 19.6253L79.5429 19.3175L79.6044 18.517L79.5429 17.7781L79.4198 17.4085L79.112 17.1622L78.558 17.2238L78.0655 16.9775L77.6962 16.916L77.45 17.1007L76.3419 17.039L75.8494 16.916L75.5417 16.7928L75.357 16.8543L75.2339 16.9775V17.2238L75.1723 17.5317L74.7414 17.8396L73.818 18.1475H73.0794L72.4022 17.9628L72.156 17.8396L71.8482 17.7164L70.4324 17.9011L70.2478 17.7781L69.7553 18.0859L69.0782 18.4554H68.7088L68.5857 18.3938L68.5242 18.2706L68.2164 17.7164L68.2779 17.4085L68.8319 16.5464L68.7704 16.3617L68.5242 16.1154L68.3394 15.746L68.2779 15.5612L67.9086 15.4996L67.5392 15.6843L66.0618 16.1154L65.6925 16.2386L65.0769 16.6696L64.4614 17.2854L63.9689 17.4085L63.7842 17.2238L63.7226 15.746L64.5229 14.7607L65.0769 14.2065L64.8307 14.0833H64.2151L64.2767 13.6522L64.5229 13.406L64.7692 12.9133L64.4614 12.7286L64.2151 12.4207V11.5586L64.2767 11.1891L64.2151 10.8197L62.984 11.3123L62.6761 11.2507V10.6349L63.3533 9.64967L63.4149 9.34176L62.6146 9.21867L62.0606 8.72603L61.6913 8.29494L61.3219 7.67921V7.12494L61.6913 5.83184L62.2453 5.46239L62.7378 5.21602L63.7842 4.35393L65.2 4.53866L66.0618 4.35393L66.8621 3.92293L67.293 3.79975L68.0317 3.43029V2.87602L67.7854 2.44502L68.0317 2.07556L68.8319 1.64447L69.7553 1.02874L70.8018 0.905562L71.8482 0.351379L72.5254 0.720834L73.141 0.597651L73.8796 1.02874L74.803 1.95238L76.1572 2.32184L77.2653 2.01393L79.1736 1.95238L80.1585 2.07556L81.8821 1.8292L82.867 1.89084L84.4675 1.3982L85.6987 2.01393L88.0994 2.26029L89.5152 2.75293L93.4549 3.55338H94.8707L96.9021 3.12238L97.764 2.75293L98.5641 2.93766L99.7337 2.5682L100.288 2.62975L101.026 3.18393L103.55 3.92293L104.227 3.30711L104.72 3.18393L106.567 3.55338L108.413 4.35393L109.398 4.41548L110.814 4.1692L111.922 3.67657V3.61502ZM153.412 36.0052L153.289 36.1284L151.196 35.0815L150.519 34.9584L150.334 34.7736V34.2194L150.395 33.9731L151.811 33.85L152.919 34.2194L153.535 35.2663L153.596 35.451L153.412 36.0052ZM145.594 36.4363L146.271 36.7441L146.948 36.4978L147.318 36.5594L147.687 36.6825L147.749 37.2367L147.441 37.8525L147.01 38.4684L146.64 39.1457L146.333 39.9462L145.717 40.4388L145.163 40.7467L143.994 40.1309L143.316 40.0078L143.132 39.7615L142.947 38.8994L142.639 38.5915L142.208 38.4684L141.839 38.7146L141.347 39.2073L141.1 38.7146L140.669 38.6531L140.485 38.3452V37.9757L143.316 35.8204L144.117 35.3278L145.84 34.7736L146.086 34.8352L145.84 35.1431V35.2663L146.086 35.451L146.025 35.6973L145.779 35.9436L145.594 36.4363ZM134.021 44.0719L133.775 44.6262L132.729 44.4414L132.482 44.1951L132.729 43.5793L133.036 43.5177V43.0867L133.344 42.6556L134.821 42.2862L135.129 42.5941L135.191 43.0251L134.329 43.9488L134.021 44.0719ZM135.006 46.2272L134.883 46.3504L134.452 46.2272H133.775V45.8577L133.898 45.6114L134.021 45.3651L134.452 45.8577L135.129 45.9193L135.006 46.2272ZM30.7278 126.094L30.2355 126.587L29.743 126.402L29.9892 125.294L30.2355 124.986L31.1588 124.493L31.9591 124.308L32.2052 123.816L32.4515 123.631L32.6977 123.939L32.513 124.308L32.3284 125.417L31.8359 125.786L30.7278 126.094ZM2.65766 129.296L2.473 129.358L2.28833 128.742L1.48805 127.264L1.98052 126.587H2.90394L3.27327 127.08L3.39641 127.572L3.21175 127.818L3.27327 128.373L3.15013 128.742L2.65766 129.296ZM27.4653 131.821L26.542 132.683L25.6186 132.498L25.434 132.375L26.3573 132.129L27.2191 131.452L27.7731 129.974L28.6349 128.373L28.8196 127.695L29.1274 127.449H29.5583L29.743 127.511L29.9276 127.88V128.681L29.6814 130.035L29.2505 131.205L27.4653 131.821ZM12.8762 130.158L12.3222 131.944L11.7682 132.622L11.4604 132.868L10.6601 133.053L9.73682 131.944L9.24435 130.836L8.99807 130.466L9.42901 130.158L10.0446 130.22L11.3988 129.974L11.6451 129.851L12.9994 128.742L14.3536 128.619L14.4152 128.988L12.8762 130.158ZM7.0898 132.929L6.782 132.991L6.47428 132.806L6.10486 132.19L6.35114 131.759L6.59733 131.575L6.90514 131.636L7.45913 131.944L7.6438 132.314V132.498L7.0898 132.929ZM19.2782 131.944L19.2166 132.56L19.4013 133.176L19.3398 134.099L19.032 134.592L18.1702 135.085L17.493 135.023L17.1237 134.838L16.4466 134.038V133.237L17.0622 132.683L17.3084 132.006L18.8473 132.129L18.9704 132.006L19.0935 131.944H19.2782ZM2.28833 134.592L1.6112 135.824L0.811013 135.331L0.626254 135.146L0.441589 134.9L1.24187 134.838L2.04214 134.223L2.28833 134.592Z" fill="#FF0000"/>
</svg>
