<svg width="89" height="205" viewBox="0 0 89 205" fill="none" xmlns="http://www.w3.org/2000/svg">
<path d="M88.7149 57.8084L86.9298 58.1778L85.5755 57.4389L84.8984 57.8084H83.7288L82.3745 58.1163L81.9437 58.732L81.5743 58.9783L80.3431 58.1163L79.1735 56.7L78.3117 57.7468L77.7577 57.9315L77.2653 56.9463L76.8344 56.7615L76.5881 57.0694L76.4035 57.9315L76.0957 58.6089L76.0341 59.0399L75.9726 60.7641L75.911 61.1336L74.7415 60.8873L74.803 61.3184L75.0492 61.5646L75.1723 61.8725L74.7415 62.242L73.6334 62.1804L73.5103 62.5499L73.8181 63.1657L73.5719 63.7199L73.3256 63.9046L71.9713 64.2125L71.1711 64.1509L70.9249 64.5204L70.8633 64.9514L70.9865 65.3825L71.3558 65.6288L71.4789 65.9367V66.5525L71.1711 66.6756L70.3709 65.5672L70.1247 65.6288L70.3093 66.183L70.8017 66.7988L71.048 67.4146L71.2942 68.1535L71.2327 68.7077L70.2477 70.5551L69.3244 71.7251L68.6473 72.7719L68.2779 73.8803L68.7088 74.4345L69.2013 75.235L69.5706 76.7745L70.0015 78.1292L70.8633 79.4223L70.6787 80.1613L70.494 80.7155L69.0781 82.0086L67.4777 83.9176L65.7541 88.7207L65.2001 89.3364L63.6611 90.137L63.107 90.9375L61.9991 91.8612L60.0292 92.6617L58.9212 93.8932L58.4902 95.0632L58.0594 95.1248L57.6284 94.6938L57.0129 94.3859L56.9513 95.1248V95.679L55.9665 94.8785L55.5355 95.6175L55.1662 96.849L53.8119 98.5116L52.3345 98.2037L52.1498 98.5116L52.5193 98.6964L52.5808 98.9426L52.3345 99.0658H51.9037L51.288 99.3737H50.8572L50.6725 100.174L50.3647 101.098L49.5029 101.467L49.072 101.529L48.8873 102.083L50.1801 102.206L50.0569 102.637V103.068L49.9338 103.561L48.4565 104.238L48.2102 104.793L47.9025 105.162H47.2253V104.854L47.3484 104.485L46.3635 104.546L46.0557 103.746L45.8711 103.931L45.9941 104.546L46.2404 105.224L46.5482 106.209L46.3019 106.825L46.0557 107.133L46.2404 107.44L46.7329 107.625L46.9175 107.995L46.3019 108.303L45.5633 109.411H44.763L44.2705 110.15H43.778L43.3472 109.657L42.67 109.288L42.4239 109.965L42.3622 110.519L42.7316 111.874L43.4703 112.921L44.1475 113.352L43.655 113.66L43.2857 114.337L42.8547 116.431L42.6085 117.231L42.3622 118.648L42.5469 119.879L42.67 120.495L42.9779 121.296L42.1161 121.172L41.1926 120.68L41.3158 121.665L40.7618 122.835L40.8849 123.82L41.0696 124.559L40.8849 125.668L41.1311 126.037L41.2543 126.714L41.008 127.207L41.1311 127.638L41.1926 129.116L41.3773 131.394L41.3158 131.887L41.8082 133.858L41.6851 134.535L41.6236 135.397L42.3622 136.259H43.0394H43.7165L43.9628 136.444L44.209 137.06L44.3936 137.737L44.9476 137.675L45.8094 137.121L46.3635 136.998L46.7329 138.106L47.7793 139.523L48.3948 140.139L49.4414 140.446L50.4879 141.616L50.3647 142.971L50.7956 143.402L52.0883 143.956L52.5193 144.695L52.7655 145.311L53.0733 145.804L53.4426 147.343L53.3194 148.267L52.827 148.575L51.5958 149.622L51.0419 150.361L50.6109 150.853L49.4414 151.838L49.0104 152.023L48.5796 152.577L48.1487 152.824L47.7793 152.701L46.4251 153.624L45.5017 153.378L45.1323 152.885L45.3786 151.038L45.2554 150.422L45.0708 150.114L44.4552 150.484L44.5783 151.223H43.5318L42.5469 150.607L42.4239 151.777L40.3308 150.792L39.7768 151.038L38.8535 150.545L38.2379 151.161L37.4993 150.976L37.0068 150.299L36.3296 151.531L34.8522 151.9L33.4364 152.085L34.1136 152.516L37.3146 152.454L38.2379 152.762L39.4075 152.577L40.454 153.563L41.1926 153.809L42.0544 154.917L42.4854 154.609L43.224 154.671L43.9012 154.979L45.9941 154.917L46.6712 154.117L47.7177 154.302L48.2718 154.117L48.7026 153.624L49.1336 153.501L49.5644 153.563L49.9954 153.193L50.3647 153.07L50.734 153.255L51.1034 154.178L50.3032 154.671H49.7491L49.4414 156.149L49.072 156.765L48.8258 157.073L47.533 157.688L46.6712 158.489L45.6864 159.105L45.2554 158.981L44.5783 159.597L43.1009 160.336L42.3622 161.383L40.7002 162.307L39.8384 163.046L37.5608 163.107L35.3447 162.923L34.6676 163.292L35.4062 163.415L35.8987 163.785L36.5143 163.661L37.9301 163.846L38.6689 164.031L39.5922 165.262L38.915 165.694L37.7454 166.001L38.1764 167.726L38.5457 168.896L38.0532 169.573L37.9917 172.713L37.3146 172.775L37.0068 174.068L37.1914 174.746V176.285L37.3146 177.209L37.6223 178.071L37.4993 178.933L36.4528 181.027V182.012L36.6375 182.566L36.7605 183.49L36.2681 185.275L35.9603 186.753L35.5294 187.985L34.606 189.463L34.1751 190.571L33.1286 193.958L32.6362 194.635L32.0206 195.128L31.2819 194.635L30.6048 194.389L29.8046 194.451L28.5735 194.82L26.7267 194.574L24.88 194.697L24.3875 195.005L24.6953 196.236L24.0182 196.421L23.341 196.052L22.787 196.483L22.2946 196.914L21.3712 198.022L21.0634 198.7L21.0018 199.931L21.4943 201.039L21.9252 202.333L20.7556 203.934L20.14 203.995L18.2933 203.564L14.9692 204.549L12.0145 203.749L12.3838 202.887V202.271L12.5685 201.347L12.6916 200.362V199.685L12.4454 199.007L11.7067 198.084L10.0446 194.943L9.55215 193.65L9.18282 193.096H9.42911L10.7833 193.835L11.0911 193.773L11.3989 193.527L10.968 192.48L10.5986 192.049L10.3524 191.372L11.1527 191.187L11.7067 191.249L12.1376 190.448L11.8914 189.216L11.2758 188.847L10.7833 188.662L9.79844 186.692L8.75197 185.645L6.90523 181.642L6.2281 178.871L5.61249 179.118L5.30468 177.886L5.05849 176.716L4.99697 175.854L4.01203 175.361L3.9505 174.746L3.76575 172.098L2.71928 171.728L2.04215 170.25L1.9191 167.418L1.24196 166.925L0.687877 167.048V166.309L0.811018 165.632L0.503212 162.984L0.380165 160.521L0.133883 159.782L0.0107422 158.92L0.133883 158.181L0.318548 157.75L0.995683 157.627L1.61129 158.304L2.16529 159.967L2.65776 160.213L3.33489 159.782L3.82736 158.55L4.07355 156.703L4.38136 154.917L4.01203 153.008L3.6427 151.346V150.853L4.68916 149.437L4.99697 148.267L5.3663 147.158L5.73563 146.789L6.28962 146.727L6.96675 146.543L7.82855 145.804L8.56731 144.818L9.1213 143.895L9.30597 142.109V141.185L9.55215 140.508L9.79844 139.153L9.55215 137.86L8.81349 135.89L7.9517 133.057L7.82855 131.518L8.2595 131.21L9.05968 130.963L10.5371 130.902L10.7218 130.717L10.8449 130.04L11.1527 129.116L11.522 128.439L11.7682 127.453L11.8914 126.591L11.0296 125.237L9.92148 123.882L9.18282 123.451L7.82855 122.281L6.90523 121.296L7.45923 117.601L7.82855 114.83L7.89017 114.152V113.106L6.59743 108.61L6.65895 107.625L6.78209 106.702L6.65895 105.162L6.59743 103.746L6.84361 103.315L7.3977 102.514L6.90523 101.283L6.84361 101.159L5.92029 98.0806L7.3977 95.0632L7.15142 93.4622L8.01322 92.2922L9.61377 89.6444L10.4756 88.1664L10.6602 87.9202L11.3374 87.2428L12.6916 86.4423L14.169 86.0728H14.8461L17.37 86.627L19.3398 87.0581L19.6476 86.627L20.0785 85.7649L20.6325 84.5333L20.694 83.1786L20.5094 81.2081L20.2016 79.9766L18.7858 79.176L17.2468 78.1292L19.0936 74.6808L20.3863 72.2793L21.9868 68.6461L22.4792 67.1067L22.8486 66.4909L23.341 60.8257L23.6488 59.2247L23.895 58.3626V57.5005L23.7104 56.0226L23.2795 52.6974L25.8033 52.2663L26.6036 52.02L27.4038 51.6506L28.9428 50.6037L29.6814 49.68L29.2505 46.5396L30.1739 45.4927L32.39 41.798L34.7907 38.2265L35.8987 36.8718L36.0218 36.1944L36.0834 35.086L35.591 33.3618L35.0369 32.3149L33.9904 30.2829L34.4214 28.8666L35.2216 28.6202L36.2681 28.0661L37.0683 26.8345L37.1299 26.6497L38.4841 21.8466L41.1311 19.3835L42.1776 18.0288L43.8397 19.014L46.2404 20.5535L47.2868 18.3367L47.6562 17.4746L48.0255 16.243L47.9025 14.0878L47.8408 11.3168L47.964 10.2084L48.9489 9.71571L49.4414 9.59258L52.0883 10.7625H52.7655L53.9966 10.9473L55.4124 11.4399L58.3672 12.7946L59.5983 13.3489L60.2755 13.472L60.8911 12.8562L62.1222 11.2552L60.2755 10.0852L61.5066 8.85362L62.1222 7.62207L62.6762 6.08262L62.8609 4.29684L62.7993 3.31156L62.43 2.6342L61.3219 0.971607L63.9073 0.725288L64.7691 0.663696L66.6159 1.77211L66.6774 2.01843V2.57266L66.739 3.12684L68.5241 4.6047L69.0166 5.40525L70.1247 6.57521L70.4324 7.19103L71.4789 7.92994L72.2176 8.73048L73.0794 9.34626L74.0643 10.3315L75.4185 11.132L76.5266 11.3784L79.4198 12.733L79.9123 13.1641L80.7125 14.0878L81.5743 15.1962L82.1283 17.413L83.0517 17.5362L83.298 18.2751L84.0981 19.5682L85.2062 20.7382L85.1446 21.1077L84.2213 22.1546L84.0981 23.5708L84.1598 25.3566L84.4675 26.8345V27.2655L84.2213 27.7582L83.9751 28.5587L83.8519 29.236V29.5439L83.9135 29.7287H84.4059L85.2677 29.9134L85.7602 30.2213L86.068 31.8839L85.9449 32.1918L85.2062 32.9308L85.0215 33.5465V34.4086L85.1446 35.3938L85.3909 36.4407L85.9449 37.6107L86.6835 38.7807L87.176 39.7659L87.4223 40.4433L87.4838 40.9359L87.176 41.5517L86.8682 42.7217L86.8067 44.0764L86.6835 44.9385L86.0064 46.1701L85.5755 46.6011L85.4524 47.2169L85.3909 48.2637L85.514 49.5569L85.5755 50.419L85.6987 51.0347L85.8833 51.4658L86.9298 52.2047L87.5453 53.6826L87.9147 54.8526L88.7149 57.8084ZM50.7956 152.023L50.6109 152.454L50.4262 151.9L50.4879 151.777L50.6109 151.223L50.9187 150.915L51.4727 151.099V151.223L50.9803 151.654L50.7956 152.023ZM49.6261 157.873L49.3183 157.996L49.1951 157.935L49.3798 157.319L49.5029 157.073L49.9338 156.826L50.0569 156.888L49.6261 157.873ZM54.6737 172.282L54.5506 173.083L54.1812 173.021L53.8734 172.406L54.5506 171.482L55.5355 171.543L55.9048 171.728L54.6737 172.282ZM54.1197 173.391L53.5657 173.699L53.2579 174.622L52.827 174.746L52.3961 175.053L52.2115 177.886L53.0116 178.933L52.5808 179.056L52.1498 179.364L51.8421 179.857L51.5343 180.903L50.4262 181.458L49.9954 181.889L49.3798 182.812L49.072 184.167L48.4565 184.721L47.7793 184.844L48.2102 183.736L48.7643 182.812L48.2718 182.197L47.964 181.211L47.533 180.472L47.8408 179.61L47.6562 178.194L47.7177 176.839L48.2102 176.162L48.7643 175.608L49.5644 174.315L50.4879 173.391L51.719 172.96L52.273 173.329L52.5193 172.467L52.9501 172.282L53.3194 172.467L54.1197 173.391ZM36.7605 192.726L36.3912 193.342L36.0834 193.281L35.8987 192.48L35.8372 190.386L35.9603 189.34L37.4376 185.522L38.1148 185.214L39.0382 182.874L39.2844 181.827L39.7153 180.903L39.9615 180.041L40.1462 179.672L40.5771 179.857L40.7618 180.041L40.3308 180.534L40.3925 181.15L40.3308 181.396L39.1612 184.167L38.8535 185.953L38.4226 186.384L36.7605 192.726Z" fill="#FF0000"/>
</svg>
