<svg width="32" height="21" viewBox="0 0 32 21" fill="none" xmlns="http://www.w3.org/2000/svg">
<path d="M25.0535 3.71211L25.2381 3.83525L25.7306 4.26634L25.6076 5.00525L25.0535 6.23685L24.7458 7.22208L24.6841 7.96104L24.7458 8.3305H24.8688L25.4229 8.39209H25.6691L26.5309 8.57682L27.208 8.88473L27.3312 9.19259L27.3927 9.56205L28.193 10.0547L29.1163 10.3626L29.4241 10.2394L30.5937 9.00786L31.0246 9.19259L31.2708 9.80837V10.1779L30.963 11.471L30.9015 12.1484L31.1477 12.5794V12.9489L31.0862 13.2568H30.6552L30.0397 13.072L29.5472 12.5178L29.1779 12.5794L28.8085 12.7026L28.6238 13.2568L28.4392 13.8726L28.5008 14.242L28.747 14.4883L28.9316 15.0426L29.0548 15.7815L29.1779 16.0894L29.0548 16.2125L28.747 16.3357L28.5008 16.2125L28.0083 15.3504L27.762 15.0426L27.3927 14.981L26.7155 15.2273L25.7306 15.7199H25.2998L24.9304 15.5968L24.6226 15.1657L24.3763 14.3652L24.3148 13.8726H24.1301L23.453 13.7494L23.1452 13.9342V14.7347L23.0837 15.7815L22.7759 16.4589L21.8525 17.6289L21.5447 18.1215L21.4216 18.491V18.7988L21.5447 19.353L21.7294 19.8457L21.5447 20.1535L21.0523 20.2767L20.7445 19.9688L20.6213 19.4146L19.8827 18.6757L20.1905 18.0599L20.1289 17.8752L18.8977 17.5673L18.4053 17.0746L17.6666 16.2125L17.5434 15.8431L17.6051 14.6731L17.5434 14.3652L17.4204 14.242H17.0511L16.5586 14.6731L16.1276 15.2888L15.2043 15.9662L15.0812 16.0894L15.389 16.7668V17.0131L14.6503 18.0599L14.5272 18.4294L13.5422 19.1067L13.1114 19.353L11.7571 18.8604L11.3877 18.7988L10.7722 19.1067L9.91036 19.4146L8.55609 19.7225L8.06362 19.4762L7.81743 19.2915L7.69429 18.9836L7.32496 18.4294L6.95563 18.1215L6.70934 17.752L6.34001 17.3209L6.09382 17.0131L6.40154 15.9047L6.15535 15.5352L6.03221 14.981L6.09382 14.6115L5.97068 14.5499L4.73955 14.3652L3.69299 14.4268L2.95433 14.7963L2.33881 15.412L2.27719 15.5352L2.33881 15.6583L2.64652 16.2125L2.15405 16.7668L1.41539 17.1978L0.861395 17.2594L0.615112 17.1978V16.582L1.04606 16.3357L1.47701 15.9047L1.60006 15.3504L1.66167 14.9194L1.23073 14.4268L1.29225 14.1189L1.53853 13.5647L1.66167 13.072L1.84634 12.641L2.70814 11.9021L3.56994 11.1631L3.69299 10.4242L3.75461 9.5005L3.87775 9.25418L5.04726 8.69995L5.35507 8.45363L5.47821 8.14577L6.40154 7.09895L7.32496 6.05208L7.50962 5.68262L7.63276 5.49789V5.31317L7.50962 5.18998L7.07867 5.12844L6.95563 4.82053L7.448 4.20475L8.00209 3.83525H8.55609L8.80228 4.02002V4.20475L9.04856 4.38948L9.47941 4.45107L10.0335 4.38948L10.5875 4.14316L10.8953 3.58898L11.08 3.15793L11.8802 2.72688L12.4342 2.97315L13.9732 3.03475L15.0812 2.91161L15.8198 2.6037H16.6816L17.2973 2.78843H17.4204L17.6051 2.72688L17.7897 2.54211L18.3437 2.41897L18.4053 2.29579V2.17265L18.2822 2.11106L17.6051 2.17265L17.3588 2.04952L17.2973 1.8032L17.5434 1.37215L18.0359 1.00265L18.4669 0.941101L18.7747 1.06424L19.5133 1.7416H19.698L19.8211 1.61847L20.0058 1.55688L20.252 1.68001L20.5598 2.11106L20.6213 2.17265L22.2834 2.04952H22.6527L23.7608 2.78843L25.0535 3.71211Z" fill="#FF0000"/>
</svg>
