<svg width="132" height="56" viewBox="0 0 132 56" fill="none" xmlns="http://www.w3.org/2000/svg">
<path d="M17.0001 1.85424L16.8154 2.90106L17.2463 4.07106L18.2312 5.67215L19.2162 6.47261L23.279 8.44316L24.0176 8.62788L23.833 9.42834L23.5867 10.1673L23.3405 10.66L22.1709 10.9678L18.8468 10.1057L17.985 10.0442L17.3694 10.2289L16.2614 10.8447L15.0302 10.66L13.3682 11.0294L12.8758 12.1994L11.7062 13.5542L9.79788 14.6625L8.44361 15.2783L6.35068 17.372L5.42726 18.6035L5.05793 18.8499L4.56546 19.0346L4.75013 18.4188L4.99641 17.8646L4.93479 17.4335V16.8178L5.61193 16.1404L6.22754 15.6478L8.07428 14.7857L8.56675 14.0467H7.08934L5.61193 14.2315L4.6886 14.1083L3.88833 14.1699L3.64214 13.5542L3.45747 13.1846L3.64214 13.0615L3.88833 12.9999L4.3808 12.3225L4.81174 11.83L5.42726 11.2142L5.61193 10.8447V10.4752L5.48888 10.2289V9.92097V9.48997L5.5504 8.62788L6.9662 7.70415L7.39715 7.58106L7.52029 7.14997L7.39715 6.1647L7.21248 5.36424L6.9662 5.30261L6.65839 5.05633L6.4122 4.80997L6.04287 4.50215L5.42726 4.31743V4.07106L5.48888 3.82479L5.73507 3.57842L6.78153 3.33215L6.90468 3.14742L7.02782 2.71633L7.21248 2.22369L7.45867 2.1006H7.88962L8.6898 1.97742L9.24389 1.85424L9.79788 1.54633L10.1057 1.23851L11.3368 1.05379L11.7062 0.930603L12.0755 1.05379L12.568 1.54633L13.3066 2.28533L13.7376 2.5316L14.0454 2.40842L14.5994 2.16215H15.1534L15.5843 2.22369L15.769 1.97742L16.0768 1.91588L17.0001 1.85424ZM108.905 5.97997L109.336 6.1647L110.198 6.41106L110.752 6.71897L111.06 6.78052L111.737 6.22634H112.784L113.707 6.28788L114.199 6.41106L114.753 6.59579L115.431 6.71897L115.738 6.47261L116.169 5.67215L116.354 5.54897L116.477 5.48733L116.969 5.42579L117.462 5.48733L117.708 5.61052L117.954 6.28788L118.508 6.53425L119.555 7.58106L120.17 8.01206L120.294 8.19679L120.109 8.38152L120.17 8.62788L120.54 8.93579L121.032 9.05888L121.586 8.99734L121.894 9.12052L122.079 9.30525L122.14 9.55152V9.73625L122.263 10.1057L122.694 10.66L123.187 10.9678L123.433 11.3373L123.864 12.5689L124.049 13.2463L123.987 13.862L123.679 14.5393L123.002 15.3399L123.187 15.7093L123.31 16.1404L123.248 16.4483L123.741 17.4952L123.987 18.1725L123.802 18.2956L123.679 18.4803L124.541 18.973L125.587 19.4041L126.018 19.4656L127.188 19.2809L127.927 19.2193L128.665 19.5888L129.773 20.5741L130.943 21.8056L131.189 22.1751L131.312 22.3598L131.559 22.6677H131.312L130.943 22.4213L130.02 21.6824L129.527 21.9904L129.096 22.5445L128.665 24.6998L128.296 24.9461H127.619L126.819 24.8845L126.265 25.0077L126.141 25.1308L126.203 25.3772L126.388 25.7466L126.511 26.1776L126.572 26.5472L126.88 26.855L127.25 27.1629V27.4708L127.188 27.9018L127.126 28.2714L127.003 28.4561L127.188 29.0103L127.619 29.6261L127.865 29.8724L127.742 31.0424L127.927 31.535L128.05 32.2739L127.988 33.4439L128.05 33.7518L128.173 33.8749L128.542 33.9365L128.912 34.0596L129.035 34.2445V34.3675L128.542 34.9218L128.481 35.2913L128.296 35.8455L128.173 36.1534L127.742 36.7691L127.496 37.3849L127.373 37.8775L127.434 38.1238L128.234 38.1855L128.665 38.5549L129.773 39.2938L129.958 39.6017L129.65 40.0327V40.2175L129.773 40.4638L129.835 40.8948V41.3259V41.9417L130.02 42.0648L130.758 42.6191L131.312 43.1733V43.358L131.066 43.789L131.128 44.2816V44.4048L130.881 44.2201L130.45 44.1586H130.02L129.773 44.2816L129.281 44.7127L128.665 45.1437L128.173 45.5748L127.865 45.8827L127.619 45.8211L127.434 45.5748L127.311 45.2054L127.373 43.9122L127.25 43.4812L127.003 43.1733L126.695 42.9886L126.326 42.9269H125.957L125.464 43.2964L124.787 43.6659L123.679 43.6043L122.941 43.5427L122.571 43.4812L121.155 42.8654H120.848L120.294 42.6191L119.678 42.4343L118.631 42.8038L118.201 42.7422L117.585 42.4343L117.339 42.4959L116.6 43.4812L115.369 44.528L114.692 44.7127L114.384 43.6659L114.076 43.2348L113.953 43.1733L113.645 43.0501L113.399 43.1116L112.66 43.789L111.491 44.2201L110.506 44.4664L108.967 44.7743L107.797 44.959H107.305L106.197 44.8358L105.212 44.6511H104.227L103.488 44.7127L101.765 45.4516L98.8099 46.9911L96.5323 47.73L95.3012 48.0379L94.3163 48.2226H92.6542L91.2999 48.0996H90.3766L89.8226 47.9147L89.0839 47.299L88.1605 46.6832L87.7297 46.5601L87.1756 46.4369L86.3754 46.3753L84.4055 47.299L83.79 47.5453L83.1129 47.73L81.7586 48.2843L81.143 48.5921H80.4043L79.4809 48.5306H78.6807L78.1266 48.0996L77.8189 47.6069L76.7108 47.299L75.9105 47.2375L75.7259 47.4222L75.5412 48.0379L75.1719 49.7006L75.1104 50.1316L75.849 51.7942L75.7875 52.0406L75.295 52.1021H74.741L74.3716 52.2253L74.0639 52.4716L73.8792 53.8878L73.2021 54.1342L72.8943 54.4421L72.5865 55.3042H72.4018L71.2937 54.6268L70.8014 54.5652L71.2322 53.8878L70.7397 52.5331L70.2473 51.24L70.7397 50.4395L71.7247 49.4542L72.7711 48.2843V47.5453L72.7096 46.9911L72.4018 46.6216L71.7862 46.129L70.8014 46.6832L70.1242 47.299L69.6933 47.4222L69.2008 47.73L68.9546 48.3458L68.339 48.8385L67.3541 49.0232L65.8767 48.5306L64.2762 47.7916L63.3529 47.1758L62.6142 47.0526L61.9371 47.299L59.9057 48.8385L57.9974 51.0553L57.5049 51.4247L55.7197 52.3484L54.5502 52.6563L53.9961 52.5947L51.657 53.0257L50.4874 53.0874L49.564 53.58L47.7788 53.0257L46.7324 52.3484L46.1168 51.6095L45.0703 50.07L44.3316 49.3311L42.6696 48.6537L39.7763 47.0526L39.0377 46.8679L37.0678 46.6216L34.9749 46.4985L34.544 47.0526L34.3593 49.3311L33.9899 49.9468L33.8669 51.1168L33.6206 51.4863L33.1897 51.7327L32.5741 51.3632L32.1433 51.1785L31.1583 51.671L29.1269 52.3484L28.4498 52.4716L26.1106 51.6095L25.2488 51.0553L24.6948 50.4395L24.5101 49.3926L24.1408 48.7769L24.0792 48.3458L23.9561 47.8532L23.4636 47.6685L22.9712 48.0379H22.4172L21.74 47.7916L20.1395 46.9296L18.9084 46.8679L18.1697 47.9147L17.6157 48.2226L17.0001 48.3458L16.9386 48.0379L17.431 47.3606L15.5227 47.4837L14.5378 48.0379L13.7376 47.9764L13.1219 47.73L13.1836 47.4222L13.7991 47.299L14.2916 47.0526L16.3845 46.8679L16.877 46.6832L17.431 45.9443L18.4159 45.3285L18.539 45.0822H17.8004L14.6609 45.2669L12.5064 45.1437L12.2601 45.4516L11.9523 45.5132L11.8908 44.6511L12.2601 44.2201L12.6911 44.2816L13.7991 43.9122L13.676 43.1733L12.8758 42.6806L12.6911 42.3727L12.0755 42.3112L11.583 41.9417L11.46 41.0796L11.0905 40.0944L10.5365 39.6017L10.5982 39.3554L11.583 39.0476L11.7677 37.6928L11.6446 36.8923L11.1522 36.8307L9.67474 36.1534L9.24389 36.2149L8.75142 35.476L7.88962 34.9834L7.45867 35.1681L7.21248 35.4144L6.84315 35.2913L6.16602 34.8602L5.48888 34.6139L5.18107 34.306L5.5504 33.5055H6.04287L6.1044 32.8897L5.73507 31.8429L5.79659 31.2886L6.22754 31.1655L6.72001 31.2886L7.21248 31.9045L7.39715 32.5202L7.27401 33.136L7.58181 33.6902L7.828 33.8134L7.95114 33.1975L8.13581 33.0745L8.44361 33.3207L9.05922 33.4439L10.6597 33.0745L10.9675 32.7665L9.79788 32.8281L9.36694 32.5202L8.87447 31.8429L8.56675 31.2271L8.50514 30.9192L8.32047 30.4882L8.50514 30.2418L9.30541 29.8724L10.0441 28.8871L9.73627 28.5792L9.36694 28.4561L8.99761 28.5792L8.62828 28.2714L8.56675 27.8403L8.87447 27.4708V26.9782L7.95114 25.6851L7.70495 25.4387L7.88962 25.0077L8.56675 24.3304L9.24389 23.4683L9.18227 23.1604L8.6898 23.0372L6.35068 23.4066L5.42726 23.7145L4.01147 24.3304L3.88833 23.8377L3.94994 23.4066L4.31927 22.6062L4.25766 20.6972L4.50394 19.6503L5.42726 19.3424L6.53535 17.803L8.32047 16.0173L10.1672 16.0788L10.9059 15.5862H12.014L12.1986 15.9557L12.3218 16.3252L13.3066 16.8178L15.0302 16.7562L15.4612 16.5714L15.892 16.3252L15.0918 15.4631L15.338 15.2167H16.0768L16.877 15.4014L16.9386 15.5862L16.7539 15.8941L16.5076 16.3867L16.7539 16.5099L18.9699 16.202L21.3091 16.4483L22.0478 16.3252H23.8945L24.2023 16.0173L23.6483 15.6478L23.0943 15.5246L22.7249 15.3399L22.3556 15.0936L23.5252 14.2315L24.2023 14.0467L27.2802 13.4925L29.5578 13.2463V13.0615H29.2501L26.2952 12.6304L25.5566 12.261L24.5716 11.4604L24.3255 11.2142L24.0792 10.8447L24.2023 9.98261L24.387 9.30525L24.7563 8.93579L25.9259 8.87415L29.9887 9.55152L32.8819 9.12052L36.0213 10.1057L39.0377 9.92097L39.6532 9.48997L40.392 8.01206L44.701 5.54897L46.1784 4.25579L47.7788 3.57842L50.5489 2.77797L52.8265 1.73106L53.5036 1.60797L59.0439 2.1006L62.8604 2.16215L64.584 1.17687L65.5689 1.48478L65.4458 1.85424L65.2611 2.16215L65.3227 2.77797L65.9383 3.64006L66.5539 4.25579L68.339 5.11788L70.8014 4.37897L71.1707 4.44051L71.6632 4.62524L72.525 6.96524L73.2021 7.76579L74.0639 8.31997L74.8026 8.44316L75.3566 7.88888L75.7875 7.64261L76.6493 7.51943L78.1266 8.31997L78.6191 9.12052L81.0814 9.73625L83.359 10.0442L84.344 10.7215L87.545 11.3989L88.7145 11.2757L90.7459 10.5368L94.6856 9.73625L97.271 10.8447L97.9481 10.9678L98.5637 10.8447L99.4255 11.1526L100.349 10.9678L103.242 9.6747L104.165 8.93579L105.089 8.75107L105.951 8.31997L108.228 6.84206L108.905 5.97997ZM3.02653 18.3573L1.48759 18.6035L0.995117 18.3573L1.48759 17.803L2.41101 17.4952L2.71872 17.4335L3.14967 17.9878L3.02653 18.3573Z" fill="#FF0000"/>
</svg>
