<svg width="124" height="83" viewBox="0 0 124 83" fill="none" xmlns="http://www.w3.org/2000/svg">
<path d="M109.437 56.0226L109.191 56.1458L106.79 55.961L104.82 56.1458L103.404 57.7468H102.604L101.434 58.1778L100.634 58.6704L99.7108 59.7788L98.9722 59.2863H98.1104L97.2486 59.5941L96.2021 60.3331L95.648 60.4562L94.4785 60.2715L93.1242 60.7025L90.231 63.1041L89.2461 64.8283L88.8767 65.1978L88.3843 65.6288L87.8303 65.8135H87.584L88.9999 64.582L89.4307 64.0894L89.4923 63.7198V63.1657L89.0614 62.4883L87.9533 64.2125L87.3378 64.4588L86.5375 64.9514L86.476 66.0599L86.5991 66.9219L86.9069 67.9688L87.7071 69.6929L89.3076 72.1561L90.1079 73.0798L90.6619 73.4492L91.339 73.5108L92.6317 72.7719L93.1857 72.6487L94.4169 72.9566L94.8478 72.464L95.4633 72.1561L96.2636 72.0945L97.1869 72.3408L98.1719 72.7103L97.741 73.5724L97.3101 74.2498L97.1869 74.9887L96.9407 75.8508L95.8327 76.2203H94.7247L93.4935 76.4665L93.0626 76.1587L92.7548 75.8508L92.2008 75.5429L91.4621 75.3582L90.785 75.5429L89.9847 76.7129L88.6305 77.5134L88.1996 78.4371L86.8453 78.2523L85.6757 78.4371L84.0136 79.2376L82.721 80.9618L81.3052 82.0702L80.1971 82.4396L79.1507 82.3165L78.4735 82.0086L77.0577 80.8386L77.1192 80.4076L77.3039 80.2228L77.5502 79.607L78.1042 77.4518L78.0426 76.7129L77.7349 75.6045L76.6268 74.7424L75.765 74.9271L75.2725 74.6808L73.4258 73.2029L72.4409 73.0798L71.3328 73.3876L70.902 73.1414L70.5942 72.6487L72.7486 70.8014L74.9032 69.2619L75.8265 69.0772L77.1192 68.3382L78.4735 67.2914L78.2889 66.4293L77.981 65.8135L77.3039 65.9983L76.8114 66.183L75.7035 65.5056L75.2725 65.013L73.4874 65.5056L72.5024 65.4441L70.3479 65.9367L69.3631 65.5056L67.3316 64.2125L66.5929 63.9662L65.9774 64.0278L65.608 63.5967L66.0389 63.412H66.5314L67.0238 63.2273L67.147 62.9809L67.0854 62.5499L66.0389 62.242L65.054 62.1804L64.4384 61.8109L63.946 61.3799H65.054L66.162 61.6878L67.8856 61.8109L69.4246 62.1804L69.7939 61.7493L70.7173 61.0104L70.902 60.7641L69.3631 61.2568L67.8241 60.9488L67.27 60.5178L66.7776 59.8404L66.5929 59.1015L66.716 58.4242L66.5314 57.131L66.0389 56.0226L65.8542 55.4068L65.3002 54.8526L65.8542 56.0842L66.0389 56.9463L66.3467 57.6852L66.2852 59.7173L66.1005 60.4562L65.4849 60.6409L64.6231 60.5178L63.7613 60.2715L63.946 59.1631L63.515 59.5325L62.8995 60.6409L62.3455 60.8257L61.1143 60.7025L58.7752 61.4415L58.5905 62.242L58.2212 63.2888L57.9134 63.9046L57.7902 64.2741L56.8053 65.8751L56.6822 65.9983L54.8355 68.1535L54.5892 68.3382L53.3581 68.8309L52.6194 69.2619L52.0654 69.4466L51.142 69.2004L50.7727 69.5082L50.588 69.8777V70.6782L51.0805 71.2324L51.4498 73.1414L51.3267 73.9419L50.9574 73.4492L50.4034 72.895L49.2953 72.4024L48.0641 72.5871L46.7099 73.3876L45.7865 73.6955L45.2941 73.5108H44.9863L44.8631 73.7571V73.9419L44.9863 74.065V74.1882L44.8016 74.2498L42.7087 73.6955L41.7853 73.1414L41.0466 72.1561L41.4159 71.8482L41.7237 71.725L42.8318 71.6634L43.0165 71.5403V71.294L43.078 70.9861V70.555L42.9549 70.0624L43.4473 69.3851L44.186 68.8309L44.6169 68.2767L44.6785 67.4761L45.4172 67.0451L46.0944 66.3677L46.279 65.6288L46.5252 65.1362L46.0944 64.0278L46.0327 63.2888V62.673L46.2174 62.3652L46.833 61.9957L47.5102 61.6878H47.7563L47.8795 61.8725V63.1041H48.0026L48.1873 62.9809L48.5566 62.242L48.8028 62.4267L49.1722 62.4883L49.4184 62.3036H49.6031L49.8494 62.4883L50.2802 62.7346L50.7112 62.7962L51.0189 62.6114L51.3267 62.3036L51.6345 62.4267L52.2501 63.2888L52.4963 63.1657L53.8506 62.9809L54.0967 62.7346L54.2814 62.5499L52.8656 61.3799L52.9272 60.5178L52.9888 59.5325L52.8041 58.9783L52.5578 58.5473L51.5113 57.9931L50.6495 57.4389L50.4649 57.1926V56.8847L50.4034 56.3921L50.0956 55.961V55.5915L50.2802 55.0373L50.3417 54.4216L50.2802 54.1753L50.0956 53.9905H49.7262L49.2337 53.621L48.9259 53.1284L48.0026 52.4511L47.7563 52.3279L47.5717 51.9584L47.5102 51.5274L47.6948 51.0347L47.941 50.2342L48.1257 49.4953V49.0642L48.0026 47.9558L47.5102 47.0937L47.2639 46.9706L46.8945 47.2169L46.4637 47.4017L46.0944 47.2169L45.7249 46.7858L45.1094 45.5543L43.9398 45.308L43.4473 45.2464L43.0165 45.8622L42.8933 45.6774L42.7702 45.308L42.524 45.1848L42.2162 45.3696L42.1547 45.1848L42.2777 44.6306L41.9084 44.3843H40.9851L40.4926 44.1996L40.431 43.8301L40.1233 43.5838L39.6308 43.4606L39.1383 43.1527L38.6459 42.6601L37.9072 42.2906L36.9223 42.1059L36.8607 42.0443L36.7991 41.9827L36.1836 42.3522L35.8142 42.6601L35.3833 42.4754L34.6447 43.0911L33.1673 43.1527L32.4286 43.0911L32.0593 42.9064L30.6434 43.8301L30.5203 44.1996L30.2125 44.3227L29.3507 44.5075L28.4273 44.7538L28.2427 45.6774L27.9965 46.1701L27.504 46.909L25.7804 47.1553L24.303 47.5248L22.764 47.7711L20.7326 48.6332L20.0555 49.4337L19.44 49.68L18.8244 49.7416L18.455 49.3106L17.1623 48.1406L16.6699 47.5864L16.0543 47.4017L15.3772 47.4632L14.7 47.7095L13.9614 47.7711L13.1611 47.4017L13.0996 47.4632L12.7918 47.5248L10.8219 47.0322L10.6372 46.9706H10.5757L10.3294 46.909L8.8521 46.9706L7.43631 45.9853H7.00536L6.69756 46.3548L6.45137 46.7858L5.46643 47.2169L5.22024 47.4017L5.0971 47.2785L5.03548 46.909L5.0971 46.6011L4.97396 46.2932L4.60463 45.9237L4.5431 45.8006H4.11216L3.98901 45.8622H3.92749L3.31188 45.5543L2.88103 44.8153L2.20389 44.4459L1.71142 44.3227L1.46523 44.0148L1.34209 43.5838L1.15743 43.2759V43.2143L1.03429 42.7217L0.911144 42.6601L0.234009 42.7217L0.295626 41.0591L1.34209 39.8275L1.58828 39.2117L1.95761 37.9186L2.26541 37.3028L2.63474 36.8102L2.94255 36.3176L3.06569 35.8865L3.3735 35.8249L4.17368 36.1944L4.91243 36.3791L5.0971 36.1944L5.15862 35.9481L5.0971 35.7634L4.48149 35.2091L4.11216 34.8397V34.5934L4.2353 34.1007L4.29682 33.5465L4.2353 32.9307L3.80435 31.576L3.74283 31.0218L4.11216 30.3445L5.34329 28.6819L5.77423 28.0661L6.32823 27.3271L7.86716 25.4798L8.8521 24.4329L9.52924 23.8172L10.5142 22.7704L10.945 22.2161L12.7302 21.8467L12.9764 21.354L13.2842 20.7999L13.5304 20.5535L13.592 19.6299L13.2842 18.5214L13.038 18.0904L12.8533 17.8441L12.9764 17.5978L13.1611 17.5362L13.4073 17.4746L13.7151 17.2283L13.6536 16.9204L12.9149 16.1815L12.6071 15.6273L12.1146 14.1494L11.0682 12.6715L10.7604 12.1789L10.6988 11.7478L10.8219 11.3168L10.6988 10.701L10.3294 9.96207L10.391 9.90048L10.3294 8.9768L10.5757 8.79207L11.0066 8.66893L11.5606 8.73048L12.0531 8.85366L12.6686 9.28471L12.8533 9.22311L13.8382 8.42262L14.8847 7.19102L15.1925 6.5137L15.4387 6.20579L16.3621 6.02107L17.1623 5.95948H17.6548L18.8859 5.83634L19.6246 5.71316L20.2402 5.52843L21.5944 5.46684L23.749 5.59002H25.1648L26.0882 5.71316L28.4273 6.32893L29.2891 6.45211L29.7201 6.82157L30.5203 6.94475L31.9361 7.3142L33.1673 7.49893L33.9675 7.43734L34.3984 7.56052L35.2602 9.09998L35.4449 9.28471L35.8142 9.3463L36.5529 9.22311L37.5379 9.28471L38.1534 9.59262L38.0919 10.5163L38.2765 10.6394L38.5843 10.5778L38.8921 10.0852L39.1383 9.53102L39.323 9.3463L40.3695 9.71575L40.8619 9.65416L41.2929 9.22311L41.5391 9.16157L42.2777 9.46943L43.2011 9.65416H43.9398L44.3708 9.90048L44.6785 10.8242L44.9863 11.0089L45.2941 11.0705L45.7249 10.2084L46.0944 9.90048L46.6483 9.65416L47.0177 9.53102L47.2639 9.22311L47.5717 8.91525H47.8795L48.1257 9.03839L48.372 9.46943L48.7413 10.3931L49.2337 11.3168L49.5416 11.6247L50.4034 11.3168L50.9574 11.0089L52.0038 10.9473L53.3581 10.7626L54.4045 10.5163L55.0817 10.5778L55.5126 10.8858L56.1282 11.4399L56.3128 12.2405L57.1131 12.7947L57.7902 12.9178L58.0364 12.3636L58.4058 11.9326L58.2827 11.3783L58.2212 10.6394L57.9134 9.96207L57.7287 9.22311L58.098 8.23789L58.4674 7.3758L58.652 6.88316L59.2676 5.95948L59.8832 5.3437L60.8066 4.29688L61.4837 3.92738L62.0992 4.11211L62.407 4.23529L63.2688 3.61952L64.8078 3.55793L66.1005 3.61952H66.2236L66.8392 3.92738L67.5163 4.1737H67.9472L68.5013 4.11211L69.1168 3.74266L69.5477 3.3732L70.1017 1.64902L70.2864 1.4027L70.5942 1.27952H71.0866L72.01 1.58743L73.1181 1.89534L73.7336 1.83375L75.4572 0.910062L76.3806 0.786926L77.4886 1.0332H78.5967L79.3968 0.910062L79.9509 1.21797L80.6281 1.95688L81.2436 3.00375L81.9207 4.97425L83.8906 7.19102L83.9521 7.62211L83.7675 7.86839L82.8441 8.11471L82.0439 8.23789L81.9822 8.60734L82.167 9.03839L82.5363 9.65416L82.5979 10.3931V11.0705L82.7825 11.6863L83.0903 11.9326L83.1518 12.2405L82.7825 12.6099L82.6594 12.8563L82.7825 12.9794L84.5061 13.041L85.3679 13.4104L86.0451 13.7183L86.3529 13.7799L87.0915 13.5952L87.8918 13.472H88.3843L88.5689 13.7183L88.7536 14.3957L89.0614 15.0731L89.3076 15.2578L89.8001 15.1962L90.1079 15.2578L90.2925 15.5041L90.1079 15.8736L90.1694 16.3046L90.3541 16.7973L90.6003 17.9057L90.8465 18.2135L91.0312 18.6446V19.1372L90.8465 19.5683L90.7235 19.8762L90.8465 20.6151L91.4006 21.4772L91.7699 21.6619L92.0778 22.4009L92.6317 22.6472L93.4935 22.0314L94.1091 21.7235L94.9093 21.9083L95.648 22.0314L96.1405 22.4624L96.5098 23.0782L96.9407 23.3861L97.3716 23.2014L98.2335 23.3861L98.6643 23.8788L99.0953 24.125L99.6493 23.7556L100.08 23.2629L101.619 22.7704L102.604 22.6472L102.85 22.524L103.404 22.1545L104.02 21.9083L104.574 21.9698L105.128 22.7088L105.682 23.2014L105.867 24.0019L106.544 25.1103L108.206 26.6498L108.883 27.1424L109.314 27.0808L109.56 26.9577L109.683 26.7729L109.806 26.034L109.991 25.7877H110.36L111.653 26.7114L112.33 26.8345H113.007L113.869 27.5735L114.854 28.1892L115.593 28.2508L116.208 28.0045L116.639 27.8813L116.885 28.1276L117.132 28.6819L117.501 29.1129L117.932 29.236H118.547L119.655 30.0366L120.702 30.8371L121.379 30.8987L121.933 30.6524L122.426 30.5908L122.795 30.7755L122.918 31.145L122.672 31.6376V32.315L123.164 32.9923V33.6081L123.041 34.1623L122.795 34.7165L122.179 35.4555L121.564 36.1328L120.702 36.4407L120.209 36.7486L120.333 37.2412L120.64 37.7339L121.379 38.1033L122.241 38.3496L122.364 38.6575L122.241 38.7807L121.687 38.9038L120.948 38.7807L120.702 39.027L120.333 39.4581L120.086 40.2586L119.902 40.9975L120.702 41.1822L121.194 41.4901L121.318 42.1059L121.502 42.7833L121.564 43.3991L121.318 43.7069V44.0148L121.441 44.138L121.81 44.1996L122.056 44.3227V44.6306L121.564 45.3696L121.071 46.7243L120.825 47.4632V48.2637L120.517 48.6948L119.963 48.7563L118.117 48.8179L116.516 48.7563L115.839 48.6332L114.792 48.5716L114.238 48.7563L113.561 49.9879L113.007 50.4806L112.145 50.9116L111.16 51.0347L110.606 51.5274L110.422 52.3279V53.0668L110.36 53.4363L110.176 53.7442L110.114 53.9905L110.176 54.2368L110.422 54.2984L110.668 54.4216V54.6063L110.545 54.8526L110.237 55.0989L110.114 55.4684L110.176 55.8378L109.437 56.0226ZM67.2085 64.8283L68.1318 65.3209L67.147 65.1978L65.054 64.7667L64.1306 64.3357L63.8844 63.843L63.7613 63.1657L64.2538 63.843L64.6231 64.1509L67.2085 64.8283Z" fill="#FF0000"/>
</svg>
