<svg width="300" height="248" viewBox="0 0 300 248" fill="none" xmlns="http://www.w3.org/2000/svg">
<path d="M82.5617 15.48V17.9312V20.3558V22.7538V25.1251V27.4697V29.7611V32.0258V34.2639V36.4753V38.6601V40.8182V42.9497V45.0546V47.1594V49.2376V51.2892V53.3141V55.3124V57.2841V59.2557V61.2007V63.119V65.0107V66.9025V68.7675V70.6059V72.4444V74.2561V76.0413V77.8264V79.5849V81.3167L83.2522 81.5565L83.9426 81.7963L84.1551 81.3167L84.8986 81.6897L85.5625 82.0094L85.9874 81.5832L86.4389 81.1302L87.0497 81.1036L87.7401 81.0769L88.1916 81.0503V81.4233L88.0322 82.0627L87.8994 82.5956L88.3243 83.1285L88.8289 83.3949L89.3069 83.6614L89.5193 84.3807L90.0505 84.9403L90.4488 85.3666L90.8206 85.7662L91.3782 86.3524L91.75 86.752L92.2546 87.2849L92.5467 87.6046L92.6795 88.2174L92.8653 88.9635L92.7591 89.3898L92.9981 89.4697L93.4761 88.9901L93.9276 88.697L94.4853 88.324L94.857 88.0842H95.5475L95.8661 87.3382V86.2991L96.2114 86.3257L96.4238 86.1925L96.5035 85.8994L96.291 85.4731L96.9549 85.2866L97.4329 85.1534L98.1234 84.7804L98.7873 84.4074L99.1059 84.7005L99.4246 84.9936L100.035 85.6596L100.089 85.8195L100.035 86.1392L99.9823 86.4589L100.354 87.3382L100.46 87.4448L100.779 87.578L101.151 87.8711L101.31 88.1109L101.841 88.5105L101.921 88.6704L101.974 88.9368L102.054 89.1766L102.16 89.3365L102.266 89.5763L102.505 89.8427L102.957 90.1624L103.249 90.3756L103.674 90.6687L104.098 91.2815L104.47 91.8143L104.895 92.3472L104.842 92.7735L105.267 93.413L105.718 94.2123L106.064 94.9317L106.303 95.3313L106.595 95.9175L106.966 96.6102L107.391 97.4095L107.71 97.9158L108.135 98.6351L108.347 99.0614L108.215 99.3545L108.055 99.7009L108.586 99.8607L108.958 99.9673L108.878 100.367L108.746 100.9L109.171 101.113L109.463 101.246L109.41 101.513L109.569 101.832L109.595 102.339L110.1 102.312L110.312 102.285L110.605 102.498L111.003 102.792L111.401 103.058L111.746 103.298L112.198 103.431L112.756 103.644L113.021 104.044L113.526 104.23L113.712 104.79L114.296 105.003L114.641 104.87L114.774 105.11L114.88 105.376L114.907 105.722L114.88 106.042L114.747 106.309L114.641 106.602L114.561 106.921L114.535 107.268L114.561 107.641L114.614 107.96L114.8 108.547L114.854 108.893V109.133L114.455 109.959L114.322 110.358V110.545L114.03 110.945L113.499 111.504L113.26 111.824L113.154 111.717L112.463 111.637L112.224 110.918L112.092 110.358L111.879 109.852V109.746L112.065 109.426L112.756 109.159V109.053L112.49 108.973L112.437 108.866L112.357 108.333L112.384 107.854L112.357 107.534L112.251 106.895L112.092 106.495L111.64 105.722L111.614 105.536L111.8 105.296L111.932 105.056L111.189 105.456L110.18 105.882L109.755 106.175L109.675 106.282L109.649 106.388L109.728 106.655V106.735L109.649 106.895L109.542 107.348L109.33 107.827L109.224 107.934L108.825 107.747L108.719 107.587L108.507 106.948L108.56 106.788L108.693 106.655L108.878 106.335L109.117 105.856L109.595 104.657H109.914L110.472 104.417L109.622 104.284L109.489 104.23L109.383 104.07L109.277 103.804L109.091 103.511L108.772 103.404L108.639 103.298L108.427 102.925L108.294 102.765L108.215 102.552L108.188 102.312L108.135 102.179L107.922 102.125L107.79 102.046L107.763 101.406L107.312 101.246L106.94 100.953L106.648 100.553L106.568 100.367L106.542 100.207L106.621 99.7808L106.595 99.7009L106.329 99.7542L104.709 99.0881L104.789 98.1822L104.497 96.9832L104.178 96.5037L104.231 96.3171L104.311 96.2106H104.444L105.054 96.5569L105.639 96.9832L105.718 96.9299L104.789 96.0507L104.55 95.7843L104.497 95.4645V95.3047L104.576 95.2247L105.453 95.3047L105.506 95.2514L104.603 94.985H104.417L104.231 95.358L104.152 95.4379L103.966 95.4112L103.913 95.358L103.674 94.905L103.461 94.5853L103.063 94.159L102.983 93.8393L102.957 93.3863L103.01 92.96L103.328 91.9476L103.461 91.7611L103.488 91.6545L103.381 91.6811L103.275 91.7877L103.01 92.2673L102.744 92.96L102.505 93.2265L102.372 93.1732L102.16 92.8534L101.708 92.4804L101.177 92.3739L100.859 91.9742L100.381 90.8818L100.328 90.3489L100.274 90.2157L100.009 90.0292L99.8495 89.7628L99.6105 88.4306L99.2918 87.4981L99.2122 86.9918L99.2387 86.5122L99.1856 86.4589L99.0794 86.832L99.0528 87.0185L98.8404 87.0718L99.0263 87.4714L99.0794 87.6579L98.9732 87.6313L98.7607 87.6846L99.1059 88.3507L99.2653 89.3631L99.5043 90.1091L99.6636 90.722L99.7167 91.1749L99.823 91.6012L100.089 92.5604L100.115 92.7469L100.089 92.9067L100.009 93.0933L99.8495 93.1732L99.3715 93.04L99.1856 92.8002L98.9201 92.3739L98.5748 92.1607L97.6985 92.2673L97.6188 92.2407V91.8943L97.7251 91.2548L97.6454 90.9884L97.1939 90.0559V89.8693L97.8313 89.4431L97.5126 89.4164L97.2736 89.5763L97.1674 89.4697L97.008 88.8569L96.9018 88.6171L96.8487 88.5638L96.8222 89.15L96.9284 89.4431L96.9549 89.6296L96.9284 89.8693L96.8753 90.0559L96.769 90.1624L96.6628 90.1891L96.4504 90.0559L96.2114 89.8161L95.9989 89.7095L95.9193 89.6296L95.813 89.3631L95.6537 89.1766L94.8836 88.9368L94.4321 88.6437L94.4056 88.7237L94.5384 89.0434L94.5649 89.2299L94.4587 89.2832L94.2463 89.5763L94.2994 89.6029L94.5118 89.4963H94.7508L95.1491 89.6828L95.5209 89.9226L95.6537 90.0559L95.6272 90.2957L95.6803 90.3756L96.052 90.5887L96.0786 90.6953L95.8396 91.0417L96.3176 91.015L96.6097 91.1483L96.9549 91.6811L97.0877 91.9742L97.1143 92.3472L97.0346 92.4538L96.9018 92.5337L95.9193 92.6669L95.574 93.1199H95.4944L95.2288 92.9867L94.7508 92.6137L94.14 92.2673L92.7591 91.2282L92.7326 91.1749L92.706 90.9617L92.5998 90.8552L92.4139 90.7752L92.1483 90.5088L91.8031 90.0559L91.5907 89.7095L91.511 89.4697L91.3251 89.1766L90.6878 88.5638L90.3691 88.324L90.077 88.1908L89.8114 88.1641L89.7318 88.0842L89.838 87.951L89.8646 87.8711L89.3069 87.7379L88.7758 87.4448L87.4214 86.6455L86.731 86.1392L86.3326 85.8994L86.1468 85.7662L86.0671 85.6596L86.1733 85.5531L86.4389 85.4465L86.6248 85.3133L86.9169 84.807L86.9434 84.6472L86.7841 84.2742L86.7044 83.9278V83.7413L86.7575 83.5548L86.8107 83.4216L86.9434 83.315L87.0231 83.2617L87.1293 83.315L87.4745 83.7946L87.5277 83.9545L87.5011 84.5939L87.6073 85.3399L87.6339 85.2866L87.6604 85.0468L87.687 84.5672L87.7135 84.3275L87.7932 84.1143L87.926 84.0077L88.2978 84.0877L88.4837 84.061L87.7401 83.7146L87.2621 83.0752L87.1824 83.0219L86.9169 82.9953L86.6513 83.2617L85.9609 84.0877L85.775 84.2475L84.8986 84.7005L84.3144 84.7804L83.6505 84.7005L83.0663 84.5406L81.6323 83.8212L81.4198 83.6614L81.7651 83.2084L81.7916 83.0752L81.6854 82.6223L81.5792 82.489L81.4464 82.4091L81.4198 82.4624V82.5956L81.4464 82.862L81.3402 82.9953L81.1012 83.1285L80.7028 83.2884L79.4282 82.9153L78.1269 82.5956L76.9585 82.5423L75.312 82.7821L74.4357 83.0219L73.9311 83.0486L73.4266 82.9953L73.3735 82.8088L73.5859 82.7022V82.569L73.2938 82.1693L72.8689 81.9295L72.2847 81.8496L71.966 81.743L71.8863 81.6098L71.6739 81.4766L71.3552 81.3434L71.2224 81.1036L71.3287 80.3575L71.4349 79.9046L71.5411 79.6115L71.727 79.1053L71.6208 79.1319L71.2224 79.5049L70.8772 79.8779L70.5586 80.3842L70.3727 80.624L70.1337 80.8371L69.7353 80.7838L69.2042 80.4641L68.7528 80.3042H68.381L68.2216 80.251L68.4872 79.9845L68.6465 79.7714L68.859 79.425L68.9121 79.2385L67.5312 79.1852L67.4781 78.9987V78.8655L67.425 78.7589L67.2125 78.679L66.9204 78.7323L66.469 78.9454L66.2831 78.7856L66.3627 78.679L66.4159 78.5991L66.708 78.2793L66.3096 78.1195L66.0972 77.933L65.991 77.7731V77.1869L66.0972 76.8139L67.0266 76.4409L66.7345 76.3077L66.1503 76.361L65.752 76.6807L65.274 77.1336L64.9553 77.2935L64.796 77.1869L64.5835 77.1603L64.318 77.1869L64.1321 77.2935L64.0524 77.48L63.9462 77.6132L63.84 77.6665L63.7603 77.6399L63.6275 77.4534L63.362 77.3201L63.2292 77.1603L63.1495 77.2669L63.0698 77.5599L62.9636 77.6932L62.5122 77.8264L62.2732 77.7997L61.9811 77.4534L61.9279 77.3201L62.0342 77.0004L62.6715 75.7748H62.6184L62.4059 75.9613L61.9811 76.4409L61.7952 76.5741L61.4765 76.6008L61.3172 76.5475L61.1313 76.5741L60.9188 76.7073L60.786 76.8406L60.7329 77.0004L60.786 77.0271L61.1047 76.8406L61.2906 76.7873L61.3437 76.8672L61.1047 77.4267L60.9454 77.9596L60.8126 78.0928L60.5736 78.0662L60.3346 78.1195V78.2527L60.8126 78.679L60.9719 78.7323L61.1844 78.8921L61.2109 79.052L61.1313 79.4517L61.1047 79.6382L60.9985 79.7181L60.6267 79.6914L60.4939 79.7447L60.2284 79.9845L60.0956 80.1977L60.1487 80.2243L60.3612 80.0645L60.6798 79.9845H61.1047L61.4234 79.9046L61.6358 79.7447L61.8483 79.798L62.0342 80.0645L62.0873 80.3042L62.0076 80.4908L61.8483 80.624L61.6093 80.7039L61.4499 80.8371L61.3968 80.997L61.3703 81.2368V81.5565L61.4234 82.1427L61.3703 82.2226L61.2906 82.2759H61.1578L61.025 82.4091L60.7329 83.1818L60.6267 83.2617L60.4939 83.1818H60.3877L60.2815 83.2884L60.069 83.3683L59.7504 83.4216L59.4848 83.3949L59.0068 83.2351L58.8209 83.1285L58.6616 82.942L58.2367 83.1551L58.1305 83.0752L57.8649 82.5423L57.8118 82.569L57.7587 83.1551L57.679 83.3683L57.4135 83.7946L57.2807 84.514L57.2276 84.5406L57.1745 84.434L57.0151 83.7946L56.9355 83.6614L56.6965 84.0344L56.6699 84.1676L56.723 84.6472L56.6699 84.7271L56.1919 84.4607H56.0857L56.0591 84.514L56.2185 84.887L56.1919 85.0202L55.5015 85.7396L55.3156 85.7129L55.2093 85.633H55.0766L54.6517 85.8994H54.5455L54.3861 85.7396H54.3065L54.2533 85.8994V86.2192L54.094 86.5122L53.5894 86.9918L53.4567 87.205L53.3504 87.5247L53.2708 87.5514L52.9787 87.3648L52.6334 87.2316L52.5803 87.2849L52.6866 87.4714L52.66 87.578L52.5007 87.6313L52.3148 87.6046L52.0758 87.5247L51.7571 87.6046L51.3322 87.8444H50.987L50.509 87.4448L50.3762 87.4181L50.3231 87.3115L50.4293 86.9918L50.5621 86.752L50.6683 86.6455L51.1198 86.3257L51.6509 86.2192L51.9695 86.0327L52.3679 85.633L52.5803 85.3399L53.0052 84.5672L52.9787 84.514L52.8724 84.4607L51.943 85.2067L51.8102 85.2866H51.6243L50.8808 84.9936L50.7214 84.8603L50.6152 84.514L50.8276 83.688L50.9604 83.2884L51.3322 82.6755L51.8102 82.0094L51.9695 81.5832L52.2085 80.4375L52.182 79.9046L52.0758 79.2651V78.8921L52.182 78.7856L53.2708 78.1994L53.7753 77.7465L54.8376 76.9738H55.1031L55.289 77.2136L55.528 77.4001L55.7936 77.5333L56.1388 77.5066L56.5637 77.3468L57.2276 77.4001L58.5819 77.8264L58.874 77.853V77.7997L58.6616 77.5066L57.7321 77.3201L57.3338 77.1336L56.2185 76.361L55.9795 76.0679L56.0857 75.9347L56.3512 75.8281L56.4309 75.7215L56.4575 75.535L56.6168 75.2686L56.8824 74.9222L57.3072 74.6025L58.1039 74.0963L57.7853 74.0696L57.2276 74.1496L57.0151 74.2561L56.6434 74.6025L56.484 74.8423L56.2716 75.3219L56.1919 75.4018L55.7936 75.4817L54.7313 75.535L54.5455 75.2952L54.4392 75.2686L54.3065 75.2952L53.3239 75.9347L52.9787 76.2544L52.7397 76.6274L52.3413 76.8939L51.8102 77.0537L51.4119 77.2669L50.987 77.6932L50.8542 78.0129V78.1727L50.9604 78.6523L50.8542 78.7323L50.6152 78.7589L50.2434 79.0786L49.4468 80.0112L49.3405 80.3575V80.4641L49.4733 80.7306L49.3936 80.8904L49.1546 81.1568L48.6501 81.5832L48.3314 81.743H48.119L47.9065 81.6897L47.5347 81.4233L47.2426 81.3967L47.2161 81.4233L47.6144 81.7164L48.0393 82.0894L48.3049 82.4091L48.4111 82.6489V82.8887L48.3049 83.1551L48.0127 83.6081L47.7206 83.7413L46.9771 83.8745L46.7381 83.9811L46.6584 84.061L47.163 84.2475L47.2161 84.3541L47.1364 84.7271L47.0036 84.8603L46.5787 85.0735L46.207 85.1268L46.1538 85.0735L46.2335 84.7804L46.207 84.7005L46.0742 84.6472L45.8617 84.7537L45.3572 85.1801L45.3041 85.26L45.49 85.3666L45.4634 85.4731L45.1978 85.7929L45.0916 86.006L44.9057 86.2192L44.1091 86.8586L44.1622 87.0185L43.9497 87.578L43.8435 88.0576L43.9763 88.2707L44.6402 88.5105L44.9588 88.5638L45.3572 88.7237L46.0476 89.1766L46.2866 89.4697L46.3132 89.6029L46.2866 89.7628L46.207 89.9759L46.0211 90.2957L45.49 90.8552L45.251 91.015L44.8792 91.1483L44.7729 91.2282L44.3215 91.7611L44.1887 92.0542L44.2153 92.2939L44.1356 92.4804L43.5514 92.8268L43.5779 92.8801L43.7904 92.9067L43.7107 93.1998L43.6842 93.6261L43.5779 93.706H43.2062L42.7282 93.8659L42.7016 93.9192V94.2123L41.4535 94.4254L41.1879 94.985L41.0551 95.1715L40.5771 95.5711L40.285 95.731L39.8601 95.8642L39.6743 95.9974L39.6477 96.1839L39.5415 96.3438L39.2494 96.6102L39.1166 96.9299L39.0104 96.9832L38.4527 97.0632L38.3465 97.1697L38.2934 97.596L38.1871 97.6227L38.0012 97.5161L37.7357 97.596L37.2046 98.049L37.0718 98.2355L37.0983 98.3421L37.178 98.422L37.3108 98.7151V98.9016L37.0983 99.4345L37.0187 99.5144L36.7531 99.6476L36.6469 99.9407L36.4079 99.914L36.222 99.9673L36.0892 100.154L35.9564 100.26L35.7971 100.287L35.6112 100.447L35.3722 100.74L35.1598 100.926L34.9739 101.006L34.788 101.033L34.6021 101.006L34.4428 101.033L34.2834 101.14L34.1507 101.3L34.0444 101.752L33.9117 101.966L33.832 101.992L33.6461 101.966L33.354 101.859L33.0619 101.886L32.5839 102.179L32.4245 102.392L32.7167 102.445L32.8494 102.498V102.552L32.6901 102.605H32.4245L32.2652 102.658L32.0793 102.792L31.6013 102.925L31.4154 103.031L31.0436 103.564L30.9905 103.697L31.0436 103.724L31.2561 103.671L31.4951 103.751L31.6279 103.857L31.7075 103.991L31.7872 104.257L31.8403 104.284L31.3889 104.737L31.2561 104.923L31.1764 105.003L31.1233 104.95L31.0702 104.443L31.0436 104.364H30.9374L30.8312 104.523L30.5922 105.11L30.3532 105.403L28.4677 106.149L28.2022 106.335L28.1491 106.655L28.0694 106.921L27.9366 107.134L27.8038 107.268L27.7773 107.161L27.8038 106.388L27.7773 106.229L27.5914 106.122L27.5117 106.149L27.4055 106.202L27.2196 106.362L27.1134 106.415L26.9806 106.388L26.7416 106.548L26.1574 107.081L25.7856 107.214L25.6794 107.321L25.5201 107.614L25.4138 107.721H25.2545L25.042 107.641L24.8827 107.694L24.7499 107.907L24.6172 107.987L24.2454 107.827L23.9267 107.987L23.7143 108.254L23.5018 108.44L23.2628 108.52L22.652 108.6L22.413 108.547L22.3599 108.467V108.12L22.4661 107.881L22.5458 107.774L22.652 107.667H22.8379L23.1566 107.747L23.13 107.667L23.0238 107.561L22.7317 107.374L22.4396 107.294L22.2803 107.348L22.0413 107.481L21.8819 107.641L21.8022 107.827L21.696 108.387L21.6429 108.547L20.9525 109.532L20.6869 109.826L20.4214 109.799L20.2886 109.905L20.1027 110.145L19.9433 110.252H19.784L19.6512 110.199L19.5716 110.119L19.5981 110.039L19.7043 109.959L19.6512 109.772L19.4388 109.453L19.306 109.266L19.0405 109.239L18.9873 109.399L19.067 110.145L19.0405 110.305L18.8811 110.545L18.4562 110.785L18.3234 110.758L17.9517 110.278L17.5799 110.172L17.5533 110.332L17.633 110.651L17.5533 110.945L17.2878 111.211L17.0753 111.344H16.9426V111.158L17.0753 110.785L17.1019 110.465L17.0488 110.225V110.039L17.1284 109.905L17.6064 109.532L17.8189 109.479L17.9251 109.559L18.0579 109.586L18.2172 109.532L18.3234 109.426L18.3766 109.239L18.589 109L18.9608 108.733L19.3857 108.227L19.8637 107.481L20.4214 106.841L21.0587 106.282L21.7491 105.856L23.1566 105.243L23.2628 105.269L23.13 105.456L23.2097 105.589L23.3425 105.616L23.8736 105.509L24.086 105.376L24.1392 105.509L24.0595 105.669L23.7408 105.829V105.962L24.1923 106.575L24.325 106.655H24.4313L24.4844 106.575L24.4578 106.149L24.6172 106.069L24.9358 106.042L25.1483 106.095L25.2545 106.229L25.4404 106.335L25.7059 106.415L25.8653 106.388L25.9184 106.255L25.8122 106.095L25.3076 105.722L25.1748 105.563L25.1483 105.349L25.2279 105.083L25.3873 104.657L25.6263 104.097L25.8387 103.724L26.2902 103.298L26.5823 103.085L27.3524 102.419L28.8395 101.752L29.2113 101.326L29.7159 100.847L29.9283 100.74V100.926L30.008 101.086L30.3266 101.193L30.5391 101.22L30.6453 101.193L30.6719 101.006L30.6187 100.687V100.394L30.6453 100.101L30.6984 99.8607L30.9109 99.4611L31.2295 99.0081L31.681 98.4753L31.9731 98.2355L32.2386 98.1023L32.5042 97.8625L32.9557 97.3029L33.0884 97.223L33.4071 97.1164L33.5133 97.1697L33.593 97.3029L33.6727 97.3829L33.9913 97.4628L34.2038 97.3296L34.1772 97.2763L33.9913 97.223L33.8851 97.1431L33.7789 96.8234L33.5664 96.6102L33.5133 96.3704L33.5399 96.0241L33.7258 95.1981L33.7523 94.3455L33.9117 93.8393L34.2303 93.6528L34.9739 93.5195L34.549 93.2265H34.3897L34.1241 93.1199L34.0179 92.587V92.1874L34.2038 91.7344L34.8942 90.9617L35.6378 90.4289L35.5316 90.3756L35.4519 90.2157L35.7971 89.1233L36.1423 88.1375L35.6909 88.9635L35.1598 89.6029L33.6195 90.3489L32.5839 90.9617L32.0793 91.095L31.7606 90.9351L31.4951 90.3489L31.3358 90.1358L31.1499 89.7628L31.2295 89.2565L31.3889 88.9102L31.7075 88.8569L32.0793 89.0167L32.398 89.0434L31.9996 88.697L31.4154 88.4039L31.1499 88.5105L30.9374 88.9901L30.6719 89.3098L30.4329 89.2032L30.3001 89.07L30.4063 89.4697L30.2204 90.0825L30.1407 90.5088L30.4063 91.6278L30.3532 92.0808L29.8752 92.2939L29.4769 91.9209L28.6802 90.5088L28.3881 90.1091L27.7507 89.4431L27.5383 89.5496L27.2727 89.8693L27.0072 89.9493L26.3167 89.4697L25.9981 89.0967L25.7059 88.6437L25.2545 88.8835L24.8562 89.1766L24.3782 89.6562H24.0595L23.2097 90.0559H23.13L22.9973 90.269L22.891 90.3756L22.7848 90.8019L21.6164 91.1216L20.4745 90.9351L20.8728 90.6953L21.2711 90.5088L21.6695 90.0825L21.5101 89.4963L21.4836 89.2032V88.8302L21.9085 88.2974H21.457L21.1649 88.4839L20.8994 88.0842L20.7666 87.2849L21.0587 86.8053L21.1915 86.4323L21.2977 85.9261V85.4998L21.0587 84.7804L20.3948 83.2351L20.1292 82.0361L19.5981 81.4233L19.9965 80.3842L20.4214 79.4517L20.979 79.0253L20.9259 78.9721H20.6072L20.3948 79.0253L20.2089 79.3451L20.023 79.5849L19.4122 80.7838L19.0139 81.37L18.8546 81.5032L19.2529 81.7164L19.306 81.9029L19.3857 82.3292L19.2795 82.862L19.1732 83.1551L18.6952 83.1285L18.2703 83.5548L17.2612 84.0077L15.9069 84.2742L15.243 84.2475L14.5525 83.7146V83.3949L14.5791 83.1285L13.5965 82.2226L13.0389 81.2901L12.6405 81.2634L12.2953 81.0236L11.8704 80.6506L11.897 80.3309L11.9501 80.1177L11.6845 79.9579L11.3658 79.9845L10.9941 79.8779L11.9766 78.679L12.3219 77.8797L12.5874 77.7731L12.9592 77.9063L13.4638 78.226L13.8886 78.3592L14.048 78.5191L14.2073 78.8122L14.048 79.2918L13.8886 79.6115L14.0745 79.5316L14.6056 79.0253L15.004 78.5724H15.1633L15.2961 78.6523L15.5085 79.1053L15.7741 79.5849L16.3583 79.1319L16.677 78.5724L16.4114 78.3326L16.0928 78.1994L15.2695 78.0129L15.482 77.853L16.0131 77.8797L16.2255 77.7198L15.9865 77.5066L15.721 77.3201L15.004 77.9596L13.7028 77.933L12.7733 77.5333L11.8439 77.5866L11.7111 77.5333L11.5252 77.3468L12.0297 76.8672L12.4015 76.6008L12.4281 76.4409L12.2156 76.4143L11.8173 76.5475L11.6314 76.3343L11.658 75.9613L11.6049 75.988L11.4455 76.2011L11.2331 76.0945L11.0206 75.908L11.1268 75.7215L11.3127 75.4817L11.2331 75.4551L11.0472 75.5084L10.8878 75.8281L10.9144 76.0945V76.4675L10.6223 76.5475L10.3833 76.4942L10.1974 76.1212L10.0115 75.2952L9.50695 75.0821L9.37417 74.6558L9.69284 74.1229L9.56006 73.8565L9.21484 73.7765L8.8165 74.043L8.65717 73.7765L8.63061 73.5101L8.60405 73.1371L8.71028 73.0838L8.78994 73.1637L9.56006 72.9506L9.63973 72.844L9.0555 72.5243L8.86961 72.1779L9.13517 71.9914L9.58662 71.9648L10.224 71.7516L9.9584 71.3786L9.90528 71.1921L9.85217 70.8724L9.9584 70.3128L10.7285 69.0339L11.4721 67.9682L11.7111 67.7284L12.0563 67.5952L12.375 67.7017L12.6936 67.9416L12.7467 67.835L12.6405 67.7284L12.5077 67.2755L12.9592 67.089L13.2247 66.5827L13.2513 66.4495L12.9592 66.6626L12.6671 67.009L12.5874 66.6626L12.5077 65.8633L12.6405 65.1173L12.7467 64.7709L13.0123 64.4512L13.7559 64.318L13.8886 64.3713L13.9152 64.2114L13.4638 63.7318L13.6496 63.3588L13.809 63.1723L14.6853 62.8792L15.1633 62.9858L15.7741 63.3322L16.1193 63.7851L16.0662 63.9983L15.96 64.1048L15.7741 64.2381L15.6944 64.3447L15.721 64.4246L15.9865 64.1581L16.4114 63.8384L16.6504 63.9716L16.8363 64.2114H17.0488L17.7127 63.9983L18.0579 63.7585L18.4562 63.1723L19.0139 62.7727L19.784 61.5471L20.023 61.0408L20.2886 60.9609L20.5276 61.0142L20.6869 61.4405L20.9259 61.5737L22.3068 61.4671L22.9973 61.2806L23.4753 60.881L23.9798 60.1882L24.2719 59.7353L24.4047 59.1491L24.2188 58.3764L24.0329 57.737L23.7939 56.2449L23.1035 55.2591L22.6255 54.966L22.3068 55.0193L22.5193 54.3799L23.1831 54.4598L23.6611 54.3266L24.0064 54.0335L24.1126 53.7937L24.2719 53.3141L24.2188 52.8079L24.1392 52.5415L23.9002 52.2484L23.608 51.7954L23.4221 51.6356H23.2628L22.4396 52.5415L21.935 52.5681L21.5632 52.4082L21.2446 52.9145L20.3417 53.3674L19.8637 53.7937L18.9873 54.9128L18.7749 55.419L18.4828 55.4456L18.2703 54.4865L17.3143 53.5273L17.0222 53.847L17.1816 54.1401L17.394 54.3532L17.7658 54.4332L17.6064 54.7263L17.5002 55.0993L17.1284 54.7529L16.4911 54.22L15.8272 53.9536L14.1011 54.0069L12.9592 54.5398L12.853 54.4332L12.7467 54.3799L12.5609 54.5131L12.4812 54.7263L12.3484 54.8595L12.1094 54.9128L11.6314 54.8328L10.7285 54.5131L8.68372 54.0335L8.15261 53.7404L7.70116 52.9944V52.5148L7.91361 52.3017L7.88705 51.6089L7.48871 51.4224L6.66549 50.4366L6.37337 50.0103L6.42649 49.957L6.55926 50.0636L6.82482 50.1435L7.51527 50.0103L7.75427 49.3709L8.25883 49.1844L8.73683 49.2643L8.63061 49.0778L8.52439 48.9712L7.30282 48.6515L7.14349 48.7581L4.96592 48.1719L3.26635 47.1328L3.13357 46.9463L2.97424 46.4933L3.21324 46.067L3.45224 45.8539V46.0937L3.4788 46.3335L4.46136 45.774L4.96592 45.0546L5.94848 44.9214L6.18748 44.7082L6.4796 44.3085L6.90449 43.6424L7.51527 43.2961L7.94016 42.9764L8.47128 42.7898L8.92272 43.1096L9.0555 43.1629L9.90528 43.2162L10.1708 43.0829L10.2771 42.9764L10.3567 42.8165L9.58662 42.2303L9.66628 41.9106L9.77251 41.6975L10.7285 41.0314L11.4721 40.8182L11.8704 40.8449L13.0123 39.9923L13.6496 39.7525L14.8446 39.5926L15.8272 39.5393L16.0928 39.859L15.5617 39.8058L15.3227 39.859L15.482 39.9656L15.6679 40.1788L15.6148 40.4719L15.2695 41.2712L15.2961 41.9373L15.0837 42.1504L14.8978 42.4701L15.8803 43.4293L17.4206 43.4826L18.2703 43.2961L18.7483 43.5892L19.1467 43.6424L20.2355 43.4826L21.0587 43.6957L21.4039 43.6158L22.174 42.1771L22.4661 41.9639L22.7848 42.2037L23.2097 42.4168L23.4753 42.257L23.6877 42.63L23.5815 41.8573L23.4221 41.5642L22.174 41.0314L21.3508 41.2978L21.0852 41.0047L21.1649 40.4186L20.262 38.9265L19.9433 38.6334L19.4919 38.6068L19.2795 38.1006L19.0936 37.4345L19.4653 37.168L19.8106 37.0348L20.1292 37.2479L20.501 38.1272L20.8462 38.2604L20.74 39.1397L21.1649 39.939L22.0944 40.685L22.8379 40.4186H23.369L23.6877 40.5784L24.4578 41.2445L24.8562 41.3245L26.0777 40.9781V40.3386L25.9715 39.859L25.6794 39.566L24.8562 39.6193L24.1923 39.113L23.6611 39.2462L22.652 39.9923L22.1475 39.6992L21.8022 39.2995L21.2711 38.8732L21.218 38.1006L21.6429 37.2213L21.9616 36.795L21.696 36.4753L20.979 36.2621L19.7043 36.4753L19.6512 36.1822V35.8625L19.1467 36.5019L18.6156 36.3687L17.8986 36.4486L16.3318 35.8891L15.8007 35.1431L15.5617 34.5569L15.1633 33.0116L14.6322 32.0258L10.9144 28.5887L9.24139 27.7095L8.41816 26.7503L7.91361 26.5105L7.4356 26.4039L6.79826 26.0842L7.22316 25.6846L7.51527 25.5513L7.1966 25.9777L7.4356 26.0842L7.80738 25.8444L7.99327 25.5513L8.28539 24.3524L8.5775 22.5406L8.49783 21.8212L10.5426 21.9544L11.9235 21.8212L12.375 21.6614L14.1011 21.3949L14.5525 21.1818L15.3758 20.569L16.3583 19.4766L17.2081 18.0112L17.3409 17.6115L17.394 17.7181L17.4737 17.6648L17.5533 17.1053L17.6596 15.7997L18.0844 14.5475L19.8637 11.67L20.6869 10.5243L20.9525 9.9914L21.2446 9.61839L21.457 9.9914L21.5632 10.098L21.6164 10.2578L21.457 10.3378L21.1915 10.7108L20.74 10.9506L20.6604 11.0838L20.8728 11.0572L21.5367 10.7907L21.9085 10.471L23.7939 9.85818L24.8296 8.84572L24.8562 8.60592L26.3698 7.32703L26.5823 7.38031L26.8213 7.54018L26.3964 8.39278L26.6885 8.60592L26.4229 9.61839L26.9806 9.64504L27.1134 10.098L27.1399 9.69832V9.13881L27.1931 8.57929L27.2727 8.17963L27.6711 8.36613L28.5474 7.93983L27.4852 7.88655L26.8478 6.98067H26.5026L27.6711 5.62183L28.7598 4.79588L28.9988 4.82251L29.1051 4.98239L29.1316 5.22217L28.8926 5.38203L28.6536 5.67511L28.7598 5.94154L28.9192 5.96819L29.4237 5.75504L29.6627 5.48861L30.7781 5.51525L31.0968 5.32875L31.1764 5.14224L32.6104 5.11559L32.876 4.98239L33.7789 4.263L34.6021 3.38375L34.9739 2.90416L35.6378 1.65192L36.1954 0.82595L37.1249 0L37.3373 0.106577L37.0452 0.266433L36.8328 0.612795L37.1249 1.06575L39.0635 1.99828L39.5415 2.05156L39.7274 2.61108L39.568 3.14396L39.0635 3.70348L38.0543 4.31629L38.373 4.55608L38.5855 5.08894L38.8776 5.14224L39.3556 4.92909L39.7274 4.60936L40.4975 3.51697L40.7365 2.90416L40.9224 2.7443L41.5863 2.90416L41.958 3.22389L42.3829 3.78341L42.2236 4.31629L42.0377 4.60936L42.6219 5.03567L43.2327 5.11559L43.8169 5.46198L44.6402 4.76923L45.2775 4.63601L45.8883 4.66266L46.6584 4.28964L47.9862 4.79588L48.3314 4.66266L48.8625 4.74258L49.3671 5.03567L49.553 5.3554L48.9422 6.04812L48.836 6.76751L49.0484 7.0606L49.4202 7.11388L49.4733 7.51354L49.7123 7.62011L50.9073 7.59346L50.8276 7.77997L50.7745 8.01977L50.4028 8.55264L52.5272 8.84572L52.8193 8.55264L53.2442 8.44606L54.1737 8.0464L54.5189 8.23291L54.9438 8.63257L55.3156 8.7125L55.6608 8.63257L56.484 8.0464L57.44 8.01977L57.8384 8.20628L58.2633 8.12635L59.5114 8.79244L59.9628 8.87237L60.5736 9.72497L60.8923 9.7516L61.264 9.37859H61.5827L61.8748 9.72497L62.3794 9.83155L62.6184 10.3911L62.8574 10.5776L64.7429 10.9772L65.6723 10.7907L67.0266 10.844L67.6905 11.1104L68.381 11.0838L69.4963 12.0163L70.0806 12.1762L70.1868 12.3893L71.8863 12.6291L72.4706 12.1495L73.5062 12.0163L74.4357 11.59H74.9668L75.5776 11.6966L75.8166 11.6433L75.9759 11.4568L77.4896 12.1762L78.3394 12.9755L78.7112 13.5617L80.4638 14.4143L80.9684 14.8938L81.3136 15.4267L81.5261 15.48L81.6588 15.3202L82.3493 15.4001L82.5617 15.48ZM8.78994 42.3636L8.68372 42.4168V42.3103L9.02895 42.0172L9.63973 41.6442L9.61317 41.7241L9.2945 42.0172L8.78994 42.3636ZM62.1935 78.1727L61.8217 78.226L61.6624 78.1461L61.6358 78.0662L61.7155 77.7731V77.6399L61.9014 77.5866L62.1138 77.7198L62.1669 77.8797L62.1935 78.1727ZM50.1903 80.9437L50.0575 80.9703L50.2434 80.6773L50.3762 80.0911L50.5621 80.171L50.5887 80.2776L50.2965 80.8638L50.1903 80.9437ZM62.9902 80.4108V80.5707L62.9105 80.7306L62.9902 80.997L62.8308 81.4766L62.7777 81.7697L62.6981 81.9562L62.6184 82.0361L62.5387 81.9828L62.5122 81.8762L62.5653 81.7164H62.3794L62.3263 81.2901L62.4325 81.1568L62.4591 80.9703V80.8638L62.5918 80.3309L62.6449 80.3042L62.6715 80.4375L62.7246 80.4641L62.8043 80.4108L62.9105 80.171L62.9636 80.1444L62.9902 80.4108ZM66.708 80.4375L66.7611 80.5973L67.3188 80.5707L67.4781 80.5973L67.5312 80.6773L67.4515 80.7838L67.2391 80.9171L66.6018 81.1835L66.0972 81.5299L66.0175 81.5032L65.9113 81.1302L65.8051 80.9703L65.752 80.7572V80.6773L65.8582 80.544L66.0441 80.3309L66.1769 80.251L66.708 80.4375ZM70.4523 81.1036L70.3461 81.2368L70.0806 81.1835L69.9478 81.1036L70.3992 80.7306L70.4789 80.8105C70.5054 80.7838 70.4523 81.1036 70.4523 81.1036ZM8.71028 80.8105L8.97583 81.1036L9.10861 81.1302L9.56006 81.0503L9.71939 81.1036L9.87873 81.2368L9.98495 81.4233L10.0115 81.7697L9.93184 82.0627L9.9584 82.489L9.93184 82.6755L10.1708 82.9153L10.2505 83.2351L10.2771 83.5814L9.74595 83.688L9.21484 83.7146L8.76339 83.9545L8.68372 84.141L8.76339 84.4074L8.63061 84.4607L8.55094 84.434L8.3385 84.1676L8.09949 84.061L7.24971 83.9012L6.18748 83.2084L5.73604 83.0752L5.28459 82.569L4.8597 81.9029L5.12525 81.7963L5.39081 81.743L6.61237 81.8496L6.77171 81.37L6.93104 81.2634L7.32938 81.1302L7.70116 80.8638H7.86049L8.01983 80.9703L8.36505 80.8105L8.55094 80.7838L8.71028 80.8105ZM62.7777 84.1942L62.4591 84.2742L62.3794 84.0877L62.5387 83.6614L62.6715 83.4216L62.7777 83.3683L63.1495 82.8887L63.5744 82.5423L63.9462 82.0094L64.3445 81.2634L64.4242 80.997L64.6101 80.9703L64.9022 81.1568L65.0881 81.4233L65.0084 81.6364L64.0258 82.7022L63.9462 82.8354L63.8665 83.1818L63.7603 83.2617L63.6275 83.315L63.5213 83.4749L63.4682 83.7413L63.3354 83.8745H63.1495L63.0167 83.9545L62.9371 84.0877L62.7777 84.1942ZM61.9279 82.7022L61.7686 82.8887L61.1844 82.7821L61.3172 82.4358L61.7686 82.2226L62.2466 82.569L61.9279 82.7022ZM72.0988 84.1676L71.966 84.1942L72.1785 83.8212L72.4706 83.3949L72.7361 83.1285L73.0813 83.0219L73.0548 83.2084L72.6033 83.5548L72.0988 84.1676ZM24.0329 91.2815L23.8205 91.3614L23.5815 91.3081L23.3956 90.7486L23.5284 90.722L23.8205 90.3489L24.4578 90.0559L24.6172 90.0292C24.6437 90.0559 24.0329 91.2815 24.0329 91.2815ZM48.8094 91.8143L48.7298 91.841L48.5173 91.6811L48.3845 91.4946L48.4907 91.3614L48.9156 91.0683H49.1015L49.1812 91.1216L49.2078 91.2015L49.1812 91.3348L49.1015 91.4946L48.8094 91.8143ZM49.0219 92.5071L49.1281 92.5604L49.2343 92.214H49.314L49.6592 92.5071L49.8716 92.4538L50.0044 92.8002L50.1372 92.8268L50.2434 92.7735L50.3231 92.8002L50.2965 93.1732L50.031 93.5462L49.9248 93.6528L49.7654 93.5462L49.7123 93.5195L49.6061 93.3597L49.5264 93.1465H49.4733L49.2874 93.3863V93.5195L49.3671 93.706V93.8126L49.1546 93.8659L48.9422 93.8393L48.6766 93.9991L48.6235 93.8926L48.597 93.6261L48.5173 93.6528L48.4111 93.9991L48.2783 94.2123L48.0393 94.3988L47.9862 94.4787H47.8003L47.5347 94.5853L47.3754 94.5586L46.4194 94.1856L46.207 94.0524L46.9771 93.1998L47.3754 92.8801L47.6144 92.9067L47.8534 93.0133L47.9862 92.9867V92.6137L47.7737 92.3206V92.214L48.2517 92.0275L48.4376 92.0542L48.6501 92.1607L48.836 92.3206L49.0219 92.5071ZM101.151 93.6261L101.894 93.7593L102.452 93.7327L102.957 94.5586L103.275 95.2247L103.461 95.7043L103.567 96.1573L103.7 96.5836V96.6369L103.408 96.3438L103.196 95.7576L103.089 95.5178L102.983 95.4112L102.877 95.1981L102.664 94.6386V94.4787L102.558 94.3189L102.452 94.2656L102.319 94.2922L102.266 94.3455L102.293 94.7452L102.399 95.1715L102.93 96.1306L103.302 96.6635L103.381 96.85L103.435 97.3296L103.275 97.5428L103.461 97.9957V98.0756L103.408 98.1555L102.903 98.3421L102.425 99.168L101.921 99.6476L101.682 99.7275L101.576 99.6476L101.469 99.4611L101.416 99.2213L101.39 98.9016L101.523 98.7151L101.788 97.676V97.3296L101.469 96.85L101.284 96.477L101.177 95.9441L100.991 94.5054L100.912 94.0524L100.806 93.6794L100.646 93.3597L100.54 93.0133L100.46 92.6403L100.487 92.5071L100.752 92.6936L101.071 93.2265L101.151 93.6261ZM102.213 93.2531L102.186 93.3863L101.788 93.3597L101.39 93.1465L101.204 92.8801L101.23 92.7469L101.602 92.6403L101.947 92.9067C101.974 92.9334 102.213 93.2531 102.213 93.2531ZM98.0437 93.1732L98.4686 93.706V93.8393L98.3889 94.2123L98.1499 94.3189L98.2031 94.4787L98.3624 94.5853L98.4952 94.5054L98.9466 93.9725L99.0794 93.8659H99.1591L99.6902 94.0258L100.168 94.2656L100.301 94.4521L100.381 94.7985L100.248 95.5445L99.8495 95.6777L99.6636 95.6511L99.4777 95.5445L99.1591 95.8109L99.4246 95.9974L100.221 96.0507L100.46 96.477L100.54 96.7967L100.381 97.3829L99.9292 97.223L99.5308 96.8767L98.7076 96.3971L98.5217 96.3704L98.3889 96.4504L98.3624 96.7434V97.3829L98.1499 97.7026L97.5126 97.5694L97.247 97.0898L97.008 96.3171L96.1317 95.4112L95.8927 95.2247L95.574 94.6652L95.7068 94.2389L95.7334 93.9991L95.8927 93.9192L96.1317 93.7327L96.2645 93.3064L96.4769 93.6528L96.769 93.9725V93.6528L96.9018 93.413H97.1939L97.3267 93.3597L97.5126 93.1199L97.7782 93.0133L98.0437 93.1732ZM47.6144 95.4912L47.641 95.7843L47.7472 95.7576L48.1986 95.4379L48.4376 95.358L48.7563 95.3313L48.9953 95.4645L49.0484 95.5711L49.0219 95.7043L48.836 95.9708V96.1306L49.0484 96.4504L49.553 96.6102L49.6061 96.7168V96.8234L49.2609 97.3562L49.1281 97.4895L49.0484 97.5161L48.4111 97.4095L47.8269 97.2497L47.5879 97.223L47.5082 97.2763L47.3489 97.4362L47.4551 97.4895L47.9596 97.5161L48.1455 97.7559L48.2252 97.9158L48.2517 98.1023L48.1455 98.1822L47.9331 98.2355H47.6675L47.3489 98.4486L47.163 98.6884L46.4991 98.7417L45.9945 99.0614L45.8086 99.2213L45.7555 99.4078L45.5696 99.541L45.1447 99.6742L45.4103 99.8075L45.4368 99.914V100.047L45.4103 100.18L45.0651 100.74L44.4277 101.193L44.2684 101.166L44.1887 101.113L44.1356 101.033V100.953L44.9588 100.047L44.9323 99.994L44.7198 99.9673L44.3746 99.7275L44.1356 99.8874H44.0825L44.1356 99.6742L44.2949 99.4078L44.2684 99.3279L44.1887 99.2746L43.9763 99.248H43.6576L43.4186 99.3012L43.2593 99.4345V99.4877L43.5779 99.4611L43.6576 99.541L43.7373 99.6742L43.7904 99.8341L43.8169 99.994L43.7373 100.207L43.5779 100.5L43.3389 100.447L42.8609 99.8341L42.6485 98.9282L42.2502 98.2355L42.2236 98.0756L42.3298 97.6493L42.7282 97.0365L43.153 96.8767L43.4717 96.6102L43.7638 96.5303H43.9497L44.2153 96.6369L44.3215 96.8767L44.2684 96.9832L44.2949 97.0365L44.4808 97.1697L44.6667 97.676L44.8792 98.1289L45.0385 98.3154L45.2244 98.422L45.012 98.0756L44.8792 97.6493L44.8261 96.8234L44.7729 96.6102L44.8792 96.5569L45.1978 96.5836V96.4504L44.8526 96.1573L44.6402 95.9175L44.5605 95.731V95.5711L44.7464 95.3313L44.8526 95.2514L44.9588 95.2247L45.1713 95.278L45.2775 95.358L45.5431 95.8908L45.6758 96.0507H45.7821L45.8883 95.9708L45.968 95.7843L46.0742 95.6777L46.1804 95.6511L46.4991 95.731L46.6053 95.7043L46.6584 95.5711V95.3313L46.7381 95.2514L46.7646 95.0649L46.6053 94.7985L46.7912 94.7185L47.4285 94.905L47.6941 95.1182L47.6144 95.4912ZM46.6053 95.358L46.5256 95.5178L46.446 95.4912L46.2866 95.3047L45.9414 95.0382L45.7821 94.8517V94.7718L45.8883 94.6919L46.2866 94.905L46.446 95.0915L46.6053 95.358ZM100.301 98.1023L100.54 98.6884L100.726 99.1414L100.885 99.7009L101.151 100.847L101.284 101.273L101.31 101.513L101.337 102.125L101.284 102.259L101.204 102.392L101.177 102.578L101.257 103.058V103.777L101.177 104.177L101.098 104.23L100.938 104.07L100.779 103.857L100.646 103.618L100.354 102.898L100.274 102.578V102.339L100.328 102.152L100.434 102.046L100.593 101.752L100.567 101.699L100.434 101.752L100.168 101.779L99.9292 101.539L99.7433 101.406L99.7698 100.98L99.7167 100.953L99.3715 101.086L99.2387 100.953L99.2122 100.793V100.553L99.2918 100.34L99.6371 99.8341L99.6105 99.7275L99.4512 99.7009L99.2387 99.5144L99.1325 98.9282L98.8935 98.6085L98.7607 98.6351L98.4421 99.5677L98.2827 99.7808L97.8313 99.914L97.9109 99.6476L97.9641 99.4078L97.8047 98.7151V98.4486L97.9109 98.2355L98.2296 98.1555L98.3889 98.049L98.5217 97.8625L98.5483 97.676L98.7873 97.1697L98.8935 97.0632H99.1856L99.823 97.6227L100.009 97.7026L100.301 98.1023ZM47.2957 99.3279L46.924 99.5144H46.8708L46.6318 99.8607L46.446 100.021L46.207 99.7542L46.2601 99.3279L46.4725 99.0348L47.5082 99.1414L47.5879 99.2213V99.3012L47.5082 99.3545L47.2957 99.3279ZM105.001 99.994L105.187 100.154L105.293 99.9673H105.479L105.851 100.127L106.064 100.367L106.196 100.633V100.793L106.17 101.166L106.196 101.539L106.17 101.726L106.117 101.886L106.037 102.019L105.957 102.046L105.665 101.699L105.347 101.086L105.108 100.9V100.953L105.187 101.14L105.4 101.459L105.426 101.646L105.559 101.886L105.612 102.072L105.639 102.312V102.525L105.612 102.712L105.559 102.818L105.453 102.872L104.948 102.818L104.656 102.925L104.311 102.872L104.231 102.765L104.178 102.578L104.152 102.152L104.072 101.539L104.098 101.06L103.886 100.633L103.7 100.367L103.435 100.127L103.249 99.8874L103.302 99.7009L103.594 99.5677L104.072 99.5943L105.001 99.994ZM103.169 100.847L103.355 101.22L103.62 101.193L103.78 101.486L103.886 101.912L103.806 102.179L103.674 102.125L103.541 102.285L103.461 102.792L103.488 103.298L103.435 103.804L103.275 104.337L103.249 104.683L103.196 104.79L103.116 104.816L103.036 104.71L102.903 104.63L102.744 104.923H102.558L102.399 104.257L102.532 103.138L102.85 102.898L102.664 102.605L102.266 102.259L102.293 102.072L101.974 101.513L101.947 101.379L102.001 100.9L102.293 100.474L102.691 100.394L102.957 100.58L103.116 100.74L103.169 100.847ZM106.807 102.552L106.781 102.632H106.409L106.276 102.578L106.223 102.339L106.249 102.125L106.329 101.966L106.435 101.646L106.515 101.113L107.073 101.699L107.232 101.966L107.312 102.285L107.126 102.392L106.887 102.445C106.913 102.445 106.807 102.552 106.807 102.552ZM43.7638 102.605H43.6311L43.4186 102.472L43.4452 102.312L43.7638 102.099L44.0825 102.125L44.1091 102.232L44.0825 102.365L44.0559 102.445L43.9497 102.525L43.7638 102.605ZM42.3564 103.031L42.1439 103.165L42.0908 103.111V103.005L42.1439 102.845L42.2502 102.685L42.5688 102.365L42.8875 102.152H43.0468L43.0999 102.285L42.914 102.552L42.3564 103.031ZM108.693 104.763L108.639 105.642L108.533 105.589H108.427L108.188 105.722L107.949 105.669L107.843 105.563L107.79 105.456L107.843 105.189L107.71 105.056L107.259 105.003L107.099 104.95L107.02 104.683L106.993 104.337L107.073 104.204L107.285 104.097L107.471 103.671L107.577 103.618L107.949 102.738L108.135 102.792L108.454 103.324L108.852 104.097L108.693 104.763ZM106.727 104.017L106.568 104.044L106.382 103.964L105.957 103.538V103.404L106.01 103.271L106.249 103.005L106.356 102.951L106.94 102.978L107.126 103.058L107.179 103.191V103.324L107.126 103.458L107.099 103.591L107.126 103.724L107.046 103.857L106.727 104.017ZM104.417 103.538L104.975 103.644H105.479L105.665 103.857L105.771 104.097L105.851 104.31L105.878 104.523L105.851 104.657L105.798 104.816L105.825 104.87L106.834 105.376L107.312 105.909L107.498 106.175L107.604 106.415L107.79 107.001L108.215 107.667L108.427 107.881L108.56 108.067H108.48L108.188 107.907L107.551 107.454L107.498 107.481L107.444 107.721L107.338 107.934L107.205 108.094L107.312 108.147L107.816 108.04L108.241 108.467L108.4 108.547L108.56 108.866V108.973L108.454 109.213L108.374 109.319L108.4 109.373L108.507 109.399L108.985 109.346L109.064 109.453L108.985 110.358L109.064 110.678V110.838L109.011 111.024V111.184L109.064 111.344V111.504L108.932 111.904L108.799 111.984H108.586L108.427 111.877L108.188 111.531L107.976 110.998L107.896 110.918L107.604 110.838L107.551 110.785H107.365L107.232 110.572L107.259 110.278L107.152 109.985L107.179 109.852L107.046 109.799L106.94 109.879L106.993 110.172L106.94 110.385L106.701 110.278L106.329 109.559L105.904 108.973L105.745 108.84L105.798 108.68L106.01 108.6H106.196L106.223 108.493L105.851 107.934V107.774L105.984 107.481L105.825 107.374L105.373 107.454L105.214 107.401L105.081 107.161L105.001 106.975L104.603 106.948L104.444 106.975L104.178 106.682L104.072 106.495L104.125 106.388L104.364 106.229L104.497 106.255L104.762 106.442H104.869L105.134 106.202L105.161 105.989L105.347 105.802L105.32 105.616L105.214 105.296L104.975 105.216L104.47 105.403L104.045 105.696L103.886 105.589L103.859 105.403L104.311 104.896L104.523 104.63L104.497 104.47L104.337 104.257V103.724L104.417 103.538ZM112.012 108.014L111.906 108.573L111.693 109.159L111.375 109.479L111.162 109.399L111.003 109.159L110.844 109.186L110.684 109.133L110.605 108.92L110.684 108.653L110.605 108.44L110.525 108.627L110.392 108.786L110.047 109L109.808 109.426L109.702 109.692L109.569 109.399L109.489 108.706V108.413L109.755 107.96L110.073 107.534L110.127 106.255L111.162 105.616L111.268 105.642L111.614 106.122L111.985 106.788L112.092 107.081V107.614L112.012 108.014ZM39.7539 106.282L39.6477 106.442H39.4352L39.3025 106.388L39.2494 106.255L39.5946 105.829L39.6743 105.776L39.7274 105.802L39.7539 105.989V106.282ZM105.187 107.721L105.24 107.854V107.934L104.815 108.28V108.36L104.709 108.573L104.63 108.653L104.47 108.893L104.178 109.133L104.231 108.387L103.939 107.96L104.231 107.747L104.417 107.801L104.736 107.827L105.054 107.641L105.187 107.721ZM24.7234 108.92H24.7765L24.8562 108.893L25.042 108.6H25.0952V108.68L25.0155 108.946L25.1748 109.319L25.3076 109.506L25.281 109.559L24.9358 109.692L24.6703 109.586L24.5375 109.612L24.4047 109.746L24.325 109.586L24.2719 108.866L24.2985 108.733L24.4578 108.493L24.6437 108.387L24.7234 108.413L24.803 108.52L24.8296 108.627L24.7234 108.92ZM25.7591 108.786L25.7059 109.186L25.3342 108.946L25.2279 108.813L25.3076 108.706L25.6794 108.68L25.7591 108.786ZM106.488 111.078L106.568 111.158L106.648 111.104L106.754 110.918L106.966 110.945L107.126 110.998L107.232 111.078L107.179 111.344L107.152 111.771L107.073 111.93L106.993 112.144L106.701 112.01L106.462 111.744L106.117 111.264L105.931 110.918L105.904 110.785L105.771 110.678L105.532 110.092L105.4 109.612L105.187 109.559L104.922 109.426L104.815 109.159L104.895 108.946L105.293 108.84L105.878 109.426L105.957 109.666L106.17 109.959L106.196 110.358L106.303 110.518L106.488 111.078ZM27.1134 109.879L26.9275 109.985L26.8744 110.119L26.7416 110.172L26.6354 110.278L26.2371 110.811L26.0777 110.918L26.2636 110.465L26.2902 110.332V110.225L26.2371 109.879L26.3433 109.905L26.4229 109.826L26.6088 109.532L26.7682 109.506L26.9541 109.133L27.0603 109.106L27.1134 109.159L27.0337 109.373L27.2196 109.586L27.1665 109.772L27.1134 109.879ZM110.95 110.119L111.242 110.785L111.268 111.024L110.976 111.104L110.764 111.078L110.658 110.998L110.631 110.891L110.711 110.545L110.551 110.358L110.392 110.278L110.233 110.385V110.039L110.339 109.799L110.286 109.479V109.239L110.312 109.159H110.472L110.79 109.426L110.95 110.119ZM28.1491 109.746L28.1225 110.145L28.0694 110.199L27.9897 110.092L27.8304 110.225L27.7507 110.145L27.7773 110.012V109.905H27.9101L27.9366 109.692L27.9101 109.612L27.9632 109.426L28.0428 109.373L28.1491 109.746ZM28.6005 110.678L28.4943 110.705L28.4146 110.651L28.3084 110.358V110.225L28.5208 110.305L28.6005 110.518V110.678ZM16.5177 110.625L16.8098 111.477L16.9426 111.637L17.1284 111.717L17.394 111.797L17.5533 111.93L17.6861 112.117L17.7127 112.197L16.916 111.85L16.4114 112.357L16.2521 112.41L14.8181 112.437L14.526 112.517L14.3401 112.676L14.0214 113.129L13.8621 113.316L13.6762 113.422L13.3044 113.529L12.853 113.502L12.614 113.449L12.4812 113.236L12.375 112.81V112.703L12.4281 112.49L12.8264 112.223L12.9592 112.064L13.4903 111.104L13.6496 110.971L13.809 110.945L14.2604 111.024L14.6322 110.731L15.4554 110.305L15.6413 110.252H16.2255L16.3849 110.332L16.5177 110.465V110.625ZM19.9699 111.318L19.8902 111.344L19.6778 111.184L19.5981 111.078L19.545 110.891L19.9699 110.625H20.0496L20.1292 110.785L20.1558 110.891L20.0496 111.211L19.9699 111.318ZM19.2263 113.582L18.9608 113.689L18.6952 113.582L18.4562 113.369L18.4297 113.103L18.9342 113.263L19.0405 113.342L19.2263 113.582ZM10.3833 114.914L10.2505 114.941L10.224 114.888L10.1974 114.675L10.0912 114.328L10.2771 114.195L10.3833 114.168L10.4364 114.222L10.5692 114.488L10.702 114.568L10.8082 114.621L10.6223 114.701L10.3833 114.914ZM9.56006 115.234L9.45384 115.314L9.37417 115.341L9.2945 115.287L8.97583 115.341L8.92272 115.314L8.78994 115.021V114.861L8.84305 114.728L8.97583 114.621L9.18828 114.515L9.40073 114.541L9.77251 114.808L9.9584 114.968L9.98495 115.074L9.85217 115.181L9.56006 115.234ZM7.30282 116.087L7.4356 116.327L7.64805 116.167L7.80738 115.954L7.94016 115.687L8.01983 115.581L8.12605 115.714L8.44472 115.9L8.17916 116.193L7.6746 116.62L7.51527 116.913V117.046L7.99327 116.939L8.12605 116.966L8.20572 117.073L8.07294 117.179L7.80738 117.286L7.56838 117.499L7.03727 117.872L6.82482 118.165L6.58582 118.272L6.26715 118.298L5.70948 118.485L5.36426 118.671L5.28459 118.778L5.17837 118.831H5.04559L4.91281 118.911L4.75347 119.071L4.6207 119.151L4.40825 119.177L4.30203 119.231H4.1958L3.87714 119.044L3.79747 118.938L4.08958 118.698L4.30203 118.618L4.6207 118.591L4.93936 118.378L5.5767 118.085L5.78915 117.925L5.92193 117.392L6.08126 117.312L6.16093 117.099H6.50615L6.66549 117.339L6.7186 117.366L6.74515 117.339L6.77171 117.153L6.9576 117.019L6.82482 116.939L6.50615 116.806L6.26715 116.753H6.10782L5.97504 116.673L5.86881 116.513L5.8157 116.353V116.193L5.89537 116.034L6.0547 115.847L6.24059 115.74L6.61237 115.66L6.9576 115.527L7.14349 115.501L7.27627 115.554L7.30282 116.087ZM8.49783 116.966L8.44472 116.993L8.36505 116.859V116.753L8.41816 116.673L8.55094 116.486L8.65717 116.407L8.78994 116.38L8.8165 116.433L8.71028 116.646L8.5775 116.806L8.49783 116.966ZM3.31947 118.858L2.41657 119.391L2.12446 119.764L1.91201 120.137L1.72612 120.35L1.59334 120.376L1.46056 120.483L1.16845 120.749L1.03567 120.776L0.0796672 121.389H0L0.0531114 121.229L0.345224 121.016L0.531114 120.803L0.74356 120.456L0.849783 120.323L0.876339 120.163L0.902895 119.817L0.956006 119.684L1.16845 119.417L1.32779 119.284L1.51368 119.231L1.91201 119.284L2.07135 119.151L2.12446 119.044L2.01823 118.964L1.99168 118.804L2.01823 118.538L2.12446 118.298L2.3369 118.085L2.60246 117.925L2.94769 117.819H3.21324L3.66469 118.058L3.74436 118.165L3.63813 118.405L3.58502 118.645L3.31947 118.858ZM222.51 140.945L222.856 140.892L223.148 140.919L223.44 140.945L223.599 140.972L224.077 141.159L224.396 141.318L224.847 141.612L225.086 141.745L225.193 142.064L225.325 142.464H225.511L225.671 142.224L226.042 142.171L226.52 142.331L226.945 142.784L227.556 143.183L227.928 143.397H228.326L228.804 143.183L229.335 142.784L229.707 142.704L229.919 142.731L230.052 143.024L230.212 143.13L230.61 143.104L231.46 143.157L232.124 143.077L232.283 143.263L232.416 143.53L232.681 143.61L233.053 143.53L233.637 143.583L233.558 143.636H233.478L233.372 143.69L233.239 143.823L232.92 144.036L232.416 144.303L231.831 144.542L230.663 144.969L229.919 145.422L229.601 145.688L228.326 147.02L227.556 147.74L226.334 148.725L226.228 148.859V148.965L226.334 149.072L226.573 149.232L226.759 149.258L226.998 149.232L227.981 148.965L228.406 148.779L228.804 148.459H228.857L229.017 148.512L229.07 148.539L229.601 148.166L229.787 148.113H229.919L230.079 148.246L230.105 148.326L230.052 148.486L229.893 148.725L229.813 148.939V149.098L229.76 149.285L229.601 149.525L229.654 149.605L230.105 149.418L230.158 149.338V149.285L230.132 149.232L230.185 149.205L230.53 149.445L230.769 149.578L230.955 149.631L231.327 149.551L231.885 149.338L232.363 149.072L232.761 148.752L233.239 148.566L233.823 148.486L234.248 148.379L234.487 148.219L234.832 147.926L235.018 147.846L235.257 147.819L235.443 147.713L235.576 147.5L235.815 147.26L236.16 146.994L236.346 146.887L236.399 146.94L236.426 147.047V147.18L236.505 147.287L236.691 147.367L236.771 147.473L236.744 147.606L236.797 147.713L236.904 147.819L236.93 148.033L236.877 148.352V148.566L236.904 148.672L236.93 148.725L236.983 148.672L237.063 148.566L237.089 148.486L237.116 148.406L237.594 148.086L237.7 148.059L237.86 148.139L238.603 148.246L238.895 148.326L239.214 148.512L239.32 148.592L239.692 149.205L239.851 149.445L239.958 149.498L240.011 149.605L240.064 149.818L240.117 149.871L240.675 149.924L240.914 149.898L241.073 149.818L241.232 149.871L241.418 150.058L241.604 150.111L241.79 150.031H241.949L242.109 150.137L242.188 150.217H242.241L242.56 149.924L242.932 149.658L243.436 149.365L243.728 149.232L243.808 149.258L244.26 149.152H244.684L245.242 149.205L245.747 149.125L246.225 148.939L246.65 148.832L247.021 148.805L247.154 148.859L247.074 148.992L247.021 149.232V149.551L246.995 149.764V150.004V150.084L247.048 150.164L247.393 150.217L247.579 150.324H247.791L248.03 150.217L248.216 150.244L248.349 150.404L248.535 150.431L248.721 150.324L248.854 150.217L248.96 150.164H249.04L249.119 150.217L249.172 150.324L249.332 150.59L249.411 150.777L249.464 151.043L249.491 151.123V151.283L249.385 151.39L249.358 151.47L249.411 151.55L249.757 151.576L249.916 151.656L249.969 151.736L249.942 151.843L249.969 151.949L250.049 152.056L250.314 152.216L250.394 152.296L250.367 152.376L250.288 152.429L250.155 152.456L249.093 152.296L248.774 152.269L248.721 152.322H248.694L248.641 152.296H248.562L248.508 152.269L248.482 152.162L248.402 152.083L248.243 152.056L248.11 152.136L247.951 152.456L247.977 152.509L247.951 152.722L247.977 152.775V152.829L247.924 152.855H247.845L247.712 152.802L247.207 152.322L246.835 152.083L246.357 151.896L245.986 151.816H245.72L245.508 151.949L245.322 152.189L245.056 152.322L244.684 152.349L244.472 152.402L244.445 152.509H244.313L244.074 152.429L243.835 152.402L243.569 152.456L243.383 152.562L243.197 152.855L243.171 153.015L243.038 153.148L242.666 153.335L242.64 153.415L242.454 153.654L242.401 153.788V153.921H242.348L242.215 153.788V153.601L242.348 153.361L242.454 153.255H242.56L242.613 153.148L242.64 152.935L242.613 152.829L242.427 152.882L242.321 152.962L242.188 152.988L242.029 152.935L241.896 153.042L241.79 153.335L241.657 153.521L241.498 153.601L241.392 153.495L241.338 153.202V152.988L241.392 152.722L241.365 152.669L241.285 152.749L241.179 152.962L241.046 153.441L240.967 153.601L240.86 153.654L240.675 153.948L240.436 154.454L240.143 154.96L239.825 155.44L239.639 155.706L239.586 155.733L239.559 155.813L239.533 156.132L239.479 156.346L239.32 156.505L238.895 156.719L238.816 156.852V156.958L238.55 157.438L238.417 157.731L238.338 158.051L238.364 158.237L238.497 158.317L238.603 158.29L238.683 158.157L238.816 158.024L239.001 157.917L239.134 157.758L239.32 157.358L239.533 157.118L239.639 157.092H239.665L239.878 156.985L240.064 157.012L240.17 157.171L240.276 157.278L240.303 157.385L240.25 157.624L240.143 157.864L239.984 158.131L239.851 158.504L239.719 159.01L239.692 159.383L239.772 159.649L239.719 159.889L239.506 160.102L239.347 160.369L239.214 160.715L239.134 161.008L239.108 161.248L239.134 161.408L239.214 161.648V161.754L239.001 162.26L238.922 162.5L238.895 162.687L238.842 162.873L238.683 163.273L238.63 163.486V163.673L238.656 163.992L238.63 164.099V164.179L238.683 164.232V164.339L238.63 164.499L238.656 164.605L238.736 164.685L238.789 164.845L238.816 165.085L238.869 165.271L238.975 165.431L239.001 165.644L238.948 165.937L238.922 166.497V167.296L238.975 167.802L239.055 168.042L239.161 168.202L239.267 168.309L239.4 168.628L239.533 169.188L239.665 169.561L239.798 169.747L239.904 169.854L239.984 169.907H240.037L240.064 169.987L240.223 170.04L240.515 170.067L240.781 170.04L241.046 169.96L241.843 169.481L242.162 169.214L242.348 168.975L242.507 168.682L242.666 168.309L242.985 167.749L243.144 167.403L243.304 166.976L243.41 166.523L243.489 166.044L243.516 165.564V165.058L243.436 164.552L243.277 164.019L243.197 163.752L243.171 163.673L242.905 163.006L242.587 162.074V161.994L242.879 161.434V161.355L242.852 160.902L242.799 160.662L242.64 160.342V160.262L242.932 159.862L243.118 159.569L243.277 159.196L243.383 158.77L243.436 158.29V157.971L243.383 157.811V157.678L243.436 157.598L243.755 157.491L243.861 157.305L243.888 156.958L243.967 156.798H244.074L244.18 156.719L244.339 156.639L244.472 156.585L244.631 156.639L244.844 156.425L245.109 155.946L245.322 155.679L245.481 155.626L245.508 155.679L245.428 155.813L245.401 155.972L245.428 156.132L245.401 156.292L245.322 156.532L245.375 156.612L245.269 156.985V157.171L245.348 157.305L245.428 157.251L245.534 157.012L245.561 156.878L245.508 156.852L245.534 156.745L245.614 156.559L245.667 156.479H245.72L245.747 156.585L245.72 156.772L245.561 157.225L245.534 157.358L245.561 157.385L245.747 157.092L245.906 156.639L246.039 156.292L246.065 156.106L246.039 155.626V155.413L246.092 155.28L246.251 155.12L246.543 154.933L246.835 154.827H247.101L247.287 154.774L247.393 154.694L247.367 154.614L247.181 154.56L247.048 154.454L246.942 154.294L246.915 154.107L246.942 153.894L247.048 153.681L247.26 153.468L247.313 153.308L247.234 153.202L247.313 153.175L247.552 153.202L247.738 153.175L247.845 153.095H247.871L248.084 153.175L248.455 153.441L248.801 153.601L249.146 153.654L249.385 153.734L249.544 153.868L249.65 154.027L249.73 154.214L249.889 154.321L250.155 154.347L250.367 154.427L250.5 154.56L251.297 154.88L251.642 155.04L251.828 155.2L251.881 155.306L251.854 155.413L251.881 155.52L252.014 155.733L252.067 155.759L252.093 155.866V156.052L252.147 156.186L252.226 156.239L252.173 156.266L251.934 156.159L251.801 156.186L251.748 156.319V156.452L251.801 156.585L252.12 156.958L252.2 157.305L252.226 157.731L252.2 157.891L252.173 158.264L252.147 158.823V159.01L252.04 159.196L251.748 159.463V159.41L251.669 159.383L251.589 159.436L251.483 159.676L251.403 160.102L251.297 160.315L251.164 160.342L251.084 160.395L251.058 160.475L250.925 160.529L250.686 160.555L250.527 160.688L250.394 161.035V161.195L250.341 161.408V161.594L250.394 161.754L250.58 161.914L250.898 162.074L251.084 162.101L251.217 162.047L251.35 161.807L251.483 161.701L251.642 161.648L251.695 161.541L251.961 161.061V160.955L251.854 160.902L251.881 160.875L252.014 160.848L252.12 160.795L252.226 160.688L252.386 160.608L252.784 160.475L252.996 160.315L253.129 160.289L253.342 160.369L253.607 160.555L253.82 160.822L253.979 161.168L254.165 162.074L254.404 163.513L254.563 164.312L254.643 164.472L254.696 164.552L254.483 165.671L254.324 166.124L254.032 166.39L253.74 166.657L253.368 167.083L252.97 167.296L252.757 167.429V167.563L252.704 167.536L252.598 167.776L252.492 168.095L252.465 168.335L252.492 168.468L252.412 168.548L252.253 168.708L252.226 168.761V168.868L252.2 168.921H252.12L252.067 168.975L251.934 169.134L251.695 169.587L251.642 169.694L251.669 169.774L251.934 169.827L252.12 169.907L252.253 170.04L252.757 170.28L252.917 170.44L253.076 170.52L253.235 170.547L253.342 170.493L253.395 170.387H253.474L253.554 170.493L253.846 170.6V170.627L253.049 170.813L252.89 170.893L253.076 170.946L253.288 170.92L253.501 170.84H253.74L253.952 170.893L254.005 170.866L254.032 170.84L254.377 171.08L254.51 171.106L254.643 171.08L254.776 171L255.094 170.893L255.572 170.76L256.024 170.706L256.449 170.733L256.714 170.706L256.98 170.547L257.537 170.067L258.175 169.667L259.237 169.188L260.804 168.602L261.043 168.468L261.282 168.335L261.415 168.255L261.547 168.175L262.636 167.563L263.194 167.189L263.486 166.923L263.778 166.71L264.097 166.523L264.336 166.31L264.522 166.044L264.734 165.831L264.946 165.697L265.053 165.564L265.079 165.404L265.026 165.218L265 164.898L264.973 164.712L265.053 164.578L265.079 164.472L265.053 164.419L264.601 164.285L264.628 163.593V163.566H264.654L265.717 163.246L266.407 163.14L267.23 163.113L268.213 163.273L268.585 163.406L268.824 163.593L269.116 163.646L269.434 163.566L269.886 163.539L270.443 163.566L270.736 163.619L270.762 163.673L270.789 163.646L270.815 163.566L270.975 163.459L271.399 163.326L271.453 163.353L271.532 163.273L271.638 163.086L271.851 162.9L272.17 162.687L272.462 162.58H272.727L272.887 162.527L272.966 162.42L272.993 162.34L272.966 162.26L272.993 162.18L273.019 162.127V162.101L272.993 162.021L272.966 161.674L272.913 161.514L272.833 161.381L272.754 161.301V161.221L272.913 161.115V161.221L272.94 161.248L273.019 161.195L273.179 160.982L273.205 160.902L273.311 160.822L273.391 160.688L273.311 160.662L273.099 160.688L273.046 160.662L273.152 160.502L273.126 160.395L273.099 160.342L273.019 160.315L272.78 160.475L272.701 160.502V160.422L272.568 160.235L272.913 159.916L274.108 159.037L274.241 158.903L274.294 158.797L274.267 158.69L274.241 158.664L274.267 158.637L275.409 157.491L276.073 156.958L276.604 156.665L277.003 156.532L277.268 156.559L277.428 156.532H277.56H278.251H279.472H280.694H281.916H283.137H284.359H285.58H286.802L287.094 155.733L287.359 155.36L287.731 155.493H287.917L288.13 155.306L288.315 155.2L288.422 155.226L288.528 155.413L288.608 155.52L288.714 155.493L288.793 155.333V155.093L288.9 154.933L289.033 154.907H289.165L289.218 154.827V154.72L289.165 154.534L289.192 154.321L289.51 153.921L289.882 153.654L290.015 153.521L290.042 153.255L290.254 152.988L290.36 152.829L290.387 152.695L290.334 152.535V152.216L290.413 151.816L290.493 151.39L290.705 150.99L291.024 150.564L291.104 150.004L291.184 149.418L291.582 148.832L292.033 148.166L292.299 147.793L292.777 147.1L293.096 146.621L293.255 146.407L293.441 146.141L293.733 146.221L294.025 146.301L293.972 146.674L294.025 146.94L294.158 147.1L294.344 147.207L294.503 147.233H294.689L295.167 147.02L295.725 146.887L296.017 146.754L296.07 146.621L296.203 146.567L296.415 146.594L296.813 146.914L297.291 147.367L297.663 147.74V148.379V149.045V149.738V150.244V150.937V151.47V152.189V152.562L297.716 152.669L297.69 152.829L297.663 152.908V152.962L297.69 153.042V153.148L297.637 153.255L297.61 153.361V153.548L297.663 153.654L297.743 153.708H297.822L297.929 153.761L298.061 153.868L298.247 153.974L298.433 154.001L298.566 153.974L298.725 154.027L298.778 154.187L298.752 154.347L298.672 154.427L298.566 154.48L298.539 154.587L298.593 154.694L298.672 154.8L298.752 154.987L298.725 155.147L298.646 155.28L298.619 155.413L298.672 155.52L298.832 155.679L298.938 155.839L299.097 155.919L299.177 155.866L299.23 155.786L299.283 155.733L299.389 155.759L299.522 155.813L299.655 155.866L299.628 155.999L299.708 156.212L299.761 156.612L299.655 156.798L299.681 157.038L299.947 157.118L300 157.198V157.278L299.389 157.917L298.885 157.838L298.619 157.997L298.327 158.051L298.194 158.344L298.035 158.397L297.822 158.37L297.637 158.29L297.504 158.317L297.291 158.823L297.132 158.77L297.079 158.957L296.999 159.037L296.866 159.116L296.76 158.903L296.681 158.69L296.574 158.637L296.442 158.584H296.309L296.203 158.61L296.096 158.743L295.937 158.85L295.804 158.743L295.698 158.584L295.618 158.85L295.486 159.116L295.512 159.436L295.459 159.623L295.353 159.569L295.247 159.41L294.928 159.276H294.662L294.715 159.09L294.954 158.85L294.875 158.797L294.742 158.823L294.689 158.797L294.769 158.557V158.317L294.662 158.397L294.53 158.664L294.184 158.877L294.211 159.223L293.892 159.942L293.866 160.262L293.653 160.502L293.388 160.715L293.042 160.662L292.777 160.848L292.644 161.061L292.538 161.088L292.485 160.822L292.432 160.742L292.325 161.141L292.219 161.168L292.193 160.902L292.139 160.715L292.007 160.875L291.927 161.301L291.821 161.275L291.794 161.115L291.715 161.061L291.688 161.248L291.715 161.488L291.661 161.621L291.555 161.541L291.449 161.408L291.29 161.488L291.157 161.514V161.381L291.184 161.221L290.891 161.301L290.546 161.568L290.281 161.941L290.36 161.994L290.466 162.127L290.015 162.713L289.537 163.246L289.192 164.099L289.059 164.205L288.926 164.365L288.793 164.898L288.634 165.351L288.714 165.564L288.767 165.777L288.9 165.991L289.006 166.017L289.139 165.991H289.218L289.271 166.07L289.245 166.177L289.112 166.204L288.847 166.39L288.608 166.47L288.501 166.683L288.315 166.95L287.97 167.349L288.103 167.483L288.634 167.616L288.873 167.749L289.218 168.495L289.139 168.575L289.112 168.708L289.431 168.895L289.537 169.428L289.803 169.614L290.201 169.721L290.679 169.561L291.077 169.348L291.051 169.161L290.812 168.735L290.759 168.548L290.573 168.415L290.493 168.522L290.387 168.388L290.36 168.309L290.466 168.282L290.599 168.309L290.759 168.388L291.157 168.841L291.263 169.454L291.29 169.827L291.237 169.96L291.13 169.934L290.918 169.96L289.909 170.147L289.696 170.333L289.192 170.52L289.165 170.413L289.192 170.227L289.165 169.827L289.059 169.801L288.262 170.467L287.944 170.52L287.678 170.706L287.625 170.6L287.572 170.12L287.731 169.721H287.652L287.386 169.96L287.28 169.801L287.227 169.641L287.147 169.534L287.067 169.507L287.147 169.881L286.961 170.147L286.908 170.84L286.669 171.133L285.952 171.319L285.474 171.293L285.049 171.346L284.491 171.479L284.173 171.399L283.854 171.532L282.765 171.559L282.526 171.479L282.234 171.746L281.756 171.905L280.588 172.518L280.322 172.731L280.004 173.078L279.791 173.264L279.605 173.318L279.499 173.477L279.393 173.584L279.499 173.238L279.632 172.945L279.738 172.385L279.711 171.932L279.579 171.746L279.446 171.612L279.605 172.065L279.632 172.598L279.579 172.918L279.287 173.531L279.154 173.664L279.021 173.797L278.915 173.85L278.809 173.957L278.702 174.117L278.596 174.437L278.676 174.703L279.233 174.81L279.393 174.73L279.472 174.916L279.526 175.183L279.472 175.476L279.366 175.769L279.287 176.142L279.233 176.728L279.154 177.234V177.074L279.207 176.435L279.127 176.488L279.074 176.621L278.915 177.421L278.676 177.847L278.463 178.14L278.251 178.087L278.304 178.327L278.251 178.46L278.198 178.726L278.065 178.886L277.932 178.859L277.746 178.966L277.667 179.046V179.206L277.534 179.366L277.109 180.138L276.737 180.378L276.658 180.352L276.764 179.979L276.843 179.605L276.604 179.446L276.392 179.366H276.126L275.834 179.073L275.463 178.859L274.958 178.3L274.984 178.14V177.874L275.144 177.447L275.277 177.154L275.489 176.994L276.073 176.835L276.233 176.595L276.312 176.408L276.02 176.755L275.595 176.861L275.356 176.994L275.17 177.181L275.064 177.421L274.825 177.714L274.852 177.9L274.905 178.033L274.878 178.327L275.038 178.62L275.356 179.073L275.409 179.792L275.648 180.272L276.02 180.831L276.312 180.991L276.339 181.204L276.206 181.55L276.02 181.71L276.233 181.684L276.339 181.764L276.445 182.057V182.35L276.419 182.51L276.339 182.563V182.403L276.286 182.35L276.206 182.43L276.153 182.51L276.126 182.829L276.073 182.989L275.887 183.043L275.702 183.469L275.516 183.709L274.799 185.334L274.825 185.6L274.692 185.68L274.507 185.76L274.294 185.92L274.161 186.107L274.029 186.586L273.789 187.119L273.63 186.906L273.604 186.719L273.657 186.213L273.922 185.387L274.214 184.881L274.427 184.641L274.613 184.135L274.4 184.055H274.055L274.108 183.815L274.214 183.602L274.029 183.389L273.922 183.362L273.816 183.282L273.949 183.122L274.002 182.936L273.975 182.723L274.029 182.563L273.949 182.59L273.816 182.749L273.736 182.829L273.683 182.67L273.63 182.696L273.604 182.803L273.524 182.856L273.338 182.723L273.046 182.563L272.887 182.27L272.807 182.057L272.887 181.657L273.072 181.577L273.311 181.63H273.63L273.577 181.55L273.471 181.577L273.126 181.257L273.019 181.071L272.833 181.018L272.754 181.204L272.648 181.257L272.754 180.858L272.913 180.831L273.152 180.725L273.072 180.485L272.913 180.378L272.648 180.511V180.352L272.701 180.138H272.887L273.072 180.218L273.232 179.872V179.712L272.993 179.925L272.94 179.446L273.179 178.966L273.418 178.753H273.71L274.002 178.726L273.816 178.646L273.63 178.593L273.763 178.407L273.896 178.38L274.002 178.22L273.71 178.247L273.736 177.927L273.604 177.98L273.444 178.007L273.391 178.14V178.353L273.338 178.486L273.205 178.593L272.993 178.673L272.966 178.513L272.887 178.433L272.86 178.753L272.807 178.859L272.648 178.54L272.594 178.593V178.673L272.541 178.833L272.409 178.913V179.099L272.355 179.206L271.904 179.046V179.099L272.143 179.472L272.329 179.605L272.355 179.792L272.196 179.952L271.984 179.819H271.957L272.063 180.058L272.143 180.272L272.063 180.458V180.671L272.037 180.858L271.984 181.018L272.09 181.817L272.223 182.03L272.355 182.243L272.409 182.43L272.276 182.456L272.063 182.297L271.878 182.163L271.665 181.79L271.638 181.63L271.585 181.497L271.612 181.764L271.692 182.083L272.382 182.776L272.515 183.043L272.621 183.256L272.594 183.442L272.409 183.309L272.249 183.122L271.851 182.909L271.346 182.776L271.054 182.297V182.483L271.001 182.643L270.815 182.43L270.709 182.243L270.682 182.057H270.47L270.231 182.217L270.019 182.19L269.992 181.87L270.045 181.684L270.311 181.284L270.55 181.071L270.656 180.804L270.629 180.378L270.576 180.804L270.443 181.018L270.231 181.177L269.939 181.471L269.859 181.737L269.78 182.243L269.886 182.403L270.019 182.456L270.364 182.35L270.55 182.403L270.975 182.989L271.745 183.229L272.037 183.389L272.276 183.709L272.621 183.895L272.887 184.162V184.321L272.807 184.508L272.78 184.774L272.674 184.934L272.409 184.961L272.249 184.908L271.373 183.948L271.267 183.868L270.948 183.362L270.576 183.096H270.47L271.028 183.602L271.24 183.948L271.638 184.428L271.931 184.641L272.143 184.961L272.329 185.121L272.86 185.334L272.674 185.494L272.966 185.627L273.019 185.867L272.993 186.133L272.594 186.027L272.568 186.24L272.594 186.346L272.409 186.453L272.17 186.32L271.532 185.6V185.707L271.585 185.813L271.957 186.293L272.302 186.56L272.594 186.693L272.807 186.933L272.887 187.066L272.94 187.279L272.78 187.412L272.594 187.492L272.409 187.359L272.276 187.199L271.984 186.933L271.904 186.639L271.692 186.666L270.789 186.293L270.072 186.24L270.151 186.32L270.231 186.373L270.789 186.453L271.001 186.613L271.479 186.773L271.745 186.826L271.851 187.279L272.223 187.599L272.276 187.838L272.541 187.865L272.993 187.625L273.285 187.705L273.71 187.758L273.816 187.945L273.896 188.291L274.055 188.691L274.453 190.263L275.038 191.542L275.117 191.755L274.984 191.569L274.56 190.716L274.321 190.103L274.082 189.037L274.002 188.798L273.922 188.691L273.869 188.771L273.843 188.904L273.896 189.011L273.789 189.357L273.843 189.517L274.002 189.677L274.161 190.103L274.294 190.663L274.108 190.423L273.922 190.29L273.604 190.21L273.338 190.05L273.365 190.29L273.338 190.529L273.126 190.449L272.993 190.37L273.126 190.636L272.86 190.556L272.674 190.583L272.568 190.822L272.409 190.956L272.17 191.009L271.824 190.796L271.718 190.529L271.665 190.236L271.638 190.583L271.692 190.956L271.665 191.222L272.01 191.275L272.329 191.222H272.754L273.019 191.169L273.179 191.089L273.577 191.169L273.604 191.489L273.551 191.808L273.524 192.155H273.63L273.763 192.048L273.816 191.409L274.188 191.169L274.321 191.196L274.427 191.409L274.453 191.622L274.507 191.915L274.427 192.341L273.869 192.847L273.471 193.3L273.258 193.407L272.966 193.354L272.621 193.247L272.462 193.22L272.329 193.247L272.249 193.114L272.196 192.847L272.063 192.768H271.957L271.878 193.034L271.559 193.114L271.134 193.007L270.682 192.768L270.868 193.007L271.984 193.46L272.116 193.54L272.223 193.673L272.063 193.86L271.931 194.073L271.904 194.26L271.851 194.366L271.399 194.659L271.16 194.606L270.55 194.073L270.842 194.526L271.054 194.712L271.506 194.819L272.355 194.633L272.621 194.819L272.382 195.165L272.143 195.405L271.851 195.432L271.585 195.485L271.506 195.645H271.32H271.028L270.576 195.672L270.337 195.645L269.992 195.965L269.859 196.018L269.673 195.965L269.594 195.698L269.514 195.565V196.071L269.541 196.205L269.594 196.311L269.195 196.578L268.797 196.924L268.664 197.004L268.505 197.164L268.186 197.643L268.107 197.99L268 198.389L267.974 198.203L268 197.91L267.921 197.563L267.868 198.176L267.735 198.469L266.593 198.443L266.088 198.602L265.318 199.135L265.079 199.375L264.442 200.254L264.283 200.814L264.15 200.574L264.176 200.388V200.228L264.017 200.521L264.176 200.974L264.044 201.16L263.619 201.48L263.38 201.533L263.114 201.613L263.034 201.933L262.689 202.226L262.477 202.359L262.105 202.279L262.211 202.572L262.078 202.786L261.839 202.945L261.547 203.052L261.388 203.025L261.255 203.079L261.149 203.212L260.883 203.345L260.591 203.265L260.273 203.212L260.087 203.292L260.405 203.425L260.565 203.611L260.538 203.851L260.459 203.958L260.273 204.091L260.193 204.064L260.14 203.958L260.087 203.718L260.007 203.771L259.981 203.878L259.901 203.931L259.635 203.558L259.662 203.851L259.768 204.064L259.848 204.171L259.954 204.251L259.981 204.358L259.795 204.624L259.688 204.677L259.529 204.731L259.423 204.89L259.449 205.024L259.29 205.317L258.918 205.503H258.812L258.732 205.556L258.786 205.69L258.865 205.796V205.876L258.759 205.983L258.573 206.009L258.467 206.143L258.493 206.276L258.547 206.356L258.52 206.489L258.308 206.622L258.254 206.755L258.361 206.782L258.44 206.755L258.493 206.782L258.361 206.995L258.254 207.128L258.148 207.342L257.883 207.395V207.475L258.015 207.528L258.122 207.688L257.909 208.008L257.776 207.981L257.697 207.901L257.644 208.141L257.67 208.274L257.617 208.541L257.537 208.86L257.484 208.994V209.233L257.511 209.473L257.644 209.793L257.856 211.045L257.989 211.471L258.254 212.644L258.679 213.789L259.29 215.148L260.273 216.8L260.379 217.04L260.246 217.226L260.22 217.44V217.759L260.246 218.052L260.352 218.425L260.565 218.985L260.432 218.878L260.113 218.079L260.087 217.599L260.14 216.933L260.06 216.96L260.007 217.173L259.981 217.44L259.901 217.546L259.795 217.147V216.96L259.901 216.747L259.874 216.667L259.688 216.56L259.635 216.401L259.662 216.241L259.556 216.161H259.476L259.529 216.56L259.609 216.8L259.715 217.413L259.901 217.786L260.007 218.079L261.255 221.303L261.547 221.703L261.654 221.996L261.76 222.609L261.786 223.381L261.574 224.82L261.441 226.179L261.415 226.152L261.388 226.046L261.335 226.019L261.149 226.472L260.91 226.871L260.83 227.484L260.724 227.804L260.379 228.124H260.166L259.635 228.364L259.264 228.31L258.812 228.443L258.52 228.417L258.361 228.124L258.387 227.991L258.44 227.857L258.547 227.831L258.945 228.15L259.025 228.017L258.918 227.857L258.706 227.777L258.547 227.671L258.201 226.978L257.856 226.498L257.803 226.179L257.192 225.992L256.767 225.699L256.475 225.166L256.316 224.234L256.13 224.127L256.05 224.047L256.236 223.701L256.422 223.408L256.263 223.488L256.156 223.594L256.024 223.861L255.917 223.887L255.811 223.861L255.705 223.355L255.732 222.742L255.891 222.502H255.652L255.413 222.582L255.439 222.795L255.413 222.902L255.227 222.875L255.094 222.795L254.908 222.582L254.643 222.182L254.112 221.063L254.005 220.903L253.82 220.743L253.899 220.69L254.059 220.663L254.404 220.157L254.669 219.838L254.749 219.624L254.723 219.544L254.616 219.411L254.457 219.518L254.404 219.491L254.218 219.225L254.059 219.145L253.952 219.198L254.085 219.411L254.191 219.491L254.138 219.811L254.085 219.917L253.979 219.997L253.82 219.944L253.74 220.024L253.634 219.944L253.527 219.811L253.421 219.571L253.713 218.266L253.979 217.44L254.005 216.48L254.032 216.347L254.005 216.081L253.66 215.521L252.12 214.162L250.925 212.564L249.889 211.951L249.119 212.084L248.986 212.217L248.933 212.377L248.986 212.564L248.907 212.644H248.694L248.402 212.697L247.659 213.123L247.393 213.097L247.154 213.203L246.968 213.283L246.517 213.336L246.118 213.443L245.959 213.39L245.853 213.15V212.884L245.933 213.07L246.065 213.23L246.118 213.177L246.145 213.043L246.012 212.777L245.561 212.431L245.056 211.924L245.216 211.951L245.242 211.844L245.083 211.711L245.136 211.551L245.242 211.391L245.03 211.418L244.844 211.525V211.658L244.817 211.764L244.711 211.738L244.525 211.605L243.596 211.205L242.772 210.965L243.41 210.859L243.755 210.939L243.702 210.805L243.622 210.725L243.357 210.619L243.011 210.645L242.799 210.592L242.587 210.699L242.348 210.832L242.135 210.912L241.285 211.018L240.595 211.125L240.701 211.018L240.807 210.939L241.206 210.832L241.259 210.592L241.153 210.352L241.046 210.406L240.94 210.592L240.807 210.459H240.648L240.595 210.752L240.409 210.939L240.329 211.125L239.745 211.285L239.665 211.232L239.825 211.045L239.798 210.939L239.612 211.018L239.294 211.365L238.178 211.471L238.231 211.391L238.47 211.365L238.816 211.258L238.736 211.072L238.603 210.859L238.497 210.832L238.417 210.699V210.326L238.338 210.113L238.152 209.873L238.099 209.926L237.966 210.326L237.86 210.832L237.807 210.992H237.461L237.169 210.965L236.16 211.018L235.788 210.832L235.629 210.805H235.523L235.098 210.965L234.593 211.098L234.487 211.072H234.328L233.956 211.498L233.531 211.685L232.469 211.338L232.203 211.045L231.964 210.992L231.672 210.965L231.353 211.312L231.114 211.764L231.486 212.031L231.805 212.164L232.336 212.058L232.628 211.844H232.867L232.973 211.791L233.08 211.685L233.292 211.764V211.871L233.159 212.004L232.973 212.111L232.867 212.244L233.08 212.51L233.398 212.59L233.531 212.564L233.611 212.271L233.823 212.084L234.089 212.137L234.062 212.244L234.089 212.351L234.221 212.537L234.195 212.804L234.221 212.857L233.929 212.99L233.717 213.043L233.531 213.203L233.637 213.283L233.451 213.363L233.319 213.336L233.265 213.363L233.239 213.47L233.133 213.55L233.265 213.816L233.531 214.003L233.717 214.216L234.514 214.509H234.699L234.885 214.802L235.045 214.908L235.177 214.962L235.151 215.175L234.885 215.335L234.806 215.521L234.753 215.628L234.646 215.495L234.54 215.415L234.275 215.681L234.142 215.734L234.195 215.441L234.089 215.335L233.929 215.042L233.69 214.855L233.531 214.802L233.398 214.695L233.239 214.642H233.106L232.894 214.562L232.867 214.402L232.814 214.296L232.628 214.162L231.805 213.896V214.003L231.858 214.083L231.964 214.136L232.097 214.242V214.562L232.044 214.695L232.017 214.882L231.964 215.068L231.858 215.228L231.619 215.335L231.513 215.255L231.353 214.829L231.114 214.695L230.743 214.669L230.504 214.775L230.238 215.175L230.026 215.228L229.282 215.015L228.432 214.695L228.459 214.589L228.592 214.562L228.857 214.615L228.831 214.509L228.565 214.162L228.512 214.003L228.539 213.816H228.459L228.3 213.976L227.768 213.843L227.609 213.683L227.29 213.203L226.839 213.177L226.627 212.884L226.255 213.017L226.069 213.15L225.91 213.363L225.963 213.47L226.122 213.63L226.042 213.71L225.511 213.843L224.316 213.71L223.971 213.576L223.493 213.31L223.095 213.097L222.776 213.07L222.457 213.123L221.554 213.15L221.342 213.203L221.156 213.31L221.05 213.203L220.997 213.017L221.103 212.99L221.236 212.857L221.342 212.644V212.51L221.262 212.431H221.13L220.811 212.99L220.997 213.31V213.416L220.386 213.47L218.978 214.109L218.421 214.456L218.447 214.349L219.111 213.923L218.872 213.843L218.5 213.949L218.368 213.896L218.527 213.523L218.474 213.203H218.208L218.049 213.47H217.943L217.783 213.31L217.677 213.336L217.757 213.923L217.916 214.162L218.049 214.456L217.677 214.829L217.332 215.148L217.305 215.441L216.96 215.841L216.615 216.054L215.818 216.56L215.606 216.667L215.261 216.907L214.783 217.093L214.305 217.386L214.145 217.44L214.437 217.2L214.783 216.96L214.464 216.987L213.986 216.88H213.694V216.96L213.481 217.093L213.242 216.907L213.136 216.774L213.083 216.667L212.977 216.64L212.897 216.694L213.242 217.44L213.375 217.466L213.535 217.546L213.349 217.706L213.136 217.839L212.791 217.919L212.499 217.653L212.472 217.999L212.446 218.345L212.34 218.425L212.18 218.559L212.101 218.479L212.074 218.345L211.968 218.452L211.835 218.532L211.596 218.559L211.41 218.612V218.745L211.463 218.878L211.782 218.772L211.676 219.118L211.384 219.465L211.145 219.544L210.773 219.491L210.693 219.518L210.613 219.598L211.038 220.157L210.773 220.983L210.587 221.276L210.481 221.303H210.348L209.87 221.037L209.604 220.823L209.817 221.383L210.428 221.543L210.454 221.756V221.942L210.321 222.156L210.215 222.449L210.295 222.635L210.401 223.115L210.481 223.328L210.56 223.994L210.667 224.287L211.224 225.353H211.41L211.437 225.459L211.41 225.673L211.012 225.726L210.852 225.832L210.826 225.912L210.799 225.966H210.746L210.56 225.912L210.135 225.619L209.498 225.433L208.675 225.353L208.117 225.193L207.825 224.953L207.506 224.82L207.161 224.873L206.896 224.74L206.683 224.527L206.365 224.394L205.94 224.34L205.674 224.18L205.488 223.807L205.329 223.168L205.116 222.768L204.692 222.262L204.665 222.209V222.129L204.718 221.836L204.665 221.623L204.506 221.436L204.479 221.25L204.559 221.063V220.823L204.506 220.557L204.24 220.264L203.762 219.944L203.364 219.491L203.045 218.878L202.726 218.452L202.408 218.212L202.195 217.919L202.089 217.573L202.062 217.386L202.116 217.333L201.93 216.96L201.478 216.267L201.213 215.761L201.16 215.441L200.867 215.068L200.363 214.615L200.097 214.322L200.044 214.109L199.274 213.523L199.035 213.15L198.849 213.043H198.637L198.531 213.017V212.937H198.477L198.345 213.017L197.92 213.043L197.229 212.99L196.725 212.884L196.406 212.724L196.194 212.75L196.061 212.937L195.795 213.07L195.397 213.123L195.052 213.496L194.76 214.162L194.627 214.589L194.653 214.775L194.574 214.908L194.388 214.988L194.202 215.175L194.016 215.468L193.777 215.628H193.512L193.034 215.388L192.317 214.935L191.759 214.642L191.361 214.535L191.015 214.322L190.697 214.003L190.405 213.789L190.139 213.683L189.847 213.336L189.502 212.75L189.316 212.297V211.818L188.864 210.752L188.625 210.299L188.439 210.086L188.094 209.82L187.563 209.526L186.873 208.94L185.996 208.061L185.386 207.528L185.014 207.342L184.695 207.022L184.43 206.569L184.164 206.276L184.137 206.249H184.111H183.473H182.836H182.199H181.561H180.924H180.287H179.649H179.012V206.649V207.049V207.448V207.848H177.976H176.941H175.905H174.869H173.834H172.798H171.762H170.727L169.346 207.342L167.965 206.835L166.584 206.329L165.203 205.823L163.822 205.317L162.441 204.81L161.06 204.304L159.68 203.798L159.812 203.611L159.998 203.079L159.653 203.105L158.803 203.185L157.953 203.265L157.104 203.345L156.254 203.425L155.404 203.505L154.554 203.585L153.705 203.665L152.855 203.745V203.718L152.828 203.345L152.695 203.212L152.51 203.292L152.43 202.786L152.483 202.546L152.456 202.306L152.297 201.746L151.872 201.054L150.916 200.201L150.438 199.908L150.066 199.535L149.827 199.428L149.535 199.402L149.296 199.535L148.951 199.428L149.004 199.029L148.659 198.469L148.393 198.416L147.703 198.443L146.773 198.123L146.508 197.936L146.402 197.617L145.977 197.324L145.419 197.03L145.1 197.084L144.702 197.03L144.118 196.817L143.773 196.791L143.109 196.871L142.87 196.817L142.631 196.551L142.392 196.418L142.445 196.098L142.418 195.805L142.445 195.592L142.339 195.112L142.418 194.659L142.339 194.499L142.206 194.366L141.754 194.206L141.675 193.966L141.754 193.647L141.648 193.434L141.276 193.22L140.931 192.768L140.506 192.528L140.32 192.101L140.055 191.835L139.975 191.595L139.391 190.769L138.754 190.13L138.647 189.757L138.621 189.251L138.86 188.931L138.993 188.664L138.966 188.425L138.94 188.238L138.727 187.918L137.904 187.732L137.213 186.933L137.187 186.32L136.921 185.68V185.281L136.868 184.828L137.081 184.721L137.267 184.748L137.24 184.934L137.293 185.254L137.506 185.494L137.718 185.6L137.904 185.84L138.037 185.92L138.169 185.947L138.116 185.787L138.037 185.68L137.93 185.361L137.745 184.961L137.532 184.748L137.426 184.348L137.32 184.268L137.267 184.108L137.479 183.922L137.771 183.789L138.143 183.762L139.232 183.815L139.471 183.709L139.657 183.735H139.789L139.497 183.629L139.338 183.655L139.152 183.629L138.754 183.655L138.594 183.602L138.408 183.549H138.302L137.93 183.762L137.771 183.735L137.399 183.495L137.24 183.469L136.974 183.602L136.948 184.188L137.028 184.615L136.868 184.668L136.682 184.481L136.39 184.375L136.151 184.215L135.833 183.922L135.647 183.815L135.461 184.028V183.922L135.567 183.629L135.54 183.149L135.833 183.549L135.753 183.282L135.514 182.989L135.328 182.883L135.116 182.35L134.611 182.03L134.213 181.497L133.389 180.618L133.336 179.845L133.044 178.859L133.177 178.3L133.15 177.9L133.018 177.314L132.858 176.994L132.194 176.089L131.557 175.476L131.451 175.023L131.398 174.57L131.53 174.17L131.663 173.744L131.743 173.637L131.769 173.691L131.743 173.771L131.823 173.797L131.849 173.611L131.902 173.504H131.796V173.451L131.849 173.318L132.035 172.731L132.008 172.012L132.221 171.133V170.84L132.088 170.2L131.955 169.827L131.716 169.561L131.823 169.161V168.788L131.398 168.229L131.238 167.509L131.212 167.216L131.265 166.417L131.159 166.07L130.867 165.511L130.999 165.005L131.132 164.712L131.451 163.379L131.53 163.273H131.663L131.902 163.06L131.796 163.006L131.637 163.113L131.769 162.58L131.929 162.127L132.035 161.967L132.088 160.475L132.168 159.33L132.327 158.957L132.274 158.557L132.327 158.024L132.274 157.491L132.593 154.907L132.54 154.587L132.646 154.161L132.54 153.042L132.593 151.789L132.513 151.63L132.46 151.443L132.54 151.416L132.699 151.603H133.389L133.841 151.443L134 151.496L134.186 151.736L134.425 151.789L134.717 151.736L134.637 151.683L134.584 151.576L134.266 151.363L134.08 151.15L133.522 151.177L133.416 151.043L132.805 151.177L132.619 151.043L132.301 151.123L132.38 150.724L132.354 150.217L132.38 149.738L132.46 150.084L132.672 150.457L132.779 150.031L132.858 149.498L132.646 149.285L132.301 149.125L132.168 148.619L132.964 148.193L132.54 148.113L132.38 147.926L132.168 147.899L132.141 148.059L132.088 148.246L132.008 147.979L131.982 147.66L131.902 147.127L131.584 146.274L131.398 145.155L131.159 144.596L130.681 144.063L130.548 143.743L130.442 142.97L130.495 142.384L130.415 141.958L130.654 141.985L131.265 142.304L132.008 142.571L132.221 142.757L132.593 142.89L134.584 143.104L134.717 143.077L134.983 142.944L135.089 142.97L135.381 143.263L135.54 143.29L135.726 143.263L135.859 143.21L136.098 142.997L136.125 143.077V143.263L136.204 143.53L136.39 143.876L136.47 144.089L136.125 144.702L136.045 144.729V144.516L135.992 144.462L135.328 145.528L135.089 146.034L135.062 146.248V146.381L135.169 146.407L135.381 146.354L135.7 146.141L135.726 146.088L135.434 146.168H135.301L135.328 145.928L135.355 145.821L135.54 145.475L135.753 145.262L136.045 145.049L136.204 144.862L136.311 144.596L136.629 144.276L136.682 144.196L136.656 143.93L136.682 143.876L136.842 143.903L136.895 144.356L136.868 144.569L136.603 144.809L136.576 144.889L136.629 145.235L136.576 145.262L136.47 145.235L136.443 145.262L136.709 145.635L136.789 145.928V146.194L136.709 146.674L136.629 146.754L136.496 146.727L136.311 146.567L136.284 146.621L136.151 146.994L136.098 146.967L136.018 146.514L135.965 146.487L135.7 146.7L135.594 146.887L135.514 147.207L135.408 147.34L135.753 147.367L136.045 147.313L136.284 147.473H136.364L136.576 147.34L136.656 147.233L136.842 146.754L136.921 146.674H137.054L137.187 146.594L137.373 146.327V146.221L137.293 145.635L137.32 145.315L137.293 145.208L137.213 145.102V144.995L137.293 144.809V144.649L137.24 144.516L137.267 144.356L137.452 144.009L137.479 143.85L137.691 143.503L137.638 143.37L137.479 143.21L137.373 143.05L137.267 142.81L137.187 142.731L137.16 142.757L137.267 143.13L137.24 143.157L136.948 142.944L136.868 142.81L136.842 142.624L136.868 142.491L137.028 142.358L137.213 142.304L137.187 142.198L136.948 141.851L136.789 141.691L136.656 141.612L136.496 141.585L136.417 141.532L136.39 141.452L136.417 141.345L136.496 141.318L136.735 141.372L136.868 141.292V141.159L136.815 141.079V140.572L136.709 140.146L136.656 140.066H136.603L136.55 140.119L136.39 140.146L136.284 140.013L136.178 139.746L135.992 139.107H136.284H137.532H138.78H140.028H141.276H142.525H143.773H145.021H146.269H147.517H148.765H150.013H151.261H152.51H153.758H155.006H156.254H157.502H158.75H159.998H161.246H162.494H163.743H164.991H166.239H167.487H168.735H169.983H171.231H172.479H173.728H174.976H176.224H177.472H178.72H179.968H181.216H182.464H183.712H184.961H186.209H187.457H188.705H189.953H191.201H192.449H193.697H194.946H196.539H197.787H199.035H200.283H201.531H202.779H204.028H205.276H206.524H207.772H209.02H210.268H211.516H212.764H214.013H215.261H216.509H217.199V138.148V137.402L217.837 137.482L218.022 137.615L218.076 137.668L218.049 137.881L218.102 138.521L218.208 139.054L218.474 139.667L218.5 139.906L218.58 140.066L218.739 140.199L219.35 140.359L220.412 140.572L221.023 140.812L221.156 141.079L221.448 141.185L221.873 141.132L222.165 141.025L222.51 140.945ZM136.098 140.706L136.125 140.812L136.018 140.919H135.939L135.806 140.759L135.753 140.732L135.806 140.972L135.779 141.052L135.514 140.919L135.461 140.786L135.54 140.679L135.726 140.546L135.779 140.519L136.098 140.706ZM135.434 141.478L135.514 141.612L135.195 141.505L135.062 141.425L135.036 141.345L134.983 141.079L135.009 140.999L135.142 140.972L135.408 141.292L135.434 141.478ZM135.992 141.771L135.939 141.825L135.779 141.771L135.7 141.665L135.673 141.532L135.726 141.292L135.806 141.239L135.859 141.265L135.886 141.478L136.018 141.691L135.992 141.771ZM136.709 142.997L136.842 143.583L136.895 143.343L137.293 143.77V143.983L137.24 144.063L137.16 144.089L137.081 144.036L137.001 143.903L136.921 143.823L136.735 143.77L136.629 143.61L136.603 143.503V143.183L136.55 143.077L136.443 143.05L136.337 142.97L136.178 142.731L136.151 142.677L136.231 142.491L136.39 142.171L136.496 142.011L136.576 142.038L136.656 142.144L136.762 142.304L136.735 142.411L136.284 142.651L136.257 142.704L136.47 142.757L136.55 142.81L136.709 142.997ZM235.496 144.009L235.47 144.089L235.576 144.116L235.549 144.143L235.443 144.196L235.124 144.329L234.912 144.382L234.806 144.329V144.249L234.885 144.116V144.063H234.779L234.806 144.009L234.938 143.903L236.08 143.237L236.558 142.997L236.824 142.917L236.877 142.944L236.585 143.183L236.532 143.29V143.37L236.426 143.503L235.576 143.956L235.496 144.009ZM136.948 145.448L136.921 145.528L136.762 145.422L136.709 145.342V145.128L136.762 144.995L136.789 144.969L136.895 145.022L136.921 145.049L136.948 145.448ZM137.24 146.327L137.213 146.434L137.107 146.514L137.054 146.487V146.381L137.028 146.354L136.895 146.487V146.221L136.948 145.928H137.001L137.081 146.114L137.24 146.327ZM237.647 147.127L237.594 147.26V147.34L237.249 147.713L237.116 147.953L237.01 147.979L236.93 147.819V147.686L237.01 147.58L237.089 147.446V147.26L237.063 147.18L236.957 147.34L237.01 147.367L237.036 147.393L237.01 147.446L236.611 147.367L236.479 147.233L236.505 147.047L236.638 146.807L237.143 146.301L237.355 146.168L237.966 145.954L238.311 145.901H238.656L238.895 145.981L239.055 146.114L238.922 146.248L238.258 146.327L238.231 146.354L238.364 146.434L238.391 146.487L238.285 146.647L237.647 147.127ZM135.886 147.153L135.859 147.233H135.806L135.726 147.047V146.914L135.806 146.834L135.912 147.1L135.886 147.153ZM231.168 147.926L231.061 148.006L231.035 147.979L231.061 147.846L231.114 147.766L231.194 147.74L231.221 147.766V147.846L231.168 147.926ZM230.344 148.352L230.291 148.379L230.185 148.299L230.158 148.246L230.185 148.193L230.238 148.219L230.318 148.299L230.344 148.352ZM230.822 148.379L230.716 148.406L230.504 148.379V148.326L230.716 148.246L230.822 148.219L230.849 148.246L230.822 148.379ZM230.344 148.965L230.185 149.018H230.105L230.132 148.939L230.212 148.832L230.61 148.592H230.69L230.716 148.645L230.53 148.752L230.451 148.805V148.859L230.344 148.965ZM249.677 150.75V150.83L249.597 150.804L249.518 150.75L249.464 150.644L249.385 150.377L249.279 150.191L249.464 149.978L249.571 149.951L249.677 150.004L249.703 150.137L249.624 150.324V150.511L249.677 150.75ZM249.703 151.257L249.65 151.283L249.491 151.123L249.464 151.017L249.491 150.937H249.544L249.624 151.017L249.677 151.097V151.203L249.703 151.257ZM251.536 152.242L251.562 152.349L251.483 152.482L251.27 152.562H250.845L250.58 152.509L250.447 152.402L250.42 152.349V152.242H250.474L250.553 152.296L250.686 152.269L250.872 152.162L250.978 152.083V152.029L250.925 151.923L250.978 151.869L251.191 151.923L251.27 152.003L251.43 152.242H251.536ZM248.429 153.068L248.801 153.122L248.827 153.095L248.933 153.202L248.96 153.308L248.907 153.388L248.854 153.441H248.774L248.641 153.361L248.429 153.148V153.068ZM245.508 153.974L245.401 154.001L245.322 153.948V153.761L245.428 153.415L245.534 153.255L245.667 153.308L245.64 153.361L245.667 153.734L245.614 153.894L245.508 153.974ZM241.657 155.013L241.577 155.067L241.418 155.04L241.365 154.933L241.445 154.694L241.471 154.747H241.604L241.657 154.774L241.684 154.827L241.657 155.013ZM241.285 155.493L241.232 155.546L241.153 155.52L241.126 155.599L241.153 155.786L241.126 155.866L241.046 155.839V155.866L241.126 155.946V156.052L241.073 156.159L241.02 156.212H240.967L240.887 156.319L240.781 156.559L240.754 156.692L240.781 156.719L240.754 156.798L240.489 157.171L240.382 157.198L240.276 157.145L240.197 157.038L240.09 156.905L240.064 156.772L240.09 156.692L240.329 156.372L240.436 156.159L240.489 155.919L240.595 155.759L240.754 155.706L240.887 155.573L240.993 155.333L241.099 155.226L241.232 155.253L241.285 155.333V155.493ZM244.26 156.079L244.233 156.132H244.153L244.1 156.079L244.047 155.893L244.074 155.866L244.233 155.893L244.286 155.972L244.26 156.079ZM296.521 159.25L296.362 159.33L296.176 159.303V159.516L296.149 159.596L295.937 159.489L295.857 159.41V159.116L296.043 158.85L296.176 158.743L296.362 158.823L296.495 159.116L296.521 159.25ZM273.258 159.489L273.179 159.516L273.152 159.463L273.179 159.41L273.258 159.356H273.391L273.365 159.41L273.258 159.489ZM295.247 159.809L295.14 159.889L295.034 159.862V159.649L295.061 159.569L295.114 159.543L295.167 159.596L295.247 159.809ZM272.807 160.662H272.754V160.582L272.807 160.529L272.887 160.502V160.555L272.807 160.662ZM264.973 164.578L264.893 164.712L264.814 164.685L264.761 164.632L264.734 164.552L264.761 164.445L264.84 164.392L265.053 164.445V164.499L264.973 164.578ZM287.545 170.653L287.413 170.76L287.253 170.733L287.333 170.6L287.359 170.387L287.439 170.147L287.492 170.067L287.598 170.014L287.545 170.653ZM287.2 170.68L287.12 170.76L287.094 170.573L287.147 170.36H287.2L287.227 170.467L287.2 170.68ZM289.696 171.106L288.9 171.293L288.767 171.159L288.979 171.106L289.245 170.813L289.404 170.786L289.67 170.946L289.696 171.106ZM291.263 171.532L291.024 171.586L290.493 171.453L290.918 171.319L290.998 171.266L291.051 171.08V171L291.21 171.399L291.263 171.532ZM283.828 172.625L283.615 172.865L283.801 172.891L283.96 172.811L284.12 172.651L284.465 172.438L284.757 172.358L284.863 172.332L284.996 172.465L285.288 172.358L285.58 172.305L284.306 172.945L284.04 173.024L283.668 173.211L283.323 173.344L283.057 173.398L281.783 173.877H281.677L281.57 173.824L280.535 174.064L280.11 174.09L279.711 174.17L280.004 173.984V173.904L279.924 173.85L279.765 173.877L279.605 174.09L279.34 174.17L279.287 173.957L279.366 173.797L279.472 173.637L279.711 173.371L280.083 173.211L280.269 173.078L280.402 173.211L280.428 173.051L280.535 172.945L280.641 172.891H280.906L281.039 172.865L281.145 172.811H281.252L281.517 172.891L281.783 172.865L281.995 172.758L282.234 172.731L282.845 172.705L283.456 172.625L283.695 172.492L284.199 172.119L284.491 172.012L284.04 172.465L283.828 172.625ZM278.888 174.41L278.755 174.437L278.888 174.064L279.154 173.904L279.26 173.93V174.064L279.233 174.17L279.048 174.357L278.888 174.41ZM279.048 177.66L278.702 178.247V178.14L279.127 177.421L279.048 177.66ZM275.542 184.401L275.409 184.455L275.861 183.709L276.126 183.069L276.233 182.856L276.126 183.282L275.941 183.682L275.542 184.401ZM274.639 191.862L274.586 191.942L274.4 191.542L274.613 191.675L274.639 191.782V191.862ZM274.905 194.073L274.507 194.18L274.48 194.153L274.931 193.94L275.064 193.22L275.091 192.874L275.011 192.288V192.155L275.091 192.341L275.144 192.901L275.117 193.327L274.984 193.94L274.905 194.073ZM274.214 194.26L273.683 194.526L273.63 194.499L273.975 194.313L274.214 194.26ZM272.09 196.231L272.01 196.284L272.276 195.832L272.807 195.272L272.94 195.192L272.488 195.672L272.09 196.231ZM271.957 196.178H271.904L271.798 196.151L271.638 196.071L271.612 196.018L271.771 196.045L271.957 196.178ZM144.622 198.229L145.233 198.416L145.552 198.336L145.605 198.416L145.578 198.496L144.861 198.629L144.649 198.523L144.622 198.389L144.543 198.256L144.622 198.229ZM143.374 198.416H143.215L142.976 198.389L143.056 198.309L143.188 198.256L143.242 198.309L143.374 198.416ZM144.144 198.789L143.932 198.842L143.773 198.789L143.534 198.443L144.065 198.389L144.304 198.549L144.33 198.602L144.144 198.789ZM149.137 200.681L149.296 200.947L149.084 200.921L148.871 200.947L148.792 200.814L148.739 200.627L148.685 200.574L148.526 200.547V200.521L148.5 200.414L148.553 200.361L149.031 200.574L149.137 200.681ZM145.924 201.267H145.791L145.605 201.24L145.525 201.054H145.685L145.817 201.08L145.924 201.24V201.267ZM149.137 202.626L148.978 202.652L148.792 202.572L148.632 202.226L148.446 201.96L148.553 201.88L148.685 202.146L149.057 202.546L149.137 202.626ZM257.644 209.047L257.511 209.873L257.458 209.58V209.287L257.564 209.127L257.644 209.047ZM238.099 211.498L237.833 211.578H237.461L237.382 211.551L237.541 211.498L237.992 211.445L238.099 211.498ZM236.665 211.631L236.638 211.658L236.372 211.578L236.213 211.525L236.187 211.471L236.611 211.578L236.665 211.631ZM234.726 212.058V212.217L234.593 212.137H234.381L234.487 212.084L234.54 212.031L234.567 211.978L234.832 211.791L234.753 211.924L234.726 212.058ZM235.868 212.99L235.788 213.097L235.868 212.59L235.762 212.164L235.894 212.351L235.921 212.59L235.868 212.99ZM235.709 213.336L235.549 213.523V213.443L235.655 213.257L235.735 213.177L235.709 213.336ZM247.393 213.55L247.101 213.683L246.782 213.603L246.968 213.576L247.101 213.603L247.473 213.416L247.659 213.283L247.871 213.23L247.393 213.55ZM227.158 214.029L227.051 214.083L226.573 213.789L226.547 213.656L226.786 213.55H226.945L227.184 213.71L227.264 213.763L227.29 213.816L227.264 213.923L227.158 214.029ZM217.624 215.228L217.465 215.255L218.102 214.749L218.235 214.589H218.394L218.102 214.882L217.624 215.228ZM212.552 218.559L212.446 218.585L212.579 218.399L212.791 218.319L213.269 217.972L213.455 217.946L213.561 217.839L213.614 217.813L213.588 217.946L213.216 218.159L212.552 218.559ZM211.808 219.385H211.755L211.888 219.118L211.915 219.012L212.154 218.665L212.286 218.612L212.34 218.772L212.101 219.012L211.808 219.385ZM261.282 221.463L261.335 221.703L261.069 221.143L260.724 220.264L260.538 219.571L260.671 219.758L260.777 220.131L261.282 221.463ZM210.826 221.383L210.746 221.569L210.773 221.276L211.012 220.637L211.49 219.784L211.702 219.651L211.145 220.584L210.826 221.383ZM211.357 225.113L211.304 225.273L211.065 224.553L210.667 222.955L210.64 222.022L210.693 221.703L210.799 223.008L211.224 224.66L211.357 225.113ZM255.705 223.834V224.021L255.546 223.701L255.439 223.355L255.572 223.461L255.705 223.834ZM255.838 224.154L255.732 224.234L255.519 224.18L255.413 224.074L255.36 223.861L255.546 224.101L255.599 224.154H255.838ZM260.698 228.443L260.113 229.056L260.166 228.896L260.405 228.577L260.485 228.417L260.644 228.31L260.777 228.124V227.911L260.99 227.777L261.069 227.751L260.698 228.443ZM259.954 229.216L259.874 229.243L259.981 229.11H260.007L259.954 229.216ZM259.37 229.536H259.317L259.343 229.483L259.449 229.403L259.503 229.429V229.483L259.37 229.536ZM258.759 229.802L258.626 229.882L258.493 229.829L258.653 229.749L259.104 229.669L258.945 229.776L258.759 229.802ZM257.909 230.015L257.829 230.069L257.776 230.042V229.936L257.644 229.722V229.669L257.936 229.882V229.936L257.909 230.015ZM257.219 230.175L257.033 230.202L257.192 230.069L257.245 229.882L257.325 230.042V230.122L257.219 230.175ZM256.581 230.362H256.502V230.309L256.634 230.255H256.714V230.335L256.581 230.362ZM28.574 238.701L28.3084 238.888L28.1491 238.808L27.857 238.781L27.7507 238.648L27.4586 238.515L27.3258 238.355L27.5117 238.035L27.9366 237.769H28.6005L28.7333 237.982V238.142L28.6536 238.328L28.6271 238.568L28.574 238.701ZM26.2105 238.994L26.1574 239.128L26.0512 239.101L26.0246 238.968L26.0777 238.808L26.2371 238.648L26.4229 238.435L26.5823 238.462L26.5026 238.621V238.781L26.2902 238.861L26.2105 238.994ZM33.1947 240.193L33.3009 240.22L33.4337 240.193L33.4868 240.433L33.6461 240.566L33.6992 240.646L33.5399 240.726L33.2212 240.753L33.0619 240.673L32.9025 240.513L32.7432 240.566L32.7167 240.433L32.6901 240.407L32.5839 240.433L32.6901 240.593H32.398L32.3183 240.566L32.2386 240.38L31.9465 240.033V239.9L31.8403 239.74L32.2918 239.687L32.5839 239.394L32.7432 239.367L33.0619 239.847V239.98L33.1415 240.113C33.115 240.14 33.1947 240.193 33.1947 240.193ZM34.9208 240.966L35.5316 241.046L35.6909 241.019L35.7971 241.099L36.3017 241.153L36.3813 241.179L36.2751 241.339L35.9564 241.499L35.4784 241.366L34.6818 241.312L34.7083 241.179L34.788 241.099V240.939L34.9208 240.966ZM37.0452 241.845L37.1249 241.899L37.4436 241.819L37.6826 241.792L38.0543 242.005L38.1871 242.138L38.4261 242.298L38.5058 242.405L38.4261 242.538L38.1606 242.751L37.7888 242.804L37.5763 242.911L37.2842 242.884L37.2046 242.831L37.178 242.565L37.0983 242.272L36.9125 242.298L36.7 242.192L36.4876 241.952L36.461 241.792L36.5938 241.552L36.8062 241.526L36.9656 241.659L37.0452 241.845ZM35.983 242.352L35.7971 242.431L35.6112 242.378L35.5581 242.165L35.3722 241.899L35.6909 241.845L35.8768 241.925L35.983 242.005L36.0892 242.138C36.1158 242.165 35.983 242.352 35.983 242.352ZM39.7274 247.84L39.5946 248H39.4352L38.851 247.68L38.7714 247.494L38.8245 246.694L38.612 246.055L38.373 245.549L38.5589 245.282L38.7979 245.096L39.0635 244.723L38.851 244.243L38.9041 243.95L39.0369 243.897L39.6477 244.243L40.8958 244.776L41.2145 245.149L41.2676 245.549L41.5066 245.602L41.6128 245.868L41.9315 246.108L42.0377 246.242L41.9049 246.455L41.3207 246.881L40.5771 247.067L39.8601 247.547L39.7274 247.84Z" fill="#EF0000"/>
</svg>
